<svg width="23" height="21" viewBox="0 0 23 21" fill="none" xmlns="http://www.w3.org/2000/svg">
<path d="M14.5 16.338L9.449 1.18403C9.31412 0.773652 8.93097 0.496277 8.499 0.496277C8.06703 0.496277 7.68388 0.773652 7.549 1.18403L4.779 9.50003H1.5C0.947715 9.50003 0.5 9.94774 0.5 10.5C0.5 11.0523 0.947715 11.5 1.5 11.5H5.5C5.93061 11.5001 6.31293 11.2246 6.449 10.816L8.5 4.66203L13.551 19.816C13.6859 20.2264 14.069 20.5038 14.501 20.5038C14.933 20.5038 15.3161 20.2264 15.451 19.816L18.221 11.5H21.5C22.0523 11.5 22.5 11.0523 22.5 10.5C22.5 9.94774 22.0523 9.50003 21.5 9.50003H17.5C17.0694 9.49992 16.6871 9.77548 16.551 10.184L14.5 16.338Z" fill="#333333"/>
<mask id="mask0_0_13685" style="mask-type:alpha" maskUnits="userSpaceOnUse" x="0" y="0" width="23" height="21">
<path fill-rule="evenodd" clip-rule="evenodd" d="M14.5 16.338L9.449 1.18403C9.31412 0.773652 8.93097 0.496277 8.499 0.496277C8.06703 0.496277 7.68388 0.773652 7.549 1.18403L4.779 9.50003H1.5C0.947715 9.50003 0.5 9.94774 0.5 10.5C0.5 11.0523 0.947715 11.5 1.5 11.5H5.5C5.93061 11.5001 6.31293 11.2246 6.449 10.816L8.5 4.66203L13.551 19.816C13.6859 20.2264 14.069 20.5038 14.501 20.5038C14.933 20.5038 15.3161 20.2264 15.451 19.816L18.221 11.5H21.5C22.0523 11.5 22.5 11.0523 22.5 10.5C22.5 9.94774 22.0523 9.50003 21.5 9.50003H17.5C17.0694 9.49992 16.6871 9.77548 16.551 10.184L14.5 16.338Z" fill="white"/>
</mask>
<g mask="url(#mask0_0_13685)">
<rect x="-0.5" y="-1.5" width="24" height="24" fill="#333333"/>
</g>
</svg>
