<svg width="23" height="21" viewBox="0 0 23 21" fill="none" xmlns="http://www.w3.org/2000/svg">
<path fill-rule="evenodd" clip-rule="evenodd" d="M18.5 16.5H19.5C21.1569 16.5 22.5 15.1569 22.5 13.5V3.5C22.5 1.84315 21.1569 0.5 19.5 0.5H3.5C1.84315 0.5 0.5 1.84315 0.5 3.5V13.5C0.5 15.1569 1.84315 16.5 3.5 16.5H4.5C5.05228 16.5 5.5 16.0523 5.5 15.5C5.5 14.9477 5.05228 14.5 4.5 14.5H3.5C2.94772 14.5 2.5 14.0523 2.5 13.5V3.5C2.5 2.94772 2.94772 2.5 3.5 2.5H19.5C20.0523 2.5 20.5 2.94772 20.5 3.5V13.5C20.5 14.0523 20.0523 14.5 19.5 14.5H18.5C17.9477 14.5 17.5 14.9477 17.5 15.5C17.5 16.0523 17.9477 16.5 18.5 16.5ZM6.5 20.5C6.11191 20.5002 5.75873 20.2759 5.59397 19.9245C5.42921 19.5732 5.48262 19.1582 5.731 18.86L10.731 12.86C10.921 12.6322 11.2023 12.5005 11.499 12.5005C11.7957 12.5005 12.077 12.6322 12.267 12.86L17.267 18.86C17.5151 19.1579 17.5687 19.5724 17.4045 19.9236C17.2402 20.2749 16.8877 20.4995 16.5 20.5H6.5ZM11.5 15.062L8.635 18.5H14.365L11.5 15.062Z" fill="#333333"/>
<mask id="mask0_0_14742" style="mask-type:alpha" maskUnits="userSpaceOnUse" x="0" y="0" width="23" height="21">
<path fill-rule="evenodd" clip-rule="evenodd" d="M16.5 20.5H6.5C6.11191 20.5002 5.75873 20.2759 5.59397 19.9245C5.42921 19.5732 5.48262 19.1582 5.731 18.86L10.731 12.86C10.921 12.6322 11.2023 12.5005 11.499 12.5005C11.7957 12.5005 12.077 12.6322 12.267 12.86L17.267 18.86C17.5151 19.1579 17.5687 19.5724 17.4045 19.9236C17.2402 20.2749 16.8877 20.4995 16.5 20.5ZM11.5 15.062L8.635 18.5H14.365L11.5 15.062ZM19.5 16.5H18.5C17.9477 16.5 17.5 16.0523 17.5 15.5C17.5 14.9477 17.9477 14.5 18.5 14.5H19.5C20.0523 14.5 20.5 14.0523 20.5 13.5V3.5C20.5 2.94772 20.0523 2.5 19.5 2.5H3.5C2.94772 2.5 2.5 2.94772 2.5 3.5V13.5C2.5 14.0523 2.94772 14.5 3.5 14.5H4.5C5.05228 14.5 5.5 14.9477 5.5 15.5C5.5 16.0523 5.05228 16.5 4.5 16.5H3.5C1.84315 16.5 0.5 15.1569 0.5 13.5V3.5C0.5 1.84315 1.84315 0.5 3.5 0.5H19.5C21.1569 0.5 22.5 1.84315 22.5 3.5V13.5C22.5 15.1569 21.1569 16.5 19.5 16.5Z" fill="white"/>
</mask>
<g mask="url(#mask0_0_14742)">
<rect x="-0.5" y="-1.5" width="24" height="24" fill="#333333"/>
</g>
</svg>
