<svg width="23" height="23" viewBox="0 0 23 23" fill="none" xmlns="http://www.w3.org/2000/svg">
<path fill-rule="evenodd" clip-rule="evenodd" d="M0.816497 8.62462C-0.196668 12.4399 0.912198 16.5055 3.72213 19.278C6.49465 22.0879 10.5603 23.1968 14.3755 22.1836C18.1908 21.1705 21.1706 18.1906 22.1838 14.3754C23.1969 10.5601 22.0881 6.49453 19.2781 3.72201C16.5056 0.912076 12.44 -0.19679 8.62474 0.816375C4.80949 1.82954 1.82966 4.80937 0.816497 8.62462ZM11.5001 20.5C6.52957 20.5 2.50013 16.4706 2.50013 11.5C2.50564 6.53173 6.53185 2.50552 11.5001 2.50001C16.4707 2.50001 20.5001 6.52944 20.5001 11.5C20.5001 16.4706 16.4707 20.5 11.5001 20.5ZM10.7941 15.207C10.4568 14.8695 10.4048 14.3407 10.6701 13.9441C10.9354 13.5474 11.4439 13.3935 11.8847 13.5764C12.3254 13.7593 12.5755 14.2281 12.4819 14.696C12.3884 15.1639 11.9773 15.5006 11.5001 15.5C11.2349 15.4999 10.9806 15.3946 10.7931 15.207H10.7941ZM10.5001 7.50001V11.5C10.5001 12.0523 10.9478 12.5 11.5001 12.5C12.0524 12.5 12.5001 12.0523 12.5001 11.5V7.50001C12.5001 6.94772 12.0524 6.50001 11.5001 6.50001C10.9478 6.50001 10.5001 6.94772 10.5001 7.50001Z" fill="#333333"/>
<mask id="mask0_0_13443" style="mask-type:alpha" maskUnits="userSpaceOnUse" x="0" y="0" width="23" height="23">
<path fill-rule="evenodd" clip-rule="evenodd" d="M3.72213 19.278C0.912198 16.5055 -0.196668 12.4399 0.816497 8.62462C1.82966 4.80937 4.80949 1.82954 8.62474 0.816375C12.44 -0.19679 16.5056 0.912076 19.2781 3.72201C22.0881 6.49453 23.1969 10.5601 22.1838 14.3754C21.1706 18.1906 18.1908 21.1705 14.3755 22.1836C10.5603 23.1968 6.49465 22.0879 3.72213 19.278V19.278ZM2.50013 11.5C2.50013 16.4706 6.52957 20.5 11.5001 20.5C16.4707 20.5 20.5001 16.4706 20.5001 11.5C20.5001 6.52944 16.4707 2.50001 11.5001 2.50001C6.53185 2.50552 2.50564 6.53173 2.50013 11.5ZM10.7941 15.207C10.4568 14.8695 10.4048 14.3407 10.6701 13.9441C10.9354 13.5474 11.4439 13.3935 11.8847 13.5764C12.3254 13.7593 12.5755 14.2281 12.4819 14.696C12.3884 15.1639 11.9773 15.5006 11.5001 15.5C11.2349 15.4999 10.9806 15.3946 10.7931 15.207H10.7941ZM10.5001 11.5V7.50001C10.5001 6.94772 10.9478 6.50001 11.5001 6.50001C12.0524 6.50001 12.5001 6.94772 12.5001 7.50001V11.5C12.5001 12.0523 12.0524 12.5 11.5001 12.5C10.9478 12.5 10.5001 12.0523 10.5001 11.5Z" fill="white"/>
</mask>
<g mask="url(#mask0_0_13443)">
<rect x="-0.499756" y="-0.5" width="24" height="24" fill="#333333"/>
</g>
</svg>
