<svg width="23" height="23" viewBox="0 0 23 23" fill="none" xmlns="http://www.w3.org/2000/svg">
<path fill-rule="evenodd" clip-rule="evenodd" d="M6.653 22.207C6.84086 22.394 7.09494 22.4993 7.36 22.5H15.64C15.9051 22.4993 16.1591 22.394 16.347 22.207L22.207 16.347C22.394 16.1591 22.4993 15.9051 22.5 15.64V7.36C22.499 7.09528 22.3938 6.84162 22.207 6.654L16.347 0.793C16.1591 0.606006 15.9051 0.500711 15.64 0.5H7.36C7.09494 0.500711 6.84086 0.606006 6.653 0.793L0.793 6.653C0.606006 6.84086 0.500711 7.09494 0.5 7.36V15.64C0.500711 15.9051 0.606006 16.1591 0.793 16.347L6.653 22.207ZM2.5 15.226V7.774L7.774 2.5H15.226L20.5 7.774V15.226L15.226 20.5H7.774L2.5 15.226ZM10.794 15.207C10.4566 14.8695 10.4047 14.3407 10.67 13.9441C10.9352 13.5474 11.4438 13.3935 11.8845 13.5764C12.3253 13.7593 12.5754 14.2281 12.4818 14.696C12.3883 15.1639 11.9772 15.5006 11.5 15.5C11.2348 15.4999 10.9805 15.3945 10.793 15.207H10.794ZM10.5 7.5V11.5C10.5 12.0523 10.9477 12.5 11.5 12.5C12.0523 12.5 12.5 12.0523 12.5 11.5V7.5C12.5 6.94772 12.0523 6.5 11.5 6.5C10.9477 6.5 10.5 6.94772 10.5 7.5Z" fill="#333333"/>
<mask id="mask0_0_12785" style="mask-type:alpha" maskUnits="userSpaceOnUse" x="0" y="0" width="23" height="23">
<path fill-rule="evenodd" clip-rule="evenodd" d="M7.36 22.5C7.09494 22.4993 6.84086 22.394 6.653 22.207L0.793 16.347C0.606006 16.1591 0.500711 15.9051 0.5 15.64V7.36C0.500711 7.09494 0.606006 6.84086 0.793 6.653L6.653 0.793C6.84086 0.606006 7.09494 0.500711 7.36 0.5H15.64C15.9051 0.500711 16.1591 0.606006 16.347 0.793L22.207 6.654C22.3938 6.84162 22.499 7.09528 22.5 7.36V15.64C22.4993 15.9051 22.394 16.1591 22.207 16.347L16.347 22.207C16.1591 22.394 15.9051 22.4993 15.64 22.5H7.36ZM2.5 7.774V15.226L7.774 20.5H15.226L20.5 15.226V7.774L15.226 2.5H7.774L2.5 7.774ZM10.794 15.207C10.4566 14.8695 10.4047 14.3407 10.67 13.9441C10.9352 13.5474 11.4438 13.3935 11.8845 13.5764C12.3253 13.7593 12.5754 14.2281 12.4818 14.696C12.3883 15.1639 11.9772 15.5006 11.5 15.5C11.2348 15.4999 10.9805 15.3945 10.793 15.207H10.794ZM10.5 11.5V7.5C10.5 6.94772 10.9477 6.5 11.5 6.5C12.0523 6.5 12.5 6.94772 12.5 7.5V11.5C12.5 12.0523 12.0523 12.5 11.5 12.5C10.9477 12.5 10.5 12.0523 10.5 11.5Z" fill="white"/>
</mask>
<g mask="url(#mask0_0_12785)">
<rect x="-0.5" y="-0.5" width="24" height="24" fill="#333333"/>
</g>
</svg>
