<svg width="24" height="21" viewBox="0 0 24 21" fill="none" xmlns="http://www.w3.org/2000/svg">
<path fill-rule="evenodd" clip-rule="evenodd" d="M0.891463 19.0791C1.41784 20.0081 2.39833 20.5873 3.46602 20.6H20.417C21.4849 20.5921 22.4681 20.0172 22.9986 19.0905C23.5291 18.1637 23.527 17.0248 22.993 16.1L14.515 1.94898C13.9717 1.05005 12.9979 0.500732 11.9475 0.500732C10.8972 0.500732 9.92331 1.05005 9.38002 1.94898L0.910016 16.089C0.372146 17.0114 0.36508 18.1501 0.891463 19.0791ZM2.63302 17.1L11.093 2.97998C11.2735 2.68092 11.5977 2.49865 11.947 2.49998C12.2954 2.50215 12.6179 2.68402 12.8 2.98098L21.269 17.119C21.4407 17.4239 21.4388 17.7968 21.264 18.1C21.0868 18.4069 20.7604 18.5971 20.406 18.6H3.47702C3.12369 18.5922 2.80069 18.3986 2.62739 18.0906C2.45409 17.7826 2.45623 17.406 2.63302 17.1ZM11.24 15.31C10.9027 14.9726 10.8507 14.4439 11.1159 14.0473C11.381 13.6506 11.8893 13.4965 12.3301 13.6792C12.7708 13.8618 13.0211 14.3304 12.928 14.7983C12.8348 15.2662 12.4241 15.6031 11.947 15.603C11.6818 15.6029 11.4275 15.4975 11.24 15.31ZM10.947 7.59998V11.6C10.947 12.1523 11.3947 12.6 11.947 12.6C12.4993 12.6 12.947 12.1523 12.947 11.6V7.59998C12.947 7.04769 12.4993 6.59998 11.947 6.59998C11.3947 6.59998 10.947 7.04769 10.947 7.59998Z" fill="#333333"/>
<mask id="mask0_0_14407" style="mask-type:alpha" maskUnits="userSpaceOnUse" x="0" y="0" width="24" height="21">
<path fill-rule="evenodd" clip-rule="evenodd" d="M3.46602 20.6C2.39833 20.5873 1.41784 20.0081 0.891463 19.0791C0.36508 18.1501 0.372146 17.0114 0.910016 16.089L9.38002 1.94898C9.92331 1.05005 10.8972 0.500732 11.9475 0.500732C12.9979 0.500732 13.9717 1.05005 14.515 1.94898L22.993 16.1C23.527 17.0248 23.5291 18.1637 22.9986 19.0905C22.468 20.0172 21.4849 20.5921 20.417 20.6H3.46602ZM11.093 2.97998L2.63302 17.1C2.45623 17.406 2.45409 17.7826 2.62739 18.0906C2.80069 18.3986 3.12369 18.5922 3.47702 18.6H20.406C20.7604 18.5971 21.0868 18.4069 21.264 18.1C21.4388 17.7968 21.4407 17.4239 21.269 17.119L12.8 2.98098C12.6179 2.68402 12.2954 2.50215 11.947 2.49998C11.5977 2.49865 11.2735 2.68092 11.093 2.97998ZM11.24 15.31C10.9027 14.9726 10.8507 14.4439 11.1159 14.0473C11.381 13.6506 11.8893 13.4965 12.3301 13.6792C12.7708 13.8618 13.0211 14.3304 12.928 14.7983C12.8348 15.2662 12.4241 15.6031 11.947 15.603C11.6818 15.6029 11.4275 15.4975 11.24 15.31ZM10.947 11.6V7.59998C10.947 7.04769 11.3947 6.59998 11.947 6.59998C12.4993 6.59998 12.947 7.04769 12.947 7.59998V11.6C12.947 12.1523 12.4993 12.6 11.947 12.6C11.3947 12.6 10.947 12.1523 10.947 11.6Z" fill="white"/>
</mask>
<g mask="url(#mask0_0_14407)">
<rect x="-0.5" y="-1.5" width="24" height="24" fill="#333333"/>
</g>
</svg>
