<svg width="21" height="15" viewBox="0 0 21 15" fill="none" xmlns="http://www.w3.org/2000/svg">
<path fill-rule="evenodd" clip-rule="evenodd" d="M0.5 1.5C0.5 2.05228 0.947715 2.5 1.5 2.5H19.5C20.0523 2.5 20.5 2.05228 20.5 1.5C20.5 0.947715 20.0523 0.5 19.5 0.5H1.5C0.947715 0.5 0.5 0.947715 0.5 1.5ZM4.5 6.5C3.94772 6.5 3.5 6.05228 3.5 5.5C3.5 4.94772 3.94772 4.5 4.5 4.5H16.5C17.0523 4.5 17.5 4.94772 17.5 5.5C17.5 6.05228 17.0523 6.5 16.5 6.5H4.5ZM0.5 9.5C0.5 10.0523 0.947715 10.5 1.5 10.5H19.5C20.0523 10.5 20.5 10.0523 20.5 9.5C20.5 8.94771 20.0523 8.5 19.5 8.5H1.5C0.947715 8.5 0.5 8.94771 0.5 9.5ZM3.5 13.5C3.5 14.0523 3.94772 14.5 4.5 14.5H16.5C17.0523 14.5 17.5 14.0523 17.5 13.5C17.5 12.9477 17.0523 12.5 16.5 12.5H4.5C3.94772 12.5 3.5 12.9477 3.5 13.5Z" fill="#333333"/>
<mask id="mask0_0_13332" style="mask-type:alpha" maskUnits="userSpaceOnUse" x="0" y="0" width="21" height="15">
<path fill-rule="evenodd" clip-rule="evenodd" d="M4.5 14.5C3.94772 14.5 3.5 14.0523 3.5 13.5C3.5 12.9477 3.94772 12.5 4.5 12.5H16.5C17.0523 12.5 17.5 12.9477 17.5 13.5C17.5 14.0523 17.0523 14.5 16.5 14.5H4.5ZM1.5 10.5C0.947715 10.5 0.5 10.0523 0.5 9.5C0.5 8.94772 0.947715 8.5 1.5 8.5H19.5C20.0523 8.5 20.5 8.94772 20.5 9.5C20.5 10.0523 20.0523 10.5 19.5 10.5H1.5ZM4.5 6.5C3.94772 6.5 3.5 6.05228 3.5 5.5C3.5 4.94772 3.94772 4.5 4.5 4.5H16.5C17.0523 4.5 17.5 4.94772 17.5 5.5C17.5 6.05228 17.0523 6.5 16.5 6.5H4.5ZM1.5 2.5C0.947715 2.5 0.5 2.05228 0.5 1.5C0.5 0.947715 0.947715 0.5 1.5 0.5H19.5C20.0523 0.5 20.5 0.947715 20.5 1.5C20.5 2.05228 20.0523 2.5 19.5 2.5H1.5Z" fill="white"/>
</mask>
<g mask="url(#mask0_0_13332)">
<rect x="-1.5" y="-4.5" width="24" height="24" fill="#333333"/>
</g>
</svg>
