<svg width="21" height="15" viewBox="0 0 21 15" fill="none" xmlns="http://www.w3.org/2000/svg">
<path fill-rule="evenodd" clip-rule="evenodd" d="M0.5 1.5C0.5 2.05228 0.947715 2.5 1.5 2.5H19.5C20.0523 2.5 20.5 2.05228 20.5 1.5C20.5 0.947715 20.0523 0.5 19.5 0.5H1.5C0.947715 0.5 0.5 0.947715 0.5 1.5ZM1.5 6.5C0.947715 6.5 0.5 6.05228 0.5 5.5C0.5 4.94772 0.947715 4.5 1.5 4.5H19.5C20.0523 4.5 20.5 4.94772 20.5 5.5C20.5 6.05228 20.0523 6.5 19.5 6.5H1.5ZM0.5 9.5C0.5 10.0523 0.947715 10.5 1.5 10.5H19.5C20.0523 10.5 20.5 10.0523 20.5 9.5C20.5 8.94771 20.0523 8.5 19.5 8.5H1.5C0.947715 8.5 0.5 8.94771 0.5 9.5ZM0.5 13.5C0.5 14.0523 0.947715 14.5 1.5 14.5H19.5C20.0523 14.5 20.5 14.0523 20.5 13.5C20.5 12.9477 20.0523 12.5 19.5 12.5H1.5C0.947715 12.5 0.5 12.9477 0.5 13.5Z" fill="#333333"/>
<mask id="mask0_0_12126" style="mask-type:alpha" maskUnits="userSpaceOnUse" x="0" y="0" width="21" height="15">
<path fill-rule="evenodd" clip-rule="evenodd" d="M1.5 14.5C0.947715 14.5 0.5 14.0523 0.5 13.5C0.5 12.9477 0.947715 12.5 1.5 12.5H19.5C20.0523 12.5 20.5 12.9477 20.5 13.5C20.5 14.0523 20.0523 14.5 19.5 14.5H1.5ZM1.5 10.5C0.947715 10.5 0.5 10.0523 0.5 9.5C0.5 8.94772 0.947715 8.5 1.5 8.5H19.5C20.0523 8.5 20.5 8.94772 20.5 9.5C20.5 10.0523 20.0523 10.5 19.5 10.5H1.5ZM1.5 6.5C0.947715 6.5 0.5 6.05228 0.5 5.5C0.5 4.94772 0.947715 4.5 1.5 4.5H19.5C20.0523 4.5 20.5 4.94772 20.5 5.5C20.5 6.05228 20.0523 6.5 19.5 6.5H1.5ZM1.5 2.5C0.947715 2.5 0.5 2.05228 0.5 1.5C0.5 0.947715 0.947715 0.5 1.5 0.5H19.5C20.0523 0.5 20.5 0.947715 20.5 1.5C20.5 2.05228 20.0523 2.5 19.5 2.5H1.5Z" fill="white"/>
</mask>
<g mask="url(#mask0_0_12126)">
<rect x="-1.5" y="-4.5" width="24" height="24" fill="#333333"/>
</g>
</svg>
