<svg width="23" height="23" viewBox="0 0 23 23" fill="none" xmlns="http://www.w3.org/2000/svg">
<path fill-rule="evenodd" clip-rule="evenodd" d="M0.5 11.5C0.5 17.5752 5.42487 22.5 11.5 22.5C17.5751 22.5 22.5 17.5752 22.5 11.5C22.5 10.9477 22.0523 10.5 21.5 10.5H18.5C17.9477 10.5 17.5 10.9477 17.5 11.5C17.5 12.0523 17.9477 12.5 18.5 12.5H20.445C19.9781 16.6793 16.6793 19.9781 12.5 20.445V8.37402C14.4503 7.87045 15.7219 5.99523 15.4681 3.99702C15.2143 1.99881 13.5143 0.501038 11.5 0.501038C9.48573 0.501038 7.78569 1.99881 7.53188 3.99702C7.27807 5.99523 8.54969 7.87045 10.5 8.37402V20.445C6.32075 19.9781 3.02194 16.6793 2.555 12.5H4.5C5.05228 12.5 5.5 12.0523 5.5 11.5C5.5 10.9477 5.05228 10.5 4.5 10.5H1.5C0.947715 10.5 0.5 10.9477 0.5 11.5ZM9.5 4.50002C9.5 3.39545 10.3954 2.50002 11.5 2.50002C12.0304 2.50002 12.5391 2.71073 12.9142 3.08581C13.2893 3.46088 13.5 3.96959 13.5 4.50002C13.5 5.60459 12.6046 6.50002 11.5 6.50002C10.3954 6.50002 9.5 5.60459 9.5 4.50002Z" fill="#333333"/>
<mask id="mask0_0_14644" style="mask-type:alpha" maskUnits="userSpaceOnUse" x="0" y="0" width="23" height="23">
<path fill-rule="evenodd" clip-rule="evenodd" d="M11.5 22.5C5.42487 22.5 0.5 17.5752 0.5 11.5C0.5 10.9477 0.947715 10.5 1.5 10.5H4.5C5.05228 10.5 5.5 10.9477 5.5 11.5C5.5 12.0523 5.05228 12.5 4.5 12.5H2.555C3.02195 16.6793 6.32075 19.9781 10.5 20.445V8.37402C8.54969 7.87045 7.27807 5.99523 7.53188 3.99702C7.78569 1.99881 9.48573 0.501038 11.5 0.501038C13.5143 0.501038 15.2143 1.99881 15.4681 3.99702C15.7219 5.99523 14.4503 7.87045 12.5 8.37402V20.445C16.6793 19.9781 19.9781 16.6793 20.445 12.5H18.5C17.9477 12.5 17.5 12.0523 17.5 11.5C17.5 10.9477 17.9477 10.5 18.5 10.5H21.5C22.0523 10.5 22.5 10.9477 22.5 11.5C22.5 17.5752 17.5751 22.5 11.5 22.5ZM11.5 2.50002C10.3954 2.50002 9.5 3.39545 9.5 4.50002C9.5 5.60459 10.3954 6.50002 11.5 6.50002C12.6046 6.50002 13.5 5.60459 13.5 4.50002C13.5 3.96959 13.2893 3.46088 12.9142 3.08581C12.5391 2.71073 12.0304 2.50002 11.5 2.50002Z" fill="white"/>
</mask>
<g mask="url(#mask0_0_14644)">
<rect x="-0.5" y="-0.5" width="24" height="24" fill="#333333"/>
</g>
</svg>
