<svg width="17" height="21" viewBox="0 0 17 21" fill="none" xmlns="http://www.w3.org/2000/svg">
<path fill-rule="evenodd" clip-rule="evenodd" d="M8.29708 5.109C8.36108 5.117 8.42608 5.117 8.49008 5.117H8.49408C9.54741 5.05901 10.521 4.53761 11.1531 3.693C11.882 2.79547 12.2398 1.65299 12.1531 0.5C11.047 0.614286 10.0303 1.15877 9.32208 2.016C8.5852 2.87109 8.2167 3.98307 8.29708 5.109ZM2.52208 17.967C3.41008 19.3 4.30608 20.5 5.49008 20.5H5.55708C6.04003 20.467 6.51107 20.3353 6.94108 20.113C7.48804 19.8332 8.09274 19.685 8.70708 19.68C9.29435 19.6849 9.87211 19.8289 10.3931 20.1C10.8331 20.3341 11.3218 20.4622 11.8201 20.474H11.8781C13.2201 20.448 14.0711 19.157 14.8201 18.017C15.3943 17.1375 15.8417 16.1814 16.1491 15.177V15.17C14.5628 14.4535 13.5515 12.8655 13.5731 11.125C13.5732 9.58931 14.3523 8.15851 15.6421 7.325L15.6501 7.32C14.866 6.12772 13.554 5.38792 12.1281 5.334C12.0268 5.32337 11.925 5.31803 11.8231 5.318C11.0516 5.36741 10.2968 5.56501 9.60008 5.9C9.24075 6.08064 8.85375 6.19995 8.45508 6.253C8.04021 6.20541 7.63701 6.08489 7.26408 5.897C6.66007 5.60253 6.00458 5.4283 5.33408 5.384H5.28208C3.60225 5.44846 2.08437 6.40409 1.30008 7.891C0.51152 9.52333 0.286105 11.371 0.65908 13.145C0.948797 14.8615 1.58249 16.5016 2.52208 17.967Z" fill="#333333"/>
</svg>
