<svg width="15" height="19" viewBox="0 0 15 19" fill="none" xmlns="http://www.w3.org/2000/svg">
<path d="M6.49992 17.5V3.914L2.20692 8.207C1.81454 8.58597 1.19083 8.58055 0.8051 8.19482C0.419367 7.80908 0.413947 7.18538 0.792919 6.793L6.79292 0.792997C6.86631 0.719734 6.95065 0.658334 7.04292 0.610997H7.04892L7.06192 0.599997H7.07392H7.08292L7.09992 0.582997V0.582997C7.35497 0.471683 7.64487 0.471683 7.89992 0.582997V0.582997L7.91992 0.591997V0.591997L7.93892 0.599997H7.94792L7.95992 0.611997L7.97192 0.618997H7.97992L7.99492 0.626997H7.99992L8.01692 0.636997V0.636997L8.03392 0.647997V0.647997L8.05792 0.669997V0.669997L8.07492 0.681997V0.681997L8.09992 0.699997V0.699997L8.11392 0.710997L8.12092 0.715997L8.13192 0.724997L8.14292 0.733997L8.14992 0.739997L8.16692 0.754997V0.754997L8.21192 0.799997L14.2119 6.8C14.5909 7.19238 14.5855 7.81608 14.1997 8.20182C13.814 8.58755 13.1903 8.59297 12.7979 8.214L8.49992 3.914V17.5C8.49992 18.0523 8.0522 18.5 7.49992 18.5C6.94763 18.5 6.49992 18.0523 6.49992 17.5Z" fill="#333333"/>
<mask id="mask0_0_12304" style="mask-type:alpha" maskUnits="userSpaceOnUse" x="0" y="0" width="15" height="19">
<path fill-rule="evenodd" clip-rule="evenodd" d="M6.49992 17.5V3.914L2.20692 8.207C1.81454 8.58597 1.19083 8.58055 0.8051 8.19482C0.419367 7.80908 0.413947 7.18538 0.792919 6.793L6.79292 0.792997C6.86631 0.719734 6.95065 0.658334 7.04292 0.610997H7.04892L7.06192 0.599997H7.07392H7.08292L7.09992 0.582997V0.582997C7.35497 0.471683 7.64487 0.471683 7.89992 0.582997V0.582997L7.91992 0.591997V0.591997L7.93892 0.599997H7.94792L7.95992 0.611997L7.97192 0.618997H7.97992L7.99492 0.626997H7.99992L8.01692 0.636997V0.636997L8.03392 0.647997V0.647997L8.05792 0.669997V0.669997L8.07492 0.681997V0.681997L8.09992 0.699997V0.699997L8.11392 0.710997L8.12092 0.715997L8.13192 0.724997L8.14292 0.733997L8.14992 0.739997L8.16692 0.754997V0.754997L8.21192 0.799997L14.2119 6.8C14.5909 7.19238 14.5855 7.81608 14.1997 8.20182C13.814 8.58755 13.1903 8.59297 12.7979 8.214L8.49992 3.914V17.5C8.49992 18.0523 8.0522 18.5 7.49992 18.5C6.94763 18.5 6.49992 18.0523 6.49992 17.5Z" fill="white"/>
</mask>
<g mask="url(#mask0_0_12304)">
<rect x="-4.5" y="-2.5" width="24" height="24" fill="#333333"/>
</g>
</svg>
