<svg width="15" height="19" viewBox="0 0 15 19" fill="none" xmlns="http://www.w3.org/2000/svg">
<path d="M7.09995 18.418V18.418L7.08195 18.41H7.07395L7.06195 18.4L7.04795 18.393H7.04295L7.02395 18.383V18.383C6.93905 18.3371 6.86124 18.2792 6.79295 18.211L0.792947 12.211C0.402481 11.8203 0.402705 11.187 0.793447 10.7965C1.18419 10.406 1.81748 10.4063 2.20795 10.797L6.49995 15.086V1.5C6.49995 0.947715 6.94766 0.5 7.49995 0.5C8.05223 0.5 8.49995 0.947715 8.49995 1.5V15.086L12.7929 10.793C13.1853 10.414 13.809 10.4194 14.1948 10.8052C14.5805 11.1909 14.5859 11.8146 14.2069 12.207L8.20695 18.207L8.16495 18.247V18.247L8.14795 18.262L8.14095 18.268L8.12995 18.277L8.11795 18.287H8.11195L8.09995 18.3V18.3L8.08395 18.312V18.312L8.06695 18.324V18.324L8.04895 18.336V18.336L8.03195 18.347V18.347L8.01595 18.357H8.01095L7.99595 18.365H7.98795L7.97495 18.372L7.96395 18.377H7.95495L7.93895 18.385V18.385C7.68032 18.5042 7.38314 18.5075 7.12195 18.394L7.09995 18.418Z" fill="#333333"/>
<mask id="mask0_0_13650" style="mask-type:alpha" maskUnits="userSpaceOnUse" x="0" y="0" width="15" height="19">
<path fill-rule="evenodd" clip-rule="evenodd" d="M7.09995 18.418V18.418L7.08195 18.41H7.07395L7.06195 18.4L7.04795 18.393H7.04295L7.02395 18.383V18.383C6.93905 18.3371 6.86124 18.2792 6.79295 18.211L0.792947 12.211C0.402481 11.8203 0.402705 11.187 0.793447 10.7965C1.18419 10.406 1.81748 10.4063 2.20795 10.797L6.49995 15.086V1.5C6.49995 0.947715 6.94766 0.5 7.49995 0.5C8.05223 0.5 8.49995 0.947715 8.49995 1.5V15.086L12.7929 10.793C13.1853 10.414 13.809 10.4194 14.1948 10.8052C14.5805 11.1909 14.5859 11.8146 14.2069 12.207L8.20695 18.207L8.16495 18.247V18.247L8.14795 18.262L8.14095 18.268L8.12995 18.277L8.11795 18.287H8.11195L8.09995 18.3V18.3L8.08395 18.312V18.312L8.06695 18.324V18.324L8.04895 18.336V18.336L8.03195 18.347V18.347L8.01595 18.357H8.01095L7.99595 18.365H7.98795L7.97495 18.372L7.96395 18.377H7.95495L7.93895 18.385V18.385C7.68032 18.5042 7.38314 18.5075 7.12195 18.394L7.09995 18.418Z" fill="white"/>
</mask>
<g mask="url(#mask0_0_13650)">
<rect x="-4.5" y="-2.5" width="24" height="24" fill="#333333"/>
</g>
</svg>
