<svg width="19" height="15" viewBox="0 0 19 15" fill="none" xmlns="http://www.w3.org/2000/svg">
<path d="M6.793 14.2069L0.792997 8.20692L0.756997 8.16992V8.16992L0.741997 8.15192L0.734997 8.14392L0.725997 8.13392L0.716997 8.12192L0.711997 8.11492L0.699997 8.09992V8.09992L0.685997 8.08092V8.08092L0.671997 8.05992V8.05992L0.657997 8.03992V8.03992L0.645997 8.01992V8.01992L0.633997 7.99992V7.99492L0.621997 7.97992V7.97192L0.611997 7.95992L0.605997 7.94892V7.93992L0.593997 7.92392V7.92392L0.582997 7.89992V7.89992C0.471683 7.64487 0.471683 7.35497 0.582997 7.09992V7.09992L0.590997 7.08292V7.07392L0.599997 7.06192L0.606997 7.04792V7.04192C0.654334 6.94965 0.715734 6.86531 0.788997 6.79192L6.789 0.79192C7.17974 0.40035 7.81393 0.399679 8.2055 0.79042C8.59707 1.18116 8.59774 1.81535 8.207 2.20692L3.914 6.49992H17.5C18.0523 6.49992 18.5 6.94764 18.5 7.49992C18.5 8.0522 18.0523 8.49992 17.5 8.49992H3.914L8.207 12.7929C8.46695 13.044 8.57121 13.4158 8.47969 13.7654C8.38818 14.1151 8.11513 14.3881 7.7655 14.4796C7.41587 14.5711 7.04407 14.4669 6.793 14.2069V14.2069Z" fill="#333333"/>
<mask id="mask0_0_11883" style="mask-type:alpha" maskUnits="userSpaceOnUse" x="0" y="0" width="19" height="15">
<path fill-rule="evenodd" clip-rule="evenodd" d="M6.793 14.2069L0.792997 8.20692L0.756997 8.16992V8.16992L0.741997 8.15192L0.734997 8.14392L0.725997 8.13392L0.716997 8.12192L0.711997 8.11492L0.699997 8.09992V8.09992L0.685997 8.08092V8.08092L0.671997 8.05992V8.05992L0.657997 8.03992V8.03992L0.645997 8.01992V8.01992L0.633997 7.99992V7.99492L0.621997 7.97992V7.97192L0.611997 7.95992L0.605997 7.94892V7.93992L0.593997 7.92392V7.92392L0.582997 7.89992V7.89992C0.471683 7.64487 0.471683 7.35497 0.582997 7.09992V7.09992L0.590997 7.08292V7.07392L0.599997 7.06192L0.606997 7.04792V7.04192C0.654334 6.94965 0.715734 6.86531 0.788997 6.79192L6.789 0.79192C7.17974 0.40035 7.81393 0.399679 8.2055 0.79042C8.59707 1.18116 8.59774 1.81535 8.207 2.20692L3.914 6.49992H17.5C18.0523 6.49992 18.5 6.94764 18.5 7.49992C18.5 8.0522 18.0523 8.49992 17.5 8.49992H3.914L8.207 12.7929C8.46695 13.044 8.57121 13.4158 8.47969 13.7654C8.38818 14.1151 8.11513 14.3881 7.7655 14.4796C7.41587 14.5711 7.04407 14.4669 6.793 14.2069V14.2069Z" fill="white"/>
</mask>
<g mask="url(#mask0_0_11883)">
<rect x="-2.5" y="-4.50012" width="24" height="24" fill="#333333"/>
</g>
</svg>
