<svg width="15" height="15" viewBox="0 0 15 15" fill="none" xmlns="http://www.w3.org/2000/svg">
<path d="M1.5 14.5C1.27883 14.4998 1.06395 14.4263 0.889001 14.291V14.291L0.870001 14.276V14.276L0.849001 14.26V14.26C0.829667 14.2433 0.811001 14.226 0.793001 14.208V14.208V14.208L0.778001 14.192L0.770001 14.183L0.759001 14.171L0.751001 14.162L0.743001 14.153L0.734001 14.142L0.728001 14.135L0.718001 14.122V14.116L0.700001 14.1V14.095L0.689001 14.08V14.08L0.678001 14.065V14.065L0.668001 14.05V14.045L0.659001 14.03V14.023L0.634001 14V13.992L0.627001 13.979L0.622001 13.969L0.617001 13.959L0.610001 13.946V13.938L0.602001 13.922V13.922L0.583001 13.9V13.9C0.528104 13.7738 0.499848 13.6376 0.500001 13.5V4.50001C0.500001 3.94772 0.947716 3.50001 1.5 3.50001C2.05229 3.50001 2.5 3.94772 2.5 4.50001V11.086L12.793 0.793008C13.1837 0.402542 13.817 0.402766 14.2075 0.793508C14.598 1.18425 14.5977 1.81754 14.207 2.20801L3.915 12.5H10.5C11.0523 12.5 11.5 12.9477 11.5 13.5C11.5 14.0523 11.0523 14.5 10.5 14.5H1.5Z" fill="#333333"/>
<mask id="mask0_0_13677" style="mask-type:alpha" maskUnits="userSpaceOnUse" x="0" y="0" width="15" height="15">
<path fill-rule="evenodd" clip-rule="evenodd" d="M1.5 14.5C1.27883 14.4998 1.06395 14.4263 0.889001 14.291V14.291L0.870001 14.276V14.276L0.849001 14.26V14.26C0.829667 14.2433 0.811001 14.226 0.793001 14.208V14.208V14.208L0.778001 14.192L0.770001 14.183L0.759001 14.171L0.751001 14.162L0.743001 14.153L0.734001 14.142L0.728001 14.135L0.718001 14.122V14.116L0.700001 14.1V14.095L0.689001 14.08V14.08L0.678001 14.065V14.065L0.668001 14.05V14.045L0.659001 14.03V14.023L0.634001 14V13.992L0.627001 13.979L0.622001 13.969L0.617001 13.959L0.610001 13.946V13.938L0.602001 13.922V13.922L0.583001 13.9V13.9C0.528104 13.7738 0.499848 13.6376 0.500001 13.5V4.50001C0.500001 3.94772 0.947716 3.50001 1.5 3.50001C2.05229 3.50001 2.5 3.94772 2.5 4.50001V11.086L12.793 0.793008C13.1837 0.402542 13.817 0.402766 14.2075 0.793508C14.598 1.18425 14.5977 1.81754 14.207 2.20801L3.915 12.5H10.5C11.0523 12.5 11.5 12.9477 11.5 13.5C11.5 14.0523 11.0523 14.5 10.5 14.5H1.5Z" fill="white"/>
</mask>
<g mask="url(#mask0_0_13677)">
<rect x="-4.5" y="-4.5" width="24" height="24" fill="#333333"/>
</g>
</svg>
