<svg width="15" height="15" viewBox="0 0 15 15" fill="none" xmlns="http://www.w3.org/2000/svg">
<path d="M10.5 0.499959C11.0522 0.499959 11.5 0.947674 11.5 1.49996C11.5 2.05224 11.0522 2.49996 10.5 2.49996L3.91396 2.49996L14.207 12.793C14.5859 13.1853 14.5805 13.809 14.1948 14.1948C13.809 14.5805 13.1853 14.5859 12.793 14.207L2.49996 3.91396L2.49996 10.5C2.49996 11.0522 2.05224 11.5 1.49996 11.5C0.947674 11.5 0.499959 11.0522 0.499959 10.5L0.499959 1.49996C0.499959 0.947674 0.947674 0.499959 1.49996 0.499959L10.5 0.499959Z" fill="#333333"/>
<mask id="mask0_0_12118" style="mask-type:alpha" maskUnits="userSpaceOnUse" x="0" y="0" width="15" height="15">
<path fill-rule="evenodd" clip-rule="evenodd" d="M10.5 0.499959C11.0522 0.499959 11.5 0.947674 11.5 1.49996C11.5 2.05224 11.0522 2.49996 10.5 2.49996L3.91396 2.49996L14.207 12.793C14.5859 13.1853 14.5805 13.809 14.1948 14.1948C13.809 14.5805 13.1853 14.5859 12.793 14.207L2.49996 3.91396L2.49996 10.5C2.49996 11.0522 2.05224 11.5 1.49996 11.5C0.947674 11.5 0.499959 11.0522 0.499959 10.5L0.499959 1.49996C0.499959 0.947674 0.947674 0.499959 1.49996 0.499959L10.5 0.499959Z" fill="white"/>
</mask>
<g mask="url(#mask0_0_12118)">
<rect x="-4.5" y="-4.5" width="24" height="24" fill="#333333"/>
</g>
</svg>
