<svg width="19" height="15" viewBox="0 0 19 15" fill="none" xmlns="http://www.w3.org/2000/svg">
<path d="M10.793 14.207C10.4026 13.8165 10.4026 13.1835 10.793 12.793L15.086 8.50004H1.5C0.947715 8.50004 0.5 8.05233 0.5 7.50004C0.5 6.94776 0.947715 6.50004 1.5 6.50004H15.086L10.793 2.20704C10.414 1.81466 10.4194 1.19096 10.8052 0.805223C11.1909 0.419489 11.8146 0.414069 12.207 0.793041L18.207 6.79304C18.2752 6.86134 18.3331 6.93915 18.379 7.02404V7.02404L18.389 7.04304V7.04804L18.396 7.06204L18.402 7.07404V7.08204L18.41 7.10004V7.10004C18.5235 7.36123 18.5202 7.65841 18.401 7.91704V7.91704L18.4 7.94004V7.94904L18.395 7.96004L18.388 7.97304V7.98104L18.38 7.99604V8.00104L18.37 8.01704V8.01704L18.359 8.03404V8.03404L18.347 8.05204V8.05204L18.335 8.06904V8.06904L18.3 8.10004V8.10004L18.289 8.11404V8.12004L18.279 8.13204L18.27 8.14304L18.264 8.15004L18.249 8.16704V8.16704L18.209 8.20904L12.209 14.209C11.8185 14.5994 11.1855 14.5994 10.795 14.209L10.793 14.207Z" fill="#333333"/>
<mask id="mask0_0_13524" style="mask-type:alpha" maskUnits="userSpaceOnUse" x="0" y="0" width="19" height="15">
<path fill-rule="evenodd" clip-rule="evenodd" d="M10.793 14.207C10.4026 13.8165 10.4026 13.1835 10.793 12.793L15.086 8.50004H1.5C0.947715 8.50004 0.5 8.05233 0.5 7.50004C0.5 6.94776 0.947715 6.50004 1.5 6.50004H15.086L10.793 2.20704C10.414 1.81466 10.4194 1.19096 10.8052 0.805223C11.1909 0.419489 11.8146 0.414069 12.207 0.793041L18.207 6.79304C18.2752 6.86134 18.3331 6.93915 18.379 7.02404V7.02404L18.389 7.04304V7.04804L18.396 7.06204L18.402 7.07404V7.08204L18.41 7.10004V7.10004C18.5235 7.36123 18.5202 7.65841 18.401 7.91704V7.91704L18.4 7.94004V7.94904L18.395 7.96004L18.388 7.97304V7.98104L18.38 7.99604V8.00104L18.37 8.01704V8.01704L18.359 8.03404V8.03404L18.347 8.05204V8.05204L18.335 8.06904V8.06904L18.3 8.10004V8.10004L18.289 8.11404V8.12004L18.279 8.13204L18.27 8.14304L18.264 8.15004L18.249 8.16704V8.16704L18.209 8.20904L12.209 14.209C11.8185 14.5994 11.1855 14.5994 10.795 14.209L10.793 14.207Z" fill="white"/>
</mask>
<g mask="url(#mask0_0_13524)">
<rect x="-2.5" y="-4.49994" width="24" height="24" fill="#333333"/>
</g>
</svg>
