<svg width="15" height="15" viewBox="0 0 15 15" fill="none" xmlns="http://www.w3.org/2000/svg">
<path d="M4.49992 14.5C3.94763 14.5 3.49992 14.0523 3.49992 13.5C3.49992 12.9477 3.94763 12.5 4.49992 12.5H11.0859L0.792919 2.20698C0.413947 1.8146 0.419367 1.1909 0.8051 0.805162C1.19083 0.419428 1.81454 0.414008 2.20692 0.79298L12.4999 11.086V4.49998C12.4999 3.9477 12.9476 3.49998 13.4999 3.49998C14.0522 3.49998 14.4999 3.9477 14.4999 4.49998V13.5C14.4999 14.0523 14.0522 14.5 13.4999 14.5H4.49992Z" fill="#333333"/>
<mask id="mask0_0_11931" style="mask-type:alpha" maskUnits="userSpaceOnUse" x="0" y="0" width="15" height="15">
<path fill-rule="evenodd" clip-rule="evenodd" d="M4.49992 14.5C3.94763 14.5 3.49992 14.0523 3.49992 13.5C3.49992 12.9477 3.94763 12.5 4.49992 12.5H11.0859L0.792919 2.20698C0.413947 1.8146 0.419367 1.1909 0.8051 0.805162C1.19083 0.419428 1.81454 0.414008 2.20692 0.79298L12.4999 11.086V4.49998C12.4999 3.9477 12.9476 3.49998 13.4999 3.49998C14.0522 3.49998 14.4999 3.9477 14.4999 4.49998V13.5C14.4999 14.0523 14.0522 14.5 13.4999 14.5H4.49992Z" fill="white"/>
</mask>
<g mask="url(#mask0_0_11931)">
<rect x="-4.5" y="-4.5" width="24" height="24" fill="#333333"/>
</g>
</svg>
