<svg width="15" height="15" viewBox="0 0 15 15" fill="none" xmlns="http://www.w3.org/2000/svg">
<path d="M0.793031 14.207C0.402649 13.8165 0.402649 13.1835 0.793031 12.793L11.086 2.5H4.50003C3.94775 2.5 3.50003 2.05229 3.50003 1.5C3.50003 0.947716 3.94775 0.500001 4.50003 0.500001H13.5C13.6377 0.499848 13.7738 0.528104 13.9 0.583001V0.583001L13.921 0.592001V0.592001L13.94 0.600001H13.948L13.961 0.607001L13.971 0.612001L13.981 0.617001L13.994 0.624001H14.002L14.016 0.632001H14.023L14.038 0.641001H14.043L14.058 0.651001V0.651001L14.073 0.662001V0.662001L14.1 0.700001V0.700001L14.114 0.711001H14.12L14.133 0.721001L14.14 0.727001L14.151 0.736001L14.16 0.744001L14.169 0.752001L14.181 0.763001L14.187 0.768001L14.2 0.790001V0.790001V0.790001C14.218 0.808001 14.2354 0.826667 14.252 0.846001V0.846001L14.268 0.865001V0.865001L14.283 0.884001V0.884001C14.4223 1.05926 14.4987 1.27617 14.5 1.5V10.5C14.5 11.0523 14.0523 11.5 13.5 11.5C12.9477 11.5 12.5 11.0523 12.5 10.5V3.915L2.20703 14.207C2.01946 14.3948 1.76494 14.5003 1.49953 14.5003C1.23412 14.5003 0.979599 14.3948 0.792031 14.207H0.793031Z" fill="#333333"/>
<mask id="mask0_0_12659" style="mask-type:alpha" maskUnits="userSpaceOnUse" x="0" y="0" width="15" height="15">
<path fill-rule="evenodd" clip-rule="evenodd" d="M0.793031 14.207C0.402649 13.8165 0.402649 13.1835 0.793031 12.793L11.086 2.5H4.50003C3.94775 2.5 3.50003 2.05229 3.50003 1.5C3.50003 0.947716 3.94775 0.500001 4.50003 0.500001H13.5C13.6377 0.499848 13.7738 0.528104 13.9 0.583001V0.583001L13.921 0.592001V0.592001L13.94 0.600001H13.948L13.961 0.607001L13.971 0.612001L13.981 0.617001L13.994 0.624001H14.002L14.016 0.632001H14.023L14.038 0.641001H14.043L14.058 0.651001V0.651001L14.073 0.662001V0.662001L14.1 0.700001V0.700001L14.114 0.711001H14.12L14.133 0.721001L14.14 0.727001L14.151 0.736001L14.16 0.744001L14.169 0.752001L14.181 0.763001L14.187 0.768001L14.2 0.790001V0.790001V0.790001C14.218 0.808001 14.2354 0.826667 14.252 0.846001V0.846001L14.268 0.865001V0.865001L14.283 0.884001V0.884001C14.4223 1.05926 14.4987 1.27617 14.5 1.5V10.5C14.5 11.0523 14.0523 11.5 13.5 11.5C12.9477 11.5 12.5 11.0523 12.5 10.5V3.915L2.20703 14.207C2.01946 14.3948 1.76494 14.5003 1.49953 14.5003C1.23412 14.5003 0.979599 14.3948 0.792031 14.207H0.793031Z" fill="white"/>
</mask>
<g mask="url(#mask0_0_12659)">
<rect x="-4.5" y="-4.5" width="24" height="24" fill="#333333"/>
</g>
</svg>
