<svg width="23" height="23" viewBox="0 0 23 23" fill="none" xmlns="http://www.w3.org/2000/svg">
<path fill-rule="evenodd" clip-rule="evenodd" d="M0.5 11.5C0.5 17.5751 5.42487 22.5 11.5 22.5C13.9185 22.5055 16.2704 21.7074 18.186 20.231C18.6233 19.8954 18.7065 19.2692 18.372 18.831C18.0361 18.3941 17.4099 18.3113 16.972 18.646C15.4039 19.8534 13.4791 20.5056 11.5 20.5C6.52944 20.5 2.5 16.4706 2.5 11.5C2.5 6.52944 6.52944 2.5 11.5 2.5C16.4706 2.5 20.5 6.52944 20.5 11.5V12.5C20.5 13.6046 19.6046 14.5 18.5 14.5C17.3954 14.5 16.5 13.6046 16.5 12.5V11.5C16.4997 9.08647 14.7754 7.01766 12.4014 6.58255C10.0274 6.14745 7.68146 7.47027 6.82522 9.72681C5.96899 11.9833 6.84689 14.5294 8.91194 15.7787C10.977 17.028 13.6397 16.6238 15.241 14.818C16.2498 16.2356 18.0593 16.8385 19.7168 16.3092C21.3742 15.7799 22.4995 14.2399 22.5 12.5V11.5C22.5 5.42487 17.5751 0.5 11.5 0.5C5.42487 0.5 0.5 5.42487 0.5 11.5ZM8.5 11.5C8.5 9.84315 9.84315 8.5 11.5 8.5C13.1569 8.5 14.5 9.84315 14.5 11.5C14.5 13.1569 13.1569 14.5 11.5 14.5C9.84315 14.5 8.5 13.1569 8.5 11.5Z" fill="#333333"/>
<mask id="mask0_0_12531" style="mask-type:alpha" maskUnits="userSpaceOnUse" x="0" y="0" width="23" height="23">
<path fill-rule="evenodd" clip-rule="evenodd" d="M11.5 22.5C5.42487 22.5 0.5 17.5751 0.5 11.5C0.5 5.42487 5.42487 0.5 11.5 0.5C17.5751 0.5 22.5 5.42487 22.5 11.5V12.5C22.4995 14.2399 21.3742 15.7799 19.7168 16.3092C18.0593 16.8385 16.2498 16.2356 15.241 14.818C13.6397 16.6238 10.977 17.028 8.91194 15.7787C6.84689 14.5294 5.96899 11.9833 6.82522 9.72681C7.68146 7.47027 10.0274 6.14745 12.4014 6.58255C14.7754 7.01766 16.4997 9.08647 16.5 11.5V12.5C16.5 13.6046 17.3954 14.5 18.5 14.5C19.6046 14.5 20.5 13.6046 20.5 12.5V11.5C20.5 6.52944 16.4706 2.5 11.5 2.5C6.52944 2.5 2.5 6.52944 2.5 11.5C2.5 16.4706 6.52944 20.5 11.5 20.5C13.4791 20.5056 15.4039 19.8534 16.972 18.646C17.4099 18.3113 18.0361 18.3941 18.372 18.831C18.7065 19.2692 18.6233 19.8954 18.186 20.231C16.2704 21.7074 13.9185 22.5055 11.5 22.5ZM11.5 8.5C9.84315 8.5 8.5 9.84315 8.5 11.5C8.5 13.1569 9.84315 14.5 11.5 14.5C13.1569 14.5 14.5 13.1569 14.5 11.5C14.5 9.84315 13.1569 8.5 11.5 8.5Z" fill="white"/>
</mask>
<g mask="url(#mask0_0_12531)">
<rect x="-0.5" y="-0.5" width="24" height="24" fill="#333333"/>
</g>
</svg>
