<svg width="22" height="24" viewBox="0 0 22 24" fill="none" xmlns="http://www.w3.org/2000/svg">
<path d="M15.4029 7.43192L13.9269 5.95692L6.54288 13.3369C5.32012 14.5597 5.32012 16.5422 6.54288 17.7649C7.76564 18.9877 9.74812 18.9877 10.9709 17.7649L19.8279 8.90893C21.8655 6.87072 21.8651 3.56658 19.8269 1.52892C17.7887 -0.50873 14.4845 -0.508282 12.4469 1.52992L3.14688 10.8299L3.12688 10.8489C0.285377 13.6929 0.287391 18.3019 3.13138 21.1434C5.97537 23.9849 10.5844 23.9829 13.4259 21.1389L13.4449 21.1189L19.7929 14.7719L18.3159 13.2969L11.9679 19.6429L11.9489 19.6619C9.91787 21.665 6.65106 21.654 4.63367 19.6371C2.61629 17.6203 2.60432 14.3535 4.60688 12.3219L4.62688 12.3029L13.9269 3.00292C15.1496 1.77989 17.1323 1.77967 18.3554 3.00242C19.5784 4.22518 19.5786 6.20789 18.3559 7.43092L9.49888 16.2869C9.24092 16.5737 8.84583 16.6949 8.47141 16.6021C8.097 16.5093 7.80428 16.2176 7.71018 15.8435C7.61608 15.4694 7.73594 15.0739 8.02188 14.8149L15.4029 7.43192Z" fill="url(#paint0_linear_0_7718)"/>
<defs>
<linearGradient id="paint0_linear_0_7718" x1="0.99707" y1="0.000976562" x2="0.99707" y2="23.2732" gradientUnits="userSpaceOnUse">
<stop stop-color="#00BCE5" stop-opacity="0.6"/>
<stop offset="1" stop-color="#02AACF"/>
</linearGradient>
</defs>
</svg>
