<svg width="17" height="25" viewBox="0 0 17 25" fill="none" xmlns="http://www.w3.org/2000/svg">
<path fill-rule="evenodd" clip-rule="evenodd" d="M12.986 24.357L8.5 21.666L4.015 24.357C3.68574 24.5547 3.27237 24.5463 2.95137 24.3355C2.63037 24.1247 2.45845 23.7487 2.509 23.368L3.64 14.85C0.916056 12.7664 -0.176803 9.17837 0.923115 5.93006C2.02303 2.68174 5.07101 0.49585 8.5005 0.49585C11.93 0.49585 14.978 2.68174 16.0779 5.93006C17.1778 9.17837 16.0849 12.7664 13.361 14.85L14.492 23.368C14.5301 23.6539 14.4429 23.9422 14.2528 24.1591C14.0628 24.376 13.7884 24.5002 13.5 24.5C13.3188 24.5002 13.1411 24.4507 12.986 24.357ZM9.015 19.642L12.236 21.575L11.486 15.922C9.57025 16.6926 7.43074 16.6926 5.515 15.922L4.764 21.575L7.985 19.642C8.30193 19.4516 8.69806 19.4516 9.015 19.642ZM5.5957 13.7487C3.68606 12.6923 2.50058 10.6824 2.5 8.50002C2.49917 5.63399 4.52543 3.16754 7.33713 2.61207C10.1488 2.05659 12.9608 3.56722 14.0499 6.21826C15.139 8.8693 14.2011 11.9205 11.811 13.502C11.7677 13.5256 11.7263 13.5523 11.687 13.582C9.83797 14.7412 7.50534 14.805 5.5957 13.7487Z" fill="#333333"/>
<mask id="mask0_0_13693" style="mask-type:alpha" maskUnits="userSpaceOnUse" x="0" y="0" width="17" height="25">
<path fill-rule="evenodd" clip-rule="evenodd" d="M12.986 24.357L8.5 21.666L4.015 24.357C3.68574 24.5547 3.27237 24.5463 2.95137 24.3355C2.63037 24.1247 2.45845 23.7487 2.509 23.368L3.64 14.85C0.916056 12.7664 -0.176803 9.17837 0.923115 5.93006C2.02303 2.68174 5.07101 0.49585 8.5005 0.49585C11.93 0.49585 14.978 2.68174 16.0779 5.93006C17.1778 9.17837 16.0849 12.7664 13.361 14.85L14.492 23.368C14.5301 23.6539 14.4429 23.9422 14.2528 24.1591C14.0628 24.376 13.7884 24.5002 13.5 24.5C13.3188 24.5002 13.1411 24.4507 12.986 24.357ZM9.015 19.642L12.236 21.575L11.486 15.922C9.57025 16.6926 7.43074 16.6926 5.515 15.922L4.764 21.575L7.985 19.642C8.30193 19.4516 8.69806 19.4516 9.015 19.642ZM2.5 8.50002C2.50058 10.6824 3.68606 12.6923 5.5957 13.7487C7.50534 14.805 9.83797 14.7412 11.687 13.582C11.7263 13.5523 11.7677 13.5256 11.811 13.502C14.2011 11.9204 15.139 8.8693 14.0499 6.21826C12.9608 3.56722 10.1488 2.0566 7.33713 2.61207C4.52543 3.16754 2.49917 5.63399 2.5 8.50002V8.50002Z" fill="white"/>
</mask>
<g mask="url(#mask0_0_13693)">
<rect x="-3.5" y="0.5" width="24" height="24" fill="#333333"/>
</g>
</svg>
