<svg width="24" height="21" viewBox="0 0 24 21" fill="none" xmlns="http://www.w3.org/2000/svg">
<path fill-rule="evenodd" clip-rule="evenodd" d="M24 18.75C23.9994 19.9924 22.9924 20.9994 21.75 21H2.25C1.00759 20.9994 0.000551815 19.9924 0 18.75V5.25C0.000551815 4.00759 1.00759 3.00055 2.25 3H6.375L6.952 1.458C7.2809 0.580974 8.11933 -3.24927e-05 9.056 0H14.939C15.8742 0.0016329 16.7106 0.582343 17.039 1.458L17.625 3H21.75C22.9924 3.00055 23.9994 4.00759 24 5.25V18.75ZM17.625 12C17.625 8.8934 15.1066 6.375 12 6.375C8.8934 6.375 6.375 8.8934 6.375 12C6.375 15.1066 8.8934 17.625 12 17.625C15.1057 17.6228 17.6228 15.1057 17.625 12ZM12 16.125C14.2782 16.125 16.125 14.2782 16.125 12C16.1217 9.7232 14.2768 7.8783 12 7.875C9.72183 7.875 7.875 9.72183 7.875 12C7.875 14.2782 9.72183 16.125 12 16.125Z" fill="#FC5566"/>
</svg>
