<svg width="23" height="21" viewBox="0 0 23 21" fill="none" xmlns="http://www.w3.org/2000/svg">
<path fill-rule="evenodd" clip-rule="evenodd" d="M17.5 20.5H21.5C22.0523 20.5 22.5 20.0523 22.5 19.5V6.5C22.5 5.94772 22.0523 5.5 21.5 5.5H17.5C16.9477 5.5 16.5 5.94772 16.5 6.5V19.5C16.5 20.0523 16.9477 20.5 17.5 20.5ZM18.5 18.5V7.5H20.5V18.5H18.5ZM5.5 20.5H1.5C0.947715 20.5 0.5 20.0523 0.5 19.5V11.5C0.5 10.9477 0.947715 10.5 1.5 10.5H5.5C6.05228 10.5 6.5 10.9477 6.5 11.5V19.5C6.5 20.0523 6.05228 20.5 5.5 20.5ZM2.5 18.5V12.5H4.5V18.5H2.5Z" fill="#333333"/>
<mask id="mask0_0_14289" style="mask-type:alpha" maskUnits="userSpaceOnUse" x="0" y="0" width="23" height="21">
<path fill-rule="evenodd" clip-rule="evenodd" d="M21.5 20.5H17.5C16.9477 20.5 16.5 20.0523 16.5 19.5V6.5C16.5 5.94772 16.9477 5.5 17.5 5.5H21.5C22.0523 5.5 22.5 5.94772 22.5 6.5V19.5C22.5 20.0523 22.0523 20.5 21.5 20.5ZM18.5 7.5V18.5H20.5V7.5H18.5ZM13.5 20.5H9.5C8.94772 20.5 8.5 20.0523 8.5 19.5V1.5C8.5 0.947715 8.94772 0.5 9.5 0.5H13.5C14.0523 0.5 14.5 0.947715 14.5 1.5V19.5C14.5 20.0523 14.0523 20.5 13.5 20.5ZM10.5 2.5V18.5H12.5V2.5H10.5ZM5.5 20.5H1.5C0.947715 20.5 0.5 20.0523 0.5 19.5V11.5C0.5 10.9477 0.947715 10.5 1.5 10.5H5.5C6.05228 10.5 6.5 10.9477 6.5 11.5V19.5C6.5 20.0523 6.05228 20.5 5.5 20.5ZM2.5 12.5V18.5H4.5V12.5H2.5Z" fill="white"/>
</mask>
<g mask="url(#mask0_0_14289)">
<rect x="-0.5" y="-1.5" width="24" height="24" fill="#333333"/>
</g>
</svg>
