<svg width="25" height="15" viewBox="0 0 25 15" fill="none" xmlns="http://www.w3.org/2000/svg">
<path fill-rule="evenodd" clip-rule="evenodd" d="M0.5 11.5C0.5 13.1569 1.84315 14.5 3.5 14.5H5.5C6.05228 14.5 6.5 14.0523 6.5 13.5C6.5 12.9477 6.05228 12.5 5.5 12.5H3.5C2.94772 12.5 2.5 12.0523 2.5 11.5V3.5C2.5 2.94772 2.94772 2.5 3.5 2.5H6.69C7.24228 2.5 7.69 2.05228 7.69 1.5C7.69 0.947715 7.24228 0.5 6.69 0.5H3.5C1.84315 0.5 0.5 1.84315 0.5 3.5V11.5ZM13.31 13.5C13.31 14.0523 13.7577 14.5 14.31 14.5H17.5C19.1569 14.5 20.5 13.1569 20.5 11.5V3.5C20.5 1.84315 19.1569 0.5 17.5 0.5H15.5C14.9477 0.5 14.5 0.947715 14.5 1.5C14.5 2.05228 14.9477 2.5 15.5 2.5H17.5C18.0523 2.5 18.5 2.94772 18.5 3.5V11.5C18.5 12.0523 18.0523 12.5 17.5 12.5H14.31C13.7577 12.5 13.31 12.9477 13.31 13.5ZM8.946 14.332C8.72515 14.185 8.57178 13.9562 8.51964 13.6961C8.4675 13.436 8.52087 13.1658 8.668 12.945L11.631 8.5H7.5C7.13145 8.49981 6.79288 8.29692 6.61892 7.972C6.44496 7.64709 6.46382 7.25283 6.668 6.946L10.668 0.946C10.9745 0.486499 11.5955 0.362482 12.055 0.669C12.5145 0.975518 12.6385 1.5965 12.332 2.056L9.369 6.5H13.5C13.8686 6.50019 14.2071 6.70308 14.3811 7.028C14.555 7.35291 14.5362 7.74717 14.332 8.054L10.332 14.054C10.1848 14.2747 9.956 14.4279 9.69588 14.4798C9.43576 14.5318 9.16565 14.4782 8.945 14.331L8.946 14.332ZM22.5 6.5V8.5C22.5 9.05229 22.9477 9.5 23.5 9.5C24.0523 9.5 24.5 9.05229 24.5 8.5V6.5C24.5 5.94772 24.0523 5.5 23.5 5.5C22.9477 5.5 22.5 5.94772 22.5 6.5Z" fill="#333333"/>
<mask id="mask0_0_13419" style="mask-type:alpha" maskUnits="userSpaceOnUse" x="0" y="0" width="25" height="15">
<path fill-rule="evenodd" clip-rule="evenodd" d="M14.31 14.5C13.7577 14.5 13.31 14.0523 13.31 13.5C13.31 12.9477 13.7577 12.5 14.31 12.5H17.5C18.0523 12.5 18.5 12.0523 18.5 11.5V3.5C18.5 2.94772 18.0523 2.5 17.5 2.5H15.5C14.9477 2.5 14.5 2.05228 14.5 1.5C14.5 0.947715 14.9477 0.5 15.5 0.5H17.5C19.1569 0.5 20.5 1.84315 20.5 3.5V11.5C20.5 13.1569 19.1569 14.5 17.5 14.5H14.31ZM3.5 14.5C1.84315 14.5 0.5 13.1569 0.5 11.5V3.5C0.5 1.84315 1.84315 0.5 3.5 0.5H6.69C7.24228 0.5 7.69 0.947715 7.69 1.5C7.69 2.05228 7.24228 2.5 6.69 2.5H3.5C2.94772 2.5 2.5 2.94772 2.5 3.5V11.5C2.5 12.0523 2.94772 12.5 3.5 12.5H5.5C6.05228 12.5 6.5 12.9477 6.5 13.5C6.5 14.0523 6.05228 14.5 5.5 14.5H3.5ZM8.946 14.332C8.72515 14.185 8.57178 13.9562 8.51964 13.6961C8.4675 13.436 8.52087 13.1658 8.668 12.945L11.631 8.5H7.5C7.13145 8.49981 6.79288 8.29692 6.61892 7.972C6.44496 7.64709 6.46382 7.25283 6.668 6.946L10.668 0.946C10.9745 0.486499 11.5955 0.362482 12.055 0.669C12.5145 0.975518 12.6385 1.5965 12.332 2.056L9.369 6.5H13.5C13.8686 6.50019 14.2071 6.70308 14.3811 7.028C14.555 7.35291 14.5362 7.74717 14.332 8.054L10.332 14.054C10.1848 14.2747 9.956 14.4279 9.69588 14.4798C9.43576 14.5318 9.16565 14.4782 8.945 14.331L8.946 14.332ZM22.5 8.5V6.5C22.5 5.94772 22.9477 5.5 23.5 5.5C24.0523 5.5 24.5 5.94772 24.5 6.5V8.5C24.5 9.05228 24.0523 9.5 23.5 9.5C22.9477 9.5 22.5 9.05228 22.5 8.5Z" fill="white"/>
</mask>
<g mask="url(#mask0_0_13419)">
<rect x="0.5" y="-4.5" width="24" height="24" fill="#333333"/>
</g>
</svg>
