<svg width="25" height="15" viewBox="0 0 25 15" fill="none" xmlns="http://www.w3.org/2000/svg">
<mask id="mask0_0_13813" style="mask-type:alpha" maskUnits="userSpaceOnUse" x="0" y="0" width="25" height="15">
<path fill-rule="evenodd" clip-rule="evenodd" d="M17.5 14.5H3.5C1.84315 14.5 0.5 13.1569 0.5 11.5V3.5C0.5 1.84315 1.84315 0.5 3.5 0.5H17.5C19.1569 0.5 20.5 1.84315 20.5 3.5V11.5C20.5 13.1569 19.1569 14.5 17.5 14.5ZM3.5 2.5C2.94772 2.5 2.5 2.94772 2.5 3.5V11.5C2.5 12.0523 2.94772 12.5 3.5 12.5H17.5C18.0523 12.5 18.5 12.0523 18.5 11.5V3.5C18.5 2.94772 18.0523 2.5 17.5 2.5H3.5ZM23.5 9.5C22.9477 9.5 22.5 9.05228 22.5 8.5V6.5C22.5 5.94772 22.9477 5.5 23.5 5.5C24.0523 5.5 24.5 5.94772 24.5 6.5V8.5C24.5 9.05228 24.0523 9.5 23.5 9.5Z" fill="white"/>
</mask>
<g mask="url(#mask0_0_13813)">
<rect x="0.5" y="-4.5" width="24" height="24" fill="#333333"/>
</g>
</svg>
