<svg width="23" height="23" viewBox="0 0 23 23" fill="none" xmlns="http://www.w3.org/2000/svg">
<path d="M14.095 21C13.5583 21.9252 12.5696 22.4947 11.5 22.4947C10.4304 22.4947 9.44167 21.9252 8.90497 21C8.72643 20.6908 8.72633 20.3098 8.90471 20.0004C9.0831 19.6911 9.41289 19.5004 9.76997 19.5H13.23C13.5871 19.5004 13.9168 19.6911 14.0952 20.0004C14.2736 20.3098 14.2735 20.6908 14.095 21Z" fill="#333333"/>
<mask id="mask0_0_13658" style="mask-type:alpha" maskUnits="userSpaceOnUse" x="0" y="0" width="23" height="23">
<path fill-rule="evenodd" clip-rule="evenodd" d="M11.5 22.5C10.4297 22.4973 9.44155 21.9261 8.905 21C8.72646 20.6908 8.72636 20.3098 8.90474 20.0004C9.08313 19.6911 9.41292 19.5004 9.77 19.5H13.23C13.5873 19.5 13.9174 19.6906 14.096 20C14.2746 20.3094 14.2746 20.6906 14.096 21C13.5588 21.9259 12.5704 22.497 11.5 22.5ZM21.5 17.5H1.5C0.947715 17.5 0.5 17.0523 0.5 16.5C0.5 15.9477 0.947715 15.5 1.5 15.5C2.03043 15.5 2.53914 15.2893 2.91421 14.9142C3.28929 14.5391 3.5 14.0304 3.5 13.5V8.5C3.5 4.08172 7.08172 0.5 11.5 0.5C15.9183 0.5 19.5 4.08172 19.5 8.5V13.5C19.5 14.6046 20.3954 15.5 21.5 15.5C21.7686 15.4882 22.0299 15.5898 22.22 15.78C22.4102 15.9701 22.5118 16.2314 22.5 16.5C22.5036 16.7519 22.4146 16.9963 22.25 17.187C22.0579 17.3961 21.7838 17.5105 21.5 17.5ZM11.5 2.5C8.18789 2.50386 5.50386 5.18789 5.5 8.5V13.5C5.49997 14.2022 5.31511 14.8919 4.964 15.5H18.034C17.6836 14.8917 17.4994 14.202 17.5 13.5V8.5C17.4961 5.18789 14.8121 2.50386 11.5 2.5Z" fill="white"/>
</mask>
<g mask="url(#mask0_0_13658)">
<rect x="-0.5" y="-0.5" width="24" height="24" fill="#333333"/>
</g>
</svg>
