<svg width="25" height="25" viewBox="0 0 25 25" fill="none" xmlns="http://www.w3.org/2000/svg">
<path fill-rule="evenodd" clip-rule="evenodd" d="M17.0859 18.4999L22.7929 24.2069H22.7939C23.045 24.4669 23.4168 24.5711 23.7664 24.4796C24.1161 24.3881 24.3891 24.1151 24.4806 23.7654C24.5721 23.4158 24.4679 23.044 24.2079 22.7929L18.2169 16.8019L18.1999 16.7849L2.20692 0.792919C1.81454 0.413947 1.19083 0.419367 0.8051 0.8051C0.419367 1.19083 0.413947 1.81454 0.792919 2.20692L5.08192 6.49992C4.69681 7.45319 4.4992 8.4718 4.49992 9.49992V14.4999C4.49992 15.0304 4.28921 15.5391 3.91413 15.9141C3.53906 16.2892 3.03035 16.4999 2.49992 16.4999C1.94763 16.4999 1.49992 16.9476 1.49992 17.4999C1.49992 18.0522 1.94763 18.4999 2.49992 18.4999H17.0859ZM6.49992 14.4999V9.49992C6.49921 9.02225 6.55561 8.5462 6.66792 8.08192L15.0859 16.4999H5.96492C6.31634 15.892 6.5009 15.2021 6.49992 14.4999ZM9.89992 21.9999C9.70286 21.6899 9.69161 21.2969 9.87062 20.9761C10.0496 20.6554 10.3901 20.4586 10.7574 20.4635C11.1247 20.4685 11.4597 20.6744 11.6299 20.9999C11.8088 21.3083 12.1384 21.4981 12.4949 21.4981C12.8515 21.4981 13.181 21.3083 13.3599 20.9999C13.6443 20.5402 14.2425 20.3897 14.7106 20.6601C15.1786 20.9305 15.3471 21.5239 15.0909 21.9999C14.5542 22.9251 13.5655 23.4946 12.4959 23.4946C11.4263 23.4946 10.4376 22.9251 9.90092 21.9999H9.89992ZM18.4999 9.49992V13.4999C18.4999 14.0522 18.9476 14.4999 19.4999 14.4999C20.0522 14.4999 20.4999 14.0522 20.4999 13.4999V9.49992C20.5008 6.65555 18.9913 4.02463 16.5353 2.58986C14.0793 1.15509 11.0462 1.13227 8.56892 2.52992C8.2448 2.69852 8.03842 3.03047 8.03063 3.39573C8.02283 3.761 8.21486 4.10145 8.53149 4.28373C8.84813 4.466 9.23896 4.46109 9.55092 4.27092C11.4092 3.22217 13.6846 3.23923 15.5269 4.31572C17.3692 5.39221 18.5012 7.36615 18.4999 9.49992Z" fill="#333333"/>
<mask id="mask0_0_12409" style="mask-type:alpha" maskUnits="userSpaceOnUse" x="0" y="0" width="25" height="25">
<path fill-rule="evenodd" clip-rule="evenodd" d="M22.7929 24.2069L17.0859 18.4999H2.49992C1.94763 18.4999 1.49992 18.0522 1.49992 17.4999C1.49992 16.9476 1.94763 16.4999 2.49992 16.4999C3.03035 16.4999 3.53906 16.2892 3.91413 15.9141C4.28921 15.5391 4.49992 15.0304 4.49992 14.4999V9.49992C4.4992 8.4718 4.69681 7.45319 5.08192 6.49992L0.792919 2.20692C0.413947 1.81454 0.419367 1.19083 0.8051 0.8051C1.19083 0.419367 1.81454 0.413947 2.20692 0.792919L18.1999 16.7849L18.2169 16.8019L24.2079 22.7929C24.4679 23.044 24.5721 23.4158 24.4806 23.7654C24.3891 24.1151 24.1161 24.3881 23.7664 24.4796C23.4168 24.5711 23.045 24.4669 22.7939 24.2069H22.7929ZM6.49992 9.49992V14.4999C6.5009 15.2021 6.31634 15.892 5.96492 16.4999H15.0859L6.66792 8.08192C6.55561 8.5462 6.49921 9.02225 6.49992 9.49992V9.49992ZM9.89992 21.9999C9.70286 21.6899 9.69161 21.2969 9.87062 20.9761C10.0496 20.6554 10.3901 20.4586 10.7574 20.4635C11.1247 20.4685 11.4597 20.6744 11.6299 20.9999C11.8088 21.3083 12.1384 21.4981 12.4949 21.4981C12.8515 21.4981 13.181 21.3083 13.3599 20.9999C13.6443 20.5402 14.2425 20.3897 14.7106 20.6601C15.1786 20.9305 15.3471 21.5239 15.0909 21.9999C14.5542 22.9251 13.5655 23.4946 12.4959 23.4946C11.4263 23.4946 10.4376 22.9251 9.90092 21.9999H9.89992ZM18.4999 13.4999V9.49992C18.5012 7.36615 17.3692 5.39221 15.5269 4.31572C13.6846 3.23923 11.4092 3.22217 9.55092 4.27092C9.23896 4.46109 8.84813 4.466 8.53149 4.28373C8.21486 4.10145 8.02283 3.761 8.03063 3.39573C8.03842 3.03047 8.2448 2.69852 8.56892 2.52992C11.0462 1.13227 14.0793 1.15509 16.5353 2.58986C18.9913 4.02463 20.5008 6.65555 20.4999 9.49992V13.4999C20.4999 14.0522 20.0522 14.4999 19.4999 14.4999C18.9476 14.4999 18.4999 14.0522 18.4999 13.4999V13.4999Z" fill="white"/>
</mask>
<g mask="url(#mask0_0_12409)">
<rect x="0.499878" y="0.499878" width="24" height="24" fill="#333333"/>
</g>
</svg>
