<svg width="14" height="25" viewBox="0 0 14 25" fill="none" xmlns="http://www.w3.org/2000/svg">
<path d="M7.99896 10.088V14.916L5.58496 12.5L7.99896 10.088Z" fill="#333333"/>
<mask id="mask0_0_12342" style="mask-type:alpha" maskUnits="userSpaceOnUse" x="0" y="0" width="14" height="25">
<path fill-rule="evenodd" clip-rule="evenodd" d="M7.00599 24.5C6.74636 24.4998 6.49638 24.4016 6.30599 24.225C6.10702 24.0368 5.99573 23.774 5.99899 23.5V14.916L2.20599 18.709C1.81553 19.0998 1.18224 19.1 0.791494 18.7095C0.400752 18.3191 0.400528 17.6858 0.790994 17.295L5.58499 12.5L0.790994 7.70904C0.438218 7.31274 0.456358 6.70991 0.832326 6.33554C1.20829 5.96117 1.81119 5.94559 2.20599 6.30004L5.99899 10.088V1.50004C6.00189 1.09692 6.24656 0.734959 6.61955 0.582004C6.99254 0.42905 7.4209 0.515018 7.70599 0.800044L13.206 6.30004C13.5964 6.69054 13.5964 7.32354 13.206 7.71404L8.41299 12.5L13.206 17.293C13.5964 17.6835 13.5964 18.3165 13.206 18.707L7.70599 24.207C7.52103 24.3941 7.26905 24.4996 7.00599 24.5ZM5.58499 12.5L7.99899 14.916V21.087L11.085 18L7.99899 14.916V10.088L11.085 7.00004L7.99899 3.91604V10.087L5.58499 12.5Z" fill="white"/>
</mask>
<g mask="url(#mask0_0_12342)">
<rect x="-5.50098" y="0.500061" width="24" height="24" fill="#333333"/>
</g>
</svg>
