<svg width="17" height="21" viewBox="0 0 17 21" fill="none" xmlns="http://www.w3.org/2000/svg">
<mask id="mask0_0_14050" style="mask-type:alpha" maskUnits="userSpaceOnUse" x="0" y="0" width="17" height="21">
<path fill-rule="evenodd" clip-rule="evenodd" d="M15.4999 20.5C15.2923 20.4996 15.0901 20.4338 14.9219 20.312L8.49992 15.729L2.08092 20.314C1.91169 20.4357 1.70834 20.5008 1.49992 20.5C1.23956 20.4996 0.989194 20.3998 0.799916 20.221C0.604948 20.0322 0.496424 19.7714 0.499916 19.5V3.5C0.499916 1.84315 1.84306 0.5 3.49992 0.5H13.4999C15.1568 0.5 16.4999 1.84315 16.4999 3.5V19.5C16.4999 20.0523 16.0522 20.5 15.4999 20.5ZM8.49992 13.5C8.70857 13.4998 8.91207 13.5648 9.08192 13.686L14.4999 17.557V3.5C14.4999 2.94772 14.0522 2.5 13.4999 2.5H3.49992C2.94763 2.5 2.49992 2.94772 2.49992 3.5V17.557L7.91892 13.686C8.08827 13.5646 8.29153 13.4995 8.49992 13.5Z" fill="white"/>
</mask>
<g mask="url(#mask0_0_14050)">
<rect x="-3.50012" y="-1.5" width="24" height="24" fill="#333333"/>
</g>
</svg>
