<svg width="19" height="23" viewBox="0 0 19 23" fill="none" xmlns="http://www.w3.org/2000/svg">
<path fill-rule="evenodd" clip-rule="evenodd" d="M4 22.5C2.067 22.5 0.5 20.933 0.5 19V4C0.5 2.067 2.067 0.5 4 0.5H17.5C18.0523 0.5 18.5 0.947715 18.5 1.5V21.5C18.5 22.0523 18.0523 22.5 17.5 22.5H4ZM4 20.5H16.5V17.5H4C3.17157 17.5 2.5 18.1716 2.5 19C2.5 19.8284 3.17157 20.5 4 20.5ZM2.5 15.837V4C2.5 3.17157 3.17157 2.5 4 2.5H16.5V15.5H4C3.48115 15.4993 2.96869 15.6144 2.5 15.837Z" fill="#333333"/>
<mask id="mask0_0_14698" style="mask-type:alpha" maskUnits="userSpaceOnUse" x="0" y="0" width="19" height="23">
<path fill-rule="evenodd" clip-rule="evenodd" d="M4 22.5C2.067 22.5 0.5 20.933 0.5 19V4C0.5 2.067 2.067 0.5 4 0.5H17.5C18.0523 0.5 18.5 0.947715 18.5 1.5V21.5C18.5 22.0523 18.0523 22.5 17.5 22.5H4ZM4 20.5H16.5V17.5H4C3.17157 17.5 2.5 18.1716 2.5 19C2.5 19.8284 3.17157 20.5 4 20.5ZM2.5 4V15.837C2.96869 15.6144 3.48115 15.4993 4 15.5H16.5V2.5H4C3.17157 2.5 2.5 3.17157 2.5 4Z" fill="white"/>
</mask>
<g mask="url(#mask0_0_14698)">
<rect x="-2.5" y="-0.5" width="24" height="24" fill="#333333"/>
</g>
</svg>
