<svg width="23" height="25" viewBox="0 0 23 25" fill="none" xmlns="http://www.w3.org/2000/svg">
<path fill-rule="evenodd" clip-rule="evenodd" d="M2.15304 19.714L10.153 23.714H10.152C10.9971 24.1369 11.992 24.1369 12.837 23.714L20.837 19.714C21.8587 19.2106 22.5042 18.1689 22.5 17.03V7.5C22.5026 6.36012 21.8558 5.3183 20.833 4.815L12.833 0.814995C11.9921 0.397117 11.004 0.397117 10.163 0.814995L2.16304 4.815C1.14135 5.31887 0.496002 6.36082 0.500037 7.5V17.019C0.499015 18.1571 1.13811 19.199 2.15304 19.714ZM3.04704 17.926C2.70969 17.753 2.49822 17.4051 2.50004 17.026V7.877L10.5 11.877V21.651L3.04704 17.926ZM12.5 21.646L19.946 17.923C20.2868 17.7553 20.5019 17.4078 20.5 17.028V7.877L12.5 11.877V21.646ZM19.259 6.262L11.5 10.141L3.74104 6.262L11.057 2.6C11.3365 2.46169 11.6645 2.46169 11.944 2.6L19.259 6.262Z" fill="#333333"/>
<mask id="mask0_0_13264" style="mask-type:alpha" maskUnits="userSpaceOnUse" x="0" y="0" width="23" height="25">
<path fill-rule="evenodd" clip-rule="evenodd" d="M10.153 23.714L2.15304 19.714C1.13811 19.199 0.499015 18.1571 0.500037 17.019V7.5C0.496002 6.36082 1.14135 5.31887 2.16304 4.815L10.163 0.814995C11.004 0.397117 11.9921 0.397117 12.833 0.814995L20.833 4.815C21.8558 5.31829 22.5026 6.36012 22.5 7.5V17.03C22.5042 18.1689 21.8587 19.2106 20.837 19.714L12.837 23.714C11.992 24.1369 10.9971 24.1369 10.152 23.714H10.153ZM2.50004 17.026C2.49823 17.4051 2.70969 17.753 3.04704 17.926L10.5 21.651V11.877L2.50004 7.877V17.026ZM12.5 21.646L19.946 17.923C20.2868 17.7553 20.5019 17.4078 20.5 17.028V7.877L12.5 11.877V21.646ZM11.5 10.141L19.259 6.262L11.944 2.6C11.6645 2.46169 11.3365 2.46169 11.057 2.6L3.74104 6.262L11.5 10.141Z" fill="white"/>
</mask>
<g mask="url(#mask0_0_13264)">
<rect x="-0.5" y="0.5" width="24" height="24" fill="#333333"/>
</g>
</svg>
