<svg width="23" height="21" viewBox="0 0 23 21" fill="none" xmlns="http://www.w3.org/2000/svg">
<path fill-rule="evenodd" clip-rule="evenodd" d="M3.5 20.5C1.84315 20.5 0.5 19.1569 0.5 17.5V7.5C0.5 5.84315 1.84315 4.5 3.5 4.5H6.5V3.5C6.5 1.84315 7.84315 0.5 9.5 0.5H13.5C15.1569 0.5 16.5 1.84315 16.5 3.5V4.5H19.5C21.1569 4.5 22.5 5.84315 22.5 7.5V17.5C22.5 19.1569 21.1569 20.5 19.5 20.5H15.5H3.5ZM19.5 18.5C20.0523 18.5 20.5 18.0523 20.5 17.5V7.5C20.5 6.94772 20.0523 6.5 19.5 6.5H16.5V18.5H19.5ZM14.5 6.5V18.5H8.5V6.5H14.5ZM2.5 7.5V17.5C2.5 18.0523 2.94772 18.5 3.5 18.5H6.5V6.5H3.5C2.94772 6.5 2.5 6.94772 2.5 7.5ZM14.5 3.5V4.5H8.5V3.5C8.5 2.94772 8.94771 2.5 9.5 2.5H13.5C14.0523 2.5 14.5 2.94772 14.5 3.5Z" fill="#333333"/>
<mask id="mask0_0_14225" style="mask-type:alpha" maskUnits="userSpaceOnUse" x="0" y="0" width="23" height="21">
<path fill-rule="evenodd" clip-rule="evenodd" d="M15.5 20.5H3.5C1.84315 20.5 0.5 19.1569 0.5 17.5V7.5C0.5 5.84315 1.84315 4.5 3.5 4.5H6.5V3.5C6.5 1.84315 7.84315 0.5 9.5 0.5H13.5C15.1569 0.5 16.5 1.84315 16.5 3.5V4.5H19.5C21.1569 4.5 22.5 5.84315 22.5 7.5V17.5C22.5 19.1569 21.1569 20.5 19.5 20.5H15.5ZM19.5 18.5C20.0523 18.5 20.5 18.0523 20.5 17.5V7.5C20.5 6.94772 20.0523 6.5 19.5 6.5H16.5V18.5H19.5ZM14.5 18.5V6.5H8.5V18.5H14.5ZM2.5 7.5V17.5C2.5 18.0523 2.94772 18.5 3.5 18.5H6.5V6.5H3.5C2.94772 6.5 2.5 6.94772 2.5 7.5ZM14.5 4.5V3.5C14.5 2.94772 14.0523 2.5 13.5 2.5H9.5C8.94772 2.5 8.5 2.94772 8.5 3.5V4.5H14.5Z" fill="white"/>
</mask>
<g mask="url(#mask0_0_14225)">
<rect x="-0.5" y="-1.5" width="24" height="24" fill="#333333"/>
</g>
</svg>
