<svg width="16" height="15" viewBox="0 0 16 15" fill="none" xmlns="http://www.w3.org/2000/svg">
<path fill-rule="evenodd" clip-rule="evenodd" d="M0.5 1.5C0.5 2.05228 0.947715 2.5 1.5 2.5H14.5C15.0523 2.5 15.5 2.05228 15.5 1.5C15.5 0.947715 15.0523 0.5 14.5 0.5H1.5C0.947715 0.5 0.5 0.947715 0.5 1.5ZM1.5 8.5C0.947715 8.5 0.5 8.05228 0.5 7.5C0.5 6.94772 0.947715 6.5 1.5 6.5H11.153C11.7053 6.5 12.153 6.94772 12.153 7.5C12.153 8.05228 11.7053 8.5 11.153 8.5H1.5ZM1.5 14.5C0.947715 14.5 0.5 14.0523 0.5 13.5C0.5 12.9477 0.947715 12.5 1.5 12.5H14.5C15.0523 12.5 15.5 12.9477 15.5 13.5C15.5 14.0523 15.0523 14.5 14.5 14.5H1.5Z" fill="#333333"/>
<mask id="mask0_0_14131" style="mask-type:alpha" maskUnits="userSpaceOnUse" x="0" y="0" width="16" height="15">
<path fill-rule="evenodd" clip-rule="evenodd" d="M1.5 14.5C0.947715 14.5 0.5 14.0523 0.5 13.5C0.5 12.9477 0.947715 12.5 1.5 12.5H14.5C15.0523 12.5 15.5 12.9477 15.5 13.5C15.5 14.0523 15.0523 14.5 14.5 14.5H1.5ZM1.5 8.5C0.947715 8.5 0.5 8.05228 0.5 7.5C0.5 6.94772 0.947715 6.5 1.5 6.5H11.153C11.7053 6.5 12.153 6.94772 12.153 7.5C12.153 8.05228 11.7053 8.5 11.153 8.5H1.5ZM1.5 2.5C0.947715 2.5 0.5 2.05228 0.5 1.5C0.5 0.947715 0.947715 0.5 1.5 0.5H14.5C15.0523 0.5 15.5 0.947715 15.5 1.5C15.5 2.05228 15.0523 2.5 14.5 2.5H1.5Z" fill="white"/>
</mask>
<g mask="url(#mask0_0_14131)">
<rect x="-4.5" y="-4.5" width="24" height="24" fill="#333333"/>
</g>
</svg>
