<svg width="21" height="23" viewBox="0 0 21 23" fill="none" xmlns="http://www.w3.org/2000/svg">
<path fill-rule="evenodd" clip-rule="evenodd" d="M3.5 22.5C1.84315 22.5 0.5 21.1569 0.5 19.5V5.5C0.5 3.84315 1.84315 2.5 3.5 2.5H5.5V1.5C5.5 0.947715 5.94772 0.5 6.5 0.5C7.05228 0.5 7.5 0.947715 7.5 1.5V2.5H13.5V1.5C13.5 0.947715 13.9477 0.5 14.5 0.5C15.0523 0.5 15.5 0.947715 15.5 1.5V2.5H17.5C19.1569 2.5 20.5 3.84315 20.5 5.5V19.5C20.5 21.1569 19.1569 22.5 17.5 22.5H3.5ZM2.5 19.5C2.5 20.0523 2.94772 20.5 3.5 20.5H17.5C18.0523 20.5 18.5 20.0523 18.5 19.5V10.5H2.5V19.5ZM18.5 5.5V8.5H2.5V5.5C2.5 4.94772 2.94772 4.5 3.5 4.5H5.5V5.5C5.5 6.05228 5.94772 6.5 6.5 6.5C7.05228 6.5 7.5 6.05228 7.5 5.5V4.5H13.5V5.5C13.5 6.05228 13.9477 6.5 14.5 6.5C15.0523 6.5 15.5 6.05228 15.5 5.5V4.5H17.5C18.0523 4.5 18.5 4.94772 18.5 5.5Z" fill="#333333"/>
<mask id="mask0_0_13749" style="mask-type:alpha" maskUnits="userSpaceOnUse" x="0" y="0" width="21" height="23">
<path fill-rule="evenodd" clip-rule="evenodd" d="M3.5 22.5C1.84315 22.5 0.5 21.1569 0.5 19.5V5.5C0.5 3.84315 1.84315 2.5 3.5 2.5H5.5V1.5C5.5 0.947715 5.94772 0.5 6.5 0.5C7.05228 0.5 7.5 0.947715 7.5 1.5V2.5H13.5V1.5C13.5 0.947715 13.9477 0.5 14.5 0.5C15.0523 0.5 15.5 0.947715 15.5 1.5V2.5H17.5C19.1569 2.5 20.5 3.84315 20.5 5.5V19.5C20.5 21.1569 19.1569 22.5 17.5 22.5H3.5ZM2.5 19.5C2.5 20.0523 2.94772 20.5 3.5 20.5H17.5C18.0523 20.5 18.5 20.0523 18.5 19.5V10.5H2.5V19.5ZM18.5 8.5V5.5C18.5 4.94772 18.0523 4.5 17.5 4.5H15.5V5.5C15.5 6.05228 15.0523 6.5 14.5 6.5C13.9477 6.5 13.5 6.05228 13.5 5.5V4.5H7.5V5.5C7.5 6.05228 7.05228 6.5 6.5 6.5C5.94772 6.5 5.5 6.05228 5.5 5.5V4.5H3.5C2.94772 4.5 2.5 4.94772 2.5 5.5V8.5H18.5Z" fill="white"/>
</mask>
<g mask="url(#mask0_0_13749)">
<rect x="-1.5" y="-0.5" width="24" height="24" fill="#333333"/>
</g>
</svg>
