<svg width="25" height="25" viewBox="0 0 25 25" fill="none" xmlns="http://www.w3.org/2000/svg">
<path fill-rule="evenodd" clip-rule="evenodd" d="M21.086 22.5L22.793 24.207L22.792 24.205C23.0431 24.465 23.4149 24.5693 23.7645 24.4777C24.1141 24.3862 24.3872 24.1132 24.4787 23.7635C24.5702 23.4139 24.466 23.0421 24.206 22.791L22.206 20.791L16.491 15.076L16.481 15.066L2.207 0.793041C1.81462 0.414069 1.19092 0.419489 0.805181 0.805223C0.419448 1.19096 0.414028 1.81466 0.793 2.20704L4.086 5.50004H3.5C1.84315 5.50004 0.5 6.84319 0.5 8.50004V19.5C0.5 21.1569 1.84315 22.5 3.5 22.5H21.086ZM2.5 19.5V8.50004C2.5 7.94776 2.94772 7.50004 3.5 7.50004H6.086L8.762 10.177C6.98134 12.1536 7.06026 15.1784 8.94156 17.0595C10.8229 18.9405 13.8477 19.019 15.824 17.238L19.086 20.5H3.5C2.94772 20.5 2.5 20.0523 2.5 19.5ZM9.539 14.117C9.75011 15.1532 10.4911 16.0016 11.4893 16.3503C12.4876 16.699 13.5957 16.4964 14.406 15.817L10.179 11.594C9.59294 12.2939 9.35738 13.2225 9.539 14.117ZM22.5 8.50004V17.84C22.5 18.3923 22.9477 18.84 23.5 18.84C24.0523 18.84 24.5 18.3923 24.5 17.84V8.50004C24.5 6.84319 23.1569 5.50004 21.5 5.50004H18.036L16.332 2.94604C16.1467 2.66759 15.8345 2.50021 15.5 2.50004H9.5C8.94771 2.50004 8.5 2.94776 8.5 3.50004C8.5 4.05233 8.94771 4.50004 9.5 4.50004H14.965L16.667 7.05504C16.8527 7.33341 17.1654 7.50043 17.5 7.50004H21.5C22.0523 7.50004 22.5 7.94776 22.5 8.50004Z" fill="#333333"/>
<mask id="mask0_0_11998" style="mask-type:alpha" maskUnits="userSpaceOnUse" x="0" y="0" width="25" height="25">
<path fill-rule="evenodd" clip-rule="evenodd" d="M22.793 24.207L21.086 22.5H3.5C1.84315 22.5 0.5 21.1569 0.5 19.5V8.50004C0.5 6.84319 1.84315 5.50004 3.5 5.50004H4.086L0.793 2.20704C0.414028 1.81466 0.419448 1.19096 0.805181 0.805223C1.19092 0.419489 1.81462 0.414069 2.207 0.793041L16.481 15.066L16.491 15.076L22.206 20.791V20.791L24.206 22.791C24.466 23.0421 24.5702 23.4139 24.4787 23.7635C24.3872 24.1132 24.1141 24.3862 23.7645 24.4777C23.4149 24.5693 23.0431 24.465 22.792 24.205L22.793 24.207ZM2.5 8.50004V19.5C2.5 20.0523 2.94772 20.5 3.5 20.5H19.086L15.824 17.238C13.8477 19.019 10.8229 18.9405 8.94156 17.0595C7.06026 15.1784 6.98134 12.1536 8.762 10.177L6.086 7.50004H3.5C2.94772 7.50004 2.5 7.94776 2.5 8.50004ZM9.539 14.117C9.75011 15.1532 10.4911 16.0016 11.4893 16.3503C12.4876 16.699 13.5957 16.4964 14.406 15.817L10.179 11.594C9.59294 12.2939 9.35738 13.2225 9.539 14.117V14.117ZM22.5 17.84V8.50004C22.5 7.94776 22.0523 7.50004 21.5 7.50004H17.5C17.1654 7.50043 16.8527 7.33341 16.667 7.05504L14.965 4.50004H9.5C8.94772 4.50004 8.5 4.05233 8.5 3.50004C8.5 2.94776 8.94772 2.50004 9.5 2.50004H15.5C15.8345 2.50021 16.1467 2.66759 16.332 2.94604L18.036 5.50004H21.5C23.1569 5.50004 24.5 6.84319 24.5 8.50004V17.84C24.5 18.3923 24.0523 18.84 23.5 18.84C22.9477 18.84 22.5 18.3923 22.5 17.84Z" fill="white"/>
</mask>
<g mask="url(#mask0_0_11998)">
<rect x="0.5" y="0.500061" width="24" height="24" fill="#333333"/>
</g>
</svg>
