<svg width="25" height="21" viewBox="0 0 25 21" fill="none" xmlns="http://www.w3.org/2000/svg">
<path fill-rule="evenodd" clip-rule="evenodd" d="M21.5 20.5C23.1569 20.5 24.5 19.1569 24.5 17.5V6.5C24.5 4.84315 23.1569 3.5 21.5 3.5H18.036L16.332 0.946C16.1467 0.66755 15.8345 0.500173 15.5 0.5H9.5C9.16572 0.49995 8.85353 0.66693 8.668 0.945L6.965 3.5H3.5C1.84315 3.5 0.5 4.84315 0.5 6.5V17.5C0.5 19.1569 1.84315 20.5 3.5 20.5H21.5ZM2.5 6.5C2.5 5.94772 2.94772 5.5 3.5 5.5H7.5C7.83569 5.50139 8.14969 5.33425 8.336 5.055L10.036 2.5H14.965L16.667 5.054C16.8525 5.33275 17.1652 5.50016 17.5 5.5H21.5C22.0523 5.5 22.5 5.94772 22.5 6.5V17.5C22.5 18.0523 22.0523 18.5 21.5 18.5H3.5C2.94772 18.5 2.5 18.0523 2.5 17.5V6.5ZM12.5 16.5C9.73858 16.5 7.5 14.2614 7.5 11.5C7.5 8.73858 9.73858 6.5 12.5 6.5C15.2614 6.5 17.5 8.73858 17.5 11.5C17.4967 14.2601 15.2601 16.4967 12.5 16.5ZM9.5 11.5C9.5 9.84315 10.8431 8.5 12.5 8.5C14.1569 8.5 15.5 9.84315 15.5 11.5C15.5 13.1569 14.1569 14.5 12.5 14.5C10.8431 14.5 9.5 13.1569 9.5 11.5Z" fill="#333333"/>
<mask id="mask0_0_12515" style="mask-type:alpha" maskUnits="userSpaceOnUse" x="0" y="0" width="25" height="21">
<path fill-rule="evenodd" clip-rule="evenodd" d="M21.5 20.5H3.5C1.84315 20.5 0.5 19.1569 0.5 17.5V6.5C0.5 4.84315 1.84315 3.5 3.5 3.5H6.965L8.668 0.945C8.85352 0.66693 9.16572 0.49995 9.5 0.5H15.5C15.8345 0.500173 16.1467 0.66755 16.332 0.946L18.036 3.5H21.5C23.1569 3.5 24.5 4.84315 24.5 6.5V17.5C24.5 19.1569 23.1569 20.5 21.5 20.5ZM3.5 5.5C2.94772 5.5 2.5 5.94772 2.5 6.5V17.5C2.5 18.0523 2.94772 18.5 3.5 18.5H21.5C22.0523 18.5 22.5 18.0523 22.5 17.5V6.5C22.5 5.94772 22.0523 5.5 21.5 5.5H17.5C17.1652 5.50016 16.8525 5.33275 16.667 5.054L14.965 2.5H10.036L8.336 5.055C8.14969 5.33425 7.83569 5.50139 7.5 5.5H3.5ZM12.5 16.5C9.73858 16.5 7.5 14.2614 7.5 11.5C7.5 8.73858 9.73858 6.5 12.5 6.5C15.2614 6.5 17.5 8.73858 17.5 11.5C17.4967 14.2601 15.2601 16.4967 12.5 16.5ZM12.5 8.5C10.8431 8.5 9.5 9.84315 9.5 11.5C9.5 13.1569 10.8431 14.5 12.5 14.5C14.1569 14.5 15.5 13.1569 15.5 11.5C15.5 9.84315 14.1569 8.5 12.5 8.5Z" fill="white"/>
</mask>
<g mask="url(#mask0_0_12515)">
<rect x="0.5" y="-1.5" width="24" height="24" fill="#333333"/>
</g>
</svg>
