<svg width="23" height="19" viewBox="0 0 23 19" fill="none" xmlns="http://www.w3.org/2000/svg">
<path fill-rule="evenodd" clip-rule="evenodd" d="M13.4999 18.5C12.9476 18.5 12.4999 18.0523 12.4999 17.5C12.4999 16.9477 12.9476 16.5 13.4999 16.5H19.4999C20.0522 16.5 20.4999 16.0523 20.4999 15.5V3.5C20.4999 2.94772 20.0522 2.5 19.4999 2.5H3.49991C2.94763 2.5 2.49991 2.94772 2.49991 3.5V5.5C2.49991 6.05228 2.0522 6.5 1.49991 6.5C0.947627 6.5 0.499912 6.05228 0.499912 5.5V3.5C0.499912 1.84315 1.84306 0.5 3.49991 0.5H19.4999C21.1568 0.5 22.4999 1.84315 22.4999 3.5V15.5C22.4999 17.1569 21.1568 18.5 19.4999 18.5H13.4999ZM4.41991 17.7C4.09943 16.1286 2.87134 14.9005 1.29991 14.58C0.770752 14.4586 0.435106 13.9372 0.543719 13.4053C0.652331 12.8733 1.16552 12.5252 1.69991 12.621C4.05677 13.1016 5.89883 14.9432 6.37991 17.3C6.46108 17.6538 6.34413 18.0238 6.07436 18.2667C5.8046 18.5096 5.42438 18.5873 5.08099 18.4696C4.73759 18.3519 4.48495 18.0573 4.42091 17.7H4.41991ZM1.38991 10.544C5.10747 10.9583 8.04168 13.8933 8.45491 17.611L8.45591 17.61C8.51694 18.159 9.01144 18.5545 9.56041 18.4935C10.1094 18.4325 10.5049 17.938 10.4439 17.389C9.9268 12.7413 6.25768 9.07259 1.60991 8.556C1.06094 8.49525 0.566663 8.89103 0.505912 9.44C0.44516 9.98897 0.84094 10.4832 1.38991 10.544Z" fill="#333333"/>
<mask id="mask0_0_13571" style="mask-type:alpha" maskUnits="userSpaceOnUse" x="0" y="0" width="23" height="19">
<path fill-rule="evenodd" clip-rule="evenodd" d="M4.41991 17.7C4.09943 16.1286 2.87134 14.9005 1.29991 14.58C0.770752 14.4586 0.435106 13.9372 0.543719 13.4053C0.652331 12.8733 1.16552 12.5252 1.69991 12.621C4.05677 13.1016 5.89883 14.9432 6.37991 17.3C6.46108 17.6538 6.34413 18.0238 6.07436 18.2667C5.8046 18.5096 5.42438 18.5873 5.08099 18.4696C4.73759 18.3519 4.48495 18.0573 4.42091 17.7H4.41991ZM13.4999 18.5C12.9476 18.5 12.4999 18.0523 12.4999 17.5C12.4999 16.9477 12.9476 16.5 13.4999 16.5H19.4999C20.0522 16.5 20.4999 16.0523 20.4999 15.5V3.5C20.4999 2.94772 20.0522 2.5 19.4999 2.5H3.49991C2.94763 2.5 2.49991 2.94772 2.49991 3.5V5.5C2.49991 6.05228 2.0522 6.5 1.49991 6.5C0.947627 6.5 0.499912 6.05228 0.499912 5.5V3.5C0.499912 1.84315 1.84306 0.5 3.49991 0.5H19.4999C21.1568 0.5 22.4999 1.84315 22.4999 3.5V15.5C22.4999 17.1569 21.1568 18.5 19.4999 18.5H13.4999ZM8.45491 17.611C8.04168 13.8933 5.10747 10.9583 1.38991 10.544C0.84094 10.4832 0.44516 9.98897 0.505912 9.44C0.566663 8.89103 1.06094 8.49525 1.60991 8.556C6.25768 9.07259 9.9268 12.7413 10.4439 17.389C10.5049 17.938 10.1094 18.4325 9.56041 18.4935C9.01144 18.5545 8.51694 18.159 8.45591 17.61L8.45491 17.611Z" fill="white"/>
</mask>
<g mask="url(#mask0_0_13571)">
<rect x="-0.500122" y="-2.5" width="24" height="24" fill="#333333"/>
</g>
</svg>
