<svg width="24" height="23" viewBox="0 0 24 23" fill="none" xmlns="http://www.w3.org/2000/svg">
<path fill-rule="evenodd" clip-rule="evenodd" d="M3.13776 4.35368C-0.0274589 8.05702 -0.379737 13.4012 2.27197 17.488C4.92346 21.5748 9.94727 23.4309 14.619 22.0495C19.2907 20.6682 22.4973 16.3786 22.5 11.507V10.576C22.5 10.0237 22.0523 9.57598 21.5 9.57598C20.9477 9.57598 20.5 10.0237 20.5 10.576V11.506C20.4977 15.4918 17.874 19.0014 14.0518 20.1315C10.2295 21.2616 6.11923 19.7431 3.94983 16.3993C1.78044 13.0556 2.06875 8.68326 4.65842 5.65335C7.24809 2.62344 11.5222 1.65776 15.163 3.27998C15.6675 3.50476 16.2587 3.27799 16.4835 2.77348C16.7083 2.26897 16.4815 1.67776 15.977 1.45298C11.5271 -0.529917 6.30298 0.650339 3.13776 4.35368ZM7.79297 11.214L10.793 14.214C11.1835 14.6044 11.8165 14.6044 12.207 14.214L23.207 3.21398C23.5859 2.8216 23.5805 2.1979 23.1948 1.81216C22.8091 1.42643 22.1854 1.42101 21.793 1.79998L11.5 12.092L9.20797 9.79998C8.81751 9.40924 8.18422 9.40902 7.79347 9.79948C7.40273 10.1899 7.40251 10.8232 7.79297 11.214Z" fill="#333333"/>
<mask id="mask0_0_13312" style="mask-type:alpha" maskUnits="userSpaceOnUse" x="0" y="0" width="24" height="23">
<path fill-rule="evenodd" clip-rule="evenodd" d="M2.27197 17.488C-0.379737 13.4012 -0.0274589 8.05702 3.13776 4.35368C6.30298 0.650339 11.5271 -0.529917 15.977 1.45298C16.4815 1.67776 16.7083 2.26897 16.4835 2.77348C16.2587 3.27799 15.6675 3.50476 15.163 3.27998C11.5222 1.65776 7.24809 2.62344 4.65842 5.65335C2.06875 8.68326 1.78044 13.0556 3.94983 16.3993C6.11923 19.7431 10.2295 21.2616 14.0518 20.1315C17.874 19.0014 20.4977 15.4918 20.5 11.506V10.576C20.5 10.0237 20.9477 9.57598 21.5 9.57598C22.0523 9.57598 22.5 10.0237 22.5 10.576V11.507C22.4973 16.3786 19.2907 20.6682 14.619 22.0495C9.94727 23.4309 4.92346 21.5748 2.27197 17.488ZM10.793 14.214L7.79297 11.214C7.40251 10.8232 7.40273 10.1899 7.79347 9.79948C8.18422 9.40902 8.81751 9.40924 9.20797 9.79998L11.5 12.092L21.793 1.79998C22.1854 1.42101 22.8091 1.42643 23.1948 1.81216C23.5805 2.1979 23.5859 2.8216 23.207 3.21398L12.207 14.214C11.8165 14.6044 11.1835 14.6044 10.793 14.214Z" fill="white"/>
</mask>
<g mask="url(#mask0_0_13312)">
<rect x="0.5" y="-0.5" width="24" height="24" fill="#333333"/>
</g>
</svg>
