<svg width="19" height="14" viewBox="0 0 19 14" fill="none" xmlns="http://www.w3.org/2000/svg">
<path d="M2.20692 6.79292C1.81454 6.41395 1.19083 6.41937 0.8051 6.8051C0.419367 7.19083 0.413947 7.81454 0.792919 8.20692L5.79292 13.2069C6.18342 13.5973 6.81642 13.5973 7.20692 13.2069L18.2069 2.20692C18.5859 1.81454 18.5805 1.19083 18.1947 0.8051C17.809 0.419367 17.1853 0.413947 16.7929 0.792919L6.49992 11.0859L2.20692 6.79292Z" fill="#333333"/>
<mask id="mask0_0_14028" style="mask-type:alpha" maskUnits="userSpaceOnUse" x="0" y="0" width="19" height="14">
<path fill-rule="evenodd" clip-rule="evenodd" d="M2.20692 6.79292C1.81454 6.41395 1.19083 6.41937 0.8051 6.8051C0.419367 7.19083 0.413947 7.81454 0.792919 8.20692L5.79292 13.2069C6.18342 13.5973 6.81642 13.5973 7.20692 13.2069L18.2069 2.20692C18.5859 1.81454 18.5805 1.19083 18.1947 0.8051C17.809 0.419367 17.1853 0.413947 16.7929 0.792919L6.49992 11.0859L2.20692 6.79292Z" fill="white"/>
</mask>
<g mask="url(#mask0_0_14028)">
<rect x="-2.50012" y="-5.50012" width="24" height="24" fill="#333333"/>
</g>
</svg>
