<svg width="23" height="21" viewBox="0 0 23 21" fill="none" xmlns="http://www.w3.org/2000/svg">
<path fill-rule="evenodd" clip-rule="evenodd" d="M0.5 17.5C0.5 19.1569 1.84315 20.5 3.5 20.5H17.5C19.1569 20.5 20.5 19.1569 20.5 17.5V10.5C20.5 9.94771 20.0523 9.5 19.5 9.5C18.9477 9.5 18.5 9.94771 18.5 10.5V17.5C18.5 18.0523 18.0523 18.5 17.5 18.5H3.5C2.94772 18.5 2.5 18.0523 2.5 17.5V3.5C2.5 2.94772 2.94772 2.5 3.5 2.5H14.5C15.0523 2.5 15.5 2.05228 15.5 1.5C15.5 0.947715 15.0523 0.5 14.5 0.5H3.5C1.84315 0.5 0.5 1.84315 0.5 3.5V17.5ZM6.793 10.207L9.793 13.207L9.792 13.208C9.97957 13.3958 10.2341 13.5013 10.4995 13.5013C10.7649 13.5013 11.0194 13.3958 11.207 13.208L22.207 2.208C22.4598 1.95541 22.5586 1.58716 22.4662 1.24197C22.3738 0.896775 22.1043 0.627078 21.7592 0.53447C21.4141 0.441862 21.0458 0.540413 20.793 0.793L10.5 11.086L8.207 8.793C7.81462 8.41403 7.19092 8.41945 6.80518 8.80518C6.41945 9.19092 6.41403 9.81462 6.793 10.207Z" fill="#333333"/>
<mask id="mask0_0_14265" style="mask-type:alpha" maskUnits="userSpaceOnUse" x="0" y="0" width="23" height="21">
<path fill-rule="evenodd" clip-rule="evenodd" d="M3.5 20.5C1.84315 20.5 0.5 19.1569 0.5 17.5V3.5C0.5 1.84315 1.84315 0.5 3.5 0.5H14.5C15.0523 0.5 15.5 0.947715 15.5 1.5C15.5 2.05228 15.0523 2.5 14.5 2.5H3.5C2.94772 2.5 2.5 2.94772 2.5 3.5V17.5C2.5 18.0523 2.94772 18.5 3.5 18.5H17.5C18.0523 18.5 18.5 18.0523 18.5 17.5V10.5C18.5 9.94772 18.9477 9.5 19.5 9.5C20.0523 9.5 20.5 9.94772 20.5 10.5V17.5C20.5 19.1569 19.1569 20.5 17.5 20.5H3.5ZM9.793 13.207L6.793 10.207C6.41403 9.81462 6.41945 9.19092 6.80518 8.80518C7.19092 8.41945 7.81462 8.41403 8.207 8.793L10.5 11.086L20.793 0.793C21.0458 0.540413 21.4141 0.441862 21.7592 0.53447C22.1043 0.627078 22.3738 0.896775 22.4662 1.24197C22.5586 1.58716 22.4598 1.95541 22.207 2.208L11.207 13.208C11.0194 13.3958 10.7649 13.5013 10.4995 13.5013C10.2341 13.5013 9.97957 13.3958 9.792 13.208L9.793 13.207Z" fill="white"/>
</mask>
<g mask="url(#mask0_0_14265)">
<rect x="-0.5" y="-1.5" width="24" height="24" fill="#333333"/>
</g>
</svg>
