<svg width="9" height="15" viewBox="0 0 9 15" fill="none" xmlns="http://www.w3.org/2000/svg">
<path d="M6.08592 7.49992L0.792919 12.7929C0.413947 13.1853 0.419367 13.809 0.8051 14.1947C1.19083 14.5805 1.81454 14.5859 2.20692 14.2069L8.20692 8.20692C8.5973 7.81642 8.5973 7.18342 8.20692 6.79292L2.20692 0.792919C1.81454 0.413947 1.19083 0.419367 0.8051 0.8051C0.419367 1.19083 0.413947 1.81454 0.792919 2.20692L6.08592 7.49992Z" fill="#333333"/>
<mask id="mask0_0_13280" style="mask-type:alpha" maskUnits="userSpaceOnUse" x="0" y="0" width="9" height="15">
<path fill-rule="evenodd" clip-rule="evenodd" d="M6.08592 7.49992L0.792919 12.7929C0.413947 13.1853 0.419367 13.809 0.8051 14.1947C1.19083 14.5805 1.81454 14.5859 2.20692 14.2069L8.20692 8.20692C8.5973 7.81642 8.5973 7.18342 8.20692 6.79292L2.20692 0.792919C1.81454 0.413947 1.19083 0.419367 0.8051 0.8051C0.419367 1.19083 0.413947 1.81454 0.792919 2.20692L6.08592 7.49992Z" fill="white"/>
</mask>
<g mask="url(#mask0_0_13280)">
<rect x="-7.50012" y="-4.50012" width="24" height="24" fill="#333333"/>
</g>
</svg>
