<svg width="15" height="9" viewBox="0 0 15 9" fill="none" xmlns="http://www.w3.org/2000/svg">
<path d="M7.49992 6.08592L2.20692 0.792919C1.81454 0.413947 1.19083 0.419367 0.8051 0.8051C0.419367 1.19083 0.413947 1.81454 0.792919 2.20692L6.79292 8.20692C7.18342 8.5973 7.81642 8.5973 8.20692 8.20692L14.2069 2.20692C14.5859 1.81454 14.5805 1.19083 14.1947 0.8051C13.809 0.419367 13.1853 0.413947 12.7929 0.792919L7.49992 6.08592Z" fill="#333333"/>
<mask id="mask0_0_13777" style="mask-type:alpha" maskUnits="userSpaceOnUse" x="0" y="0" width="15" height="9">
<path fill-rule="evenodd" clip-rule="evenodd" d="M7.49992 6.08592L2.20692 0.792919C1.81454 0.413947 1.19083 0.419367 0.8051 0.8051C0.419367 1.19083 0.413947 1.81454 0.792919 2.20692L6.79292 8.20692C7.18342 8.5973 7.81642 8.5973 8.20692 8.20692L14.2069 2.20692C14.5859 1.81454 14.5805 1.19083 14.1947 0.8051C13.809 0.419367 13.1853 0.413947 12.7929 0.792919L7.49992 6.08592Z" fill="white"/>
</mask>
<g mask="url(#mask0_0_13777)">
<rect x="-4.5" y="-7.50012" width="24" height="24" fill="#333333"/>
</g>
</svg>
