<svg width="13" height="15" viewBox="0 0 13 15" fill="none" xmlns="http://www.w3.org/2000/svg">
<path fill-rule="evenodd" clip-rule="evenodd" d="M6.50011 2.91403L10.7931 7.20703C11.0442 7.46699 11.416 7.57124 11.7656 7.47973C12.1152 7.38821 12.3883 7.11517 12.4798 6.76554C12.5713 6.41591 12.4671 6.04411 12.2071 5.79303L7.20711 0.793031C6.81661 0.402649 6.18361 0.402649 5.79311 0.793031L0.793106 5.79303C0.533149 6.04411 0.428893 6.41591 0.520409 6.76554C0.611924 7.11517 0.884969 7.38821 1.2346 7.47973C1.58423 7.57124 1.95603 7.46699 2.20711 7.20703L6.50011 2.91403ZM6.50011 9.91403L10.7931 14.207C11.0442 14.467 11.416 14.5712 11.7656 14.4797C12.1152 14.3882 12.3883 14.1152 12.4798 13.7655C12.5713 13.4159 12.4671 13.0441 12.2071 12.793L7.20711 7.79303C6.81661 7.40265 6.18361 7.40265 5.79311 7.79303L0.793106 12.793C0.414134 13.1854 0.419554 13.8091 0.805287 14.1948C1.19102 14.5806 1.81473 14.586 2.20711 14.207L6.50011 9.91403Z" fill="#333333"/>
<mask id="mask0_0_13399" style="mask-type:alpha" maskUnits="userSpaceOnUse" x="0" y="0" width="13" height="15">
<path fill-rule="evenodd" clip-rule="evenodd" d="M10.7931 14.207L6.50011 9.91403L2.20711 14.207C1.81473 14.586 1.19102 14.5806 0.805287 14.1948C0.419554 13.8091 0.414134 13.1854 0.793106 12.793L5.79311 7.79303C6.18361 7.40265 6.81661 7.40265 7.20711 7.79303L12.2071 12.793C12.4671 13.0441 12.5713 13.4159 12.4798 13.7655C12.3883 14.1152 12.1152 14.3882 11.7656 14.4797C11.416 14.5712 11.0442 14.467 10.7931 14.207V14.207ZM10.7931 7.20703L6.50011 2.91403L2.20711 7.20703C1.95603 7.46699 1.58423 7.57124 1.2346 7.47973C0.884969 7.38821 0.611924 7.11517 0.520409 6.76554C0.428893 6.41591 0.533149 6.04411 0.793106 5.79303L5.79311 0.793031C6.18361 0.402649 6.81661 0.402649 7.20711 0.793031L12.2071 5.79303C12.4671 6.04411 12.5713 6.41591 12.4798 6.76554C12.3883 7.11517 12.1152 7.38821 11.7656 7.47973C11.416 7.57124 11.0442 7.46699 10.7931 7.20703Z" fill="white"/>
</mask>
<g mask="url(#mask0_0_13399)">
<rect x="-5.5" y="-4.5" width="24" height="24" fill="#333333"/>
</g>
</svg>
