<svg width="15" height="13" viewBox="0 0 15 13" fill="none" xmlns="http://www.w3.org/2000/svg">
<path fill-rule="evenodd" clip-rule="evenodd" d="M7.79303 10.793C7.40265 11.1835 7.40265 11.8165 7.79303 12.207C7.9806 12.3948 8.23512 12.5003 8.50053 12.5003C8.76594 12.5003 9.02046 12.3948 9.20803 12.207L14.208 7.20702C14.5984 6.81652 14.5984 6.18352 14.208 5.79302L9.20803 0.79302C8.81756 0.402278 8.18427 0.402054 7.79353 0.79252C7.40279 1.18298 7.40257 1.81628 7.79303 2.20702L12.086 6.50002L7.79303 10.793ZM0.793031 10.793C0.402649 11.1835 0.402649 11.8165 0.793031 12.207H0.792031C0.979599 12.3948 1.23412 12.5003 1.49953 12.5003C1.76494 12.5003 2.01946 12.3948 2.20703 12.207L7.20703 7.20702C7.59741 6.81652 7.59741 6.18352 7.20703 5.79302L2.20703 0.793019C1.81465 0.414047 1.19095 0.419467 0.805212 0.805201C0.419478 1.19093 0.414058 1.81464 0.793031 2.20702L5.08603 6.50002L0.793031 10.793Z" fill="#333333"/>
<mask id="mask0_0_13911" style="mask-type:alpha" maskUnits="userSpaceOnUse" x="0" y="0" width="15" height="13">
<path fill-rule="evenodd" clip-rule="evenodd" d="M7.79303 12.207C7.40265 11.8165 7.40265 11.1835 7.79303 10.793L12.086 6.50002L7.79303 2.20702C7.40257 1.81628 7.40279 1.18298 7.79353 0.79252C8.18427 0.402054 8.81757 0.402278 9.20803 0.79302L14.208 5.79302C14.5984 6.18352 14.5984 6.81652 14.208 7.20702L9.20803 12.207C9.02046 12.3948 8.76594 12.5003 8.50053 12.5003C8.23512 12.5003 7.9806 12.3948 7.79303 12.207ZM0.793031 12.207C0.402649 11.8165 0.402649 11.1835 0.793031 10.793L5.08603 6.50002L0.793031 2.20702C0.414058 1.81464 0.419478 1.19093 0.805212 0.805201C1.19095 0.419467 1.81465 0.414047 2.20703 0.793019L7.20703 5.79302C7.59741 6.18352 7.59741 6.81652 7.20703 7.20702L2.20703 12.207C2.01946 12.3948 1.76494 12.5003 1.49953 12.5003C1.23412 12.5003 0.979599 12.3948 0.792031 12.207H0.793031Z" fill="white"/>
</mask>
<g mask="url(#mask0_0_13911)">
<rect x="-4.5" y="-5.5" width="24" height="24" fill="#333333"/>
</g>
</svg>
