<svg width="15" height="9" viewBox="0 0 15 9" fill="none" xmlns="http://www.w3.org/2000/svg">
<path d="M7.49992 2.91397L12.7929 8.20697C13.044 8.46693 13.4158 8.57118 13.7654 8.47967C14.1151 8.38815 14.3881 8.11511 14.4796 7.76548C14.5711 7.41585 14.4669 7.04404 14.2069 6.79297L8.20692 0.79297C7.81642 0.402588 7.18342 0.402588 6.79292 0.79297L0.792919 6.79297C0.413947 7.18535 0.419367 7.80905 0.8051 8.19479C1.19083 8.58052 1.81454 8.58594 2.20692 8.20697L7.49992 2.91397Z" fill="#333333"/>
<mask id="mask0_0_13669" style="mask-type:alpha" maskUnits="userSpaceOnUse" x="0" y="0" width="15" height="9">
<path fill-rule="evenodd" clip-rule="evenodd" d="M7.49992 2.91397L12.7929 8.20697C13.044 8.46693 13.4158 8.57118 13.7654 8.47967C14.1151 8.38815 14.3881 8.11511 14.4796 7.76548C14.5711 7.41585 14.4669 7.04404 14.2069 6.79297L8.20692 0.79297C7.81642 0.402588 7.18342 0.402588 6.79292 0.79297L0.792919 6.79297C0.413947 7.18535 0.419367 7.80905 0.8051 8.19479C1.19083 8.58052 1.81454 8.58594 2.20692 8.20697L7.49992 2.91397Z" fill="white"/>
</mask>
<g mask="url(#mask0_0_13669)">
<rect x="-4.50012" y="-7.5" width="24" height="24" fill="#333333"/>
</g>
</svg>
