<svg width="13" height="15" viewBox="0 0 13 15" fill="none" xmlns="http://www.w3.org/2000/svg">
<path fill-rule="evenodd" clip-rule="evenodd" d="M0.792984 2.20695L5.79298 7.20695V7.20795C6.18348 7.59833 6.81648 7.59833 7.20698 7.20795L12.207 2.20795C12.5977 1.81748 12.5979 1.18419 12.2075 0.793447C11.817 0.402705 11.1837 0.402481 10.793 0.792947L6.49998 5.08595L2.20698 0.792947C1.8146 0.413975 1.1909 0.419394 0.805165 0.805128C0.419432 1.19086 0.414012 1.81457 0.792984 2.20695ZM0.792984 9.20695L5.79298 14.2069V14.2079C6.18348 14.5983 6.81648 14.5983 7.20698 14.2079L12.207 9.20795C12.5977 8.81748 12.5979 8.18419 12.2075 7.79345C11.817 7.40271 11.1837 7.40248 10.793 7.79295L6.49998 12.0859L2.20698 7.79295C1.95591 7.53299 1.58411 7.42873 1.23448 7.52025C0.884847 7.61176 0.611802 7.88481 0.520287 8.23444C0.428771 8.58407 0.533027 8.95587 0.792984 9.20695Z" fill="#333333"/>
<mask id="mask0_0_13624" style="mask-type:alpha" maskUnits="userSpaceOnUse" x="0" y="0" width="13" height="15">
<path fill-rule="evenodd" clip-rule="evenodd" d="M5.79298 14.2069L0.792984 9.20695C0.533027 8.95587 0.428771 8.58407 0.520287 8.23444C0.611802 7.88481 0.884847 7.61176 1.23448 7.52025C1.58411 7.42873 1.95591 7.53299 2.20698 7.79295L6.49998 12.0859L10.793 7.79295C11.1837 7.40248 11.817 7.40271 12.2075 7.79345C12.5979 8.18419 12.5977 8.81748 12.207 9.20795L7.20698 14.2079C6.81648 14.5983 6.18348 14.5983 5.79298 14.2079V14.2069ZM5.79298 7.20695L0.792984 2.20695C0.414012 1.81457 0.419431 1.19086 0.805165 0.805128C1.1909 0.419394 1.81461 0.413975 2.20698 0.792947L6.49998 5.08595L10.793 0.792947C11.1837 0.402481 11.817 0.402705 12.2075 0.793447C12.5979 1.18419 12.5977 1.81748 12.207 2.20795L7.20698 7.20795C6.81648 7.59833 6.18348 7.59833 5.79298 7.20795V7.20695Z" fill="white"/>
</mask>
<g mask="url(#mask0_0_13624)">
<rect x="-5.5" y="-4.5" width="24" height="24" fill="#333333"/>
</g>
</svg>
