<svg width="9" height="15" viewBox="0 0 9 15" fill="none" xmlns="http://www.w3.org/2000/svg">
<path d="M2.91403 7.50004L8.20703 2.20704C8.586 1.81466 8.58058 1.19096 8.19485 0.805223C7.80912 0.419489 7.18541 0.414069 6.79303 0.793041L0.793031 6.79304C0.402649 7.18354 0.402649 7.81654 0.793031 8.20704L6.79303 14.207C7.04411 14.467 7.41591 14.5713 7.76554 14.4797C8.11517 14.3882 8.38821 14.1152 8.47973 13.7655C8.57124 13.4159 8.46699 13.0441 8.20703 12.793L2.91403 7.50004Z" fill="#333333"/>
<mask id="mask0_0_12014" style="mask-type:alpha" maskUnits="userSpaceOnUse" x="0" y="0" width="9" height="15">
<path fill-rule="evenodd" clip-rule="evenodd" d="M2.91403 7.50004L8.20703 2.20704C8.586 1.81466 8.58058 1.19096 8.19485 0.805223C7.80912 0.419489 7.18541 0.414069 6.79303 0.793041L0.793031 6.79304C0.402649 7.18354 0.402649 7.81654 0.793031 8.20704L6.79303 14.207C7.04411 14.467 7.41591 14.5713 7.76554 14.4797C8.11517 14.3882 8.38821 14.1152 8.47973 13.7655C8.57124 13.4159 8.46699 13.0441 8.20703 12.793L2.91403 7.50004Z" fill="white"/>
</mask>
<g mask="url(#mask0_0_12014)">
<rect x="-7.5" y="-4.49994" width="24" height="24" fill="#333333"/>
</g>
</svg>
