<svg width="15" height="13" viewBox="0 0 15 13" fill="none" xmlns="http://www.w3.org/2000/svg">
<path fill-rule="evenodd" clip-rule="evenodd" d="M0.793031 7.20698L5.79303 12.207C6.04411 12.4669 6.41591 12.5712 6.76554 12.4797C7.11517 12.3882 7.38821 12.1151 7.47973 11.7655C7.57124 11.4159 7.46699 11.0441 7.20703 10.793L2.91403 6.49998L7.20703 2.20698C7.46699 1.95591 7.57124 1.58411 7.47973 1.23448C7.38821 0.884847 7.11517 0.611802 6.76554 0.520287C6.41591 0.428771 6.04411 0.533027 5.79303 0.792984L0.793031 5.79298C0.402649 6.18348 0.402649 6.81648 0.793031 7.20698ZM7.79303 7.20698L12.793 12.207C13.0441 12.4669 13.4159 12.5712 13.7655 12.4797C14.1152 12.3882 14.3882 12.1151 14.4797 11.7655C14.5712 11.4159 14.467 11.0441 14.207 10.793L9.91403 6.49998L14.207 2.20798C14.5978 1.81752 14.598 1.18423 14.2075 0.793484C13.8171 0.402742 13.1838 0.402519 12.793 0.792984L7.79303 5.79298C7.40265 6.18348 7.40265 6.81648 7.79303 7.20698Z" fill="#333333"/>
<mask id="mask0_0_14395" style="mask-type:alpha" maskUnits="userSpaceOnUse" x="0" y="0" width="15" height="13">
<path fill-rule="evenodd" clip-rule="evenodd" d="M12.793 12.207L7.79303 7.20698C7.40265 6.81648 7.40265 6.18348 7.79303 5.79298L12.793 0.792984C13.1838 0.402519 13.8171 0.402742 14.2075 0.793484C14.598 1.18423 14.5978 1.81752 14.207 2.20798L9.91403 6.49998L14.207 10.793C14.467 11.0441 14.5712 11.4159 14.4797 11.7655C14.3882 12.1151 14.1152 12.3882 13.7655 12.4797C13.4159 12.5712 13.0441 12.4669 12.793 12.207V12.207ZM5.79303 12.207L0.793031 7.20698C0.402649 6.81648 0.402649 6.18348 0.793031 5.79298L5.79303 0.792984C6.04411 0.533027 6.41591 0.428771 6.76554 0.520287C7.11517 0.611802 7.38821 0.884847 7.47973 1.23448C7.57124 1.58411 7.46699 1.95591 7.20703 2.20698L2.91403 6.49998L7.20703 10.793C7.46699 11.0441 7.57124 11.4159 7.47973 11.7655C7.38821 12.1151 7.11517 12.3882 6.76554 12.4797C6.41591 12.5712 6.04411 12.4669 5.79303 12.207V12.207Z" fill="white"/>
</mask>
<g mask="url(#mask0_0_14395)">
<rect x="-4.5" y="-5.5" width="24" height="24" fill="#333333"/>
</g>
</svg>
