<svg width="23" height="23" viewBox="0 0 23 23" fill="none" xmlns="http://www.w3.org/2000/svg">
<path fill-rule="evenodd" clip-rule="evenodd" d="M10.3361 22.439C10.2915 22.437 10.247 22.432 10.2031 22.424C4.66826 21.7668 0.49972 17.0737 0.500091 11.5C0.49336 9.17164 1.23129 6.90214 2.60609 5.02299C2.63162 4.98266 2.66003 4.94423 2.69109 4.90799C3.00613 4.48895 3.35032 4.09263 3.72109 3.72199C6.4999 0.943001 10.5502 -0.142414 14.3463 0.874612C18.1424 1.89164 21.1075 4.8566 22.1248 8.65261C23.1421 12.4486 22.0569 16.499 19.2781 19.278C17.22 21.348 14.4191 22.5083 11.5001 22.5C11.1113 22.4999 10.7228 22.4795 10.3361 22.439ZM12.0871 20.481C14.8995 20.2974 17.4635 18.807 19.0148 16.454C20.5661 14.101 20.9256 11.1572 19.9861 8.49999H15.5001C16.7383 10.1458 16.8384 12.3832 15.7521 14.133L12.0871 20.481ZM9.85509 20.349C5.59499 19.5509 2.50579 15.8342 2.50009 11.5C2.49819 10.1195 2.81581 8.75729 3.42809 7.51999L7.09609 13.865C8.06908 15.6778 10.0532 16.7096 12.0961 16.465L9.85509 20.349ZM11.5001 14.5C12.5233 14.4998 13.4759 13.9781 14.0271 13.116L14.0941 13C14.1061 12.9787 14.1191 12.958 14.1331 12.938C14.8179 11.6839 14.5232 10.1209 13.4287 9.20232C12.3342 8.28373 10.7438 8.26453 9.62748 9.15642C8.51116 10.0483 8.17878 11.6037 8.83309 12.874L8.90509 12.999C8.91609 13.019 8.92709 13.039 8.93709 13.059C9.48133 13.9538 10.4528 14.5 11.5001 14.5ZM11.5001 6.49999C9.49809 6.50074 7.68898 7.69397 6.90009 9.53399L4.66109 5.65599C6.48975 3.5122 9.21768 2.3497 12.0306 2.51549C14.8435 2.68129 17.4159 4.15622 18.9801 6.49999H11.5001Z" fill="#333333"/>
<mask id="mask0_0_12379" style="mask-type:alpha" maskUnits="userSpaceOnUse" x="0" y="0" width="23" height="23">
<path fill-rule="evenodd" clip-rule="evenodd" d="M10.3361 22.439C10.2915 22.437 10.247 22.432 10.2031 22.424C4.66826 21.7668 0.49972 17.0737 0.500091 11.5C0.49336 9.17164 1.23129 6.90214 2.60609 5.02299C2.63162 4.98266 2.66003 4.94423 2.69109 4.90799C3.00613 4.48895 3.35032 4.09263 3.72109 3.72199C6.4999 0.943001 10.5502 -0.142414 14.3463 0.874612C18.1424 1.89164 21.1075 4.8566 22.1248 8.65261C23.1421 12.4486 22.0569 16.499 19.2781 19.278C17.22 21.348 14.4191 22.5083 11.5001 22.5C11.1113 22.4999 10.7228 22.4795 10.3361 22.439ZM12.0871 20.481C14.8995 20.2974 17.4635 18.807 19.0148 16.454C20.5661 14.101 20.9256 11.1572 19.9861 8.49999H15.5001C16.7383 10.1458 16.8384 12.3832 15.7521 14.133L12.0871 20.481ZM2.50009 11.5C2.50579 15.8342 5.59499 19.5509 9.85509 20.349L12.0961 16.465C10.0532 16.7096 8.06908 15.6778 7.09609 13.865L3.42809 7.51999C2.81581 8.75729 2.49819 10.1195 2.50009 11.5V11.5ZM11.5001 14.5C12.5233 14.4998 13.4759 13.9781 14.0271 13.116L14.0941 13C14.1061 12.9787 14.1191 12.958 14.1331 12.938C14.8179 11.6839 14.5232 10.1209 13.4287 9.20232C12.3342 8.28373 10.7438 8.26453 9.62748 9.15642C8.51116 10.0483 8.17878 11.6037 8.83309 12.874L8.90509 12.999C8.91609 13.019 8.92709 13.039 8.93709 13.059C9.48133 13.9538 10.4528 14.5 11.5001 14.5V14.5ZM6.90009 9.53399C7.68898 7.69397 9.49809 6.50074 11.5001 6.49999H18.9801C17.4159 4.15622 14.8435 2.68129 12.0306 2.51549C9.21768 2.3497 6.48975 3.5122 4.66109 5.65599L6.90009 9.53399Z" fill="white"/>
</mask>
<g mask="url(#mask0_0_12379)">
<rect x="-0.499878" y="-0.5" width="24" height="24" fill="#333333"/>
</g>
</svg>
