<svg width="23" height="23" viewBox="0 0 23 23" fill="none" xmlns="http://www.w3.org/2000/svg">
<mask id="mask0_0_12732" style="mask-type:alpha" maskUnits="userSpaceOnUse" x="0" y="0" width="23" height="23">
<path fill-rule="evenodd" clip-rule="evenodd" d="M11.5 22.5C7.051 22.4999 3.04016 19.8198 1.33763 15.7095C-0.364903 11.5992 0.576142 6.86798 3.72197 3.72201C6.4945 0.912076 10.5601 -0.19679 14.3754 0.816375C18.1906 1.82954 21.1704 4.80937 22.1836 8.62462C23.1968 12.4399 22.0879 16.5055 19.278 19.278C17.2197 21.3477 14.4189 22.5079 11.5 22.5ZM11.5 2.50001C6.52941 2.50001 2.49997 6.52944 2.49997 11.5C2.49997 16.4706 6.52941 20.5 11.5 20.5C16.4705 20.5 20.5 16.4706 20.5 11.5C20.4945 6.53173 16.4683 2.50552 11.5 2.50001Z" fill="white"/>
</mask>
<g mask="url(#mask0_0_12732)">
<rect x="-0.5" y="-0.5" width="24" height="24" fill="#333333"/>
</g>
</svg>
