<svg width="19" height="23" viewBox="0 0 19 23" fill="none" xmlns="http://www.w3.org/2000/svg">
<path fill-rule="evenodd" clip-rule="evenodd" d="M15.5 22.5H3.5C1.84315 22.5 0.5 21.1569 0.5 19.5V5.5C0.5 3.84315 1.84315 2.5 3.5 2.5H4.5C4.5 1.39543 5.39543 0.5 6.5 0.5H12.5C13.6046 0.5 14.5 1.39543 14.5 2.5H15.5C17.1569 2.5 18.5 3.84315 18.5 5.5V19.5C18.5 21.1569 17.1569 22.5 15.5 22.5ZM3.5 4.5C2.94772 4.5 2.5 4.94772 2.5 5.5V19.5C2.5 20.0523 2.94772 20.5 3.5 20.5H15.5C16.0523 20.5 16.5 20.0523 16.5 19.5V5.5C16.5 4.94772 16.0523 4.5 15.5 4.5H14.5C14.5 5.60457 13.6046 6.5 12.5 6.5H6.5C5.39543 6.5 4.5 5.60457 4.5 4.5H3.5ZM6.5 4.5V2.5H12.5V4.5H6.5Z" fill="#333333"/>
<mask id="mask0_0_12150" style="mask-type:alpha" maskUnits="userSpaceOnUse" x="0" y="0" width="19" height="23">
<path fill-rule="evenodd" clip-rule="evenodd" d="M15.5 22.5H3.5C1.84315 22.5 0.5 21.1569 0.5 19.5V5.5C0.5 3.84315 1.84315 2.5 3.5 2.5H4.5C4.5 1.39543 5.39543 0.5 6.5 0.5H12.5C13.6046 0.5 14.5 1.39543 14.5 2.5H15.5C17.1569 2.5 18.5 3.84315 18.5 5.5V19.5C18.5 21.1569 17.1569 22.5 15.5 22.5ZM3.5 4.5C2.94772 4.5 2.5 4.94772 2.5 5.5V19.5C2.5 20.0523 2.94772 20.5 3.5 20.5H15.5C16.0523 20.5 16.5 20.0523 16.5 19.5V5.5C16.5 4.94772 16.0523 4.5 15.5 4.5H14.5C14.5 5.60457 13.6046 6.5 12.5 6.5H6.5C5.39543 6.5 4.5 5.60457 4.5 4.5H3.5ZM6.5 2.5V4.5H12.5V2.5H6.5Z" fill="white"/>
</mask>
<g mask="url(#mask0_0_12150)">
<rect x="-2.5" y="-0.5" width="24" height="24" fill="#333333"/>
</g>
</svg>
