<svg width="23" height="23" viewBox="0 0 23 23" fill="none" xmlns="http://www.w3.org/2000/svg">
<path fill-rule="evenodd" clip-rule="evenodd" d="M3.72213 19.278C0.912198 16.5055 -0.196668 12.4399 0.816497 8.62462C1.82966 4.80937 4.80949 1.82954 8.62474 0.816375C12.44 -0.19679 16.5056 0.912076 19.2781 3.72201C22.0881 6.49453 23.1969 10.5601 22.1838 14.3754C21.1706 18.1906 18.1908 21.1705 14.3755 22.1836C10.5603 23.1968 6.49465 22.0879 3.72213 19.278ZM2.50013 11.5C2.50013 16.4706 6.52957 20.5 11.5001 20.5C16.4707 20.5 20.5001 16.4706 20.5001 11.5C20.5001 6.52944 16.4707 2.50001 11.5001 2.50001C6.53185 2.50552 2.50564 6.53173 2.50013 11.5ZM10.7931 12.207L13.7931 15.207V15.206C14.0442 15.466 14.416 15.5702 14.7656 15.4787C15.1153 15.3872 15.3883 15.1141 15.4798 14.7645C15.5713 14.4149 15.4671 14.0431 15.2071 13.792L12.5001 11.085V5.50001C12.5001 4.94772 12.0524 4.50001 11.5001 4.50001C10.9478 4.50001 10.5001 4.94772 10.5001 5.50001V11.5C10.5002 11.7652 10.6056 12.0195 10.7931 12.207Z" fill="#333333"/>
<mask id="mask0_0_11905" style="mask-type:alpha" maskUnits="userSpaceOnUse" x="0" y="0" width="23" height="23">
<path fill-rule="evenodd" clip-rule="evenodd" d="M3.72213 19.278C0.912198 16.5055 -0.196668 12.4399 0.816497 8.62462C1.82966 4.80937 4.80949 1.82954 8.62474 0.816375C12.44 -0.19679 16.5056 0.912076 19.2781 3.72201C22.0881 6.49453 23.1969 10.5601 22.1838 14.3754C21.1706 18.1906 18.1908 21.1705 14.3755 22.1836C10.5603 23.1968 6.49465 22.0879 3.72213 19.278V19.278ZM2.50013 11.5C2.50013 16.4706 6.52957 20.5 11.5001 20.5C16.4707 20.5 20.5001 16.4706 20.5001 11.5C20.5001 6.52944 16.4707 2.50001 11.5001 2.50001C6.53185 2.50552 2.50564 6.53173 2.50013 11.5ZM13.7931 15.207L10.7931 12.207C10.6056 12.0195 10.5002 11.7652 10.5001 11.5V5.50001C10.5001 4.94772 10.9478 4.50001 11.5001 4.50001C12.0524 4.50001 12.5001 4.94772 12.5001 5.50001V11.085L15.2071 13.792C15.4671 14.0431 15.5713 14.4149 15.4798 14.7645C15.3883 15.1141 15.1153 15.3872 14.7656 15.4787C14.416 15.5702 14.0442 15.466 13.7931 15.206V15.207Z" fill="white"/>
</mask>
<g mask="url(#mask0_0_11905)">
<rect x="-0.499756" y="-0.5" width="24" height="24" fill="#333333"/>
</g>
</svg>
