<svg width="25" height="25" viewBox="0 0 25 25" fill="none" xmlns="http://www.w3.org/2000/svg">
<path fill-rule="evenodd" clip-rule="evenodd" d="M19.5743 16.7163C19.4777 16.9635 19.4834 17.239 19.59 17.4821V17.4851C19.8115 17.9909 20.4011 18.2215 20.907 18.0001C23.5122 16.8642 24.9632 14.0564 24.3826 11.2743C23.8019 8.4922 21.3491 6.49909 18.507 6.50008H17.986C16.7133 2.89771 13.305 0.491446 9.48441 0.498074C5.66385 0.504702 2.26383 2.92278 1.00368 6.52954C-0.256483 10.1363 0.897874 14.1456 3.88301 16.5301C4.16099 16.7642 4.54408 16.829 4.88361 16.6995C5.22314 16.5699 5.46567 16.2664 5.51707 15.9066C5.56848 15.5469 5.42067 15.1875 5.13101 14.9681C2.75118 13.0668 1.87409 9.84468 2.96185 6.99944C4.04961 4.15419 6.85248 2.339 9.89375 2.51021C12.935 2.68142 15.5165 4.79972 16.278 7.74908C16.3916 8.1909 16.7898 8.49985 17.246 8.50008H18.506C20.3981 8.50277 22.0295 9.83087 22.416 11.6831C22.8024 13.5354 21.8382 15.405 20.105 16.1641C19.8618 16.2704 19.6709 16.4691 19.5743 16.7163ZM7.50601 21.5001V13.5001C7.50601 12.9478 7.95373 12.5001 8.50601 12.5001C9.0583 12.5001 9.50601 12.9478 9.50601 13.5001V21.5001C9.50601 22.0524 9.0583 22.5001 8.50601 22.5001C7.95373 22.5001 7.50601 22.0524 7.50601 21.5001ZM15.506 13.5001V21.5001C15.506 22.0524 15.9537 22.5001 16.506 22.5001C17.0583 22.5001 17.506 22.0524 17.506 21.5001V13.5001C17.506 12.9478 17.0583 12.5001 16.506 12.5001C15.9537 12.5001 15.506 12.9478 15.506 13.5001ZM11.506 15.5001V23.5001C11.506 24.0524 11.9537 24.5001 12.506 24.5001C13.0583 24.5001 13.506 24.0524 13.506 23.5001V15.5001C13.506 14.9478 13.0583 14.5001 12.506 14.5001C11.9537 14.5001 11.506 14.9478 11.506 15.5001Z" fill="#333333"/>
<mask id="mask0_0_13288" style="mask-type:alpha" maskUnits="userSpaceOnUse" x="0" y="0" width="25" height="25">
<path fill-rule="evenodd" clip-rule="evenodd" d="M11.506 23.5001V15.5001C11.506 14.9478 11.9537 14.5001 12.506 14.5001C13.0583 14.5001 13.506 14.9478 13.506 15.5001V23.5001C13.506 24.0524 13.0583 24.5001 12.506 24.5001C11.9537 24.5001 11.506 24.0524 11.506 23.5001ZM15.506 21.5001V13.5001C15.506 12.9478 15.9537 12.5001 16.506 12.5001C17.0583 12.5001 17.506 12.9478 17.506 13.5001V21.5001C17.506 22.0524 17.0583 22.5001 16.506 22.5001C15.9537 22.5001 15.506 22.0524 15.506 21.5001ZM7.50601 21.5001V13.5001C7.50601 12.9478 7.95373 12.5001 8.50601 12.5001C9.0583 12.5001 9.50601 12.9478 9.50601 13.5001V21.5001C9.50601 22.0524 9.0583 22.5001 8.50601 22.5001C7.95373 22.5001 7.50601 22.0524 7.50601 21.5001ZM19.59 17.4821C19.4834 17.239 19.4777 16.9635 19.5743 16.7163C19.6709 16.4691 19.8618 16.2704 20.105 16.1641C21.8382 15.405 22.8024 13.5354 22.416 11.6831C22.0295 9.83087 20.3981 8.50277 18.506 8.50008H17.246C16.7898 8.49985 16.3916 8.1909 16.278 7.74908C15.5165 4.79972 12.935 2.68142 9.89375 2.51021C6.85248 2.339 4.04961 4.15419 2.96185 6.99944C1.87409 9.84468 2.75118 13.0668 5.13101 14.9681C5.42067 15.1875 5.56848 15.5469 5.51707 15.9066C5.46567 16.2664 5.22314 16.5699 4.88361 16.6995C4.54408 16.829 4.16099 16.7642 3.88301 16.5301C0.897874 14.1456 -0.256483 10.1363 1.00368 6.52954C2.26383 2.92278 5.66385 0.504702 9.48441 0.498074C13.305 0.491446 16.7133 2.89771 17.986 6.50008H18.507C21.3491 6.49909 23.8019 8.4922 24.3826 11.2743C24.9632 14.0564 23.5122 16.8642 20.907 18.0001C20.4011 18.2215 19.8115 17.9909 19.59 17.4851V17.4821Z" fill="white"/>
</mask>
<g mask="url(#mask0_0_13288)">
<rect x="0.5" y="0.500122" width="24" height="24" fill="#333333"/>
</g>
</svg>
