<svg width="25" height="25" viewBox="0 0 25 25" fill="none" xmlns="http://www.w3.org/2000/svg">
<path fill-rule="evenodd" clip-rule="evenodd" d="M19.3 16.422C18.7592 16.5324 18.41 17.0601 18.52 17.601L18.519 17.6C18.5718 17.8599 18.7256 18.0882 18.9467 18.2347C19.1679 18.3811 19.4381 18.4338 19.698 18.381C22.7189 17.7676 24.7834 14.9649 24.4737 11.898C24.1639 8.83107 21.5805 6.49788 18.498 6.50098H17.979C16.6432 2.72348 12.9712 0.283909 8.97121 0.516589C4.97126 0.749269 1.60682 3.59816 0.718067 7.50506C-0.170683 11.412 1.63031 15.4359 5.136 17.376C5.44898 17.5536 5.83326 17.5493 6.14223 17.3648C6.4512 17.1803 6.63721 16.8441 6.6293 16.4843C6.62139 16.1245 6.42078 15.7967 6.104 15.626C3.312 14.0797 1.91942 10.8407 2.7181 7.75065C3.51679 4.66062 6.30449 2.50206 9.49607 2.50237C12.6876 2.50269 15.4749 4.66179 16.273 7.75198C16.3869 8.19305 16.7845 8.50141 17.24 8.50198H18.5C20.555 8.49991 22.2772 10.0554 22.4838 12.1C22.6903 14.1446 21.3139 16.013 19.3 16.422ZM10.5192 23.6959C10.5711 23.956 10.7243 24.1848 10.945 24.332H10.946C11.1666 24.4792 11.4368 24.5327 11.6969 24.4808C11.957 24.4288 12.1858 24.2757 12.333 24.055L16.333 18.055C16.5373 17.748 16.556 17.3535 16.3818 17.0285C16.2076 16.7036 15.8687 16.5008 15.5 16.501H11.368L14.331 12.057C14.5293 11.7597 14.5539 11.3793 14.3956 11.0589C14.2374 10.7386 13.9202 10.527 13.5636 10.5039C13.2071 10.4809 12.8653 10.6497 12.667 10.947L8.667 16.947C8.46282 17.2538 8.44396 17.6481 8.61792 17.973C8.79187 18.2979 9.13045 18.5008 9.499 18.501H13.631L10.668 22.945C10.5208 23.1656 10.4672 23.4357 10.5192 23.6959Z" fill="#333333"/>
<mask id="mask0_0_14277" style="mask-type:alpha" maskUnits="userSpaceOnUse" x="0" y="0" width="25" height="25">
<path fill-rule="evenodd" clip-rule="evenodd" d="M10.945 24.332C10.7243 24.1848 10.5711 23.956 10.5192 23.6959C10.4672 23.4357 10.5208 23.1656 10.668 22.945L13.631 18.501H9.499C9.13045 18.5008 8.79187 18.2979 8.61792 17.973C8.44396 17.6481 8.46282 17.2538 8.667 16.947L12.667 10.947C12.8653 10.6497 13.2071 10.4809 13.5636 10.5039C13.9202 10.527 14.2374 10.7386 14.3956 11.0589C14.5539 11.3793 14.5293 11.7597 14.331 12.057L11.368 16.501H15.5C15.8687 16.5008 16.2076 16.7036 16.3818 17.0285C16.556 17.3535 16.5373 17.748 16.333 18.055L12.333 24.055C12.1858 24.2757 11.957 24.4288 11.6969 24.4808C11.4368 24.5327 11.1666 24.4792 10.946 24.332H10.945ZM18.52 17.601C18.41 17.0601 18.7592 16.5324 19.3 16.422C21.3139 16.013 22.6903 14.1446 22.4838 12.1C22.2772 10.0554 20.555 8.49991 18.5 8.50198H17.24C16.7845 8.50141 16.3869 8.19305 16.273 7.75198C15.4749 4.66179 12.6876 2.50269 9.49607 2.50237C6.30449 2.50206 3.51679 4.66062 2.7181 7.75065C1.91942 10.8407 3.312 14.0797 6.104 15.626C6.42078 15.7967 6.62139 16.1245 6.6293 16.4843C6.63721 16.8441 6.4512 17.1803 6.14223 17.3648C5.83326 17.5493 5.44898 17.5536 5.136 17.376C1.63031 15.4359 -0.170683 11.412 0.718067 7.50506C1.60682 3.59816 4.97126 0.749269 8.97121 0.516589C12.9712 0.283909 16.6432 2.72348 17.979 6.50098H18.498C21.5805 6.49788 24.1639 8.83107 24.4737 11.898C24.7834 14.9649 22.7189 17.7676 19.698 18.381C19.4381 18.4338 19.1679 18.3811 18.9467 18.2347C18.7256 18.0882 18.5718 17.8599 18.519 17.6L18.52 17.601Z" fill="white"/>
</mask>
<g mask="url(#mask0_0_14277)">
<rect x="0.5" y="0.5" width="24" height="24" fill="#333333"/>
</g>
</svg>
