<svg width="25" height="24" viewBox="0 0 25 24" fill="none" xmlns="http://www.w3.org/2000/svg">
<path fill-rule="evenodd" clip-rule="evenodd" d="M19.5753 16.7163C19.4787 16.9635 19.4844 17.239 19.591 17.482L19.59 17.485C19.8115 17.9909 20.4011 18.2214 20.907 18C23.5122 16.8642 24.9632 14.0564 24.3826 11.2742C23.8019 8.49213 21.3491 6.49903 18.507 6.50002H17.986C16.7133 2.89765 13.305 0.491385 9.48441 0.498013C5.66385 0.504641 2.26383 2.92272 1.00368 6.52948C-0.256483 10.1362 0.897874 14.1456 3.88301 16.53C4.16099 16.7641 4.54408 16.8289 4.88361 16.6994C5.22314 16.5698 5.46567 16.2663 5.51707 15.9065C5.56848 15.5468 5.42067 15.1875 5.13101 14.968C2.75118 13.0667 1.87409 9.84462 2.96185 6.99937C4.04961 4.15413 6.85248 2.33894 9.89375 2.51015C12.935 2.68136 15.5165 4.79966 16.278 7.74902C16.3916 8.19084 16.7898 8.49978 17.246 8.50001H18.506C20.3983 8.50224 22.0302 9.83019 22.4169 11.6826C22.8036 13.5349 21.8394 15.4049 20.106 16.164C19.8628 16.2704 19.6719 16.469 19.5753 16.7163ZM16.006 16V18C16.006 18.5523 16.4537 19 17.006 19C17.5583 19 18.006 18.5523 18.006 18V16C18.006 15.4477 17.5583 15 17.006 15C16.4537 15 16.006 15.4477 16.006 16ZM12.006 19C12.006 18.4477 12.4537 18 13.006 18C13.5583 18 14.006 18.4477 14.006 19V21C14.006 21.5523 13.5583 22 13.006 22C12.4537 22 12.006 21.5523 12.006 21V19ZM8.00601 21V23C8.00601 23.5523 8.45373 24 9.00601 24C9.5583 24 10.006 23.5523 10.006 23V21C10.006 20.4477 9.5583 20 9.00601 20C8.45373 20 8.00601 20.4477 8.00601 21ZM16.006 23C16.006 23.5523 16.4537 24 17.006 24C17.5583 24 18.006 23.5523 18.006 23V21C18.006 20.4477 17.5583 20 17.006 20C16.4537 20 16.006 20.4477 16.006 21V23ZM8.00601 18V16C8.00601 15.4477 8.45373 15 9.00601 15C9.5583 15 10.006 15.4477 10.006 16V18C10.006 18.5523 9.5583 19 9.00601 19C8.45373 19 8.00601 18.5523 8.00601 18Z" fill="#333333"/>
<mask id="mask0_0_14358" style="mask-type:alpha" maskUnits="userSpaceOnUse" x="0" y="0" width="25" height="24">
<path fill-rule="evenodd" clip-rule="evenodd" d="M16.006 23V21C16.006 20.4477 16.4537 20 17.006 20C17.5583 20 18.006 20.4477 18.006 21V23C18.006 23.5523 17.5583 24 17.006 24C16.4537 24 16.006 23.5523 16.006 23ZM8.00601 23V21C8.00601 20.4477 8.45373 20 9.00601 20C9.5583 20 10.006 20.4477 10.006 21V23C10.006 23.5523 9.5583 24 9.00601 24C8.45373 24 8.00601 23.5523 8.00601 23ZM12.006 21V19C12.006 18.4477 12.4537 18 13.006 18C13.5583 18 14.006 18.4477 14.006 19V21C14.006 21.5523 13.5583 22 13.006 22C12.4537 22 12.006 21.5523 12.006 21ZM16.006 18V16C16.006 15.4477 16.4537 15 17.006 15C17.5583 15 18.006 15.4477 18.006 16V18C18.006 18.5523 17.5583 19 17.006 19C16.4537 19 16.006 18.5523 16.006 18ZM8.00601 18V16C8.00601 15.4477 8.45373 15 9.00601 15C9.5583 15 10.006 15.4477 10.006 16V18C10.006 18.5523 9.5583 19 9.00601 19C8.45373 19 8.00601 18.5523 8.00601 18ZM19.591 17.482C19.4844 17.239 19.4787 16.9635 19.5753 16.7163C19.6719 16.469 19.8628 16.2704 20.106 16.164C21.8394 15.4049 22.8036 13.5349 22.4169 11.6826C22.0302 9.83019 20.3983 8.50224 18.506 8.50001H17.246C16.7898 8.49978 16.3916 8.19084 16.278 7.74902C15.5165 4.79966 12.935 2.68136 9.89375 2.51015C6.85248 2.33894 4.04961 4.15413 2.96185 6.99937C1.87409 9.84462 2.75118 13.0667 5.13101 14.968C5.42067 15.1875 5.56848 15.5468 5.51707 15.9065C5.46567 16.2663 5.22314 16.5698 4.88361 16.6994C4.54408 16.8289 4.16099 16.7641 3.88301 16.53C0.897874 14.1456 -0.256483 10.1362 1.00368 6.52948C2.26383 2.92272 5.66385 0.504641 9.48441 0.498013C13.305 0.491385 16.7133 2.89765 17.986 6.50002H18.507C21.3491 6.49903 23.8019 8.49213 24.3826 11.2742C24.9632 14.0564 23.5122 16.8642 20.907 18C20.4011 18.2214 19.8115 17.9909 19.59 17.485L19.591 17.482Z" fill="white"/>
</mask>
<g mask="url(#mask0_0_14358)">
<rect x="0.5" y="0.5" width="24" height="24" fill="#333333"/>
</g>
</svg>
