<svg width="25" height="25" viewBox="0 0 25 25" fill="none" xmlns="http://www.w3.org/2000/svg">
<path fill-rule="evenodd" clip-rule="evenodd" d="M22.9229 24.207L20.0449 21.329C19.5818 21.4422 19.1067 21.4996 18.6299 21.5H9.64594C5.75654 21.5633 2.26659 19.1207 0.994339 15.4448C-0.277917 11.7688 0.95548 7.69143 4.05194 5.33698L0.922942 2.20698C0.662986 1.95591 0.55873 1.58411 0.650245 1.23448C0.741761 0.884847 1.01481 0.611802 1.36444 0.520287C1.71406 0.428771 2.08587 0.533027 2.33694 0.792984L21.0149 19.471C21.0299 19.485 21.0459 19.5 21.0599 19.516L24.3369 22.793C24.5969 23.0441 24.7012 23.4159 24.6096 23.7655C24.5181 24.1151 24.2451 24.3882 23.8955 24.4797C23.5458 24.5712 23.174 24.4669 22.9229 24.207ZM2.73794 14.307C3.56824 17.4166 6.41195 19.5593 9.62994 19.5H18.2159L5.48394 6.76898C3.07717 8.45532 1.97994 11.4654 2.73694 14.305L2.73794 14.307ZM22.3189 17.06C22.1041 17.5684 22.3418 18.1547 22.8499 18.37H22.8459C23.3543 18.5856 23.9412 18.3483 24.1569 17.84C24.9422 15.9858 24.7451 13.8614 23.6321 12.1834C22.5191 10.5054 20.6385 9.4976 18.6249 9.49998H18.1079C16.943 6.16086 13.9305 3.81344 10.4079 3.49998C10.0507 3.46854 9.70378 3.63009 9.49792 3.92377C9.29206 4.21745 9.25851 4.59865 9.40992 4.92377C9.56132 5.24889 9.87468 5.46854 10.2319 5.49998C13.194 5.76118 15.6678 7.86524 16.4009 10.747C16.5139 11.19 16.9128 11.5 17.3699 11.5H18.6299C19.9725 11.4981 21.2265 12.1698 21.9688 13.2885C22.711 14.4072 22.8425 15.8237 22.3189 17.06Z" fill="#333333"/>
<mask id="mask0_0_11984" style="mask-type:alpha" maskUnits="userSpaceOnUse" x="0" y="0" width="25" height="25">
<path fill-rule="evenodd" clip-rule="evenodd" d="M22.9229 24.207L20.0449 21.329C19.5818 21.4422 19.1067 21.4996 18.6299 21.5H9.64594C5.75654 21.5633 2.26659 19.1207 0.994339 15.4448C-0.277917 11.7688 0.95548 7.69143 4.05194 5.33698L0.922942 2.20698C0.662986 1.95591 0.55873 1.58411 0.650245 1.23448C0.741761 0.884847 1.01481 0.611802 1.36444 0.520287C1.71406 0.428771 2.08587 0.533027 2.33694 0.792984L21.0149 19.471C21.0299 19.485 21.0459 19.5 21.0599 19.516L24.3369 22.793C24.5969 23.0441 24.7012 23.4159 24.6096 23.7655C24.5181 24.1151 24.2451 24.3882 23.8955 24.4797C23.5458 24.5712 23.174 24.4669 22.9229 24.207V24.207ZM2.73794 14.307C3.56824 17.4166 6.41195 19.5593 9.62994 19.5H18.2159L5.48394 6.76898C3.07717 8.45532 1.97994 11.4654 2.73694 14.305L2.73794 14.307ZM22.8499 18.37C22.3418 18.1547 22.1041 17.5684 22.3189 17.06C22.8425 15.8237 22.711 14.4072 21.9688 13.2885C21.2265 12.1698 19.9725 11.4981 18.6299 11.5H17.3699C16.9128 11.5 16.5139 11.19 16.4009 10.747C15.6678 7.86524 13.194 5.76118 10.2319 5.49998C9.87468 5.46854 9.56132 5.24889 9.40992 4.92377C9.25851 4.59865 9.29206 4.21745 9.49792 3.92377C9.70378 3.63009 10.0507 3.46854 10.4079 3.49998C13.9305 3.81344 16.943 6.16086 18.1079 9.49998H18.6249C20.6385 9.4976 22.5191 10.5054 23.6321 12.1834C24.7451 13.8614 24.9422 15.9858 24.1569 17.84C23.9412 18.3483 23.3543 18.5856 22.8459 18.37H22.8499Z" fill="white"/>
</mask>
<g mask="url(#mask0_0_11984)">
<rect x="0.5" y="0.5" width="24" height="24" fill="#333333"/>
</g>
</svg>
