<svg width="25" height="25" viewBox="0 0 25 25" fill="none" xmlns="http://www.w3.org/2000/svg">
<path fill-rule="evenodd" clip-rule="evenodd" d="M19.5753 16.7153C19.4787 16.9625 19.4844 17.238 19.591 17.481L19.59 17.485C19.8115 17.9909 20.4011 18.2214 20.907 18C23.5122 16.8642 24.9632 14.0564 24.3826 11.2742C23.8019 8.49213 21.3491 6.49903 18.507 6.50002H17.986C16.7133 2.89765 13.305 0.491385 9.48441 0.498013C5.66385 0.504641 2.26383 2.92272 1.00368 6.52948C-0.256483 10.1362 0.897874 14.1456 3.88301 16.53C4.16099 16.7641 4.54408 16.8289 4.88361 16.6994C5.22314 16.5698 5.46567 16.2663 5.51707 15.9065C5.56848 15.5468 5.42067 15.1875 5.13101 14.968C2.75118 13.0667 1.87409 9.84462 2.96185 6.99937C4.04961 4.15413 6.85248 2.33894 9.89375 2.51015C12.935 2.68136 15.5165 4.79966 16.278 7.74902C16.3916 8.19084 16.7898 8.49978 17.246 8.50001H18.506C20.3974 8.50331 22.028 9.83097 22.4146 11.6825C22.8012 13.5339 21.8381 15.4031 20.106 16.163C19.8628 16.2694 19.6719 16.468 19.5753 16.7153ZM11.506 17.5V15.5C11.506 14.9477 11.9537 14.5 12.506 14.5C13.0583 14.5 13.506 14.9477 13.506 15.5V17.5C13.506 18.0523 13.0583 18.5 12.506 18.5C11.9537 18.5 11.506 18.0523 11.506 17.5ZM7.50601 19.5V21.5C7.50601 22.0523 7.95373 22.5 8.50601 22.5C9.0583 22.5 9.50601 22.0523 9.50601 21.5V19.5C9.50601 18.9477 9.0583 18.5 8.50601 18.5C7.95373 18.5 7.50601 18.9477 7.50601 19.5ZM15.506 19.5C15.506 18.9477 15.9537 18.5 16.506 18.5C17.0583 18.5 17.506 18.9477 17.506 19.5V21.5C17.506 22.0523 17.0583 22.5 16.506 22.5C15.9537 22.5 15.506 22.0523 15.506 21.5V19.5ZM12.506 24.5C11.9537 24.5 11.506 24.0523 11.506 23.5V21.5C11.506 20.9477 11.9537 20.5 12.506 20.5C13.0583 20.5 13.506 20.9477 13.506 21.5V23.5C13.506 24.0523 13.0583 24.5 12.506 24.5ZM15.507 13.5C15.507 12.9477 15.9547 12.5 16.507 12.5C17.0593 12.5 17.507 12.9477 17.507 13.5V15.5C17.507 16.0523 17.0593 16.5 16.507 16.5C15.9547 16.5 15.507 16.0523 15.507 15.5V13.5ZM7.50701 13.5V15.5C7.50701 16.0523 7.95473 16.5 8.50701 16.5C9.0593 16.5 9.50701 16.0523 9.50701 15.5V13.5C9.50701 12.9477 9.0593 12.5 8.50701 12.5C7.95473 12.5 7.50701 12.9477 7.50701 13.5Z" fill="#333333"/>
<mask id="mask0_0_13124" style="mask-type:alpha" maskUnits="userSpaceOnUse" x="0" y="0" width="25" height="25">
<path fill-rule="evenodd" clip-rule="evenodd" d="M11.506 23.5V21.5C11.506 20.9477 11.9537 20.5 12.506 20.5C13.0583 20.5 13.506 20.9477 13.506 21.5V23.5C13.506 24.0523 13.0583 24.5 12.506 24.5C11.9537 24.5 11.506 24.0523 11.506 23.5ZM15.506 21.5V19.5C15.506 18.9477 15.9537 18.5 16.506 18.5C17.0583 18.5 17.506 18.9477 17.506 19.5V21.5C17.506 22.0523 17.0583 22.5 16.506 22.5C15.9537 22.5 15.506 22.0523 15.506 21.5ZM7.50601 21.5V19.5C7.50601 18.9477 7.95373 18.5 8.50601 18.5C9.0583 18.5 9.50601 18.9477 9.50601 19.5V21.5C9.50601 22.0523 9.0583 22.5 8.50601 22.5C7.95373 22.5 7.50601 22.0523 7.50601 21.5ZM11.506 17.5V15.5C11.506 14.9477 11.9537 14.5 12.506 14.5C13.0583 14.5 13.506 14.9477 13.506 15.5V17.5C13.506 18.0523 13.0583 18.5 12.506 18.5C11.9537 18.5 11.506 18.0523 11.506 17.5ZM19.591 17.481C19.4844 17.238 19.4787 16.9625 19.5753 16.7153C19.6719 16.468 19.8628 16.2694 20.106 16.163C21.8381 15.4031 22.8012 13.5339 22.4146 11.6825C22.028 9.83097 20.3974 8.50332 18.506 8.50001H17.246C16.7898 8.49978 16.3916 8.19084 16.278 7.74902C15.5165 4.79966 12.935 2.68136 9.89375 2.51015C6.85248 2.33894 4.04961 4.15413 2.96185 6.99937C1.87409 9.84462 2.75118 13.0667 5.13101 14.968C5.42067 15.1875 5.56848 15.5468 5.51707 15.9065C5.46567 16.2663 5.22314 16.5698 4.88361 16.6994C4.54408 16.8289 4.16099 16.7641 3.88301 16.53C0.897874 14.1456 -0.256483 10.1362 1.00368 6.52948C2.26383 2.92272 5.66385 0.504641 9.48441 0.498013C13.305 0.491385 16.7133 2.89765 17.986 6.50002H18.507C21.3491 6.49903 23.8019 8.49213 24.3826 11.2742C24.9632 14.0564 23.5122 16.8642 20.907 18C20.4011 18.2214 19.8115 17.9909 19.59 17.485L19.591 17.481ZM15.507 15.5V13.5C15.507 12.9477 15.9547 12.5 16.507 12.5C17.0593 12.5 17.507 12.9477 17.507 13.5V15.5C17.507 16.0523 17.0593 16.5 16.507 16.5C15.9547 16.5 15.507 16.0523 15.507 15.5V15.5ZM7.50701 15.5V13.5C7.50701 12.9477 7.95473 12.5 8.50701 12.5C9.0593 12.5 9.50701 12.9477 9.50701 13.5V15.5C9.50701 16.0523 9.0593 16.5 8.50701 16.5C7.95473 16.5 7.50701 16.0523 7.50701 15.5Z" fill="white"/>
</mask>
<g mask="url(#mask0_0_13124)">
<rect x="0.5" y="0.5" width="24" height="24" fill="#333333"/>
</g>
</svg>
