<svg width="25" height="19" viewBox="0 0 25 19" fill="none" xmlns="http://www.w3.org/2000/svg">
<mask id="mask0_0_12765" style="mask-type:alpha" maskUnits="userSpaceOnUse" x="0" y="0" width="25" height="19">
<path fill-rule="evenodd" clip-rule="evenodd" d="M18.5059 18.5H9.49992C4.82611 18.4962 0.933006 14.9154 0.539238 10.2582C0.145471 5.60106 3.3821 1.41748 7.98892 0.628996C12.3064 -0.109752 16.528 2.36955 17.9859 6.5H18.5059C21.8196 6.5 24.5059 9.18629 24.5059 12.5C24.5059 15.8137 21.8196 18.5 18.5059 18.5ZM9.50592 2.5V2.5C7.33828 2.50066 5.29276 3.50367 3.96492 5.217C2.33133 7.32879 2.04128 10.1859 3.21716 12.5829C4.39303 14.9799 6.83003 16.4993 9.49992 16.5H18.5049C20.7141 16.5 22.5049 14.7091 22.5049 12.5C22.5049 10.2909 20.7141 8.5 18.5049 8.5H17.2449C16.789 8.49988 16.3909 8.19143 16.2769 7.75C15.4796 4.66215 12.696 2.50351 9.50692 2.5H9.50592Z" fill="white"/>
</mask>
<g mask="url(#mask0_0_12765)">
<rect x="0.5" y="-2.5" width="24" height="24" fill="#333333"/>
</g>
</svg>
