<svg width="23" height="23" viewBox="0 0 23 23" fill="none" xmlns="http://www.w3.org/2000/svg">
<path fill-rule="evenodd" clip-rule="evenodd" d="M1.33763 15.7095C3.04016 19.8198 7.051 22.4999 11.5 22.5C14.419 22.5082 17.2199 21.348 19.278 19.278C22.0879 16.5055 23.1968 12.4399 22.1836 8.62462C21.1704 4.80937 18.1906 1.82954 14.3754 0.816375C10.5601 -0.19679 6.4945 0.912076 3.72197 3.72201C0.576142 6.86798 -0.364903 11.5992 1.33763 15.7095ZM2.49997 11.5C2.49997 6.52944 6.52941 2.50001 11.5 2.50001C16.4683 2.50552 20.4945 6.53173 20.5 11.5C20.5 16.4706 16.4705 20.5 11.5 20.5C6.52941 20.5 2.49997 16.4706 2.49997 11.5ZM7.25497 16.741C6.93347 16.7392 6.63244 16.5829 6.44597 16.321C6.25711 16.0608 6.20709 15.7249 6.31197 15.421L8.43197 9.06101C8.53153 8.76268 8.76564 8.52857 9.06397 8.42901L15.424 6.30901C15.5277 6.27409 15.6365 6.25619 15.746 6.25601C16.0671 6.25814 16.3677 6.41438 16.554 6.67601C16.7428 6.93616 16.7929 7.27211 16.688 7.57601L14.568 13.936C14.4675 14.2343 14.2333 14.4685 13.935 14.569L7.57497 16.689C7.47175 16.7232 7.36372 16.7408 7.25497 16.741ZM10.171 10.171L14.155 8.84101H14.159L12.829 12.829L8.84097 14.159L10.171 10.171Z" fill="#333333"/>
<mask id="mask0_0_11959" style="mask-type:alpha" maskUnits="userSpaceOnUse" x="0" y="0" width="23" height="23">
<path fill-rule="evenodd" clip-rule="evenodd" d="M11.5 22.5C7.051 22.4999 3.04016 19.8198 1.33763 15.7095C-0.364903 11.5992 0.576142 6.86798 3.72197 3.72201C6.4945 0.912076 10.5601 -0.19679 14.3754 0.816375C18.1906 1.82954 21.1704 4.80937 22.1836 8.62462C23.1968 12.4399 22.0879 16.5055 19.278 19.278C17.2199 21.348 14.419 22.5082 11.5 22.5ZM11.5 2.50001C6.52941 2.50001 2.49997 6.52944 2.49997 11.5C2.49997 16.4706 6.52941 20.5 11.5 20.5C16.4705 20.5 20.5 16.4706 20.5 11.5C20.4945 6.53173 16.4683 2.50552 11.5 2.50001ZM7.25497 16.741C6.93347 16.7392 6.63244 16.5829 6.44597 16.321C6.25711 16.0608 6.20709 15.7249 6.31197 15.421L8.43197 9.06101C8.53153 8.76268 8.76564 8.52857 9.06397 8.42901L15.424 6.30901C15.5277 6.27409 15.6365 6.25619 15.746 6.25601C16.0671 6.25814 16.3677 6.41438 16.554 6.67601C16.7428 6.93616 16.7929 7.27211 16.688 7.57601L14.568 13.936C14.4675 14.2343 14.2333 14.4685 13.935 14.569L7.57497 16.689C7.47175 16.7232 7.36372 16.7408 7.25497 16.741ZM14.155 8.84101V8.84101L10.171 10.171L8.84097 14.159L12.829 12.829L14.159 8.84101H14.155Z" fill="white"/>
</mask>
<g mask="url(#mask0_0_11959)">
<rect x="-0.5" y="-0.5" width="24" height="24" fill="#333333"/>
</g>
</svg>
