<svg width="23" height="23" viewBox="0 0 23 23" fill="none" xmlns="http://www.w3.org/2000/svg">
<path d="M4.5 13.5H3.5C2.94772 13.5 2.5 13.0523 2.5 12.5V3.5C2.5 2.94772 2.94772 2.5 3.5 2.5H12.5C13.0523 2.5 13.5 2.94772 13.5 3.5V4.5C13.5 5.05228 13.9477 5.5 14.5 5.5C15.0523 5.5 15.5 5.05228 15.5 4.5V3.5C15.5 1.84315 14.1569 0.5 12.5 0.5H3.5C1.84315 0.5 0.5 1.84315 0.5 3.5V12.5C0.5 14.1569 1.84315 15.5 3.5 15.5H4.5C5.05228 15.5 5.5 15.0523 5.5 14.5C5.5 13.9477 5.05228 13.5 4.5 13.5Z" fill="#333333"/>
<mask id="mask0_0_13253" style="mask-type:alpha" maskUnits="userSpaceOnUse" x="0" y="0" width="23" height="23">
<path fill-rule="evenodd" clip-rule="evenodd" d="M19.5 22.5H10.5C8.84315 22.5 7.5 21.1569 7.5 19.5V10.5C7.5 8.84315 8.84315 7.5 10.5 7.5H19.5C21.1569 7.5 22.5 8.84315 22.5 10.5V19.5C22.5 21.1569 21.1569 22.5 19.5 22.5ZM10.5 9.5C9.94772 9.5 9.5 9.94772 9.5 10.5V19.5C9.5 20.0523 9.94772 20.5 10.5 20.5H19.5C20.0523 20.5 20.5 20.0523 20.5 19.5V10.5C20.5 9.94772 20.0523 9.5 19.5 9.5H10.5ZM4.5 15.5H3.5C1.84315 15.5 0.5 14.1569 0.5 12.5V3.5C0.5 1.84315 1.84315 0.5 3.5 0.5H12.5C14.1569 0.5 15.5 1.84315 15.5 3.5V4.5C15.5 5.05228 15.0523 5.5 14.5 5.5C13.9477 5.5 13.5 5.05228 13.5 4.5V3.5C13.5 2.94772 13.0523 2.5 12.5 2.5H3.5C2.94772 2.5 2.5 2.94772 2.5 3.5V12.5C2.5 13.0523 2.94772 13.5 3.5 13.5H4.5C5.05228 13.5 5.5 13.9477 5.5 14.5C5.5 15.0523 5.05228 15.5 4.5 15.5Z" fill="white"/>
</mask>
<g mask="url(#mask0_0_13253)">
<rect x="-0.5" y="-0.5" width="24" height="24" fill="#333333"/>
</g>
</svg>
