<svg width="19" height="19" viewBox="0 0 19 19" fill="none" xmlns="http://www.w3.org/2000/svg">
<path d="M5.79298 18.208L0.792981 13.208C0.719194 13.1341 0.657446 13.049 0.609981 12.956V12.956L0.599981 12.936V12.936L0.589981 12.915V12.904V12.894L0.582981 12.878V12.878C0.428163 12.5042 0.513815 12.074 0.799981 11.788L5.79998 6.788C6.19601 6.42643 6.80675 6.44161 7.18433 6.82241C7.5619 7.20321 7.5719 7.81405 7.20698 8.207L3.91398 11.5H13.5C15.1568 11.5 16.5 10.1569 16.5 8.5V1.5C16.5 0.947715 16.9477 0.5 17.5 0.5C18.0523 0.5 18.5 0.947715 18.5 1.5V8.5C18.5 11.2614 16.2614 13.5 13.5 13.5H3.91398L7.20698 16.793C7.59772 17.1835 7.59795 17.8168 7.20748 18.2075C6.81702 18.5982 6.18372 18.5985 5.79298 18.208Z" fill="#333333"/>
<mask id="mask0_0_12110" style="mask-type:alpha" maskUnits="userSpaceOnUse" x="0" y="0" width="19" height="19">
<path fill-rule="evenodd" clip-rule="evenodd" d="M5.79298 18.208L0.792981 13.208C0.719194 13.1341 0.657446 13.049 0.609981 12.956V12.956L0.599981 12.936V12.936L0.589981 12.915V12.904V12.894L0.582981 12.878V12.878C0.428163 12.5042 0.513815 12.074 0.799981 11.788L5.79998 6.788C6.19601 6.42643 6.80675 6.44161 7.18433 6.82241C7.5619 7.20321 7.5719 7.81405 7.20698 8.207L3.91398 11.5H13.5C15.1568 11.5 16.5 10.1569 16.5 8.5V1.5C16.5 0.947715 16.9477 0.5 17.5 0.5C18.0523 0.5 18.5 0.947715 18.5 1.5V8.5C18.5 11.2614 16.2614 13.5 13.5 13.5H3.91398L7.20698 16.793C7.59772 17.1835 7.59795 17.8168 7.20748 18.2075C6.81702 18.5982 6.18372 18.5985 5.79298 18.208Z" fill="white"/>
</mask>
<g mask="url(#mask0_0_12110)">
<rect x="-2.5" y="-2.5" width="24" height="24" fill="#333333"/>
</g>
</svg>
