<svg width="19" height="19" viewBox="0 0 19 19" fill="none" xmlns="http://www.w3.org/2000/svg">
<path d="M10.5001 18.5001C7.73868 18.5001 5.50011 16.2615 5.50011 13.5001V3.91408L2.20711 7.20708C1.95603 7.46704 1.58423 7.57129 1.2346 7.47978C0.884969 7.38826 0.611924 7.11522 0.520409 6.76559C0.428893 6.41596 0.533149 6.04416 0.793106 5.79308L5.79311 0.793082C5.86696 0.71894 5.952 0.656851 6.04511 0.609082V0.609082L6.06511 0.600082V0.600082L6.08511 0.590082H6.09511H6.10511L6.12111 0.574082V0.574082C6.49694 0.421081 6.92798 0.510369 7.21211 0.800082L12.2121 5.80008C12.4721 6.05116 12.5763 6.42296 12.4848 6.77259C12.3933 7.12222 12.1202 7.39526 11.7706 7.48678C11.421 7.57829 11.0492 7.47404 10.7981 7.21408L7.50011 3.91408V13.5001C7.50011 15.1569 8.84325 16.5001 10.5001 16.5001H17.5001C18.0524 16.5001 18.5001 16.9478 18.5001 17.5001C18.5001 18.0524 18.0524 18.5001 17.5001 18.5001H10.5001Z" fill="#333333"/>
<mask id="mask0_0_13411" style="mask-type:alpha" maskUnits="userSpaceOnUse" x="0" y="0" width="19" height="19">
<path fill-rule="evenodd" clip-rule="evenodd" d="M10.5001 18.5001C7.73868 18.5001 5.50011 16.2615 5.50011 13.5001V3.91408L2.20711 7.20708C1.95603 7.46704 1.58423 7.57129 1.2346 7.47978C0.884969 7.38826 0.611924 7.11522 0.520409 6.76559C0.428893 6.41596 0.533149 6.04416 0.793106 5.79308L5.79311 0.793082C5.86696 0.71894 5.952 0.656851 6.04511 0.609082V0.609082L6.06511 0.600082V0.600082L6.08511 0.590082H6.09511H6.10511L6.12111 0.574082V0.574082C6.49694 0.421081 6.92798 0.510369 7.21211 0.800082L12.2121 5.80008C12.4721 6.05116 12.5763 6.42296 12.4848 6.77259C12.3933 7.12222 12.1202 7.39526 11.7706 7.48678C11.421 7.57829 11.0492 7.47404 10.7981 7.21408L7.50011 3.91408V13.5001C7.50011 15.1569 8.84325 16.5001 10.5001 16.5001H17.5001C18.0524 16.5001 18.5001 16.9478 18.5001 17.5001C18.5001 18.0524 18.0524 18.5001 17.5001 18.5001H10.5001Z" fill="white"/>
</mask>
<g mask="url(#mask0_0_13411)">
<rect x="-2.5" y="-2.49988" width="24" height="24" fill="#333333"/>
</g>
</svg>
