<svg width="19" height="19" viewBox="0 0 19 19" fill="none" xmlns="http://www.w3.org/2000/svg">
<path d="M11.788 18.2L6.788 13.2C6.52804 12.9489 6.42379 12.5771 6.5153 12.2275C6.60682 11.8779 6.87986 11.6048 7.22949 11.5133C7.57912 11.4218 7.95093 11.526 8.202 11.786L11.5 15.086V5.5C11.5 3.84315 10.1569 2.5 8.5 2.5H1.5C0.947715 2.5 0.5 2.05228 0.5 1.5C0.5 0.947715 0.947715 0.5 1.5 0.5H8.5C11.2614 0.5 13.5 2.73858 13.5 5.5V15.086L16.793 11.793C17.1835 11.4023 17.8168 11.402 18.2075 11.7925C18.5982 12.183 18.5985 12.8163 18.208 13.207L13.208 18.207C13.1288 18.2861 13.0368 18.3513 12.936 18.4H12.93L12.915 18.407H12.904H12.895L12.879 18.414V18.414C12.5048 18.565 12.0764 18.4763 11.793 18.189L11.788 18.2Z" fill="#333333"/>
<mask id="mask0_0_11851" style="mask-type:alpha" maskUnits="userSpaceOnUse" x="0" y="0" width="19" height="19">
<path fill-rule="evenodd" clip-rule="evenodd" d="M11.788 18.2L6.788 13.2C6.52804 12.9489 6.42379 12.5771 6.5153 12.2275C6.60682 11.8779 6.87986 11.6048 7.22949 11.5133C7.57912 11.4218 7.95093 11.526 8.202 11.786L11.5 15.086V5.5C11.5 3.84315 10.1569 2.5 8.5 2.5H1.5C0.947715 2.5 0.5 2.05228 0.5 1.5C0.5 0.947715 0.947715 0.5 1.5 0.5H8.5C11.2614 0.5 13.5 2.73858 13.5 5.5V15.086L16.793 11.793C17.1835 11.4023 17.8168 11.402 18.2075 11.7925C18.5982 12.183 18.5985 12.8163 18.208 13.207L13.208 18.207C13.1288 18.2861 13.0368 18.3513 12.936 18.4H12.93L12.915 18.407H12.904H12.895L12.879 18.414V18.414C12.5048 18.565 12.0764 18.4763 11.793 18.189L11.788 18.2Z" fill="white"/>
</mask>
<g mask="url(#mask0_0_11851)">
<rect x="-2.5" y="-2.5" width="24" height="24" fill="#333333"/>
</g>
</svg>
