<svg width="19" height="19" viewBox="0 0 19 19" fill="none" xmlns="http://www.w3.org/2000/svg">
<path d="M16.5 17.5V10.5C16.5 8.84317 15.1568 7.50002 13.5 7.50002H3.91395L7.20695 10.793C7.46691 11.0441 7.57116 11.4159 7.47965 11.7655C7.38813 12.1152 7.11509 12.3882 6.76546 12.4797C6.41583 12.5712 6.04402 12.467 5.79295 12.207L0.79295 7.20702C0.509104 6.9232 0.422478 6.49716 0.57295 6.12502V6.12502L0.58095 6.10002V6.09002V6.08002L0.59995 6.06902V6.06902L0.60995 6.04902V6.04902C0.657415 5.95598 0.719164 5.87095 0.79295 5.79702L5.79295 0.797022C6.03957 0.52036 6.41897 0.402785 6.77882 0.491508C7.13866 0.580231 7.41993 0.8607 7.50967 1.22029C7.59941 1.57989 7.48291 1.95962 7.20695 2.20702L3.91395 5.50002H13.5C16.2614 5.50002 18.5 7.7386 18.5 10.5V17.5C18.5 18.0523 18.0522 18.5 17.5 18.5C16.9477 18.5 16.5 18.0523 16.5 17.5Z" fill="#333333"/>
<mask id="mask0_0_13435" style="mask-type:alpha" maskUnits="userSpaceOnUse" x="0" y="0" width="19" height="19">
<path fill-rule="evenodd" clip-rule="evenodd" d="M16.5 17.5V10.5C16.5 8.84317 15.1568 7.50002 13.5 7.50002H3.91395L7.20695 10.793C7.46691 11.0441 7.57116 11.4159 7.47965 11.7655C7.38813 12.1152 7.11509 12.3882 6.76546 12.4797C6.41583 12.5712 6.04402 12.467 5.79295 12.207L0.79295 7.20702C0.509104 6.9232 0.422478 6.49716 0.57295 6.12502V6.12502L0.58095 6.10002V6.09002V6.08002L0.59995 6.06902V6.06902L0.60995 6.04902V6.04902C0.657415 5.95598 0.719164 5.87095 0.79295 5.79702L5.79295 0.797022C6.03957 0.52036 6.41897 0.402785 6.77882 0.491508C7.13866 0.580231 7.41993 0.8607 7.50967 1.22029C7.59941 1.57989 7.48291 1.95962 7.20695 2.20702L3.91395 5.50002H13.5C16.2614 5.50002 18.5 7.7386 18.5 10.5V17.5C18.5 18.0523 18.0522 18.5 17.5 18.5C16.9477 18.5 16.5 18.0523 16.5 17.5Z" fill="white"/>
</mask>
<g mask="url(#mask0_0_13435)">
<rect x="-2.5" y="-2.5" width="24" height="24" fill="#333333"/>
</g>
</svg>
