<svg width="19" height="19" viewBox="0 0 19 19" fill="none" xmlns="http://www.w3.org/2000/svg">
<path d="M6.12495 18.427V18.427L6.09995 18.419H6.09095H6.07995L6.06995 18.4H6.06495C5.96412 18.3513 5.87217 18.2861 5.79295 18.207L0.792947 13.207C0.402481 12.8163 0.402705 12.183 0.793447 11.7925C1.18419 11.402 1.81748 11.4023 2.20795 11.793L5.49995 15.086V5.5C5.49995 2.73858 7.73852 0.5 10.4999 0.5H17.4999C18.0522 0.5 18.4999 0.947715 18.4999 1.5C18.4999 2.05228 18.0522 2.5 17.4999 2.5H10.4999C8.84309 2.5 7.49995 3.84315 7.49995 5.5V15.086L10.7929 11.793C11.044 11.533 11.4158 11.4288 11.7655 11.5203C12.1151 11.6118 12.3881 11.8849 12.4796 12.2345C12.5712 12.5841 12.4669 12.9559 12.2069 13.207L7.20695 18.207C6.92351 18.4943 6.49519 18.583 6.12095 18.432L6.12495 18.427Z" fill="#333333"/>
<mask id="mask0_0_13002" style="mask-type:alpha" maskUnits="userSpaceOnUse" x="0" y="0" width="19" height="19">
<path fill-rule="evenodd" clip-rule="evenodd" d="M6.12495 18.427V18.427L6.09995 18.419H6.09095H6.07995L6.06995 18.4H6.06495C5.96412 18.3513 5.87217 18.2861 5.79295 18.207L0.792947 13.207C0.402481 12.8163 0.402705 12.183 0.793447 11.7925C1.18419 11.402 1.81748 11.4023 2.20795 11.793L5.49995 15.086V5.5C5.49995 2.73858 7.73852 0.5 10.4999 0.5H17.4999C18.0522 0.5 18.4999 0.947715 18.4999 1.5C18.4999 2.05228 18.0522 2.5 17.4999 2.5H10.4999C8.84309 2.5 7.49995 3.84315 7.49995 5.5V15.086L10.7929 11.793C11.044 11.533 11.4158 11.4288 11.7655 11.5203C12.1151 11.6118 12.3881 11.8849 12.4796 12.2345C12.5712 12.5841 12.4669 12.9559 12.2069 13.207L7.20695 18.207C6.92351 18.4943 6.49519 18.583 6.12095 18.432L6.12495 18.427Z" fill="white"/>
</mask>
<g mask="url(#mask0_0_13002)">
<rect x="-2.5" y="-2.5" width="24" height="24" fill="#333333"/>
</g>
</svg>
