<svg width="19" height="19" viewBox="0 0 19 19" fill="none" xmlns="http://www.w3.org/2000/svg">
<path d="M1.5 18.5C0.947715 18.5 0.5 18.0522 0.5 17.5C0.5 16.9477 0.947715 16.5 1.5 16.5H8.5C10.1569 16.5 11.5 15.1568 11.5 13.5V3.91395L8.207 7.20695C7.95593 7.46691 7.58412 7.57116 7.23449 7.47965C6.88486 7.38813 6.61182 7.11509 6.5203 6.76546C6.42879 6.41583 6.53304 6.04402 6.793 5.79295L11.793 0.79295C12.0768 0.509104 12.5029 0.422478 12.875 0.57295V0.57295L12.9 0.58095H12.91H12.921L12.93 0.59995V0.59995L12.95 0.60995V0.60995C13.043 0.657415 13.1281 0.719164 13.202 0.79295L18.202 5.79295C18.4546 6.04572 18.5531 6.41403 18.4605 6.75916C18.3679 7.10429 18.0982 7.3738 17.753 7.46616C17.4078 7.55853 17.0396 7.45972 16.787 7.20695L13.5 3.91395V13.5C13.5 16.2614 11.2614 18.5 8.5 18.5H1.5Z" fill="#333333"/>
<mask id="mask0_0_13324" style="mask-type:alpha" maskUnits="userSpaceOnUse" x="0" y="0" width="19" height="19">
<path fill-rule="evenodd" clip-rule="evenodd" d="M1.5 18.5C0.947715 18.5 0.5 18.0522 0.5 17.5C0.5 16.9477 0.947715 16.5 1.5 16.5H8.5C10.1569 16.5 11.5 15.1568 11.5 13.5V3.91395L8.207 7.20695C7.95593 7.46691 7.58412 7.57116 7.23449 7.47965C6.88486 7.38813 6.61182 7.11509 6.5203 6.76546C6.42879 6.41583 6.53304 6.04402 6.793 5.79295L11.793 0.79295C12.0768 0.509104 12.5029 0.422478 12.875 0.57295V0.57295L12.9 0.58095H12.91H12.921L12.93 0.59995V0.59995L12.95 0.60995V0.60995C13.043 0.657415 13.1281 0.719164 13.202 0.79295L18.202 5.79295C18.4546 6.04572 18.5531 6.41403 18.4605 6.75916C18.3679 7.10429 18.0982 7.3738 17.753 7.46616C17.4078 7.55853 17.0396 7.45972 16.787 7.20695L13.5 3.91395V13.5C13.5 16.2614 11.2614 18.5 8.5 18.5H1.5Z" fill="white"/>
</mask>
<g mask="url(#mask0_0_13324)">
<rect x="-2.5" y="-2.5" width="24" height="24" fill="#333333"/>
</g>
</svg>
