<svg width="19" height="19" viewBox="0 0 19 19" fill="none" xmlns="http://www.w3.org/2000/svg">
<path d="M0.5 17.5V10.5C0.5 7.73856 2.73858 5.49998 5.5 5.49998H15.086L11.793 2.20698C11.533 1.95591 11.4288 1.58411 11.5203 1.23448C11.6118 0.884847 11.8849 0.611802 12.2345 0.520287C12.5841 0.428771 12.9559 0.533027 13.207 0.792984L18.207 5.79298C18.2861 5.87221 18.3513 5.96415 18.4 6.06498V6.06998L18.407 6.08498V6.09598V6.10498L18.414 6.12098V6.12098C18.57 6.49445 18.4856 6.92514 18.2 7.21198L13.2 12.212C12.9489 12.4719 12.5771 12.5762 12.2275 12.4847C11.8779 12.3932 11.6048 12.1201 11.5133 11.7705C11.4218 11.4209 11.526 11.0491 11.786 10.798L15.086 7.49998H5.5C3.84315 7.49998 2.5 8.84313 2.5 10.5V17.5C2.5 18.0523 2.05228 18.5 1.5 18.5C0.947715 18.5 0.5 18.0523 0.5 17.5Z" fill="#333333"/>
<mask id="mask0_0_12142" style="mask-type:alpha" maskUnits="userSpaceOnUse" x="0" y="0" width="19" height="19">
<path fill-rule="evenodd" clip-rule="evenodd" d="M0.5 17.5V10.5C0.5 7.73856 2.73858 5.49998 5.5 5.49998H15.086L11.793 2.20698C11.533 1.95591 11.4288 1.58411 11.5203 1.23448C11.6118 0.884847 11.8849 0.611802 12.2345 0.520287C12.5841 0.428771 12.9559 0.533027 13.207 0.792984L18.207 5.79298C18.2861 5.87221 18.3513 5.96415 18.4 6.06498V6.06998L18.407 6.08498V6.09598V6.10498L18.414 6.12098V6.12098C18.57 6.49445 18.4856 6.92514 18.2 7.21198L13.2 12.212C12.9489 12.4719 12.5771 12.5762 12.2275 12.4847C11.8779 12.3932 11.6048 12.1201 11.5133 11.7705C11.4218 11.4209 11.526 11.0491 11.786 10.798L15.086 7.49998H5.5C3.84315 7.49998 2.5 8.84313 2.5 10.5V17.5C2.5 18.0523 2.05228 18.5 1.5 18.5C0.947715 18.5 0.5 18.0523 0.5 17.5Z" fill="white"/>
</mask>
<g mask="url(#mask0_0_12142)">
<rect x="-2.5" y="-2.5" width="24" height="24" fill="#333333"/>
</g>
</svg>
