<svg width="19" height="19" viewBox="0 0 19 19" fill="none" xmlns="http://www.w3.org/2000/svg">
<path d="M11.793 18.208C11.6052 18.0204 11.4997 17.7659 11.4997 17.5005C11.4997 17.2351 11.6052 16.9806 11.793 16.793L15.086 13.5H5.5C2.73858 13.5 0.5 11.2614 0.5 8.5V1.5C0.5 0.947715 0.947715 0.5 1.5 0.5C2.05228 0.5 2.5 0.947715 2.5 1.5V8.5C2.5 10.1569 3.84315 11.5 5.5 11.5H15.086L11.793 8.207C11.533 7.95593 11.4288 7.58412 11.5203 7.23449C11.6118 6.88486 11.8849 6.61182 12.2345 6.5203C12.5841 6.42879 12.9559 6.53304 13.207 6.793L18.207 11.793C18.4943 12.0764 18.583 12.5048 18.432 12.879V12.879L18.425 12.895V12.904V12.915L18.418 12.93V12.936C18.3693 13.0368 18.3041 13.1288 18.225 13.208L13.225 18.208C12.8345 18.5984 12.2015 18.5984 11.811 18.208H11.793Z" fill="#333333"/>
<mask id="mask0_0_11843" style="mask-type:alpha" maskUnits="userSpaceOnUse" x="0" y="0" width="19" height="19">
<path fill-rule="evenodd" clip-rule="evenodd" d="M11.793 18.208C11.6052 18.0204 11.4997 17.7659 11.4997 17.5005C11.4997 17.2351 11.6052 16.9806 11.793 16.793L15.086 13.5H5.5C2.73858 13.5 0.5 11.2614 0.5 8.5V1.5C0.5 0.947715 0.947715 0.5 1.5 0.5C2.05228 0.5 2.5 0.947715 2.5 1.5V8.5C2.5 10.1569 3.84315 11.5 5.5 11.5H15.086L11.793 8.207C11.533 7.95593 11.4288 7.58412 11.5203 7.23449C11.6118 6.88486 11.8849 6.61182 12.2345 6.5203C12.5841 6.42879 12.9559 6.53304 13.207 6.793L18.207 11.793C18.4943 12.0764 18.583 12.5048 18.432 12.879V12.879L18.425 12.895V12.904V12.915L18.418 12.93V12.936C18.3693 13.0368 18.3041 13.1288 18.225 13.208L13.225 18.208C12.8345 18.5984 12.2015 18.5984 11.811 18.208H11.793Z" fill="white"/>
</mask>
<g mask="url(#mask0_0_11843)">
<rect x="-2.5" y="-2.5" width="24" height="24" fill="#333333"/>
</g>
</svg>
