<svg width="25" height="25" viewBox="0 0 25 25" fill="none" xmlns="http://www.w3.org/2000/svg">
<path fill-rule="evenodd" clip-rule="evenodd" d="M14.5 21.5V23.5C14.5 24.0523 14.9477 24.5 15.5 24.5C16.0523 24.5 16.5 24.0523 16.5 23.5V21.5H18.5C20.1569 21.5 21.5 20.1569 21.5 18.5V15.5H23.5C24.0523 15.5 24.5 15.0523 24.5 14.5C24.5 13.9477 24.0523 13.5 23.5 13.5H21.5V10.5H23.5C24.0523 10.5 24.5 10.0523 24.5 9.5C24.5 8.94771 24.0523 8.5 23.5 8.5H21.5V6.5C21.5 4.84315 20.1569 3.5 18.5 3.5H16.5V1.5C16.5 0.947715 16.0523 0.5 15.5 0.5C14.9477 0.5 14.5 0.947715 14.5 1.5V3.5H10.5V1.5C10.5 0.947715 10.0523 0.5 9.5 0.5C8.94771 0.5 8.5 0.947715 8.5 1.5V3.5H6.5C4.84315 3.5 3.5 4.84315 3.5 6.5V8.5H1.5C0.947715 8.5 0.5 8.94771 0.5 9.5C0.5 10.0523 0.947715 10.5 1.5 10.5H3.5V13.5H1.5C0.947715 13.5 0.5 13.9477 0.5 14.5C0.5 15.0523 0.947715 15.5 1.5 15.5H3.5V18.5C3.5 20.1569 4.84315 21.5 6.5 21.5H8.5V23.5C8.5 24.0523 8.94771 24.5 9.5 24.5C10.0523 24.5 10.5 24.0523 10.5 23.5V21.5H14.5ZM6.5 19.5C5.94772 19.5 5.5 19.0523 5.5 18.5V6.5C5.5 5.94772 5.94772 5.5 6.5 5.5H18.5C19.0523 5.5 19.5 5.94772 19.5 6.5V18.5C19.5 19.0523 19.0523 19.5 18.5 19.5H6.5ZM9.5 16.5C8.94771 16.5 8.5 16.0523 8.5 15.5V9.5C8.5 8.94771 8.94771 8.5 9.5 8.5H15.5C16.0523 8.5 16.5 8.94771 16.5 9.5V15.5C16.5 16.0523 16.0523 16.5 15.5 16.5H9.5ZM14.5 14.5H10.5V10.5H14.5V14.5Z" fill="#333333"/>
<mask id="mask0_0_13733" style="mask-type:alpha" maskUnits="userSpaceOnUse" x="0" y="0" width="25" height="25">
<path fill-rule="evenodd" clip-rule="evenodd" d="M14.5 23.5V21.5H10.5V23.5C10.5 24.0523 10.0523 24.5 9.5 24.5C8.94772 24.5 8.5 24.0523 8.5 23.5V21.5H6.5C4.84315 21.5 3.5 20.1569 3.5 18.5V15.5H1.5C0.947715 15.5 0.5 15.0523 0.5 14.5C0.5 13.9477 0.947715 13.5 1.5 13.5H3.5V10.5H1.5C0.947715 10.5 0.5 10.0523 0.5 9.5C0.5 8.94772 0.947715 8.5 1.5 8.5H3.5V6.5C3.5 4.84315 4.84315 3.5 6.5 3.5H8.5V1.5C8.5 0.947715 8.94772 0.5 9.5 0.5C10.0523 0.5 10.5 0.947715 10.5 1.5V3.5H14.5V1.5C14.5 0.947715 14.9477 0.5 15.5 0.5C16.0523 0.5 16.5 0.947715 16.5 1.5V3.5H18.5C20.1569 3.5 21.5 4.84315 21.5 6.5V8.5H23.5C24.0523 8.5 24.5 8.94772 24.5 9.5C24.5 10.0523 24.0523 10.5 23.5 10.5H21.5V13.5H23.5C24.0523 13.5 24.5 13.9477 24.5 14.5C24.5 15.0523 24.0523 15.5 23.5 15.5H21.5V18.5C21.5 20.1569 20.1569 21.5 18.5 21.5H16.5V23.5C16.5 24.0523 16.0523 24.5 15.5 24.5C14.9477 24.5 14.5 24.0523 14.5 23.5ZM5.5 18.5C5.5 19.0523 5.94772 19.5 6.5 19.5H18.5C19.0523 19.5 19.5 19.0523 19.5 18.5V6.5C19.5 5.94772 19.0523 5.5 18.5 5.5H6.5C5.94772 5.5 5.5 5.94772 5.5 6.5V18.5ZM9.5 16.5C8.94772 16.5 8.5 16.0523 8.5 15.5V9.5C8.5 8.94772 8.94772 8.5 9.5 8.5H15.5C16.0523 8.5 16.5 8.94772 16.5 9.5V15.5C16.5 16.0523 16.0523 16.5 15.5 16.5H9.5ZM10.5 14.5H14.5V10.5H10.5V14.5Z" fill="white"/>
</mask>
<g mask="url(#mask0_0_13733)">
<rect x="0.5" y="0.5" width="24" height="24" fill="#333333"/>
</g>
</svg>
