<svg width="25" height="19" viewBox="0 0 25 19" fill="none" xmlns="http://www.w3.org/2000/svg">
<path fill-rule="evenodd" clip-rule="evenodd" d="M3.5 18.5C1.84315 18.5 0.5 17.1569 0.5 15.5V3.5C0.5 1.84315 1.84315 0.5 3.5 0.5H21.5C23.1569 0.5 24.5 1.84315 24.5 3.5V15.5C24.5 17.1569 23.1569 18.5 21.5 18.5H3.5ZM2.5 15.5C2.5 16.0523 2.94772 16.5 3.5 16.5H21.5C22.0523 16.5 22.5 16.0523 22.5 15.5V8.5H2.5V15.5ZM22.5 3.5V6.5H2.5V3.5C2.5 2.94772 2.94772 2.5 3.5 2.5H21.5C22.0523 2.5 22.5 2.94772 22.5 3.5Z" fill="#333333"/>
<mask id="mask0_0_14315" style="mask-type:alpha" maskUnits="userSpaceOnUse" x="0" y="0" width="25" height="19">
<path fill-rule="evenodd" clip-rule="evenodd" d="M3.5 18.5C1.84315 18.5 0.5 17.1569 0.5 15.5V3.5C0.5 1.84315 1.84315 0.5 3.5 0.5H21.5C23.1569 0.5 24.5 1.84315 24.5 3.5V15.5C24.5 17.1569 23.1569 18.5 21.5 18.5H3.5ZM2.5 15.5C2.5 16.0523 2.94772 16.5 3.5 16.5H21.5C22.0523 16.5 22.5 16.0523 22.5 15.5V8.5H2.5V15.5ZM22.5 6.5V3.5C22.5 2.94772 22.0523 2.5 21.5 2.5H3.5C2.94772 2.5 2.5 2.94772 2.5 3.5V6.5H22.5Z" fill="white"/>
</mask>
<g mask="url(#mask0_0_14315)">
<rect x="0.5" y="-2.5" width="24" height="24" fill="#333333"/>
</g>
</svg>
