<svg width="23" height="23" viewBox="0 0 23 23" fill="none" xmlns="http://www.w3.org/2000/svg">
<path fill-rule="evenodd" clip-rule="evenodd" d="M1.33763 15.7095C3.04016 19.8198 7.051 22.4999 11.5 22.5C14.419 22.5083 17.2199 21.3481 19.278 19.278C22.0879 16.5055 23.1968 12.4399 22.1836 8.62462C21.1704 4.80937 18.1906 1.82954 14.3754 0.816375C10.5601 -0.19679 6.4945 0.912076 3.72197 3.72201C0.576142 6.86798 -0.364903 11.5992 1.33763 15.7095ZM10.5 17.5V20.445C6.3238 19.9717 3.02831 16.6762 2.55497 12.5H5.49997C6.05226 12.5 6.49997 12.0523 6.49997 11.5C6.49997 10.9477 6.05226 10.5 5.49997 10.5H2.55497C3.02831 6.32383 6.3238 3.02835 10.5 2.55501V5.50001C10.5 6.05229 10.9477 6.50001 11.5 6.50001C12.0523 6.50001 12.5 6.05229 12.5 5.50001V2.55501C16.6758 3.02878 19.9707 6.32416 20.444 10.5H17.5C16.9477 10.5 16.5 10.9477 16.5 11.5C16.5 12.0523 16.9477 12.5 17.5 12.5H20.445C19.9712 16.6758 16.6758 19.9708 12.5 20.444V17.5C12.5 16.9477 12.0523 16.5 11.5 16.5C10.9477 16.5 10.5 16.9477 10.5 17.5Z" fill="#333333"/>
<mask id="mask0_0_12908" style="mask-type:alpha" maskUnits="userSpaceOnUse" x="0" y="0" width="23" height="23">
<path fill-rule="evenodd" clip-rule="evenodd" d="M11.5 22.5C7.051 22.4999 3.04016 19.8198 1.33763 15.7095C-0.364903 11.5992 0.576142 6.86798 3.72197 3.72201C6.4945 0.912076 10.5601 -0.19679 14.3754 0.816375C18.1906 1.82954 21.1704 4.80937 22.1836 8.62462C23.1968 12.4399 22.0879 16.5055 19.278 19.278C17.2199 21.3481 14.419 22.5083 11.5 22.5ZM10.5 20.445V17.5C10.5 16.9477 10.9477 16.5 11.5 16.5C12.0523 16.5 12.5 16.9477 12.5 17.5V20.444C16.6758 19.9708 19.9712 16.6758 20.445 12.5H17.5C16.9477 12.5 16.5 12.0523 16.5 11.5C16.5 10.9477 16.9477 10.5 17.5 10.5H20.444C19.9707 6.32416 16.6758 3.02878 12.5 2.55501V5.50001C12.5 6.05229 12.0523 6.50001 11.5 6.50001C10.9477 6.50001 10.5 6.05229 10.5 5.50001V2.55501C6.3238 3.02835 3.02831 6.32383 2.55497 10.5H5.49997C6.05226 10.5 6.49997 10.9477 6.49997 11.5C6.49997 12.0523 6.05226 12.5 5.49997 12.5H2.55497C3.02831 16.6762 6.3238 19.9717 10.5 20.445Z" fill="white"/>
</mask>
<g mask="url(#mask0_0_12908)">
<rect x="-0.5" y="-0.5" width="24" height="24" fill="#333333"/>
</g>
</svg>
