<svg width="17" height="17" viewBox="0 0 17 17" fill="none" xmlns="http://www.w3.org/2000/svg">
<path d="M16.414 13.5258L11.386 8.4998L16.411 3.4738C16.6124 3.27135 16.6124 2.94425 16.411 2.7418L14.04 0.368799C13.8376 0.167432 13.5105 0.167432 13.308 0.368799L8.28603 5.3938L3.25703 0.368799C3.05457 0.167432 2.72748 0.167432 2.52503 0.368799L0.151026 2.7428C-0.0503419 2.94525 -0.0503419 3.27235 0.151026 3.4748L5.17703 8.4998L0.151026 13.5258C-0.0503419 13.7283 -0.0503419 14.0553 0.151026 14.2578L2.52503 16.6318C2.72748 16.8332 3.05457 16.8332 3.25703 16.6318L8.28603 11.6058L13.308 16.6318C13.5105 16.8332 13.8376 16.8332 14.04 16.6318L16.414 14.2578C16.6154 14.0553 16.6154 13.7283 16.414 13.5258Z" fill="url(#paint0_linear_0_7735)"/>
<defs>
<linearGradient id="paint0_linear_0_7735" x1="0" y1="0.217773" x2="0" y2="16.7828" gradientUnits="userSpaceOnUse">
<stop stop-color="#FFBF35" stop-opacity="0.6"/>
<stop offset="1" stop-color="#FFA900"/>
</linearGradient>
</defs>
</svg>
