<svg width="25" height="19" viewBox="0 0 25 19" fill="none" xmlns="http://www.w3.org/2000/svg">
<path fill-rule="evenodd" clip-rule="evenodd" d="M8.5001 18.5C8.21202 18.5 7.93795 18.3757 7.7481 18.159L0.748101 10.159C0.417625 9.78181 0.417625 9.21819 0.748101 8.841L7.7481 0.841C7.93795 0.62432 8.21202 0.500041 8.5001 0.5H21.5001C23.157 0.5 24.5001 1.84315 24.5001 3.5V15.5C24.5001 17.1569 23.157 18.5 21.5001 18.5H8.5001ZM2.8291 9.5L8.9541 16.5H21.5001C22.0524 16.5 22.5001 16.0523 22.5001 15.5V3.5C22.5001 2.94772 22.0524 2.5 21.5001 2.5H8.9541L2.8291 9.5ZM15.5001 10.914L17.7921 13.207C18.1826 13.5977 18.8159 13.598 19.2066 13.2075C19.5973 12.817 19.5976 12.1837 19.2071 11.793L16.9141 9.5L19.2081 7.207C19.4607 6.95423 19.5592 6.58592 19.4666 6.24079C19.374 5.89566 19.1043 5.62615 18.7591 5.53379C18.4139 5.44142 18.0457 5.54023 17.7931 5.793L15.5001 8.086L13.2071 5.793C12.956 5.53304 12.5842 5.42879 12.2346 5.5203C11.885 5.61182 11.6119 5.88486 11.5204 6.23449C11.4289 6.58412 11.5331 6.95593 11.7931 7.207L14.0861 9.5L11.7931 11.793C11.4141 12.1854 11.4195 12.8091 11.8053 13.1948C12.191 13.5806 12.8147 13.586 13.2071 13.207L15.5001 10.914Z" fill="#333333"/>
<mask id="mask0_0_12210" style="mask-type:alpha" maskUnits="userSpaceOnUse" x="0" y="0" width="25" height="19">
<path fill-rule="evenodd" clip-rule="evenodd" d="M8.5001 18.5C8.21202 18.5 7.93795 18.3757 7.7481 18.159L0.748101 10.159C0.417625 9.78181 0.417625 9.21819 0.748101 8.841L7.7481 0.841C7.93795 0.62432 8.21202 0.500041 8.5001 0.5H21.5001C23.157 0.5 24.5001 1.84315 24.5001 3.5V15.5C24.5001 17.1569 23.157 18.5 21.5001 18.5H8.5001ZM2.8291 9.5L8.9541 16.5H21.5001C22.0524 16.5 22.5001 16.0523 22.5001 15.5V3.5C22.5001 2.94772 22.0524 2.5 21.5001 2.5H8.9541L2.8291 9.5ZM17.7921 13.207L15.5001 10.914L13.2071 13.207C12.8147 13.586 12.191 13.5806 11.8053 13.1948C11.4195 12.8091 11.4141 12.1854 11.7931 11.793L14.0861 9.5L11.7931 7.207C11.5331 6.95593 11.4289 6.58412 11.5204 6.23449C11.6119 5.88486 11.885 5.61182 12.2346 5.5203C12.5842 5.42879 12.956 5.53304 13.2071 5.793L15.5001 8.086L17.7931 5.793C18.0457 5.54023 18.4139 5.44142 18.7591 5.53379C19.1043 5.62615 19.374 5.89566 19.4666 6.24079C19.5592 6.58592 19.4607 6.95423 19.2081 7.207L16.9141 9.5L19.2071 11.793C19.5976 12.1837 19.5973 12.817 19.2066 13.2075C18.8159 13.598 18.1826 13.5977 17.7921 13.207V13.207Z" fill="white"/>
</mask>
<g mask="url(#mask0_0_12210)">
<rect x="0.5" y="-2.5" width="24" height="24" fill="#333333"/>
</g>
</svg>
