<svg width="23" height="23" viewBox="0 0 23 23" fill="none" xmlns="http://www.w3.org/2000/svg">
<path fill-rule="evenodd" clip-rule="evenodd" d="M1.33763 15.7095C3.04016 19.8198 7.051 22.4999 11.5 22.5C14.419 22.5082 17.2199 21.348 19.278 19.278C22.0879 16.5055 23.1968 12.4399 22.1836 8.62462C21.1704 4.80937 18.1906 1.82954 14.3754 0.816375C10.5601 -0.19679 6.4945 0.912076 3.72197 3.72201C0.576142 6.86798 -0.364903 11.5992 1.33763 15.7095ZM2.49997 11.5C2.49997 6.52944 6.52941 2.50001 11.5 2.50001C16.4683 2.50552 20.4945 6.53173 20.5 11.5C20.5 16.4706 16.4705 20.5 11.5 20.5C6.52941 20.5 2.49997 16.4706 2.49997 11.5ZM11.5 15.5C9.29083 15.5 7.49997 13.7091 7.49997 11.5C7.49997 9.29087 9.29083 7.50001 11.5 7.50001C13.7091 7.50001 15.5 9.29087 15.5 11.5C15.5 12.5609 15.0785 13.5783 14.3284 14.3284C13.5783 15.0786 12.5608 15.5 11.5 15.5ZM9.49997 11.5C9.49997 10.3954 10.3954 9.50001 11.5 9.50001C12.6045 9.50001 13.5 10.3954 13.5 11.5C13.5 12.6046 12.6045 13.5 11.5 13.5C10.3954 13.5 9.49997 12.6046 9.49997 11.5Z" fill="#333333"/>
<mask id="mask0_0_13237" style="mask-type:alpha" maskUnits="userSpaceOnUse" x="0" y="0" width="23" height="23">
<path fill-rule="evenodd" clip-rule="evenodd" d="M11.5 22.5C7.051 22.4999 3.04016 19.8198 1.33763 15.7095C-0.364903 11.5992 0.576142 6.86798 3.72197 3.72201C6.4945 0.912076 10.5601 -0.19679 14.3754 0.816375C18.1906 1.82954 21.1704 4.80937 22.1836 8.62462C23.1968 12.4399 22.0879 16.5055 19.278 19.278C17.2199 21.348 14.419 22.5082 11.5 22.5ZM11.5 2.50001C6.52941 2.50001 2.49997 6.52944 2.49997 11.5C2.49997 16.4706 6.52941 20.5 11.5 20.5C16.4705 20.5 20.5 16.4706 20.5 11.5C20.4945 6.53173 16.4683 2.50552 11.5 2.50001ZM11.5 15.5C9.29083 15.5 7.49997 13.7091 7.49997 11.5C7.49997 9.29087 9.29083 7.50001 11.5 7.50001C13.7091 7.50001 15.5 9.29087 15.5 11.5C15.5 12.5609 15.0785 13.5783 14.3284 14.3284C13.5783 15.0786 12.5608 15.5 11.5 15.5ZM11.5 9.50001C10.3954 9.50001 9.49997 10.3954 9.49997 11.5C9.49997 12.6046 10.3954 13.5 11.5 13.5C12.6045 13.5 13.5 12.6046 13.5 11.5C13.5 10.3954 12.6045 9.50001 11.5 9.50001Z" fill="white"/>
</mask>
<g mask="url(#mask0_0_13237)">
<rect x="-0.5" y="-0.5" width="24" height="24" fill="#333333"/>
</g>
</svg>
