<svg width="21" height="23" viewBox="0 0 21 23" fill="none" xmlns="http://www.w3.org/2000/svg">
<path fill-rule="evenodd" clip-rule="evenodd" d="M5.788 12.2L9.788 16.2L9.784 16.207C9.97188 16.3972 10.2281 16.5043 10.4955 16.5043C10.7629 16.5043 11.0191 16.3972 11.207 16.207L15.207 12.207C15.586 11.8146 15.5806 11.1909 15.1948 10.8052C14.8091 10.4194 14.1854 10.414 13.793 10.793L11.5 13.086V1.5C11.5 0.947715 11.0523 0.5 10.5 0.5C9.94771 0.5 9.5 0.947715 9.5 1.5V13.086L7.202 10.786C6.80962 10.407 6.18591 10.4124 5.80018 10.7982C5.41445 11.1839 5.40903 11.8076 5.788 12.2ZM0.5 19.5C0.5 21.1569 1.84315 22.5 3.5 22.5H17.5C19.1569 22.5 20.5 21.1569 20.5 19.5V16.5C20.5 15.9477 20.0523 15.5 19.5 15.5C18.9477 15.5 18.5 15.9477 18.5 16.5V19.5C18.5 20.0523 18.0523 20.5 17.5 20.5H3.5C2.94772 20.5 2.5 20.0523 2.5 19.5V16.5C2.5 15.9477 2.05228 15.5 1.5 15.5C0.947715 15.5 0.5 15.9477 0.5 16.5V19.5Z" fill="#333333"/>
<mask id="mask0_0_13846" style="mask-type:alpha" maskUnits="userSpaceOnUse" x="0" y="0" width="21" height="23">
<path fill-rule="evenodd" clip-rule="evenodd" d="M3.5 22.5C1.84315 22.5 0.5 21.1569 0.5 19.5V16.5C0.5 15.9477 0.947715 15.5 1.5 15.5C2.05228 15.5 2.5 15.9477 2.5 16.5V19.5C2.5 20.0523 2.94772 20.5 3.5 20.5H17.5C18.0523 20.5 18.5 20.0523 18.5 19.5V16.5C18.5 15.9477 18.9477 15.5 19.5 15.5C20.0523 15.5 20.5 15.9477 20.5 16.5V19.5C20.5 21.1569 19.1569 22.5 17.5 22.5H3.5ZM9.788 16.2L5.788 12.2C5.40903 11.8076 5.41445 11.1839 5.80018 10.7982C6.18592 10.4124 6.80962 10.407 7.202 10.786L9.5 13.086V1.5C9.5 0.947715 9.94772 0.5 10.5 0.5C11.0523 0.5 11.5 0.947715 11.5 1.5V13.086L13.793 10.793C14.1854 10.414 14.8091 10.4194 15.1948 10.8052C15.5806 11.1909 15.586 11.8146 15.207 12.207L11.207 16.207C11.0191 16.3972 10.7629 16.5043 10.4955 16.5043C10.2281 16.5043 9.97188 16.3972 9.784 16.207L9.788 16.2Z" fill="white"/>
</mask>
<g mask="url(#mask0_0_13846)">
<rect x="-1.5" y="-0.5" width="24" height="24" fill="#333333"/>
</g>
</svg>
