<svg width="25" height="21" viewBox="0 0 25 21" fill="none" xmlns="http://www.w3.org/2000/svg">
<path fill-rule="evenodd" clip-rule="evenodd" d="M20.814 15.786C20.3623 16.1036 20.2535 16.7272 20.571 17.179V17.177C20.8886 17.6287 21.5122 17.7375 21.964 17.42C24.105 15.9145 25.023 13.1949 24.2325 10.6998C23.442 8.20475 21.1253 6.50998 18.508 6.51203H17.99C16.7821 3.0876 13.6345 0.724543 10.0091 0.520197C6.38357 0.315851 2.99044 2.31025 1.40533 5.57726C-0.179776 8.84426 0.353695 12.7438 2.75802 15.465C3.12391 15.8792 3.7563 15.9184 4.17052 15.5525C4.58473 15.1866 4.62391 14.5542 4.25802 14.14C2.34104 11.9671 1.96106 8.83761 3.30233 6.26903C4.64359 3.70045 7.4288 2.22379 10.3075 2.55504C13.1862 2.88628 15.5632 4.95694 16.286 7.76303C16.3996 8.20486 16.7978 8.5138 17.254 8.51403H18.514C20.2582 8.51441 21.801 9.64486 22.3269 11.3078C22.8529 12.9707 22.2407 14.7828 20.814 15.786ZM11.875 20.286L11.892 20.3L11.891 20.294C12.2888 20.6063 12.8572 20.5724 13.215 20.215L17.215 16.215C17.6058 15.8243 17.6058 15.1908 17.215 14.8C16.8243 14.4093 16.1908 14.4093 15.8 14.8L13.509 17.1V10.512C13.509 9.95975 13.0613 9.51203 12.509 9.51203C11.9567 9.51203 11.509 9.95975 11.509 10.512V17.1L9.21702 14.8C8.82379 14.409 8.18804 14.4108 7.79702 14.804C7.406 15.1973 7.40779 15.833 7.80102 16.224L11.801 20.219L11.843 20.259L11.858 20.272L11.869 20.281L11.875 20.286Z" fill="#333333"/>
<mask id="mask0_0_11859" style="mask-type:alpha" maskUnits="userSpaceOnUse" x="0" y="0" width="25" height="21">
<path fill-rule="evenodd" clip-rule="evenodd" d="M11.892 20.3V20.3L11.875 20.286L11.869 20.281L11.858 20.272L11.843 20.259V20.259L11.801 20.219L7.80102 16.224C7.40779 15.833 7.406 15.1973 7.79702 14.804C8.18804 14.4108 8.82379 14.409 9.21702 14.8L11.509 17.1V10.512C11.509 9.95975 11.9567 9.51203 12.509 9.51203C13.0613 9.51203 13.509 9.95975 13.509 10.512V17.1L15.8 14.8C16.1908 14.4093 16.8243 14.4093 17.215 14.8C17.6058 15.1908 17.6058 15.8243 17.215 16.215L13.215 20.215C12.8572 20.5724 12.2888 20.6063 11.891 20.294L11.892 20.3ZM20.571 17.179C20.2535 16.7272 20.3623 16.1036 20.814 15.786C22.2407 14.7828 22.8529 12.9707 22.3269 11.3078C21.801 9.64486 20.2582 8.51441 18.514 8.51403H17.254C16.7978 8.5138 16.3996 8.20486 16.286 7.76303C15.5632 4.95694 13.1862 2.88628 10.3075 2.55504C7.4288 2.22379 4.64359 3.70045 3.30233 6.26903C1.96106 8.83761 2.34104 11.9671 4.25802 14.14C4.62391 14.5542 4.58473 15.1866 4.17052 15.5525C3.7563 15.9184 3.12391 15.8792 2.75802 15.465C0.353695 12.7438 -0.179776 8.84426 1.40533 5.57726C2.99044 2.31025 6.38357 0.315851 10.0091 0.520197C13.6345 0.724543 16.7821 3.0876 17.99 6.51203H18.508C21.1253 6.50998 23.442 8.20475 24.2325 10.6998C25.023 13.1949 24.105 15.9145 21.964 17.42C21.5122 17.7375 20.8886 17.6287 20.571 17.177V17.179Z" fill="white"/>
</mask>
<g mask="url(#mask0_0_11859)">
<rect x="0.5" y="-1.5" width="24" height="24" fill="#333333"/>
</g>
</svg>
