<svg width="19" height="22" viewBox="0 0 19 22" fill="none" xmlns="http://www.w3.org/2000/svg">
<mask id="mask0_0_14340" style="mask-type:alpha" maskUnits="userSpaceOnUse" x="0" y="0" width="19" height="22">
<path fill-rule="evenodd" clip-rule="evenodd" d="M9.50496 21.507C5.8647 21.5066 2.58313 19.3134 1.19051 15.95C-0.202115 12.5867 0.568484 8.71563 3.14296 6.142L8.79196 0.481996C9.18207 0.0920039 9.8143 0.0915565 10.205 0.480996L15.865 6.141C18.4399 8.71428 19.2111 12.5853 17.8189 15.9489C16.4267 19.3125 13.1453 21.5062 9.50496 21.507V21.507ZM9.50496 2.607L4.55696 7.556C1.82349 10.2897 1.82364 14.7218 4.55729 17.4553C7.29094 20.1889 11.723 20.1889 14.4566 17.4553C17.1903 14.7218 17.1904 10.2897 14.457 7.556L9.50496 2.607Z" fill="white"/>
</mask>
<g mask="url(#mask0_0_14340)">
<rect x="-2.5" y="-1.50098" width="24" height="24" fill="#333333"/>
</g>
</svg>
