<svg width="23" height="23" viewBox="0 0 23 23" fill="none" xmlns="http://www.w3.org/2000/svg">
<path fill-rule="evenodd" clip-rule="evenodd" d="M11.5 16.5H7.5C6.94772 16.5 6.5 16.0523 6.5 15.5V11.5C6.50071 11.235 6.60601 10.9809 6.793 10.793L16.793 0.793043C16.9806 0.605265 17.2351 0.499756 17.5005 0.499756C17.7659 0.499756 18.0204 0.605265 18.208 0.793043L22.208 4.79304C22.5984 5.18354 22.5984 5.81654 22.208 6.20704L12.208 16.207C12.0203 16.3948 11.7655 16.5002 11.5 16.5ZM17.5 22.5H3.5C1.84315 22.5 0.5 21.1569 0.5 19.5V5.50004C0.5 3.84319 1.84315 2.50004 3.5 2.50004H8.84C9.39229 2.50004 9.84 2.94776 9.84 3.50004C9.84 4.05233 9.39229 4.50004 8.84 4.50004H3.5C2.94772 4.50004 2.5 4.94776 2.5 5.50004V19.5C2.5 20.0523 2.94772 20.5 3.5 20.5H17.5C18.0523 20.5 18.5 20.0523 18.5 19.5V14.16C18.5 13.6078 18.9477 13.16 19.5 13.16C20.0523 13.16 20.5 13.6078 20.5 14.16V19.5C20.5 21.1569 19.1569 22.5 17.5 22.5ZM8.5 11.914L17.5 2.91404L20.086 5.50004L11.086 14.5H8.5V11.914Z" fill="#333333"/>
<mask id="mask0_0_13052" style="mask-type:alpha" maskUnits="userSpaceOnUse" x="0" y="0" width="23" height="23">
<path fill-rule="evenodd" clip-rule="evenodd" d="M17.5 22.5H3.5C1.84315 22.5 0.5 21.1569 0.5 19.5V5.50004C0.5 3.84319 1.84315 2.50004 3.5 2.50004H8.84C9.39228 2.50004 9.84 2.94776 9.84 3.50004C9.84 4.05233 9.39228 4.50004 8.84 4.50004H3.5C2.94772 4.50004 2.5 4.94776 2.5 5.50004V19.5C2.5 20.0523 2.94772 20.5 3.5 20.5H17.5C18.0523 20.5 18.5 20.0523 18.5 19.5V14.16C18.5 13.6078 18.9477 13.16 19.5 13.16C20.0523 13.16 20.5 13.6078 20.5 14.16V19.5C20.5 21.1569 19.1569 22.5 17.5 22.5ZM11.5 16.5H7.5C6.94772 16.5 6.5 16.0523 6.5 15.5V11.5C6.50071 11.235 6.60601 10.9809 6.793 10.793L16.793 0.793043C16.9806 0.605265 17.2351 0.499756 17.5005 0.499756C17.7659 0.499756 18.0204 0.605265 18.208 0.793043L22.208 4.79304C22.5984 5.18354 22.5984 5.81654 22.208 6.20704L12.208 16.207C12.0203 16.3948 11.7655 16.5003 11.5 16.5ZM17.5 2.91404V2.91404L8.5 11.914V14.5H11.086L20.086 5.50004L17.5 2.91404Z" fill="white"/>
</mask>
<g mask="url(#mask0_0_13052)">
<rect x="-0.5" y="-0.5" width="24" height="24" fill="#333333"/>
</g>
</svg>
