<svg width="21" height="23" viewBox="0 0 21 23" fill="none" xmlns="http://www.w3.org/2000/svg">
<path d="M1.5 22.5H19.5C20.0523 22.5 20.5 22.0523 20.5 21.5C20.5 20.9477 20.0523 20.5 19.5 20.5H1.5C0.947715 20.5 0.5 20.9477 0.5 21.5C0.5 22.0523 0.947715 22.5 1.5 22.5Z" fill="#333333"/>
<mask id="mask0_0_12713" style="mask-type:alpha" maskUnits="userSpaceOnUse" x="0" y="0" width="21" height="23">
<path fill-rule="evenodd" clip-rule="evenodd" d="M19.5 22.5H1.5C0.947715 22.5 0.5 22.0523 0.5 21.5C0.5 20.9477 0.947715 20.5 1.5 20.5H19.5C20.0523 20.5 20.5 20.9477 20.5 21.5C20.5 22.0523 20.0523 22.5 19.5 22.5ZM5.5 17.5H1.5C0.947715 17.5 0.5 17.0523 0.5 16.5V12.5C0.500711 12.235 0.606006 11.9809 0.793 11.793L11.793 0.793031C12.1835 0.402649 12.8165 0.402649 13.207 0.793031L17.207 4.79303C17.5974 5.18353 17.5974 5.81653 17.207 6.20703L6.207 17.207C6.01951 17.3946 5.76519 17.5 5.5 17.5ZM12.5 2.91403V2.91403L2.5 12.914V15.5H5.085L15.085 5.50003L12.5 2.91403Z" fill="white"/>
</mask>
<g mask="url(#mask0_0_12713)">
<rect x="-1.5" y="-0.5" width="24" height="24" fill="#333333"/>
</g>
</svg>
