<svg width="25" height="25" viewBox="0 0 25 25" fill="none" xmlns="http://www.w3.org/2000/svg">
<path fill-rule="evenodd" clip-rule="evenodd" d="M18.3259 19.74L22.7929 24.207C23.044 24.467 23.4158 24.5713 23.7654 24.4797C24.1151 24.3882 24.3881 24.1152 24.4796 23.7655C24.5711 23.4159 24.4669 23.0441 24.2069 22.793L11.0999 9.68604L11.0729 9.65904L2.20694 0.793041C1.81456 0.414069 1.19085 0.419489 0.805119 0.805223C0.419385 1.19096 0.413966 1.81466 0.792938 2.20704L5.06794 6.48304C3.25694 8.04241 1.74876 9.92213 0.618938 12.028C0.465403 12.3144 0.460556 12.6575 0.605938 12.948C0.845566 13.4097 1.10892 13.8586 1.39494 14.293C2.05761 15.3219 2.81094 16.2894 3.64594 17.184C6.16094 19.867 9.11994 21.5 12.4999 21.5C14.5681 21.4684 16.5862 20.8587 18.3259 19.74ZM3.07394 13.2C2.91194 12.953 2.76794 12.717 2.64294 12.5C3.6493 10.7564 4.94982 9.20013 6.48694 7.90004L9.03594 10.45C8.04498 12.03 8.27738 14.0851 9.59614 15.4038C10.9149 16.7226 12.97 16.955 14.5499 15.964L16.8719 18.286C15.5363 19.0572 14.026 19.475 12.4839 19.5C9.75494 19.5 7.27594 18.133 5.09994 15.816C4.34811 15.0061 3.67008 14.1306 3.07394 13.2ZM10.4869 13.066C10.6249 13.6038 10.9802 14.0601 11.4678 14.3256C11.9553 14.5911 12.5314 14.642 13.0579 14.466L10.5279 11.936C10.4053 12.3018 10.391 12.6953 10.4869 13.069V13.066ZM20.3471 15.7758C20.37 16.0401 20.4969 16.2844 20.6999 16.455L20.6959 16.456C20.899 16.6267 21.1615 16.7098 21.4257 16.6869C21.6899 16.664 21.9343 16.5371 22.1049 16.334C22.9788 15.2958 23.7416 14.169 24.3809 12.972C24.5341 12.686 24.539 12.3433 24.3939 12.053C24.1545 11.5915 23.8915 11.1426 23.6059 10.708C22.9435 9.67871 22.1902 8.71084 21.3549 7.81604C18.8389 5.13304 15.8799 3.50004 12.4999 3.50004C11.7173 3.49836 10.9371 3.58729 10.1749 3.76504C9.63701 3.89069 9.30279 4.42862 9.42844 4.96654C9.55408 5.50447 10.092 5.83869 10.6299 5.71304C11.2429 5.56982 11.8705 5.49834 12.4999 5.50004C15.2459 5.50004 17.7239 6.86804 19.8999 9.18404C20.6515 9.99188 21.3292 10.8654 21.9249 11.794C22.0879 12.046 22.2319 12.283 22.3579 12.5C21.8414 13.3999 21.2457 14.2519 20.5779 15.046C20.4073 15.2491 20.3242 15.5116 20.3471 15.7758Z" fill="#333333"/>
<mask id="mask0_0_14726" style="mask-type:alpha" maskUnits="userSpaceOnUse" x="0" y="0" width="25" height="25">
<path fill-rule="evenodd" clip-rule="evenodd" d="M22.7929 24.207L18.3259 19.74C16.5862 20.8587 14.5681 21.4684 12.4999 21.5C9.11994 21.5 6.16094 19.867 3.64594 17.184C2.81094 16.2894 2.05761 15.3219 1.39494 14.293C1.10892 13.8586 0.845566 13.4097 0.605938 12.948C0.460556 12.6575 0.465403 12.3144 0.618938 12.028C1.74876 9.92213 3.25694 8.04241 5.06794 6.48304L0.792938 2.20704C0.413966 1.81466 0.419385 1.19096 0.805119 0.805223C1.19085 0.419489 1.81456 0.414069 2.20694 0.793041L11.0729 9.65904L11.0999 9.68604L24.2069 22.793C24.4669 23.0441 24.5712 23.4159 24.4796 23.7655C24.3881 24.1152 24.1151 24.3882 23.7654 24.4797C23.4158 24.5713 23.044 24.467 22.7929 24.207ZM2.64294 12.5C2.76794 12.717 2.91194 12.953 3.07394 13.2C3.67008 14.1306 4.34811 15.0061 5.09994 15.816C7.27594 18.133 9.75494 19.5 12.4839 19.5C14.026 19.475 15.5363 19.0572 16.8719 18.286L14.5499 15.964C12.97 16.955 10.9149 16.7226 9.59614 15.4038C8.27738 14.0851 8.04498 12.03 9.03594 10.45L6.48694 7.90004C4.94982 9.20013 3.6493 10.7564 2.64294 12.5V12.5ZM10.4869 13.066C10.6249 13.6038 10.9802 14.0601 11.4678 14.3256C11.9553 14.5911 12.5314 14.642 13.0579 14.466L10.5279 11.936C10.4053 12.3018 10.391 12.6953 10.4869 13.069V13.066ZM20.6999 16.455C20.4969 16.2844 20.37 16.0401 20.3471 15.7758C20.3242 15.5116 20.4073 15.2491 20.5779 15.046C21.2457 14.2519 21.8414 13.3999 22.3579 12.5C22.2319 12.283 22.0879 12.046 21.9249 11.794C21.3292 10.8654 20.6515 9.99188 19.8999 9.18404C17.7239 6.86804 15.2459 5.50004 12.4999 5.50004C11.8705 5.49834 11.2429 5.56982 10.6299 5.71304C10.092 5.83869 9.55408 5.50447 9.42844 4.96654C9.30279 4.42862 9.63701 3.89069 10.1749 3.76504C10.9371 3.58729 11.7173 3.49836 12.4999 3.50004C15.8799 3.50004 18.8389 5.13304 21.3549 7.81604C22.1902 8.71084 22.9435 9.67871 23.6059 10.708C23.8915 11.1426 24.1545 11.5915 24.3939 12.053C24.539 12.3433 24.5341 12.686 24.3809 12.972C23.7416 14.169 22.9788 15.2958 22.1049 16.334C21.9343 16.5371 21.6899 16.664 21.4257 16.6869C21.1615 16.7098 20.899 16.6267 20.6959 16.456L20.6999 16.455Z" fill="white"/>
</mask>
<g mask="url(#mask0_0_14726)">
<rect x="0.5" y="0.500061" width="24" height="24" fill="#333333"/>
</g>
</svg>
