<svg width="21" height="21" viewBox="0 0 21 21" fill="none" xmlns="http://www.w3.org/2000/svg">
<path fill-rule="evenodd" clip-rule="evenodd" d="M7.793 11.793C7.40262 12.1835 7.40262 12.8165 7.793 13.207C7.98057 13.3948 8.23509 13.5003 8.5005 13.5003C8.76591 13.5003 9.02043 13.3948 9.208 13.207L18.5 3.91501V7.50001C18.5 8.0523 18.9477 8.50001 19.5 8.50001C20.0523 8.50001 20.5 8.0523 20.5 7.50001V1.52801C20.512 1.14986 20.3096 0.79729 19.977 0.617011L19.958 0.607011H19.952L19.938 0.600011L19.926 0.590011H19.918L19.9 0.582011C19.7737 0.527458 19.6376 0.499543 19.5 0.500011H13.5C12.9477 0.500011 12.5 0.947727 12.5 1.50001C12.5 2.0523 12.9477 2.50001 13.5 2.50001H17.085L7.793 11.793ZM0.5 17.5C0.5 19.1569 1.84315 20.5 3.5 20.5H14.5C16.1569 20.5 17.5 19.1569 17.5 17.5V11.5C17.5 10.9477 17.0523 10.5 16.5 10.5C15.9477 10.5 15.5 10.9477 15.5 11.5V17.5C15.5 18.0523 15.0523 18.5 14.5 18.5H3.5C2.94772 18.5 2.5 18.0523 2.5 17.5V6.50001C2.5 5.94773 2.94772 5.50001 3.5 5.50001H9.5C10.0523 5.50001 10.5 5.0523 10.5 4.50001C10.5 3.94773 10.0523 3.50001 9.5 3.50001H3.5C1.84315 3.50001 0.5 4.84316 0.5 6.50001V17.5Z" fill="#333333"/>
<mask id="mask0_0_13080" style="mask-type:alpha" maskUnits="userSpaceOnUse" x="0" y="0" width="21" height="21">
<path fill-rule="evenodd" clip-rule="evenodd" d="M3.5 20.5C1.84315 20.5 0.5 19.1569 0.5 17.5V6.50001C0.5 4.84316 1.84315 3.50001 3.5 3.50001H9.5C10.0523 3.50001 10.5 3.94773 10.5 4.50001C10.5 5.0523 10.0523 5.50001 9.5 5.50001H3.5C2.94772 5.50001 2.5 5.94773 2.5 6.50001V17.5C2.5 18.0523 2.94772 18.5 3.5 18.5H14.5C15.0523 18.5 15.5 18.0523 15.5 17.5V11.5C15.5 10.9477 15.9477 10.5 16.5 10.5C17.0523 10.5 17.5 10.9477 17.5 11.5V17.5C17.5 19.1569 16.1569 20.5 14.5 20.5H3.5ZM7.793 13.207C7.40262 12.8165 7.40262 12.1835 7.793 11.793L17.085 2.50001H13.5C12.9477 2.50001 12.5 2.0523 12.5 1.50001C12.5 0.947727 12.9477 0.500011 13.5 0.500011H19.5C19.6376 0.499543 19.7737 0.527458 19.9 0.582011V0.582011L19.918 0.590011H19.926L19.938 0.600011L19.952 0.607011H19.958L19.977 0.617011V0.617011C20.3096 0.79729 20.512 1.14986 20.5 1.52801V7.50001C20.5 8.0523 20.0523 8.50001 19.5 8.50001C18.9477 8.50001 18.5 8.0523 18.5 7.50001V3.91501L9.208 13.207C9.02043 13.3948 8.76591 13.5003 8.5005 13.5003C8.23509 13.5003 7.98057 13.3948 7.793 13.207Z" fill="white"/>
</mask>
<g mask="url(#mask0_0_13080)">
<rect x="-1.5" y="-1.5" width="24" height="24" fill="#333333"/>
</g>
</svg>
