<svg width="25" height="19" viewBox="0 0 25 19" fill="none" xmlns="http://www.w3.org/2000/svg">
<path fill-rule="evenodd" clip-rule="evenodd" d="M3.64602 14.184C6.33102 17.048 9.31002 18.5 12.5 18.5C15.69 18.5 18.669 17.048 21.355 14.183C22.19 13.2883 22.9433 12.3208 23.606 11.292C23.8918 10.8576 24.1548 10.4087 24.394 9.947C24.535 9.66532 24.535 9.33368 24.394 9.052C24.1548 8.59031 23.8918 8.14137 23.606 7.707C22.9433 6.6782 22.19 5.71069 21.355 4.816C18.669 1.952 15.69 0.5 12.5 0.5C9.31002 0.5 6.33102 1.952 3.64502 4.816C2.81041 5.71073 2.05742 6.67824 1.39502 7.707C1.10854 8.14133 0.844852 8.59027 0.605023 9.052C0.465318 9.33398 0.465318 9.66502 0.605023 9.947C0.844831 10.4091 1.10852 10.8583 1.39502 11.293C2.05774 12.3218 2.81107 13.2893 3.64602 14.184ZM5.10002 6.183C7.40002 3.739 9.88502 2.5 12.5 2.5C15.115 2.5 17.6 3.739 19.9 6.183C20.6535 6.99043 21.3329 7.86395 21.93 8.793C22.09 9.04 22.236 9.278 22.364 9.5C22.237 9.719 22.091 9.957 21.93 10.207C21.3329 11.1357 20.6535 12.0089 19.9 12.816C17.6 15.261 15.115 16.5 12.5 16.5C9.88502 16.5 7.40002 15.261 5.10002 12.816C4.34696 12.0082 3.66759 11.1347 3.07002 10.206C2.90502 9.95 2.75902 9.712 2.63702 9.499C2.76302 9.281 2.90802 9.043 3.07002 8.792C3.66764 7.86361 4.347 6.99047 5.10002 6.183ZM12.5 13.5C10.2909 13.5 8.50002 11.7091 8.50002 9.5C8.50002 7.29086 10.2909 5.5 12.5 5.5C14.7092 5.5 16.5 7.29086 16.5 9.5C16.5 10.5609 16.0786 11.5783 15.3285 12.3284C14.5783 13.0786 13.5609 13.5 12.5 13.5ZM10.5 9.5C10.5 8.39543 11.3955 7.5 12.5 7.5C13.6046 7.5 14.5 8.39543 14.5 9.5C14.5 10.6046 13.6046 11.5 12.5 11.5C11.3955 11.5 10.5 10.6046 10.5 9.5Z" fill="#333333"/>
<mask id="mask0_0_12616" style="mask-type:alpha" maskUnits="userSpaceOnUse" x="0" y="0" width="25" height="19">
<path fill-rule="evenodd" clip-rule="evenodd" d="M12.5 18.5C9.31002 18.5 6.33102 17.048 3.64602 14.184C2.81107 13.2893 2.05774 12.3218 1.39502 11.293C1.10852 10.8583 0.844831 10.4091 0.605023 9.947C0.465318 9.66502 0.465318 9.33398 0.605023 9.052C0.844852 8.59027 1.10854 8.14133 1.39502 7.707C2.05742 6.67824 2.81041 5.71073 3.64502 4.816C6.33102 1.952 9.31002 0.5 12.5 0.5C15.69 0.5 18.669 1.952 21.355 4.816C22.19 5.71069 22.9433 6.6782 23.606 7.707C23.8918 8.14137 24.1548 8.59031 24.394 9.052C24.535 9.33368 24.535 9.66532 24.394 9.947C24.1548 10.4087 23.8918 10.8576 23.606 11.292C22.9433 12.3208 22.19 13.2883 21.355 14.183C18.669 17.048 15.69 18.5 12.5 18.5ZM12.5 2.5C9.88502 2.5 7.40002 3.739 5.10002 6.183C4.347 6.99047 3.66764 7.86361 3.07002 8.792C2.90802 9.043 2.76302 9.281 2.63702 9.499C2.75902 9.712 2.90502 9.95 3.07002 10.206C3.66759 11.1347 4.34696 12.0082 5.10002 12.816C7.40002 15.261 9.88502 16.5 12.5 16.5C15.115 16.5 17.6 15.261 19.9 12.816C20.6535 12.0089 21.3329 11.1357 21.93 10.207C22.091 9.957 22.237 9.719 22.364 9.5C22.236 9.278 22.09 9.04 21.93 8.793C21.3329 7.86395 20.6535 6.99043 19.9 6.183C17.6 3.739 15.115 2.5 12.5 2.5ZM12.5 13.5C10.2909 13.5 8.50002 11.7091 8.50002 9.5C8.50002 7.29086 10.2909 5.5 12.5 5.5C14.7092 5.5 16.5 7.29086 16.5 9.5C16.5 10.5609 16.0786 11.5783 15.3285 12.3284C14.5783 13.0786 13.5609 13.5 12.5 13.5ZM12.5 7.5C11.3955 7.5 10.5 8.39543 10.5 9.5C10.5 10.6046 11.3955 11.5 12.5 11.5C13.6046 11.5 14.5 10.6046 14.5 9.5C14.5 8.39543 13.6046 7.5 12.5 7.5Z" fill="white"/>
</mask>
<g mask="url(#mask0_0_12616)">
<rect x="0.5" y="-2.5" width="24" height="24" fill="#333333"/>
</g>
</svg>
