<svg width="14" height="23" viewBox="0 0 14 23" fill="none" xmlns="http://www.w3.org/2000/svg">
<mask id="mask0_0_14019" style="mask-type:alpha" maskUnits="userSpaceOnUse" x="0" y="0" width="14" height="23">
<path fill-rule="evenodd" clip-rule="evenodd" d="M8.5 22.5H4.5C3.94772 22.5 3.5 22.0523 3.5 21.5V14.5H1.5C0.947715 14.5 0.5 14.0523 0.5 13.5V9.5C0.5 8.94772 0.947715 8.5 1.5 8.5H3.5V6.5C3.50386 3.18789 6.18789 0.503857 9.5 0.5H12.5C13.0523 0.5 13.5 0.947715 13.5 1.5V5.5C13.5 6.05228 13.0523 6.5 12.5 6.5H9.5V8.5H12.5C12.8078 8.50009 13.0984 8.6419 13.2878 8.88448C13.4773 9.12706 13.5445 9.44336 13.47 9.742L12.47 13.742C12.3589 14.1873 11.959 14.4999 11.5 14.5H9.5V21.5C9.5 22.0523 9.05228 22.5 8.5 22.5ZM2.5 10.5V12.5H4.5C5.05228 12.5 5.5 12.9477 5.5 13.5V20.5H7.5V13.5C7.5 12.9477 7.94772 12.5 8.5 12.5H10.72L11.22 10.5H8.5C7.94772 10.5 7.5 10.0523 7.5 9.5V6.5C7.5 5.39543 8.39543 4.5 9.5 4.5H11.5V2.5H9.5C7.29086 2.5 5.5 4.29086 5.5 6.5V9.5C5.5 10.0523 5.05228 10.5 4.5 10.5H2.5Z" fill="white"/>
</mask>
<g mask="url(#mask0_0_14019)">
<rect x="-5.5" y="-0.5" width="24" height="24" fill="#333333"/>
</g>
</svg>
