<svg width="23" height="17" viewBox="0 0 23 17" fill="none" xmlns="http://www.w3.org/2000/svg">
<path fill-rule="evenodd" clip-rule="evenodd" d="M1.49996 16.5C1.23979 16.4996 0.989508 16.4002 0.799965 16.222C0.604541 16.0331 0.495957 15.7718 0.499965 15.5V1.5C0.499965 0.947715 0.94768 0.5 1.49996 0.5C1.72112 0.500619 1.93563 0.575646 2.10896 0.713L11.109 7.713C11.3527 7.90245 11.4952 8.19382 11.4952 8.5025C11.4952 8.81117 11.3527 9.10255 11.109 9.292L2.10896 16.292C1.93494 16.4275 1.72051 16.5007 1.49996 16.5ZM11.805 16.222C11.9947 16.4 12.2448 16.4993 12.505 16.5C12.7239 16.4995 12.9365 16.4259 13.109 16.291L22.109 9.291C22.3527 9.10155 22.4952 8.81017 22.4952 8.5015C22.4952 8.19283 22.3527 7.90145 22.109 7.712L13.109 0.712C12.9355 0.575073 12.721 0.500412 12.5 0.5C11.9477 0.5 11.5 0.947715 11.5 1.5V15.5C11.4974 15.7725 11.6078 16.0339 11.805 16.222ZM13.5 13.458V3.547L19.872 8.5L13.5 13.458ZM2.49996 13.458V3.547L8.87096 8.5L2.49996 13.458Z" fill="#333333"/>
<mask id="mask0_0_14570" style="mask-type:alpha" maskUnits="userSpaceOnUse" x="0" y="0" width="23" height="17">
<path fill-rule="evenodd" clip-rule="evenodd" d="M12.505 16.5C12.2448 16.4993 11.9947 16.4 11.805 16.222C11.6078 16.0339 11.4974 15.7725 11.5 15.5V1.5C11.5 0.947715 11.9477 0.5 12.5 0.5C12.721 0.500412 12.9355 0.575073 13.109 0.712L22.109 7.712C22.3527 7.90145 22.4952 8.19283 22.4952 8.5015C22.4952 8.81018 22.3527 9.10155 22.109 9.291L13.109 16.291C12.9365 16.4259 12.7239 16.4995 12.505 16.5ZM13.5 3.547V13.458L19.872 8.5L13.5 3.547ZM1.49996 16.5C1.23979 16.4996 0.989508 16.4002 0.799965 16.222C0.604541 16.0331 0.495957 15.7718 0.499965 15.5V1.5C0.499965 0.947715 0.94768 0.5 1.49996 0.5C1.72112 0.500619 1.93563 0.575646 2.10896 0.713L11.109 7.713C11.3527 7.90245 11.4952 8.19382 11.4952 8.5025C11.4952 8.81117 11.3527 9.10255 11.109 9.292L2.10896 16.292C1.93494 16.4275 1.72051 16.5007 1.49996 16.5V16.5ZM2.49996 3.547V13.458L8.87096 8.5L2.49996 3.547Z" fill="white"/>
</mask>
<g mask="url(#mask0_0_14570)">
<rect x="-0.5" y="-3.5" width="24" height="24" fill="#333333"/>
</g>
</svg>
