<svg width="23" height="23" viewBox="0 0 23 23" fill="none" xmlns="http://www.w3.org/2000/svg">
<path fill-rule="evenodd" clip-rule="evenodd" d="M0.793031 22.215C0.402649 21.8245 0.402649 21.1915 0.793031 20.801L3.50003 18.094V10.009C3.49889 9.74301 3.60442 9.48763 3.79303 9.30003L10.543 2.55003C12.3115 0.781564 14.8891 0.0908996 17.3049 0.738203C19.7206 1.38551 21.6076 3.27243 22.2549 5.6882C22.9022 8.10397 22.2115 10.6816 20.443 12.45L13.704 19.21C13.5163 19.3978 13.2616 19.5032 12.996 19.503H4.91503L2.20703 22.215C2.01946 22.4028 1.76494 22.5083 1.49953 22.5083C1.23412 22.5083 0.979599 22.4028 0.792031 22.215H0.793031ZM12.586 17.508L14.58 15.508H8.91403L6.91403 17.508H12.586ZM5.50003 10.423L11.957 3.96503L11.956 3.96103C13.2204 2.6972 15.063 2.20391 16.7896 2.66696C18.5163 3.13002 19.8648 4.47908 20.3271 6.20596C20.7895 7.93285 20.2954 9.7752 19.031 11.039L16.57 13.508H16.5H10.914L16.207 8.21503C16.5978 7.82456 16.598 7.19127 16.2075 6.80053C15.8171 6.40979 15.1838 6.40956 14.793 6.80003L5.50003 16.094V10.423Z" fill="#333333"/>
<mask id="mask0_0_12312" style="mask-type:alpha" maskUnits="userSpaceOnUse" x="0" y="0" width="23" height="23">
<path fill-rule="evenodd" clip-rule="evenodd" d="M0.793031 22.215C0.402649 21.8245 0.402649 21.1915 0.793031 20.801L3.50003 18.094V10.009C3.49889 9.74301 3.60442 9.48763 3.79303 9.30003L10.543 2.55003C12.3115 0.781564 14.8891 0.0908996 17.3049 0.738203C19.7206 1.38551 21.6076 3.27243 22.2549 5.6882C22.9022 8.10397 22.2115 10.6816 20.443 12.45L13.704 19.21C13.5163 19.3978 13.2616 19.5032 12.996 19.503H4.91503L2.20703 22.215C2.01946 22.4028 1.76494 22.5083 1.49953 22.5083C1.23412 22.5083 0.979599 22.4028 0.792031 22.215H0.793031ZM12.586 17.508L14.58 15.508H8.91403L6.91403 17.508H12.586ZM11.957 3.96503L5.50003 10.423V16.094L14.793 6.80003C15.1838 6.40956 15.8171 6.40979 16.2075 6.80053C16.598 7.19127 16.5978 7.82456 16.207 8.21503L10.914 13.508H16.5H16.57L19.031 11.039C20.2954 9.7752 20.7895 7.93285 20.3271 6.20596C19.8648 4.47908 18.5163 3.13002 16.7896 2.66696C15.063 2.20391 13.2204 2.6972 11.956 3.96103L11.957 3.96503Z" fill="white"/>
</mask>
<g mask="url(#mask0_0_12312)">
<rect x="-0.5" y="-0.5" width="24" height="24" fill="#333333"/>
</g>
</svg>
