<svg width="19" height="23" viewBox="0 0 19 23" fill="none" xmlns="http://www.w3.org/2000/svg">
<path fill-rule="evenodd" clip-rule="evenodd" d="M0.5 19.5C0.5 21.1569 1.84315 22.5 3.5 22.5H15.5C17.1569 22.5 18.5 21.1569 18.5 19.5V7.5V7.475C18.4943 7.27458 18.4284 7.08052 18.311 6.918L18.304 6.909C18.274 6.86573 18.2405 6.82493 18.204 6.787L12.204 0.787C12.1661 0.750459 12.1253 0.717018 12.082 0.687L12.074 0.681C11.9058 0.563154 11.7054 0.499958 11.5 0.5H3.5C1.84315 0.5 0.5 1.84315 0.5 3.5V19.5ZM2.5 19.5V3.5C2.5 2.94772 2.94772 2.5 3.5 2.5H10.5V7.5C10.5 8.05228 10.9477 8.5 11.5 8.5H16.5V19.5C16.5 20.0523 16.0523 20.5 15.5 20.5H3.5C2.94772 20.5 2.5 20.0523 2.5 19.5ZM12.5 6.5H15.087L12.5 3.914V6.5ZM5.5 14.5C5.5 15.0523 5.94772 15.5 6.5 15.5H12.5C13.0523 15.5 13.5 15.0523 13.5 14.5C13.5 13.9477 13.0523 13.5 12.5 13.5H6.5C5.94772 13.5 5.5 13.9477 5.5 14.5Z" fill="#333333"/>
<mask id="mask0_0_14157" style="mask-type:alpha" maskUnits="userSpaceOnUse" x="0" y="0" width="19" height="23">
<path fill-rule="evenodd" clip-rule="evenodd" d="M3.5 22.5C1.84315 22.5 0.5 21.1569 0.5 19.5V3.5C0.5 1.84315 1.84315 0.5 3.5 0.5H11.5C11.7054 0.499958 11.9058 0.563154 12.074 0.681V0.681L12.082 0.687C12.1253 0.717018 12.1661 0.750459 12.204 0.787L18.204 6.787C18.2405 6.82493 18.274 6.86573 18.304 6.909L18.311 6.918V6.918C18.4284 7.08052 18.4943 7.27458 18.5 7.475C18.5 7.48367 18.5 7.492 18.5 7.5V19.5C18.5 21.1569 17.1569 22.5 15.5 22.5H3.5ZM2.5 3.5V19.5C2.5 20.0523 2.94772 20.5 3.5 20.5H15.5C16.0523 20.5 16.5 20.0523 16.5 19.5V8.5H11.5C10.9477 8.5 10.5 8.05228 10.5 7.5V2.5H3.5C2.94772 2.5 2.5 2.94772 2.5 3.5ZM12.5 6.5H15.087L12.5 3.914V6.5ZM6.5 15.5C5.94772 15.5 5.5 15.0523 5.5 14.5C5.5 13.9477 5.94772 13.5 6.5 13.5H12.5C13.0523 13.5 13.5 13.9477 13.5 14.5C13.5 15.0523 13.0523 15.5 12.5 15.5H6.5Z" fill="white"/>
</mask>
<g mask="url(#mask0_0_14157)">
<rect x="-2.5" y="-0.5" width="24" height="24" fill="#333333"/>
</g>
</svg>
