<svg width="19" height="23" viewBox="0 0 19 23" fill="none" xmlns="http://www.w3.org/2000/svg">
<path fill-rule="evenodd" clip-rule="evenodd" d="M3.5 22.5C1.84315 22.5 0.5 21.1569 0.5 19.5V3.5C0.5 1.84315 1.84315 0.5 3.5 0.5H10.581H10.602H10.624C10.8431 0.528128 11.0467 0.62799 11.203 0.784L18.203 7.784C18.3592 7.9406 18.4591 8.14458 18.487 8.364V8.387V8.408V8.428V8.433V8.453V8.458V8.483V19.5C18.487 21.1569 17.1439 22.5 15.487 22.5H3.5ZM2.5 3.5V19.5C2.5 20.0523 2.94772 20.5 3.5 20.5H15.5C16.0523 20.5 16.5 20.0523 16.5 19.5V9.5H10.5C9.94771 9.5 9.5 9.05229 9.5 8.5V2.5H3.5C2.94772 2.5 2.5 2.94772 2.5 3.5ZM15.086 7.5H11.5V3.914L15.086 7.5Z" fill="#333333"/>
<mask id="mask0_0_14089" style="mask-type:alpha" maskUnits="userSpaceOnUse" x="0" y="0" width="19" height="23">
<path fill-rule="evenodd" clip-rule="evenodd" d="M3.5 22.5C1.84315 22.5 0.5 21.1569 0.5 19.5V3.5C0.5 1.84315 1.84315 0.5 3.5 0.5H10.581H10.602V0.5H10.624V0.5C10.8431 0.528128 11.0467 0.62799 11.203 0.784L18.203 7.784C18.3592 7.9406 18.4591 8.14458 18.487 8.364V8.364V8.387V8.387V8.408V8.408C18.487 8.415 18.487 8.422 18.487 8.428V8.433C18.487 8.44 18.487 8.446 18.487 8.453V8.458C18.487 8.466 18.487 8.475 18.487 8.483V19.5C18.487 21.1569 17.1439 22.5 15.487 22.5H3.5ZM2.5 3.5V19.5C2.5 20.0523 2.94772 20.5 3.5 20.5H15.5C16.0523 20.5 16.5 20.0523 16.5 19.5V9.5H10.5C9.94772 9.5 9.5 9.05228 9.5 8.5V2.5H3.5C2.94772 2.5 2.5 2.94772 2.5 3.5ZM11.5 7.5H15.086L11.5 3.914V7.5Z" fill="white"/>
</mask>
<g mask="url(#mask0_0_14089)">
<rect x="-2.5" y="-0.5" width="24" height="24" fill="#333333"/>
</g>
</svg>
