<svg width="23" height="23" viewBox="0 0 23 23" fill="none" xmlns="http://www.w3.org/2000/svg">
<path fill-rule="evenodd" clip-rule="evenodd" d="M16.5 22.5H3.68C1.92442 22.4983 0.501654 21.0756 0.5 19.32V3.68C0.501654 1.92442 1.92442 0.501654 3.68 0.5H19.32C21.0756 0.501654 22.4983 1.92442 22.5 3.68V19.32C22.4983 21.0756 21.0756 22.4983 19.32 22.5H16.5ZM19.32 20.5C19.9715 20.4994 20.4994 19.9715 20.5 19.32V17.5H17.5V20.5H19.32ZM15.5 12.5V20.5H7.5V12.5H15.5ZM2.5 19.32C2.50055 19.9715 3.02853 20.4994 3.68 20.5H5.5V17.5H2.5V19.32ZM20.5 12.5V15.5H17.5V12.5H20.5ZM5.5 15.5V12.5H2.5V15.5H5.5ZM20.5 7.5V10.5H17.5V7.5H20.5ZM15.5 10.5V2.5H7.5V10.5H15.5ZM5.5 7.5V10.5H2.5V7.5H5.5ZM20.5 5.5V3.68C20.4994 3.02853 19.9715 2.50055 19.32 2.5H17.5V5.5H20.5ZM5.5 2.5V5.5H2.5V3.68C2.50055 3.02853 3.02853 2.50055 3.68 2.5H5.5Z" fill="#333333"/>
<mask id="mask0_0_14614" style="mask-type:alpha" maskUnits="userSpaceOnUse" x="0" y="0" width="23" height="23">
<path fill-rule="evenodd" clip-rule="evenodd" d="M16.5 22.5H3.68C1.92442 22.4983 0.501654 21.0756 0.5 19.32V3.68C0.501654 1.92442 1.92442 0.501654 3.68 0.5H19.32C21.0756 0.501654 22.4983 1.92442 22.5 3.68V19.32C22.4983 21.0756 21.0756 22.4983 19.32 22.5H16.5ZM19.32 20.5C19.9715 20.4994 20.4994 19.9715 20.5 19.32V17.5H17.5V20.5H19.32ZM15.5 20.5V12.5H7.5V20.5H15.5ZM2.5 19.32C2.50055 19.9715 3.02853 20.4994 3.68 20.5H5.5V17.5H2.5V19.32ZM20.5 15.5V12.5H17.5V15.5H20.5ZM5.5 15.5V12.5H2.5V15.5H5.5ZM20.5 10.5V7.5H17.5V10.5H20.5ZM15.5 10.5V2.5H7.5V10.5H15.5ZM5.5 10.5V7.5H2.5V10.5H5.5ZM20.5 5.5V3.68C20.4994 3.02853 19.9715 2.50055 19.32 2.5H17.5V5.5H20.5ZM5.5 5.5V2.5H3.68C3.02853 2.50055 2.50055 3.02853 2.5 3.68V5.5H5.5Z" fill="white"/>
</mask>
<g mask="url(#mask0_0_14614)">
<rect x="-0.5" y="-0.5" width="24" height="24" fill="#333333"/>
</g>
</svg>
