<svg width="23" height="21" viewBox="0 0 23 21" fill="none" xmlns="http://www.w3.org/2000/svg">
<mask id="mask0_0_12650" style="mask-type:alpha" maskUnits="userSpaceOnUse" x="0" y="0" width="23" height="21">
<path fill-rule="evenodd" clip-rule="evenodd" d="M13.5001 20.5C13.3451 20.4998 13.1923 20.4631 13.0541 20.393L9.05406 18.393C8.71526 18.2242 8.50083 17.8786 8.50006 17.5V11.326L0.738058 2.14605C0.484522 1.84953 0.428545 1.43185 0.595058 1.07905C0.756659 0.724907 1.11079 0.498338 1.50006 0.500045H21.5001C21.8903 0.497409 22.2458 0.724086 22.4081 1.07905C22.5743 1.43205 22.5179 1.84974 22.2641 2.14605L14.5001 11.326V19.5C14.5001 20.0523 14.0523 20.5 13.5001 20.5ZM3.65706 2.50005L10.2661 10.315C10.4177 10.4957 10.5006 10.7242 10.5001 10.96V16.882L12.5001 17.882V10.96C12.5004 10.7238 12.5843 10.4953 12.7371 10.315L19.3471 2.50005H3.65706Z" fill="white"/>
</mask>
<g mask="url(#mask0_0_12650)">
<rect x="-0.5" y="-1.5" width="24" height="24" fill="#333333"/>
</g>
</svg>
