<svg width="19" height="23" viewBox="0 0 19 23" fill="none" xmlns="http://www.w3.org/2000/svg">
<path fill-rule="evenodd" clip-rule="evenodd" d="M0.500023 2.50001V21.5H0.499023C0.499023 22.0523 0.946739 22.5 1.49902 22.5C2.05131 22.5 2.49902 22.0523 2.49902 21.5V15.035C2.56902 15.002 2.65102 14.966 2.74602 14.928C3.62933 14.615 4.56337 14.4698 5.50002 14.5C6.76148 14.5508 7.99805 14.867 9.12902 15.428C10.4918 16.0961 11.9828 16.4618 13.5 16.5C14.6912 16.5309 15.8775 16.3372 16.997 15.929C17.4429 15.7674 17.8539 15.5224 18.208 15.207C18.3947 15.019 18.4996 14.7649 18.5 14.5V2.50001C18.4995 2.0958 18.2557 1.73163 17.8822 1.57714C17.5087 1.42266 17.0789 1.50823 16.793 1.79401C16.6268 1.91063 16.4454 2.00415 16.254 2.07201C15.3706 2.3846 14.4366 2.52975 13.5 2.50001C12.239 2.44872 11.0028 2.13253 9.87202 1.57201C8.50897 0.903806 7.01758 0.538123 5.50002 0.500015C4.30778 0.469106 3.12039 0.663159 2.00002 1.07201C1.55568 1.23377 1.14609 1.47844 0.793023 1.79301C0.606029 1.98088 0.500734 2.23495 0.500023 2.50001ZM13.5 14.5C12.2389 14.449 11.0027 14.1328 9.87202 13.572C8.50897 12.9038 7.01758 12.5381 5.50002 12.5C4.4854 12.484 3.47404 12.6189 2.49902 12.9V3.03601C2.57002 3.00201 2.65302 2.96601 2.74602 2.92801C3.62945 2.61543 4.5634 2.47028 5.50002 2.50001C6.7612 2.55129 7.99741 2.86784 9.12802 3.42901C10.4911 4.09694 11.9825 4.46228 13.5 4.50001C14.5146 4.51576 15.526 4.38096 16.501 4.10001V13.964C16.427 13.999 16.344 14.036 16.254 14.071C15.3708 14.3846 14.4367 14.5301 13.5 14.5Z" fill="#333333"/>
<mask id="mask0_0_11871" style="mask-type:alpha" maskUnits="userSpaceOnUse" x="0" y="0" width="19" height="23">
<path fill-rule="evenodd" clip-rule="evenodd" d="M0.500023 21.5V2.50001C0.500734 2.23495 0.606029 1.98088 0.793023 1.79301C1.14609 1.47844 1.55568 1.23377 2.00002 1.07201C3.12039 0.663159 4.30778 0.469106 5.50002 0.500015C7.01758 0.538123 8.50897 0.903806 9.87202 1.57201C11.0028 2.13253 12.239 2.44872 13.5 2.50001C14.4366 2.52975 15.3706 2.3846 16.254 2.07201C16.4454 2.00415 16.6268 1.91063 16.793 1.79401C17.0789 1.50823 17.5087 1.42266 17.8822 1.57714C18.2557 1.73163 18.4995 2.0958 18.5 2.50001V14.5C18.4996 14.7649 18.3947 15.019 18.208 15.207C17.8539 15.5224 17.4429 15.7674 16.997 15.929C15.8775 16.3372 14.6912 16.5309 13.5 16.5C11.9828 16.4618 10.4918 16.0961 9.12902 15.428C7.99805 14.867 6.76148 14.5508 5.50002 14.5C4.56337 14.4698 3.62933 14.615 2.74602 14.928C2.65102 14.966 2.56902 15.002 2.49902 15.035V21.5C2.49902 22.0523 2.05131 22.5 1.49902 22.5C0.946739 22.5 0.499023 22.0523 0.499023 21.5H0.500023ZM9.87202 13.572C11.0027 14.1328 12.2389 14.449 13.5 14.5C14.4367 14.5301 15.3708 14.3846 16.254 14.071C16.344 14.036 16.427 13.999 16.501 13.964V4.10001C15.526 4.38096 14.5146 4.51576 13.5 4.50001C11.9825 4.46228 10.4911 4.09694 9.12802 3.42901C7.99741 2.86784 6.7612 2.55129 5.50002 2.50001C4.5634 2.47028 3.62945 2.61543 2.74602 2.92801C2.65302 2.96601 2.57002 3.00201 2.49902 3.03601V12.9C3.47404 12.6189 4.4854 12.484 5.50002 12.5C7.01758 12.5381 8.50897 12.9038 9.87202 13.572Z" fill="white"/>
</mask>
<g mask="url(#mask0_0_11871)">
<rect x="-2.5" y="-0.5" width="24" height="24" fill="#333333"/>
</g>
</svg>
