<svg width="23" height="21" viewBox="0 0 23 21" fill="none" xmlns="http://www.w3.org/2000/svg">
<mask id="mask0_0_14349" style="mask-type:alpha" maskUnits="userSpaceOnUse" x="0" y="0" width="23" height="21">
<path fill-rule="evenodd" clip-rule="evenodd" d="M19.5 20.5H3.5C1.84315 20.5 0.5 19.1569 0.5 17.5V3.5C0.5 1.84315 1.84315 0.5 3.5 0.5H8.5C8.83447 0.500173 9.1467 0.66755 9.332 0.946L11.035 3.5H19.5C21.1569 3.5 22.5 4.84315 22.5 6.5V17.5C22.5 19.1569 21.1569 20.5 19.5 20.5ZM3.5 2.5C2.94772 2.5 2.5 2.94772 2.5 3.5V17.5C2.5 18.0523 2.94772 18.5 3.5 18.5H19.5C20.0523 18.5 20.5 18.0523 20.5 17.5V6.5C20.5 5.94772 20.0523 5.5 19.5 5.5H10.5C10.1655 5.49983 9.8533 5.33245 9.668 5.054L7.965 2.5H3.5Z" fill="white"/>
</mask>
<g mask="url(#mask0_0_14349)">
<rect x="-0.5" y="-1.5" width="24" height="24" fill="#333333"/>
</g>
</svg>
