<svg width="23" height="23" viewBox="0 0 23 23" fill="none" xmlns="http://www.w3.org/2000/svg">
<path fill-rule="evenodd" clip-rule="evenodd" d="M11.5 22.5H11.468C7.02487 22.487 3.02584 19.8022 1.33151 15.6947C-0.362822 11.5873 0.580273 6.86385 3.72202 3.722C5.77434 1.65806 8.56536 0.498309 11.476 0.500004H11.523C15.9676 0.509831 19.9696 3.19344 21.666 7.3016C23.3624 11.4098 22.4198 16.1351 19.277 19.278C17.2267 21.3401 14.4389 22.4997 11.531 22.5H11.5ZM13.776 20.209C17.3786 19.2648 20.0286 16.201 20.444 12.5H16.45C16.2275 15.2547 15.3072 17.9073 13.776 20.208V20.209ZM9.22422 20.2078L9.22502 20.209V20.208L9.22422 20.2078ZM6.55302 12.5C6.77667 15.254 7.69578 17.906 9.22422 20.2078C5.6205 19.2654 2.96878 16.2017 2.55302 12.5H6.55302ZM11.5 19.949C13.1678 17.7953 14.1892 15.2119 14.445 12.5H8.55902C8.8156 15.2111 9.83535 17.7939 11.5 19.949ZM13.775 2.792C17.378 3.73522 20.0287 6.79888 20.444 10.5H16.447C16.2228 7.746 15.3034 5.09392 13.775 2.792ZM14.444 10.5C14.1864 7.78867 13.1656 5.20587 11.5 3.051C9.83273 5.20491 8.81175 7.78822 8.55602 10.5H14.444ZM9.22502 2.791C7.69278 5.09162 6.77215 7.74478 6.55002 10.5H2.55502C2.97014 6.79822 5.62137 3.734 9.22502 2.791Z" fill="#333333"/>
<mask id="mask0_0_12565" style="mask-type:alpha" maskUnits="userSpaceOnUse" x="0" y="0" width="23" height="23">
<path fill-rule="evenodd" clip-rule="evenodd" d="M11.5 22.5H11.468C7.02487 22.487 3.02584 19.8022 1.33151 15.6947C-0.362822 11.5873 0.580273 6.86385 3.72202 3.722C5.77434 1.65806 8.56537 0.498309 11.476 0.500004H11.523C15.9676 0.509831 19.9696 3.19344 21.666 7.3016C23.3624 11.4098 22.4198 16.1351 19.277 19.278C17.2267 21.3401 14.4389 22.4997 11.531 22.5H11.5ZM13.776 20.209C17.3786 19.2648 20.0286 16.201 20.444 12.5H16.45C16.2275 15.2547 15.3072 17.9073 13.776 20.208V20.209ZM9.22502 20.209C7.6961 17.907 6.77671 15.2544 6.55302 12.5H2.55302C2.96881 16.202 5.6209 19.2658 9.22502 20.208V20.209ZM11.5 19.949C13.1678 17.7953 14.1892 15.2119 14.445 12.5H8.55902C8.8156 15.2111 9.83535 17.7939 11.5 19.949V19.949ZM20.444 10.5C20.0287 6.79888 17.378 3.73522 13.775 2.792C15.3034 5.09392 16.2228 7.746 16.447 10.5H20.444ZM14.444 10.5C14.1864 7.78867 13.1656 5.20587 11.5 3.051C9.83273 5.20491 8.81175 7.78822 8.55602 10.5H14.444ZM6.55002 10.5C6.77215 7.74478 7.69278 5.09162 9.22502 2.791C5.62137 3.734 2.97014 6.79822 2.55502 10.5H6.55002Z" fill="white"/>
</mask>
<g mask="url(#mask0_0_12565)">
<rect x="-0.5" y="-0.5" width="24" height="24" fill="#333333"/>
</g>
</svg>
