<svg width="21" height="21" viewBox="0 0 21 21" fill="none" xmlns="http://www.w3.org/2000/svg">
<path d="M20.0469 10.728C20.0473 10.0439 19.9864 9.36119 19.8649 8.68799H10.4729V12.546H15.8399C15.6155 13.779 14.8965 14.8666 13.8499 15.556V18.056H17.0729C19.0574 16.1448 20.1382 13.4816 20.0469 10.728Z" fill="#333333"/>
<mask id="mask0_0_13200" style="mask-type:alpha" maskUnits="userSpaceOnUse" x="10" y="8" width="11" height="11">
<path fill-rule="evenodd" clip-rule="evenodd" d="M20.0469 10.728C20.0473 10.0439 19.9864 9.36119 19.8649 8.68799H10.4729V12.546H15.8399C15.6155 13.779 14.8965 14.8666 13.8499 15.556V18.056H17.0729C19.0574 16.1448 20.1382 13.4816 20.0469 10.728Z" fill="white"/>
</mask>
<g mask="url(#mask0_0_13200)">
<path d="M10.4729 18.058H20.0469V8.68799H10.4729V18.058Z" fill="#333333"/>
</g>
<path d="M10.4721 20.474C12.8997 20.5399 15.2607 19.6756 17.0721 18.058L13.8491 15.558C12.8435 16.2051 11.6675 16.5366 10.4721 16.51C7.92202 16.4779 5.67671 14.8225 4.89206 12.396H1.56006V14.98C3.25266 18.3494 6.70144 20.4754 10.4721 20.474Z" fill="#333333"/>
<mask id="mask1_0_13200" style="mask-type:alpha" maskUnits="userSpaceOnUse" x="1" y="12" width="17" height="9">
<path fill-rule="evenodd" clip-rule="evenodd" d="M10.4721 20.474C12.8997 20.5399 15.2607 19.6756 17.0721 18.058L13.8491 15.558C12.8435 16.2051 11.6675 16.5366 10.4721 16.51C7.92202 16.4779 5.67671 14.8225 4.89206 12.396H1.56006V14.98C3.25266 18.3494 6.70144 20.4754 10.4721 20.474Z" fill="white"/>
</mask>
<g mask="url(#mask1_0_13200)">
<path d="M1.56006 20.474H17.0721V12.396H1.56006V20.474Z" fill="#333333"/>
</g>
<path d="M4.89194 12.3959C4.47476 11.1671 4.47476 9.83484 4.89194 8.60595V6.02295H1.56094C0.14668 8.84114 0.14668 12.1618 1.56094 14.9799L4.89194 12.3959Z" fill="#333333"/>
<mask id="mask2_0_13200" style="mask-type:alpha" maskUnits="userSpaceOnUse" x="0" y="6" width="5" height="9">
<path fill-rule="evenodd" clip-rule="evenodd" d="M4.89194 12.3959C4.47476 11.1671 4.47476 9.83484 4.89194 8.60595V6.02295H1.56094C0.14668 8.84114 0.14668 12.1618 1.56094 14.9799L4.89194 12.3959Z" fill="white"/>
</mask>
<g mask="url(#mask2_0_13200)">
<path d="M0.5 14.9799H4.892V6.02295H0.5V14.9799Z" fill="#333333"/>
</g>
<path d="M10.4721 4.49497C11.8894 4.47106 13.2591 5.00677 14.2841 5.98597L17.1441 3.12597C15.339 1.43091 12.948 0.500233 10.4721 0.528966C6.70144 0.527515 3.25266 2.65359 1.56006 6.02297L4.89206 8.60697C5.67775 6.18163 7.92282 4.5276 10.4721 4.49597V4.49497Z" fill="#333333"/>
<mask id="mask3_0_13200" style="mask-type:alpha" maskUnits="userSpaceOnUse" x="1" y="0" width="17" height="9">
<path fill-rule="evenodd" clip-rule="evenodd" d="M10.4721 4.49497C11.8894 4.47106 13.2591 5.00677 14.2841 5.98597L17.1441 3.12597C15.339 1.43091 12.948 0.500233 10.4721 0.528966C6.70144 0.527515 3.25266 2.65359 1.56006 6.02297L4.89206 8.60697C5.67775 6.18163 7.92282 4.5276 10.4721 4.49597V4.49497Z" fill="white"/>
</mask>
<g mask="url(#mask3_0_13200)">
<path d="M1.56006 8.60699H17.1441V0.528992H1.56006V8.60699Z" fill="#333333"/>
</g>
</svg>
