<svg width="21" height="21" viewBox="0 0 21 21" fill="none" xmlns="http://www.w3.org/2000/svg">
<mask id="mask0_0_13872" style="mask-type:alpha" maskUnits="userSpaceOnUse" x="0" y="0" width="21" height="21">
<path fill-rule="evenodd" clip-rule="evenodd" d="M19.5 20.5H12.5C11.9477 20.5 11.5 20.0523 11.5 19.5V12.5C11.5 11.9477 11.9477 11.5 12.5 11.5H19.5C20.0523 11.5 20.5 11.9477 20.5 12.5V19.5C20.5 20.0523 20.0523 20.5 19.5 20.5ZM13.5 13.5V18.5H18.5V13.5H13.5ZM8.5 20.5H1.5C0.947715 20.5 0.5 20.0523 0.5 19.5V12.5C0.5 11.9477 0.947715 11.5 1.5 11.5H8.5C9.05228 11.5 9.5 11.9477 9.5 12.5V19.5C9.5 20.0523 9.05228 20.5 8.5 20.5ZM2.5 13.5V18.5H7.5V13.5H2.5ZM19.5 9.5H12.5C11.9477 9.5 11.5 9.05228 11.5 8.5V1.5C11.5 0.947715 11.9477 0.5 12.5 0.5H19.5C20.0523 0.5 20.5 0.947715 20.5 1.5V8.5C20.5 9.05228 20.0523 9.5 19.5 9.5ZM13.5 2.5V7.5H18.5V2.5H13.5ZM8.5 9.5H1.5C0.947715 9.5 0.5 9.05228 0.5 8.5V1.5C0.5 0.947715 0.947715 0.5 1.5 0.5H8.5C9.05228 0.5 9.5 0.947715 9.5 1.5V8.5C9.5 9.05228 9.05228 9.5 8.5 9.5ZM2.5 2.5V7.5H7.5V2.5H2.5Z" fill="white"/>
</mask>
<g mask="url(#mask0_0_13872)">
<rect x="-1.5" y="-1.5" width="24" height="24" fill="#333333"/>
</g>
</svg>
