<svg width="19" height="21" viewBox="0 0 19 21" fill="none" xmlns="http://www.w3.org/2000/svg">
<path fill-rule="evenodd" clip-rule="evenodd" d="M10.506 19.394C10.4476 19.9415 10.8427 20.4332 11.39 20.494H11.394C11.9415 20.5524 12.4332 20.1572 12.494 19.61L13.062 14.5H17.5C18.0523 14.5 18.5 14.0523 18.5 13.5C18.5 12.9477 18.0523 12.5 17.5 12.5H13.285L13.729 8.49997H17.5C18.0523 8.49997 18.5 8.05226 18.5 7.49997C18.5 6.94769 18.0523 6.49997 17.5 6.49997H13.951L14.494 1.60997C14.5548 1.061 14.159 0.566724 13.61 0.505973C13.061 0.445221 12.5668 0.841002 12.506 1.38997L11.939 6.49997H7.951L8.494 1.60997C8.55475 1.061 8.15897 0.566724 7.61 0.505973C7.06103 0.445221 6.56675 0.841001 6.506 1.38997L5.938 6.49997H1.5C0.947715 6.49997 0.5 6.94769 0.5 7.49997C0.5 8.05226 0.947715 8.49997 1.5 8.49997H5.715L5.271 12.5H1.5C0.947715 12.5 0.5 12.9477 0.5 13.5C0.5 14.0523 0.947715 14.5 1.5 14.5H5.049L4.506 19.39C4.4667 19.7451 4.61984 20.0942 4.90774 20.3058C5.19563 20.5174 5.57454 20.5593 5.90174 20.4158C6.22893 20.2723 6.4547 19.9651 6.494 19.61L7.062 14.5H11.049L10.506 19.394ZM11.716 8.49997L11.272 12.5H7.284L7.728 8.49997H11.716Z" fill="#333333"/>
<mask id="mask0_0_14007" style="mask-type:alpha" maskUnits="userSpaceOnUse" x="0" y="0" width="19" height="21">
<path fill-rule="evenodd" clip-rule="evenodd" d="M11.39 20.494C10.8427 20.4332 10.4476 19.9415 10.506 19.394L11.049 14.5H7.062L6.494 19.61C6.4547 19.9651 6.22893 20.2723 5.90174 20.4158C5.57454 20.5593 5.19563 20.5174 4.90774 20.3058C4.61984 20.0942 4.4667 19.7451 4.506 19.39L5.049 14.5H1.5C0.947715 14.5 0.5 14.0523 0.5 13.5C0.5 12.9477 0.947715 12.5 1.5 12.5H5.271L5.715 8.49997H1.5C0.947715 8.49997 0.5 8.05226 0.5 7.49997C0.5 6.94769 0.947715 6.49997 1.5 6.49997H5.938L6.506 1.38997C6.56675 0.841001 7.06103 0.445221 7.61 0.505973C8.15897 0.566724 8.55475 1.061 8.494 1.60997L7.951 6.49997H11.939L12.506 1.38997C12.5668 0.841002 13.061 0.445221 13.61 0.505973C14.159 0.566724 14.5548 1.061 14.494 1.60997L13.951 6.49997H17.5C18.0523 6.49997 18.5 6.94769 18.5 7.49997C18.5 8.05226 18.0523 8.49997 17.5 8.49997H13.729L13.285 12.5H17.5C18.0523 12.5 18.5 12.9477 18.5 13.5C18.5 14.0523 18.0523 14.5 17.5 14.5H13.062L12.494 19.61C12.4332 20.1572 11.9415 20.5524 11.394 20.494H11.39ZM11.272 12.5L11.716 8.49997H7.728L7.284 12.5H11.272Z" fill="white"/>
</mask>
<g mask="url(#mask0_0_14007)">
<rect x="-2.5" y="-1.5" width="24" height="24" fill="#333333"/>
</g>
</svg>
