<svg width="21" height="21" viewBox="0 0 21 21" fill="none" xmlns="http://www.w3.org/2000/svg">
<path fill-rule="evenodd" clip-rule="evenodd" d="M17.5 20.5H16.5C14.8431 20.5 13.5 19.1569 13.5 17.5V14.5C13.5 12.8431 14.8431 11.5 16.5 11.5H18.5V10.5C18.5 6.08172 14.9183 2.5 10.5 2.5C6.08172 2.5 2.5 6.08172 2.5 10.5V11.5H4.5C6.15685 11.5 7.5 12.8431 7.5 14.5V17.5C7.5 19.1569 6.15685 20.5 4.5 20.5H3.5C1.84315 20.5 0.5 19.1569 0.5 17.5V10.5C0.5 4.97715 4.97715 0.5 10.5 0.5C16.0228 0.5 20.5 4.97715 20.5 10.5V17.5C20.5 19.1569 19.1569 20.5 17.5 20.5ZM16.5 13.5C15.9477 13.5 15.5 13.9477 15.5 14.5V17.5C15.5 18.0523 15.9477 18.5 16.5 18.5H17.5C18.0523 18.5 18.5 18.0523 18.5 17.5V13.5H16.5ZM2.5 17.5V13.5H4.5C5.05228 13.5 5.5 13.9477 5.5 14.5V17.5C5.5 18.0523 5.05228 18.5 4.5 18.5H3.5C2.94772 18.5 2.5 18.0523 2.5 17.5Z" fill="#333333"/>
<mask id="mask0_0_12481" style="mask-type:alpha" maskUnits="userSpaceOnUse" x="0" y="0" width="21" height="21">
<path fill-rule="evenodd" clip-rule="evenodd" d="M17.5 20.5H16.5C14.8431 20.5 13.5 19.1569 13.5 17.5V14.5C13.5 12.8431 14.8431 11.5 16.5 11.5H18.5V10.5C18.5 6.08172 14.9183 2.5 10.5 2.5C6.08172 2.5 2.5 6.08172 2.5 10.5V11.5H4.5C6.15685 11.5 7.5 12.8431 7.5 14.5V17.5C7.5 19.1569 6.15685 20.5 4.5 20.5H3.5C1.84315 20.5 0.5 19.1569 0.5 17.5V10.5C0.5 4.97715 4.97715 0.5 10.5 0.5C16.0228 0.5 20.5 4.97715 20.5 10.5V17.5C20.5 19.1569 19.1569 20.5 17.5 20.5ZM16.5 13.5C15.9477 13.5 15.5 13.9477 15.5 14.5V17.5C15.5 18.0523 15.9477 18.5 16.5 18.5H17.5C18.0523 18.5 18.5 18.0523 18.5 17.5V13.5H16.5ZM2.5 13.5V17.5C2.5 18.0523 2.94772 18.5 3.5 18.5H4.5C5.05228 18.5 5.5 18.0523 5.5 17.5V14.5C5.5 13.9477 5.05228 13.5 4.5 13.5H2.5Z" fill="white"/>
</mask>
<g mask="url(#mask0_0_12481)">
<rect x="-1.5" y="-1.5" width="24" height="24" fill="#333333"/>
</g>
</svg>
