<svg width="24" height="21" viewBox="0 0 24 21" fill="none" xmlns="http://www.w3.org/2000/svg">
<mask id="mask0_0_12295" style="mask-type:alpha" maskUnits="userSpaceOnUse" x="0" y="0" width="24" height="21">
<path fill-rule="evenodd" clip-rule="evenodd" d="M11.951 20.732C11.6857 20.7327 11.4311 20.6272 11.244 20.439L2.40001 11.6C-0.140499 9.0595 -0.140499 4.94052 2.40001 2.40001C4.94052 -0.140499 9.0595 -0.140499 11.6 2.40001L11.953 2.75301L12.306 2.40101C14.1656 0.543232 16.961 -0.0117046 19.3892 0.994892C21.8173 2.00149 23.4003 4.37146 23.4 7.00001C23.4069 8.72565 22.7227 10.3822 21.5 11.6L12.659 20.44C12.4715 20.6281 12.2166 20.7333 11.951 20.732ZM7.00001 2.50001C5.1786 2.49878 3.53607 3.59564 2.83928 5.2785C2.14248 6.96136 2.52886 8.8983 3.81801 10.185L11.951 18.317L19.023 11.245L20.083 10.185C21.8409 8.42709 21.8409 5.57693 20.083 3.81901C18.3251 2.06109 15.4749 2.06109 13.717 3.81901L12.657 4.87801C12.2665 5.26839 11.6335 5.26839 11.243 4.87801L10.184 3.81901C9.34152 2.97161 8.19494 2.49663 7.00001 2.50001Z" fill="white"/>
</mask>
<g mask="url(#mask0_0_12295)">
<rect x="-0.5" y="-1.5" width="24" height="24" fill="#333333"/>
</g>
</svg>
