<svg width="21" height="23" viewBox="0 0 21 23" fill="none" xmlns="http://www.w3.org/2000/svg">
<path fill-rule="evenodd" clip-rule="evenodd" d="M17.5 22.5H13.5H3.5C1.84315 22.5 0.5 21.1569 0.5 19.5V8.5C0.500094 8.19154 0.642533 7.90039 0.886 7.711L9.886 0.710999C10.2471 0.430074 10.7529 0.430074 11.114 0.710999L20.114 7.711C20.3575 7.90039 20.4999 8.19154 20.5 8.5V19.5C20.5 21.1569 19.1569 22.5 17.5 22.5ZM17.5 20.5C18.0523 20.5 18.5 20.0523 18.5 19.5V8.989L10.5 2.767L2.5 8.989V19.5C2.5 20.0523 2.94772 20.5 3.5 20.5H6.5V11.5C6.5 10.9477 6.94772 10.5 7.5 10.5H13.5C14.0523 10.5 14.5 10.9477 14.5 11.5V20.5H17.5ZM12.5 12.5V20.5H8.5V12.5H12.5Z" fill="#333333"/>
<mask id="mask0_0_13763" style="mask-type:alpha" maskUnits="userSpaceOnUse" x="0" y="0" width="21" height="23">
<path fill-rule="evenodd" clip-rule="evenodd" d="M13.5 22.5H3.5C1.84315 22.5 0.5 21.1569 0.5 19.5V8.5C0.500094 8.19154 0.642533 7.90039 0.886 7.711L9.886 0.710999C10.2471 0.430074 10.7529 0.430074 11.114 0.710999L20.114 7.711C20.3575 7.90039 20.4999 8.19154 20.5 8.5V19.5C20.5 21.1569 19.1569 22.5 17.5 22.5H13.5ZM17.5 20.5C18.0523 20.5 18.5 20.0523 18.5 19.5V8.989L10.5 2.767L2.5 8.989V19.5C2.5 20.0523 2.94772 20.5 3.5 20.5H6.5V11.5C6.5 10.9477 6.94772 10.5 7.5 10.5H13.5C14.0523 10.5 14.5 10.9477 14.5 11.5V20.5H17.5ZM12.5 20.5V12.5H8.5V20.5H12.5Z" fill="white"/>
</mask>
<g mask="url(#mask0_0_13763)">
<rect x="-1.5" y="-0.5" width="24" height="24" fill="#333333"/>
</g>
</svg>
