<svg width="21" height="21" viewBox="0 0 21 21" fill="none" xmlns="http://www.w3.org/2000/svg">
<mask id="mask0_0_12920" style="mask-type:alpha" maskUnits="userSpaceOnUse" x="0" y="0" width="21" height="21">
<path fill-rule="evenodd" clip-rule="evenodd" d="M3.466 20.5C1.82244 20.4814 0.499894 19.1437 0.5 17.5V3.5C0.5 1.84315 1.84315 0.5 3.5 0.5H17.5C19.1569 0.5 20.5 1.84315 20.5 3.5V13.472C20.5 13.491 20.5 13.51 20.5 13.529V17.5C20.5 19.1569 19.1569 20.5 17.5 20.5H3.466ZM17.5 18.5C18.0523 18.5 18.5 18.0523 18.5 17.5V13.914L14.5 9.914L5.914 18.5H17.5ZM2.5 3.5V17.5C2.50016 17.9168 2.75876 18.2897 3.149 18.436L13.793 7.793C14.1835 7.40262 14.8165 7.40262 15.207 7.793L18.5 11.086V3.5C18.5 2.94772 18.0523 2.5 17.5 2.5H3.5C2.94772 2.5 2.5 2.94772 2.5 3.5ZM4.5 7C4.5 5.61929 5.61929 4.5 7 4.5C8.38071 4.5 9.5 5.61929 9.5 7C9.5 8.38071 8.38071 9.5 7 9.5C6.33696 9.5 5.70107 9.23661 5.23223 8.76777C4.76339 8.29893 4.5 7.66304 4.5 7ZM6.5 7C6.5 7.27614 6.72386 7.5 7 7.5C7.27614 7.5 7.5 7.27614 7.5 7C7.5 6.72386 7.27614 6.5 7 6.5C6.72386 6.5 6.5 6.72386 6.5 7Z" fill="white"/>
</mask>
<g mask="url(#mask0_0_12920)">
<rect x="-1.5" y="-1.5" width="24" height="24" fill="#333333"/>
</g>
</svg>
