<svg width="23" height="19" viewBox="0 0 23 19" fill="none" xmlns="http://www.w3.org/2000/svg">
<path fill-rule="evenodd" clip-rule="evenodd" d="M3.5 18.5C1.84315 18.5 0.5 17.1569 0.5 15.5V10.5C0.499833 10.3486 0.534025 10.1992 0.600001 10.063L4.056 2.285C4.53686 1.19943 5.6127 0.499585 6.8 0.5H16.2C17.3871 0.49941 18.4628 1.19882 18.944 2.284L22.414 10.094C22.423 10.114 22.431 10.133 22.438 10.154L22.443 10.169V10.183V10.189C22.4784 10.289 22.4976 10.394 22.5 10.5V15.5C22.5 17.1569 21.1569 18.5 19.5 18.5H3.5ZM2.5 15.5C2.5 16.0523 2.94772 16.5 3.5 16.5H19.5C20.0523 16.5 20.5 16.0523 20.5 15.5V11.5H16.035L14.335 14.055C14.1489 14.334 13.8353 14.5011 13.5 14.5H9.5C9.16553 14.4998 8.8533 14.3325 8.668 14.054L6.965 11.5H2.5V15.5ZM8.332 9.946C8.14671 9.66755 7.83447 9.50017 7.5 9.5H3.038L5.886 3.095C6.04619 2.73337 6.40448 2.50013 6.8 2.5H16.2C16.5963 2.49933 16.9555 2.7327 17.116 3.095L19.961 9.5H15.5C15.1645 9.49917 14.8509 9.66666 14.665 9.946L12.965 12.5H10.036L8.332 9.946Z" fill="#333333"/>
<mask id="mask0_0_12859" style="mask-type:alpha" maskUnits="userSpaceOnUse" x="0" y="0" width="23" height="19">
<path fill-rule="evenodd" clip-rule="evenodd" d="M3.5 18.5C1.84315 18.5 0.500001 17.1569 0.500001 15.5V10.5C0.499833 10.3486 0.534025 10.1992 0.600001 10.063L4.056 2.285C4.53686 1.19943 5.6127 0.499585 6.8 0.500001H16.2C17.3871 0.49941 18.4628 1.19882 18.944 2.284L22.414 10.094C22.423 10.114 22.431 10.133 22.438 10.154V10.154L22.443 10.169V10.183V10.189C22.4784 10.289 22.4976 10.394 22.5 10.5V15.5C22.5 17.1569 21.1569 18.5 19.5 18.5H3.5ZM2.5 15.5C2.5 16.0523 2.94772 16.5 3.5 16.5H19.5C20.0523 16.5 20.5 16.0523 20.5 15.5V11.5H16.035L14.335 14.055C14.1489 14.334 13.8353 14.5011 13.5 14.5H9.5C9.16553 14.4998 8.8533 14.3325 8.668 14.054L6.965 11.5H2.5V15.5ZM7.5 9.5C7.83447 9.50017 8.14671 9.66755 8.332 9.946L10.036 12.5H12.965L14.665 9.946C14.8509 9.66666 15.1645 9.49917 15.5 9.5H19.961L17.116 3.095C16.9555 2.7327 16.5963 2.49933 16.2 2.5H6.8C6.40448 2.50013 6.04619 2.73337 5.886 3.095L3.038 9.5H7.5Z" fill="white"/>
</mask>
<g mask="url(#mask0_0_12859)">
<rect x="-0.5" y="-2.5" width="24" height="24" fill="#333333"/>
</g>
</svg>
