<svg width="23" height="23" viewBox="0 0 23 23" fill="none" xmlns="http://www.w3.org/2000/svg">
<path fill-rule="evenodd" clip-rule="evenodd" d="M0.816375 8.62462C-0.19679 12.4399 0.912076 16.5055 3.72201 19.278C6.49453 22.0879 10.5601 23.1968 14.3754 22.1836C18.1906 21.1705 21.1705 18.1906 22.1836 14.3754C23.1968 10.5601 22.0879 6.49453 19.278 3.72201C16.5055 0.912076 12.4399 -0.19679 8.62462 0.816375C4.80937 1.82954 1.82954 4.80937 0.816375 8.62462ZM11.5 20.5C6.52944 20.5 2.50001 16.4706 2.50001 11.5C2.50552 6.53173 6.53173 2.50552 11.5 2.50001C16.4706 2.50001 20.5 6.52944 20.5 11.5C20.5 16.4706 16.4706 20.5 11.5 20.5ZM10.5 15.5V11.5C10.5 10.9477 10.9477 10.5 11.5 10.5C12.0523 10.5 12.5 10.9477 12.5 11.5V15.5C12.5 16.0523 12.0523 16.5 11.5 16.5C10.9477 16.5 10.5 16.0523 10.5 15.5ZM10.6688 7.9443C10.4037 8.34093 10.4557 8.86961 10.793 9.20701V9.20801C10.9807 9.39519 11.235 9.50021 11.5 9.50001C11.9771 9.50011 12.3878 9.16319 12.481 8.69529C12.5741 8.2274 12.3238 7.75885 11.8831 7.5762C11.4423 7.39355 10.934 7.54766 10.6688 7.9443Z" fill="#333333"/>
<mask id="mask0_0_14756" style="mask-type:alpha" maskUnits="userSpaceOnUse" x="0" y="0" width="23" height="23">
<path fill-rule="evenodd" clip-rule="evenodd" d="M3.72201 19.278C0.912076 16.5055 -0.19679 12.4399 0.816375 8.62462C1.82954 4.80937 4.80937 1.82954 8.62462 0.816375C12.4399 -0.19679 16.5055 0.912076 19.278 3.72201C22.0879 6.49453 23.1968 10.5601 22.1836 14.3754C21.1705 18.1906 18.1906 21.1705 14.3754 22.1836C10.5601 23.1968 6.49453 22.0879 3.72201 19.278V19.278ZM2.50001 11.5C2.50001 16.4706 6.52944 20.5 11.5 20.5C16.4706 20.5 20.5 16.4706 20.5 11.5C20.5 6.52944 16.4706 2.50001 11.5 2.50001C6.53173 2.50552 2.50552 6.53173 2.50001 11.5ZM10.5 15.5V11.5C10.5 10.9477 10.9477 10.5 11.5 10.5C12.0523 10.5 12.5 10.9477 12.5 11.5V15.5C12.5 16.0523 12.0523 16.5 11.5 16.5C10.9477 16.5 10.5 16.0523 10.5 15.5ZM10.793 9.20701C10.4557 8.86961 10.4037 8.34093 10.6688 7.9443C10.934 7.54766 11.4423 7.39355 11.8831 7.5762C12.3238 7.75885 12.5741 8.2274 12.481 8.69529C12.3878 9.16319 11.9771 9.50011 11.5 9.50001C11.235 9.50021 10.9807 9.39519 10.793 9.20801V9.20701Z" fill="white"/>
</mask>
<g mask="url(#mask0_0_14756)">
<rect x="-0.5" y="-0.5" width="24" height="24" fill="#333333"/>
</g>
</svg>
