<svg width="23" height="23" viewBox="0 0 23 23" fill="none" xmlns="http://www.w3.org/2000/svg">
<path fill-rule="evenodd" clip-rule="evenodd" d="M6.5 22.5H16.5C19.8123 22.4967 22.4967 19.8123 22.5 16.5V6.5C22.4961 3.18789 19.8121 0.503857 16.5 0.5H6.5C3.18789 0.503857 0.503857 3.18789 0.5 6.5V16.5C0.503857 19.8121 3.18789 22.4961 6.5 22.5ZM2.5 6.5C2.50275 4.292 4.292 2.50275 6.5 2.5H16.5C18.7091 2.5 20.5 4.29086 20.5 6.5V16.5C20.5 18.7091 18.7091 20.5 16.5 20.5H6.5C4.29086 20.5 2.5 18.7091 2.5 16.5V6.5ZM11.544 16.457C8.78258 16.457 6.544 14.2184 6.544 11.457C6.544 8.69558 8.78258 6.457 11.544 6.457C11.7903 6.45695 12.0363 6.475 12.28 6.511C14.4362 6.83064 16.1369 8.51029 16.4833 10.6624C16.8297 12.8144 15.742 14.9429 13.795 15.923C13.0967 16.2736 12.3263 16.4564 11.545 16.457H11.544ZM8.544 11.457C8.544 9.80015 9.88715 8.457 11.544 8.457C11.6909 8.45696 11.8376 8.46765 11.983 8.489C13.2928 8.67763 14.3219 9.70632 14.511 11.016C14.6393 11.8791 14.3854 12.7552 13.8156 13.4161C13.2458 14.0769 12.4166 14.4569 11.544 14.457C9.88715 14.457 8.544 13.1139 8.544 11.457ZM11.542 8.457H11.544Z" fill="#333333"/>
<mask id="mask0_0_14510" style="mask-type:alpha" maskUnits="userSpaceOnUse" x="0" y="0" width="23" height="23">
<path fill-rule="evenodd" clip-rule="evenodd" d="M16.5 22.5H6.5C3.18789 22.4961 0.503857 19.8121 0.5 16.5V6.5C0.503857 3.18789 3.18789 0.503857 6.5 0.5H16.5C19.8121 0.503857 22.4961 3.18789 22.5 6.5V16.5C22.4967 19.8123 19.8123 22.4967 16.5 22.5ZM6.5 2.5C4.292 2.50275 2.50275 4.292 2.5 6.5V16.5C2.5 18.7091 4.29086 20.5 6.5 20.5H16.5C18.7091 20.5 20.5 18.7091 20.5 16.5V6.5C20.5 4.29086 18.7091 2.5 16.5 2.5H6.5ZM11.544 16.457C8.78258 16.457 6.544 14.2184 6.544 11.457C6.544 8.69558 8.78258 6.457 11.544 6.457C11.7903 6.45695 12.0363 6.475 12.28 6.511C14.4362 6.83064 16.1369 8.51029 16.4833 10.6624C16.8297 12.8144 15.742 14.9429 13.795 15.923C13.0967 16.2736 12.3263 16.4564 11.545 16.457H11.544ZM11.544 8.457C9.88715 8.457 8.544 9.80015 8.544 11.457C8.544 13.1139 9.88715 14.457 11.544 14.457C12.4166 14.4569 13.2458 14.0769 13.8156 13.4161C14.3854 12.7552 14.6393 11.8791 14.511 11.016C14.3219 9.70632 13.2928 8.67763 11.983 8.489C11.837 8.46756 11.6896 8.45686 11.542 8.457H11.544Z" fill="white"/>
</mask>
<g mask="url(#mask0_0_14510)">
<rect x="-0.5" y="-0.5" width="24" height="24" fill="#333333"/>
</g>
</svg>
