<svg width="23" height="23" viewBox="0 0 23 23" fill="none" xmlns="http://www.w3.org/2000/svg">
<path fill-rule="evenodd" clip-rule="evenodd" d="M11.0529 12.394L1.05291 7.39402C0.714597 7.22445 0.500979 6.87844 0.500979 6.50002C0.500979 6.12159 0.714597 5.77558 1.05291 5.60602L11.0529 0.606015C11.3343 0.465394 11.6655 0.465394 11.9469 0.606015L21.9469 5.60602C22.2852 5.77558 22.4988 6.12159 22.4988 6.50002C22.4988 6.87844 22.2852 7.22445 21.9469 7.39402L11.9469 12.394C11.6655 12.5346 11.3343 12.5346 11.0529 12.394ZM1.05291 12.394L11.0529 17.394H11.0539C11.3353 17.5346 11.6665 17.5346 11.9479 17.394L21.9479 12.394C22.4373 12.1447 22.634 11.5473 22.3885 11.056C22.1429 10.5647 21.5471 10.3633 21.0539 10.605L11.4999 15.382L1.94791 10.605C1.45389 10.3579 0.85306 10.558 0.605912 11.052C0.358765 11.546 0.558893 12.1469 1.05291 12.394ZM1.05291 17.394L11.0529 22.394L11.0539 22.395C11.3353 22.5356 11.6665 22.5356 11.9479 22.395L21.9479 17.395C22.4373 17.1457 22.634 16.5483 22.3885 16.057C22.1429 15.5657 21.5471 15.3643 21.0539 15.606L11.4999 20.382L1.94791 15.605C1.45389 15.3579 0.85306 15.558 0.605912 16.052C0.358765 16.546 0.558893 17.1469 1.05291 17.394ZM11.4999 10.382L3.73591 6.50002L11.4999 2.61802L19.2639 6.50002L11.4999 10.382Z" fill="#333333"/>
<mask id="mask0_0_14526" style="mask-type:alpha" maskUnits="userSpaceOnUse" x="0" y="0" width="23" height="23">
<path fill-rule="evenodd" clip-rule="evenodd" d="M11.0529 22.394L1.05291 17.394C0.558893 17.1469 0.358765 16.546 0.605912 16.052C0.85306 15.558 1.45389 15.3579 1.94791 15.605L11.4999 20.382L21.0539 15.606C21.5471 15.3643 22.1429 15.5657 22.3885 16.057C22.634 16.5483 22.4373 17.1457 21.9479 17.395L11.9479 22.395C11.6665 22.5356 11.3353 22.5356 11.0539 22.395L11.0529 22.394ZM11.0529 17.394L1.05291 12.394C0.558893 12.1469 0.358765 11.546 0.605912 11.052C0.85306 10.558 1.45389 10.3579 1.94791 10.605L11.4999 15.382L21.0539 10.605C21.5471 10.3633 22.1429 10.5647 22.3885 11.056C22.634 11.5473 22.4373 12.1447 21.9479 12.394L11.9479 17.394C11.6665 17.5346 11.3353 17.5346 11.0539 17.394H11.0529ZM11.0529 12.394L1.05291 7.39402C0.714597 7.22445 0.500979 6.87844 0.500979 6.50002C0.500979 6.12159 0.714597 5.77558 1.05291 5.60602L11.0529 0.606015C11.3343 0.465394 11.6655 0.465394 11.9469 0.606015L21.9469 5.60602C22.2852 5.77558 22.4988 6.12159 22.4988 6.50002C22.4988 6.87844 22.2852 7.22445 21.9469 7.39402L11.9469 12.394C11.6655 12.5346 11.3343 12.5346 11.0529 12.394ZM3.73591 6.50002L11.4999 10.382L19.2639 6.50002L11.4999 2.61802L3.73591 6.50002Z" fill="white"/>
</mask>
<g mask="url(#mask0_0_14526)">
<rect x="-0.500122" y="-0.5" width="24" height="24" fill="#333333"/>
</g>
</svg>
