<svg width="23" height="23" viewBox="0 0 23 23" fill="none" xmlns="http://www.w3.org/2000/svg">
<path fill-rule="evenodd" clip-rule="evenodd" d="M0.816497 8.62462C-0.196668 12.4399 0.912198 16.5055 3.72213 19.278C6.49465 22.0879 10.5603 23.1968 14.3755 22.1836C18.1908 21.1705 21.1706 18.1906 22.1838 14.3754C23.1969 10.5601 22.0881 6.49453 19.2781 3.72201C16.5056 0.912076 12.44 -0.19679 8.62474 0.816375C4.80949 1.82954 1.82966 4.80937 0.816497 8.62462ZM17.1151 18.529C15.5227 19.8067 13.5417 20.502 11.5001 20.5C9.45854 20.502 7.47751 19.8067 5.88513 18.529L8.74313 15.67C10.4141 16.777 12.5852 16.777 14.2561 15.67L17.1151 18.529ZM2.50013 11.5C2.49809 13.5416 3.19348 15.5226 4.47113 17.115L7.33013 14.256C6.22356 12.5853 6.22356 10.4147 7.33013 8.74401L4.47113 5.88501C3.19348 7.47739 2.49809 9.45842 2.50013 11.5ZM18.5291 5.88601C21.1568 9.16784 21.1568 13.8332 18.5291 17.115L15.6701 14.257C16.7771 12.5861 16.7771 10.415 15.6701 8.74401L18.5291 5.88601ZM8.50013 11.5C8.50013 13.1569 9.84327 14.5 11.5001 14.5C13.157 14.5 14.5001 13.1569 14.5001 11.5C14.5001 9.84315 13.157 8.50001 11.5001 8.50001C9.84327 8.50001 8.50013 9.84315 8.50013 11.5ZM14.2561 7.33001C12.5854 6.22344 10.4148 6.22344 8.74413 7.33001L5.88513 4.47101C9.16715 1.84281 13.8331 1.84281 17.1151 4.47101L14.2561 7.33001Z" fill="#333333"/>
<mask id="mask0_0_12667" style="mask-type:alpha" maskUnits="userSpaceOnUse" x="0" y="0" width="23" height="23">
<path fill-rule="evenodd" clip-rule="evenodd" d="M3.72213 19.278C0.912198 16.5055 -0.196668 12.4399 0.816497 8.62462C1.82966 4.80937 4.80949 1.82954 8.62474 0.816375C12.44 -0.19679 16.5056 0.912076 19.2781 3.72201C22.0881 6.49453 23.1969 10.5601 22.1838 14.3754C21.1706 18.1906 18.1908 21.1705 14.3755 22.1836C10.5603 23.1968 6.49465 22.0879 3.72213 19.278V19.278ZM11.5001 20.5C13.5417 20.502 15.5227 19.8067 17.1151 18.529L14.2561 15.67C12.5852 16.777 10.4141 16.777 8.74313 15.67L5.88513 18.529C7.47751 19.8067 9.45854 20.502 11.5001 20.5V20.5ZM2.50013 11.5C2.49809 13.5416 3.19348 15.5226 4.47113 17.115L7.33013 14.256C6.22356 12.5853 6.22356 10.4147 7.33013 8.74401L4.47113 5.88501C3.19348 7.47739 2.49809 9.45842 2.50013 11.5V11.5ZM18.5291 17.115C21.1568 13.8332 21.1568 9.16784 18.5291 5.88601L15.6701 8.74401C16.7771 10.415 16.7771 12.5861 15.6701 14.257L18.5291 17.115ZM8.50013 11.5C8.50013 13.1569 9.84327 14.5 11.5001 14.5C13.157 14.5 14.5001 13.1569 14.5001 11.5C14.5001 9.84315 13.157 8.50001 11.5001 8.50001C9.84327 8.50001 8.50013 9.84315 8.50013 11.5ZM8.74413 7.33001C10.4148 6.22344 12.5854 6.22344 14.2561 7.33001L17.1151 4.47101C13.8331 1.84281 9.16715 1.84281 5.88513 4.47101L8.74413 7.33001Z" fill="white"/>
</mask>
<g mask="url(#mask0_0_12667)">
<rect x="-0.499756" y="-0.5" width="24" height="24" fill="#333333"/>
</g>
</svg>
