<svg width="23" height="23" viewBox="0 0 23 23" fill="none" xmlns="http://www.w3.org/2000/svg">
<path fill-rule="evenodd" clip-rule="evenodd" d="M8.69905 13.099C9.74196 14.4928 11.3388 15.3649 13.0751 15.489C13.2191 15.499 13.3627 15.5037 13.5061 15.503C15.0969 15.5024 16.6223 14.8701 17.7471 13.745L20.7471 10.745C23.0943 8.40554 23.1005 4.60623 20.7611 2.25902C18.4216 -0.088187 14.6223 -0.094455 12.2751 2.24502L10.5451 3.96602C10.1521 4.35621 10.1499 4.99107 10.5401 5.38402C10.9302 5.77697 11.5651 5.77921 11.9581 5.38902L13.6731 3.67802C15.2468 2.17653 17.732 2.20782 19.2674 3.74845C20.8029 5.28909 20.8258 7.77431 19.3191 9.34302L16.3321 12.331C15.5115 13.1522 14.3747 13.5764 13.2168 13.4935C12.059 13.4106 10.9942 12.8287 10.2991 11.899C10.0847 11.6132 9.73414 11.4635 9.37944 11.5062C9.02474 11.5489 8.71978 11.7777 8.57944 12.1062C8.4391 12.4347 8.48469 12.8132 8.69905 13.099ZM2.25305 12.253C-0.0320438 14.6055 -0.00487614 18.3569 2.31405 20.676C4.62837 22.9898 8.36992 23.0223 10.7241 20.749L12.4471 19.027C12.826 18.6346 12.8206 18.0109 12.4349 17.6252C12.0491 17.2395 11.4254 17.2341 11.0331 17.613L9.32305 19.323C7.75037 20.8359 5.25532 20.8091 3.71552 19.2628C2.17572 17.7164 2.15949 15.2213 3.67905 13.655L6.66705 10.666C7.48804 9.84449 8.62557 9.42035 9.784 9.50385C10.9424 9.58735 12.0074 10.1702 12.7021 11.101C13.0334 11.5429 13.6602 11.6324 14.1021 11.301C14.5439 10.9697 14.6334 10.3429 14.3021 9.90102C13.2593 8.50665 11.6623 7.63401 9.9256 7.50965C8.1889 7.38528 6.48384 8.02146 5.25305 9.25302L2.25305 12.253Z" fill="#333333"/>
<mask id="mask0_0_12753" style="mask-type:alpha" maskUnits="userSpaceOnUse" x="0" y="0" width="23" height="23">
<path fill-rule="evenodd" clip-rule="evenodd" d="M2.31405 20.676C-0.00487614 18.3569 -0.0320438 14.6055 2.25305 12.253L5.25305 9.25302C6.48384 8.02146 8.1889 7.38528 9.9256 7.50965C11.6623 7.63401 13.2593 8.50665 14.3021 9.90102C14.6334 10.3429 14.5439 10.9697 14.1021 11.301C13.6602 11.6324 13.0334 11.5429 12.7021 11.101C12.0074 10.1702 10.9424 9.58735 9.784 9.50385C8.62557 9.42035 7.48804 9.84449 6.66705 10.666L3.67905 13.655C2.15949 15.2213 2.17572 17.7164 3.71552 19.2628C5.25532 20.8091 7.75038 20.8359 9.32305 19.323L11.0331 17.613C11.4254 17.2341 12.0491 17.2395 12.4349 17.6252C12.8206 18.0109 12.826 18.6346 12.4471 19.027L10.7241 20.749C8.36992 23.0223 4.62837 22.9898 2.31405 20.676V20.676ZM13.0751 15.489C11.3388 15.3649 9.74196 14.4928 8.69905 13.099C8.48469 12.8132 8.4391 12.4347 8.57944 12.1062C8.71978 11.7777 9.02474 11.5489 9.37944 11.5062C9.73414 11.4635 10.0847 11.6132 10.2991 11.899C10.9942 12.8287 12.059 13.4106 13.2168 13.4935C14.3747 13.5764 15.5115 13.1522 16.3321 12.331L19.3191 9.34302C20.8258 7.77431 20.8029 5.28909 19.2674 3.74845C17.732 2.20782 15.2468 2.17653 13.6731 3.67802L11.9581 5.38902C11.5651 5.77921 10.9302 5.77697 10.5401 5.38402C10.1499 4.99107 10.1521 4.35621 10.5451 3.96602L12.2751 2.24502C14.6223 -0.094455 18.4216 -0.088187 20.7611 2.25902C23.1005 4.60623 23.0943 8.40554 20.7471 10.745L17.7471 13.745C16.6223 14.8701 15.0969 15.5024 13.5061 15.503C13.3627 15.5037 13.2191 15.499 13.0751 15.489Z" fill="white"/>
</mask>
<g mask="url(#mask0_0_12753)">
<rect x="-0.5" y="-0.5" width="24" height="24" fill="#333333"/>
</g>
</svg>
