<svg width="25" height="13" viewBox="0 0 25 13" fill="none" xmlns="http://www.w3.org/2000/svg">
<path fill-rule="evenodd" clip-rule="evenodd" d="M6.5 12.5C3.18629 12.5 0.5 9.81371 0.5 6.5C0.5 3.18629 3.18629 0.5 6.5 0.5H9.5C10.0523 0.5 10.5 0.947715 10.5 1.5C10.5 2.05228 10.0523 2.5 9.5 2.5H6.5C4.29086 2.5 2.5 4.29086 2.5 6.5C2.5 8.70914 4.29086 10.5 6.5 10.5H9.5C10.0523 10.5 10.5 10.9477 10.5 11.5C10.5 12.0523 10.0523 12.5 9.5 12.5H6.5ZM15.5 12.5C14.9477 12.5 14.5 12.0523 14.5 11.5C14.5 10.9477 14.9477 10.5 15.5 10.5H18.5C20.7091 10.5 22.5 8.70914 22.5 6.5C22.5 4.29086 20.7091 2.5 18.5 2.5H15.5C14.9477 2.5 14.5 2.05228 14.5 1.5C14.5 0.947715 14.9477 0.5 15.5 0.5H18.5C21.8137 0.5 24.5 3.18629 24.5 6.5C24.5 9.81371 21.8137 12.5 18.5 12.5H15.5ZM7.5 6.5C7.5 7.05228 7.94772 7.5 8.5 7.5H16.5C17.0523 7.5 17.5 7.05228 17.5 6.5C17.5 5.94772 17.0523 5.5 16.5 5.5H8.5C7.94772 5.5 7.5 5.94772 7.5 6.5Z" fill="#333333"/>
<mask id="mask0_0_13066" style="mask-type:alpha" maskUnits="userSpaceOnUse" x="0" y="0" width="25" height="13">
<path fill-rule="evenodd" clip-rule="evenodd" d="M15.5 12.5C14.9477 12.5 14.5 12.0523 14.5 11.5C14.5 10.9477 14.9477 10.5 15.5 10.5H18.5C20.7091 10.5 22.5 8.70914 22.5 6.5C22.5 4.29086 20.7091 2.5 18.5 2.5H15.5C14.9477 2.5 14.5 2.05228 14.5 1.5C14.5 0.947715 14.9477 0.5 15.5 0.5H18.5C21.8137 0.5 24.5 3.18629 24.5 6.5C24.5 9.81371 21.8137 12.5 18.5 12.5H15.5ZM6.5 12.5C3.18629 12.5 0.5 9.81371 0.5 6.5C0.5 3.18629 3.18629 0.5 6.5 0.5H9.5C10.0523 0.5 10.5 0.947715 10.5 1.5C10.5 2.05228 10.0523 2.5 9.5 2.5H6.5C4.29086 2.5 2.5 4.29086 2.5 6.5C2.5 8.70914 4.29086 10.5 6.5 10.5H9.5C10.0523 10.5 10.5 10.9477 10.5 11.5C10.5 12.0523 10.0523 12.5 9.5 12.5H6.5ZM8.5 7.5C7.94772 7.5 7.5 7.05228 7.5 6.5C7.5 5.94772 7.94772 5.5 8.5 5.5H16.5C17.0523 5.5 17.5 5.94772 17.5 6.5C17.5 7.05228 17.0523 7.5 16.5 7.5H8.5Z" fill="white"/>
</mask>
<g mask="url(#mask0_0_13066)">
<rect x="0.5" y="-5.5" width="24" height="24" fill="#333333"/>
</g>
</svg>
