<svg width="23" height="23" viewBox="0 0 23 23" fill="none" xmlns="http://www.w3.org/2000/svg">
<path fill-rule="evenodd" clip-rule="evenodd" d="M10.5 1.5V5.5C10.5 6.05228 10.9477 6.5 11.5 6.5C12.0523 6.5 12.5 6.05228 12.5 5.5V1.5C12.5 0.947715 12.0523 0.5 11.5 0.5C10.9477 0.5 10.5 0.947715 10.5 1.5ZM14.7397 7.2595C14.7397 7.52491 14.8452 7.77943 15.033 7.967C15.4235 8.35738 16.0565 8.35738 16.447 7.967L19.277 5.136C19.537 4.88493 19.6412 4.51312 19.5497 4.16349C19.4582 3.81386 19.1851 3.54082 18.8355 3.4493C18.4859 3.35779 18.1141 3.46204 17.863 3.722L15.033 6.552C14.8452 6.73957 14.7397 6.99409 14.7397 7.2595ZM1.5 12.5C0.947715 12.5 0.5 12.0523 0.5 11.5C0.5 10.9477 0.947715 10.5 1.5 10.5H5.5C6.05228 10.5 6.5 10.9477 6.5 11.5C6.5 12.0523 6.05228 12.5 5.5 12.5H1.5ZM16.5 11.5C16.5 12.0523 16.9477 12.5 17.5 12.5H21.5C22.0523 12.5 22.5 12.0523 22.5 11.5C22.5 10.9477 22.0523 10.5 21.5 10.5H17.5C16.9477 10.5 16.5 10.9477 16.5 11.5ZM3.723 19.277C3.33262 18.8865 3.33262 18.2535 3.723 17.863L6.553 15.033C6.94347 14.6423 7.57676 14.642 7.9675 15.0325C8.35824 15.423 8.35847 16.0563 7.968 16.447L5.137 19.277C4.7465 19.6674 4.1135 19.6674 3.723 19.277ZM15.033 16.447L17.863 19.277C18.1141 19.537 18.4859 19.6412 18.8355 19.5497C19.1851 19.4582 19.4582 19.1851 19.5497 18.8355C19.6412 18.4859 19.537 18.1141 19.277 17.863L16.447 15.033C16.0546 14.654 15.4309 14.6594 15.0452 15.0452C14.6594 15.4309 14.654 16.0546 15.033 16.447ZM10.5 17.5V21.5C10.5 22.0523 10.9477 22.5 11.5 22.5C12.0523 22.5 12.5 22.0523 12.5 21.5V17.5C12.5 16.9477 12.0523 16.5 11.5 16.5C10.9477 16.5 10.5 16.9477 10.5 17.5ZM6.552 7.967L3.723 5.137C3.34403 4.74462 3.34945 4.12092 3.73518 3.73518C4.12092 3.34945 4.74462 3.34403 5.137 3.723L7.968 6.553C8.35847 6.94374 8.35824 7.57703 7.9675 7.9675C7.57676 8.35796 6.94347 8.35774 6.553 7.967H6.552Z" fill="#333333"/>
<mask id="mask0_0_13940" style="mask-type:alpha" maskUnits="userSpaceOnUse" x="0" y="0" width="23" height="23">
<path fill-rule="evenodd" clip-rule="evenodd" d="M10.5 21.5V17.5C10.5 16.9477 10.9477 16.5 11.5 16.5C12.0523 16.5 12.5 16.9477 12.5 17.5V21.5C12.5 22.0523 12.0523 22.5 11.5 22.5C10.9477 22.5 10.5 22.0523 10.5 21.5ZM17.863 19.277L15.033 16.447C14.654 16.0546 14.6594 15.4309 15.0452 15.0452C15.4309 14.6594 16.0546 14.654 16.447 15.033L19.277 17.863C19.537 18.1141 19.6412 18.4859 19.5497 18.8355C19.4582 19.1851 19.1851 19.4582 18.8355 19.5497C18.4859 19.6412 18.1141 19.537 17.863 19.277V19.277ZM3.723 19.277C3.33262 18.8865 3.33262 18.2535 3.723 17.863L6.553 15.033C6.94347 14.6423 7.57676 14.642 7.9675 15.0325C8.35824 15.423 8.35847 16.0563 7.968 16.447L5.137 19.277C4.7465 19.6674 4.1135 19.6674 3.723 19.277V19.277ZM17.5 12.5C16.9477 12.5 16.5 12.0523 16.5 11.5C16.5 10.9477 16.9477 10.5 17.5 10.5H21.5C22.0523 10.5 22.5 10.9477 22.5 11.5C22.5 12.0523 22.0523 12.5 21.5 12.5H17.5ZM1.5 12.5C0.947715 12.5 0.5 12.0523 0.5 11.5C0.5 10.9477 0.947715 10.5 1.5 10.5H5.5C6.05228 10.5 6.5 10.9477 6.5 11.5C6.5 12.0523 6.05228 12.5 5.5 12.5H1.5ZM15.033 7.967C14.8452 7.77943 14.7397 7.52491 14.7397 7.2595C14.7397 6.99409 14.8452 6.73957 15.033 6.552L17.863 3.722C18.1141 3.46204 18.4859 3.35779 18.8355 3.4493C19.1851 3.54082 19.4582 3.81386 19.5497 4.16349C19.6412 4.51312 19.537 4.88493 19.277 5.136L16.447 7.967C16.0565 8.35738 15.4235 8.35738 15.033 7.967V7.967ZM6.552 7.967L3.723 5.137C3.34403 4.74462 3.34945 4.12092 3.73518 3.73518C4.12092 3.34945 4.74462 3.34403 5.137 3.723L7.968 6.553C8.35847 6.94374 8.35824 7.57703 7.9675 7.9675C7.57676 8.35797 6.94347 8.35774 6.553 7.967H6.552ZM10.5 5.5V1.5C10.5 0.947715 10.9477 0.5 11.5 0.5C12.0523 0.5 12.5 0.947715 12.5 1.5V5.5C12.5 6.05228 12.0523 6.5 11.5 6.5C10.9477 6.5 10.5 6.05228 10.5 5.5Z" fill="white"/>
</mask>
<g mask="url(#mask0_0_13940)">
<rect x="-0.5" y="-0.5" width="24" height="24" fill="#333333"/>
</g>
</svg>
