<svg width="21" height="23" viewBox="0 0 21 23" fill="none" xmlns="http://www.w3.org/2000/svg">
<path fill-rule="evenodd" clip-rule="evenodd" d="M3.5 22.5C1.84315 22.5 0.5 21.1569 0.5 19.5V12.5C0.5 10.8431 1.84315 9.5 3.5 9.5H4.5V6.5C4.5 3.18629 7.18629 0.5 10.5 0.5C13.8137 0.5 16.5 3.18629 16.5 6.5V9.5H17.5C19.1569 9.5 20.5 10.8431 20.5 12.5V19.5C20.5 21.1569 19.1569 22.5 17.5 22.5H3.5ZM2.5 12.5V19.5C2.5 20.0523 2.94772 20.5 3.5 20.5H17.5C18.0523 20.5 18.5 20.0523 18.5 19.5V12.5C18.5 11.9477 18.0523 11.5 17.5 11.5H3.5C2.94772 11.5 2.5 11.9477 2.5 12.5ZM14.5 6.5V9.5H6.5V6.5C6.5 4.29086 8.29086 2.5 10.5 2.5C12.7091 2.5 14.5 4.29086 14.5 6.5Z" fill="#333333"/>
<mask id="mask0_0_14173" style="mask-type:alpha" maskUnits="userSpaceOnUse" x="0" y="0" width="21" height="23">
<path fill-rule="evenodd" clip-rule="evenodd" d="M3.5 22.5C1.84315 22.5 0.5 21.1569 0.5 19.5V12.5C0.5 10.8431 1.84315 9.5 3.5 9.5H4.5V6.5C4.5 3.18629 7.18629 0.5 10.5 0.5C13.8137 0.5 16.5 3.18629 16.5 6.5V9.5H17.5C19.1569 9.5 20.5 10.8431 20.5 12.5V19.5C20.5 21.1569 19.1569 22.5 17.5 22.5H3.5ZM2.5 12.5V19.5C2.5 20.0523 2.94772 20.5 3.5 20.5H17.5C18.0523 20.5 18.5 20.0523 18.5 19.5V12.5C18.5 11.9477 18.0523 11.5 17.5 11.5H3.5C2.94772 11.5 2.5 11.9477 2.5 12.5ZM14.5 9.5V6.5C14.5 4.29086 12.7091 2.5 10.5 2.5C8.29086 2.5 6.5 4.29086 6.5 6.5V9.5H14.5Z" fill="white"/>
</mask>
<g mask="url(#mask0_0_14173)">
<rect x="-1.5" y="-0.5" width="24" height="24" fill="#333333"/>
</g>
</svg>
