<svg width="21" height="23" viewBox="0 0 21 23" fill="none" xmlns="http://www.w3.org/2000/svg">
<path fill-rule="evenodd" clip-rule="evenodd" d="M11.5 21.5C11.5 22.0523 11.9477 22.5 12.5 22.5H17.5C19.1569 22.5 20.5 21.1569 20.5 19.5V3.5C20.5 1.84315 19.1569 0.5 17.5 0.5H12.5C11.9477 0.5 11.5 0.947715 11.5 1.5C11.5 2.05228 11.9477 2.5 12.5 2.5H17.5C18.0523 2.5 18.5 2.94772 18.5 3.5V19.5C18.5 20.0523 18.0523 20.5 17.5 20.5H12.5C11.9477 20.5 11.5 20.9477 11.5 21.5ZM8.793 14.793C8.40262 15.1835 8.40262 15.8165 8.793 16.207L8.794 16.205C8.98157 16.3928 9.23609 16.4983 9.5015 16.4983C9.76691 16.4983 10.0214 16.3928 10.209 16.205L14.209 12.205L14.244 12.168L14.261 12.149L14.277 12.13L14.292 12.111L14.307 12.091C14.6047 11.6847 14.5537 11.1204 14.188 10.774L10.207 6.793C9.81462 6.41403 9.19092 6.41945 8.80518 6.80518C8.41945 7.19092 8.41403 7.81462 8.793 8.207L11.086 10.5H1.5C0.947715 10.5 0.5 10.9477 0.5 11.5C0.5 12.0523 0.947715 12.5 1.5 12.5H11.086L8.793 14.793Z" fill="#333333"/>
<mask id="mask0_0_13459" style="mask-type:alpha" maskUnits="userSpaceOnUse" x="0" y="0" width="21" height="23">
<path fill-rule="evenodd" clip-rule="evenodd" d="M12.5 22.5C11.9477 22.5 11.5 22.0523 11.5 21.5C11.5 20.9477 11.9477 20.5 12.5 20.5H17.5C18.0523 20.5 18.5 20.0523 18.5 19.5V3.5C18.5 2.94772 18.0523 2.5 17.5 2.5H12.5C11.9477 2.5 11.5 2.05228 11.5 1.5C11.5 0.947715 11.9477 0.5 12.5 0.5H17.5C19.1569 0.5 20.5 1.84315 20.5 3.5V19.5C20.5 21.1569 19.1569 22.5 17.5 22.5H12.5ZM8.793 16.207C8.40262 15.8165 8.40262 15.1835 8.793 14.793L11.086 12.5H1.5C0.947715 12.5 0.5 12.0523 0.5 11.5C0.5 10.9477 0.947715 10.5 1.5 10.5H11.086L8.793 8.207C8.41403 7.81462 8.41945 7.19092 8.80518 6.80518C9.19092 6.41945 9.81462 6.41403 10.207 6.793L14.188 10.774C14.5537 11.1204 14.6047 11.6847 14.307 12.091V12.091L14.292 12.111V12.111L14.277 12.13V12.13L14.261 12.149V12.149L14.244 12.168V12.168L14.209 12.205V12.205L10.209 16.205C10.0214 16.3928 9.76691 16.4983 9.5015 16.4983C9.23609 16.4983 8.98157 16.3928 8.794 16.205L8.793 16.207Z" fill="white"/>
</mask>
<g mask="url(#mask0_0_13459)">
<rect x="-1.5" y="-0.5" width="24" height="24" fill="#333333"/>
</g>
</svg>
