<svg width="21" height="23" viewBox="0 0 21 23" fill="none" xmlns="http://www.w3.org/2000/svg">
<path fill-rule="evenodd" clip-rule="evenodd" d="M0.5 19.5C0.5 21.1569 1.84315 22.5 3.5 22.5H8.5C9.05229 22.5 9.5 22.0523 9.5 21.5C9.5 20.9477 9.05229 20.5 8.5 20.5H3.5C2.94772 20.5 2.5 20.0523 2.5 19.5V3.5C2.5 2.94772 2.94772 2.5 3.5 2.5H8.5C9.05229 2.5 9.5 2.05228 9.5 1.5C9.5 0.947715 9.05229 0.5 8.5 0.5H3.5C1.84315 0.5 0.5 1.84315 0.5 3.5V19.5ZM14.793 14.793C14.4026 15.1835 14.4026 15.8165 14.793 16.207L14.798 16.212C15.1885 16.6024 15.8215 16.6024 16.212 16.212L20.212 12.212C20.5893 11.835 20.6043 11.2282 20.246 10.833L20.207 10.793L16.207 6.793C15.9559 6.53304 15.5841 6.42879 15.2345 6.5203C14.8849 6.61182 14.6118 6.88486 14.5203 7.23449C14.4288 7.58412 14.533 7.95593 14.793 8.207L17.086 10.5H7.5C6.94772 10.5 6.5 10.9477 6.5 11.5C6.5 12.0523 6.94772 12.5 7.5 12.5H17.086L14.793 14.793Z" fill="#333333"/>
<mask id="mask0_0_12164" style="mask-type:alpha" maskUnits="userSpaceOnUse" x="0" y="0" width="21" height="23">
<path fill-rule="evenodd" clip-rule="evenodd" d="M3.5 22.5C1.84315 22.5 0.5 21.1569 0.5 19.5V3.5C0.5 1.84315 1.84315 0.5 3.5 0.5H8.5C9.05228 0.5 9.5 0.947715 9.5 1.5C9.5 2.05228 9.05228 2.5 8.5 2.5H3.5C2.94772 2.5 2.5 2.94772 2.5 3.5V19.5C2.5 20.0523 2.94772 20.5 3.5 20.5H8.5C9.05228 20.5 9.5 20.9477 9.5 21.5C9.5 22.0523 9.05228 22.5 8.5 22.5H3.5ZM14.793 16.207C14.4026 15.8165 14.4026 15.1835 14.793 14.793L17.086 12.5H7.5C6.94772 12.5 6.5 12.0523 6.5 11.5C6.5 10.9477 6.94772 10.5 7.5 10.5H17.086L14.793 8.207C14.533 7.95593 14.4288 7.58412 14.5203 7.23449C14.6118 6.88486 14.8849 6.61182 15.2345 6.5203C15.5841 6.42879 15.9559 6.53304 16.207 6.793L20.207 10.793L20.246 10.833C20.6043 11.2282 20.5893 11.835 20.212 12.212L16.212 16.212C15.8215 16.6024 15.1885 16.6024 14.798 16.212L14.793 16.207Z" fill="white"/>
</mask>
<g mask="url(#mask0_0_12164)">
<rect x="-1.5" y="-0.5" width="24" height="24" fill="#333333"/>
</g>
</svg>
