<svg width="23" height="19" viewBox="0 0 23 19" fill="none" xmlns="http://www.w3.org/2000/svg">
<path fill-rule="evenodd" clip-rule="evenodd" d="M3.5 18.5C1.84315 18.5 0.5 17.1569 0.5 15.5V3.51V3.48C0.510994 1.83096 1.85092 0.499963 3.5 0.5H19.5C21.1569 0.5 22.5 1.84315 22.5 3.5V15.5C22.5 17.1569 21.1569 18.5 19.5 18.5H3.5ZM2.5 15.5C2.5 16.0523 2.94772 16.5 3.5 16.5H19.5C20.0523 16.5 20.5 16.0523 20.5 15.5V5.421L12.073 11.321C11.7287 11.5621 11.2703 11.5621 10.926 11.321L2.5 5.421V15.5ZM20.395 3.054L11.5 9.28L2.605 3.053C2.77442 2.71395 3.12097 2.49982 3.5 2.5H19.5C19.8792 2.50001 20.2259 2.71456 20.395 3.054Z" fill="#333333"/>
<mask id="mask0_0_13799" style="mask-type:alpha" maskUnits="userSpaceOnUse" x="0" y="0" width="23" height="19">
<path fill-rule="evenodd" clip-rule="evenodd" d="M3.5 18.5C1.84315 18.5 0.5 17.1569 0.5 15.5V3.51C0.5 3.5 0.5 3.49 0.5 3.48C0.510994 1.83096 1.85092 0.499963 3.5 0.5H19.5C21.1569 0.5 22.5 1.84315 22.5 3.5V15.5C22.5 17.1569 21.1569 18.5 19.5 18.5H3.5ZM2.5 15.5C2.5 16.0523 2.94772 16.5 3.5 16.5H19.5C20.0523 16.5 20.5 16.0523 20.5 15.5V5.421L12.073 11.321C11.7287 11.5621 11.2703 11.5621 10.926 11.321L2.5 5.421V15.5ZM11.5 9.28L20.395 3.054C20.2259 2.71456 19.8792 2.50001 19.5 2.5H3.5C3.12097 2.49982 2.77442 2.71395 2.605 3.053L11.5 9.28Z" fill="white"/>
</mask>
<g mask="url(#mask0_0_13799)">
<rect x="-0.5" y="-2.5" width="24" height="24" fill="#333333"/>
</g>
</svg>
