<svg width="25" height="23" viewBox="0 0 25 23" fill="none" xmlns="http://www.w3.org/2000/svg">
<path fill-rule="evenodd" clip-rule="evenodd" d="M0.500065 21.499C0.497841 21.7715 0.608204 22.0327 0.805065 22.221C0.993019 22.3986 1.2415 22.498 1.50007 22.499C1.67532 22.5009 1.84791 22.456 2.00007 22.369L8.53207 18.634L16.0781 22.4L16.0991 22.41H16.1061L16.1231 22.418H16.1321L16.1521 22.426L16.1781 22.436L16.2021 22.444L16.2281 22.452C16.2933 22.4711 16.3603 22.4835 16.4281 22.489H16.4521H16.5831C16.6893 22.4817 16.7936 22.4574 16.8921 22.417L16.9171 22.406H16.9241L16.9391 22.399L17.0001 22.367L24.0001 18.367C24.3101 18.1881 24.5008 17.857 24.5001 17.499V1.49904C24.5001 0.94676 24.0523 0.499045 23.5001 0.499045C23.3245 0.498225 23.152 0.544129 23.0001 0.632045L16.4551 4.35404L8.94207 0.598045H8.93607L8.91407 0.588045H8.90707L8.89007 0.580045H8.88107L8.86107 0.572045L8.83507 0.562045L8.81107 0.554045L8.78507 0.546045C8.71986 0.526607 8.65285 0.513875 8.58507 0.508045H8.56107H8.38407C8.31092 0.518417 8.23915 0.536863 8.17006 0.563045H8.16406H8.15206L8.13607 0.581045H8.12706H8.11607H8.10807L8.09007 0.591045H8.08307L8.07507 0.607045H8.06606H8.05607L8.03707 0.617045L8.00006 0.637045L1.00006 4.63004C0.689742 4.80921 0.499 5.14072 0.500065 5.49904V21.499ZM15.5001 6.11904V19.882L9.50006 16.883V3.11904L15.5001 6.11904ZM17.5001 19.777L22.5001 16.92V3.22304L17.5001 6.08104V19.777ZM2.50007 19.781V6.08104L7.50006 3.22304V16.924L2.50007 19.781Z" fill="#333333"/>
<mask id="mask0_0_13964" style="mask-type:alpha" maskUnits="userSpaceOnUse" x="0" y="0" width="25" height="23">
<path fill-rule="evenodd" clip-rule="evenodd" d="M0.805065 22.221C0.608204 22.0327 0.497841 21.7715 0.500065 21.499V5.49904C0.499 5.14072 0.689742 4.80921 1.00006 4.63004L8.00006 0.637045L8.03707 0.617045V0.617045L8.05607 0.607045H8.06606H8.07507L8.08307 0.591045H8.09007L8.10807 0.581045H8.11607H8.12706H8.13607L8.15206 0.563045H8.16406H8.17007C8.23915 0.536863 8.31092 0.518417 8.38407 0.508045H8.56107H8.58507V0.508045C8.65285 0.513875 8.71986 0.526607 8.78507 0.546045V0.546045L8.81107 0.554045V0.554045L8.83507 0.562045V0.562045L8.86107 0.572045V0.572045L8.88106 0.580045H8.89006L8.90706 0.588045H8.91406L8.93607 0.598045V0.598045H8.94206L16.4551 4.35404L23.0001 0.632045C23.152 0.544129 23.3245 0.498225 23.5001 0.499045C24.0523 0.499045 24.5001 0.94676 24.5001 1.49904V17.499C24.5008 17.857 24.3101 18.1881 24.0001 18.367L17.0001 22.367L16.9391 22.399V22.399L16.9241 22.406H16.9171V22.406L16.8921 22.417V22.417C16.7936 22.4574 16.6893 22.4817 16.5831 22.489H16.4521H16.4281V22.489C16.3603 22.4835 16.2933 22.4711 16.2281 22.452V22.452L16.2021 22.444V22.444L16.1781 22.436V22.436L16.1521 22.426V22.426L16.1321 22.418H16.1231L16.1061 22.41H16.0991L16.0781 22.4V22.4V22.4V22.4L8.53206 18.634L2.00007 22.369C1.84791 22.456 1.67532 22.5009 1.50007 22.499C1.2415 22.498 0.993019 22.3986 0.805065 22.221ZM15.5001 19.882V6.11904L9.50006 3.11904V16.883L15.5001 19.882ZM17.5001 19.777L22.5001 16.92V3.22304L17.5001 6.08104V19.777ZM2.50007 6.08104V19.781L7.50007 16.924V3.22304L2.50007 6.08104Z" fill="white"/>
</mask>
<g mask="url(#mask0_0_13964)">
<rect x="0.5" y="-0.499939" width="24" height="24" fill="#333333"/>
</g>
</svg>
