<svg width="21" height="25" viewBox="0 0 21 25" fill="none" xmlns="http://www.w3.org/2000/svg">
<path fill-rule="evenodd" clip-rule="evenodd" d="M9.946 24.332C10.1101 24.4414 10.3028 24.4998 10.5 24.5C10.6977 24.4984 10.8905 24.4382 11.054 24.327C11.106 24.292 11.244 24.199 11.469 24.036C11.815 23.789 12.171 23.518 12.526 23.236C13.6594 22.3374 14.7287 21.3607 15.726 20.313C18.894 16.969 20.5 13.667 20.5 10.5C20.5 4.97715 16.0228 0.5 10.5 0.5C4.97715 0.5 0.5 4.97715 0.5 10.5C0.5 13.666 2.106 16.968 5.271 20.317C6.26859 21.3644 7.33784 22.3411 8.471 23.24C8.857 23.54 9.213 23.813 9.528 24.04C9.719 24.176 9.859 24.274 9.946 24.332ZM2.5 10.5C2.50496 6.08378 6.08378 2.50496 10.5 2.5C14.9162 2.50496 18.495 6.08378 18.5 10.5C18.5 13.139 17.078 15.978 14.274 18.937C13.3419 19.9166 12.3425 20.8298 11.283 21.67C11.2203 21.7184 11.1573 21.7673 11.0942 21.8163L11.094 21.8164C10.8963 21.9698 10.697 22.1245 10.5 22.27C10.242 22.081 9.978 21.879 9.717 21.67C8.65753 20.8298 7.65809 19.9166 6.726 18.937C3.922 15.977 2.5 13.139 2.5 10.5ZM10.5 14.5C8.29086 14.5 6.5 12.7091 6.5 10.5C6.5 8.29086 8.29086 6.5 10.5 6.5C12.7091 6.5 14.5 8.29086 14.5 10.5C14.5 11.5609 14.0786 12.5783 13.3284 13.3284C12.5783 14.0786 11.5609 14.5 10.5 14.5ZM8.5 10.5C8.5 9.39543 9.39543 8.5 10.5 8.5C11.6046 8.5 12.5 9.39543 12.5 10.5C12.5 11.6046 11.6046 12.5 10.5 12.5C9.39543 12.5 8.5 11.6046 8.5 10.5Z" fill="#333333"/>
<mask id="mask0_0_13010" style="mask-type:alpha" maskUnits="userSpaceOnUse" x="0" y="0" width="21" height="25">
<path fill-rule="evenodd" clip-rule="evenodd" d="M10.5 24.5C10.3028 24.4998 10.1101 24.4414 9.946 24.332C9.859 24.274 9.719 24.176 9.528 24.04C9.213 23.813 8.857 23.54 8.471 23.24C7.33784 22.3411 6.26859 21.3644 5.271 20.317C2.106 16.968 0.5 13.666 0.5 10.5C0.5 4.97715 4.97715 0.5 10.5 0.5C16.0228 0.5 20.5 4.97715 20.5 10.5C20.5 13.667 18.894 16.969 15.726 20.313C14.7287 21.3607 13.6594 22.3374 12.526 23.236C12.171 23.518 11.815 23.789 11.469 24.036C11.244 24.199 11.106 24.292 11.054 24.327C10.8905 24.4382 10.6977 24.4984 10.5 24.5ZM10.5 2.5C6.08378 2.50496 2.50496 6.08378 2.5 10.5C2.5 13.139 3.922 15.977 6.726 18.937C7.65809 19.9166 8.65752 20.8298 9.717 21.67C9.978 21.879 10.242 22.081 10.5 22.27C10.76 22.078 11.024 21.87 11.283 21.67C12.3425 20.8298 13.3419 19.9166 14.274 18.937C17.078 15.978 18.5 13.139 18.5 10.5C18.495 6.08378 14.9162 2.50496 10.5 2.5ZM10.5 14.5C8.29086 14.5 6.5 12.7091 6.5 10.5C6.5 8.29086 8.29086 6.5 10.5 6.5C12.7091 6.5 14.5 8.29086 14.5 10.5C14.5 11.5609 14.0786 12.5783 13.3284 13.3284C12.5783 14.0786 11.5609 14.5 10.5 14.5ZM10.5 8.5C9.39543 8.5 8.5 9.39543 8.5 10.5C8.5 11.6046 9.39543 12.5 10.5 12.5C11.6046 12.5 12.5 11.6046 12.5 10.5C12.5 9.39543 11.6046 8.5 10.5 8.5Z" fill="white"/>
</mask>
<g mask="url(#mask0_0_13010)">
<rect x="-1.5" y="0.5" width="24" height="24" fill="#333333"/>
</g>
</svg>
