<svg width="21" height="21" viewBox="0 0 21 21" fill="none" xmlns="http://www.w3.org/2000/svg">
<path fill-rule="evenodd" clip-rule="evenodd" d="M11.4997 8.49951C11.4997 8.76492 11.6052 9.01944 11.793 9.20701V9.20801C12.1835 9.59839 12.8165 9.59839 13.207 9.20801L18.5 3.91501V7.50001C18.5 8.0523 18.9477 8.50001 19.5 8.50001C20.0523 8.50001 20.5 8.0523 20.5 7.50001V1.52801C20.512 1.14986 20.3096 0.79729 19.977 0.617011L19.958 0.607011H19.952L19.938 0.600011L19.926 0.590011H19.918L19.9 0.582011C19.7737 0.527458 19.6376 0.499543 19.5 0.500011H13.5C12.9477 0.500011 12.5 0.947727 12.5 1.50001C12.5 2.0523 12.9477 2.50001 13.5 2.50001H17.085L11.793 7.79201C11.6052 7.97958 11.4997 8.2341 11.4997 8.49951ZM0.621001 19.977C0.666969 20.0616 0.7249 20.139 0.793001 20.207C0.980494 20.3946 1.23481 20.5 1.5 20.5H7.5C8.05229 20.5 8.5 20.0523 8.5 19.5C8.5 18.9477 8.05229 18.5 7.5 18.5H3.915L9.208 13.208C9.46059 12.9552 9.55914 12.5869 9.46653 12.2418C9.37392 11.8967 9.10423 11.6272 8.75903 11.5348C8.41384 11.4424 8.04559 11.5412 7.793 11.794L2.5 17.086V13.5C2.5 12.9477 2.05229 12.5 1.5 12.5C0.947716 12.5 0.5 12.9477 0.5 13.5V19.5C0.499848 19.6376 0.528104 19.7738 0.583001 19.9L0.600001 19.918V19.926V19.938L0.611001 19.952V19.958L0.621001 19.977Z" fill="#333333"/>
<mask id="mask0_0_13040" style="mask-type:alpha" maskUnits="userSpaceOnUse" x="0" y="0" width="21" height="21">
<path fill-rule="evenodd" clip-rule="evenodd" d="M0.793001 20.207C0.7249 20.139 0.666969 20.0616 0.621001 19.977V19.977L0.611001 19.958V19.952L0.600001 19.938V19.926V19.918L0.583001 19.9V19.9C0.528104 19.7738 0.499848 19.6376 0.500001 19.5V13.5C0.500001 12.9477 0.947716 12.5 1.5 12.5C2.05229 12.5 2.5 12.9477 2.5 13.5V17.086L7.793 11.794C8.04559 11.5412 8.41384 11.4424 8.75903 11.5348C9.10423 11.6272 9.37392 11.8967 9.46653 12.2418C9.55914 12.5869 9.46059 12.9552 9.208 13.208L3.915 18.5H7.5C8.05229 18.5 8.5 18.9477 8.5 19.5C8.5 20.0523 8.05229 20.5 7.5 20.5H1.5C1.23481 20.5 0.980494 20.3946 0.793001 20.207ZM11.793 9.20701C11.6052 9.01944 11.4997 8.76492 11.4997 8.49951C11.4997 8.2341 11.6052 7.97958 11.793 7.79201L17.085 2.50001H13.5C12.9477 2.50001 12.5 2.0523 12.5 1.50001C12.5 0.947727 12.9477 0.500011 13.5 0.500011H19.5C19.6376 0.499543 19.7737 0.527458 19.9 0.582011V0.582011L19.918 0.590011H19.926L19.938 0.600011L19.952 0.607011H19.958L19.977 0.617011V0.617011C20.3096 0.79729 20.512 1.14986 20.5 1.52801V7.50001C20.5 8.0523 20.0523 8.50001 19.5 8.50001C18.9477 8.50001 18.5 8.0523 18.5 7.50001V3.91501L13.207 9.20801C12.8165 9.59839 12.1835 9.59839 11.793 9.20801V9.20701Z" fill="white"/>
</mask>
<g mask="url(#mask0_0_13040)">
<rect x="-1.5" y="-1.5" width="24" height="24" fill="#333333"/>
</g>
</svg>
