<svg width="21" height="21" viewBox="0 0 21 21" fill="none" xmlns="http://www.w3.org/2000/svg">
<path fill-rule="evenodd" clip-rule="evenodd" d="M18.5 6.5V3.5C18.5 2.94772 18.0523 2.5 17.5 2.5H14.5C13.9477 2.5 13.5 2.05228 13.5 1.5C13.5 0.947715 13.9477 0.5 14.5 0.5H17.5C19.1569 0.5 20.5 1.84315 20.5 3.5V6.5C20.5 7.05228 20.0523 7.5 19.5 7.5C18.9477 7.5 18.5 7.05228 18.5 6.5ZM0.5 17.5C0.5 19.1569 1.84315 20.5 3.5 20.5H6.5C7.05228 20.5 7.5 20.0523 7.5 19.5C7.5 18.9477 7.05228 18.5 6.5 18.5H3.5C2.94772 18.5 2.5 18.0523 2.5 17.5V14.5C2.5 13.9477 2.05228 13.5 1.5 13.5C0.947715 13.5 0.5 13.9477 0.5 14.5V17.5ZM13.5 19.5C13.5 20.0523 13.9477 20.5 14.5 20.5H17.5C19.1569 20.5 20.5 19.1569 20.5 17.5V14.5C20.5 13.9477 20.0523 13.5 19.5 13.5C18.9477 13.5 18.5 13.9477 18.5 14.5V17.5C18.5 18.0523 18.0523 18.5 17.5 18.5H14.5C13.9477 18.5 13.5 18.9477 13.5 19.5ZM0.5 3.5V6.5C0.5 7.05228 0.947715 7.5 1.5 7.5C2.05228 7.5 2.5 7.05228 2.5 6.5V3.5C2.5 2.94772 2.94772 2.5 3.5 2.5H6.5C7.05228 2.5 7.5 2.05228 7.5 1.5C7.5 0.947715 7.05228 0.5 6.5 0.5H3.5C1.84315 0.5 0.5 1.84315 0.5 3.5Z" fill="#333333"/>
<mask id="mask0_0_12963" style="mask-type:alpha" maskUnits="userSpaceOnUse" x="0" y="0" width="21" height="21">
<path fill-rule="evenodd" clip-rule="evenodd" d="M14.5 20.5C13.9477 20.5 13.5 20.0523 13.5 19.5C13.5 18.9477 13.9477 18.5 14.5 18.5H17.5C18.0523 18.5 18.5 18.0523 18.5 17.5V14.5C18.5 13.9477 18.9477 13.5 19.5 13.5C20.0523 13.5 20.5 13.9477 20.5 14.5V17.5C20.5 19.1569 19.1569 20.5 17.5 20.5H14.5ZM3.5 20.5C1.84315 20.5 0.5 19.1569 0.5 17.5V14.5C0.5 13.9477 0.947715 13.5 1.5 13.5C2.05228 13.5 2.5 13.9477 2.5 14.5V17.5C2.5 18.0523 2.94772 18.5 3.5 18.5H6.5C7.05228 18.5 7.5 18.9477 7.5 19.5C7.5 20.0523 7.05228 20.5 6.5 20.5H3.5ZM18.5 6.5V3.5C18.5 2.94772 18.0523 2.5 17.5 2.5H14.5C13.9477 2.5 13.5 2.05228 13.5 1.5C13.5 0.947715 13.9477 0.5 14.5 0.5H17.5C19.1569 0.5 20.5 1.84315 20.5 3.5V6.5C20.5 7.05228 20.0523 7.5 19.5 7.5C18.9477 7.5 18.5 7.05228 18.5 6.5ZM0.5 6.5V3.5C0.5 1.84315 1.84315 0.5 3.5 0.5H6.5C7.05228 0.5 7.5 0.947715 7.5 1.5C7.5 2.05228 7.05228 2.5 6.5 2.5H3.5C2.94772 2.5 2.5 2.94772 2.5 3.5V6.5C2.5 7.05228 2.05228 7.5 1.5 7.5C0.947715 7.5 0.5 7.05228 0.5 6.5Z" fill="white"/>
</mask>
<g mask="url(#mask0_0_12963)">
<rect x="-1.5" y="-1.5" width="24" height="24" fill="#333333"/>
</g>
</svg>
