<svg width="21" height="21" viewBox="0 0 21 21" fill="none" xmlns="http://www.w3.org/2000/svg">
<mask id="mask0_0_11975" style="mask-type:alpha" maskUnits="userSpaceOnUse" x="0" y="0" width="21" height="21">
<path fill-rule="evenodd" clip-rule="evenodd" d="M1.50713 20.5C1.24749 20.4997 0.99751 20.4015 0.807127 20.225C0.608256 20.0367 0.496985 19.7739 0.500127 19.5V3.5C0.500127 1.84315 1.84327 0.5 3.50013 0.5H17.5001C19.157 0.5 20.5001 1.84315 20.5001 3.5V13.5C20.5001 15.1569 19.157 16.5 17.5001 16.5H5.91413L2.20713 20.207C2.02223 20.3941 1.7702 20.4996 1.50713 20.5ZM3.50013 2.5C2.94784 2.5 2.50013 2.94772 2.50013 3.5V17.086L4.79313 14.793C4.98105 14.6061 5.23508 14.5008 5.50013 14.5H17.5001C18.0524 14.5 18.5001 14.0523 18.5001 13.5V3.5C18.5001 2.94772 18.0524 2.5 17.5001 2.5H3.50013Z" fill="white"/>
</mask>
<g mask="url(#mask0_0_11975)">
<rect x="-1.49976" y="-1.5" width="24" height="24" fill="#333333"/>
</g>
</svg>
