<svg width="21" height="21" viewBox="0 0 21 21" fill="none" xmlns="http://www.w3.org/2000/svg">
<mask id="mask0_0_12176" style="mask-type:alpha" maskUnits="userSpaceOnUse" x="0" y="0" width="21" height="21">
<path fill-rule="evenodd" clip-rule="evenodd" d="M1.50002 20.5C1.17851 20.4982 0.877489 20.3419 0.691019 20.08C0.50182 19.82 0.451425 19.4841 0.556019 19.18L2.32802 13.862C1.77924 12.6486 1.4969 11.3317 1.50002 10C1.5044 4.7633 5.74235 0.51597 10.979 0.5H11H11.554C16.3962 0.776525 20.2526 4.65621 20.5 9.5V10C20.5 15.2467 16.2467 19.5 11 19.5H10.975C9.65002 19.5015 8.33992 19.2206 7.13202 18.676L1.81802 20.449C1.71542 20.4828 1.60806 20.5001 1.50002 20.5V20.5ZM10.982 2.5C8.38632 2.5049 5.97794 3.85251 4.61591 6.06215C3.25387 8.2718 3.13209 11.0289 4.29402 13.35C4.41353 13.5882 4.43367 13.864 4.35002 14.117L3.08302 17.917L6.88302 16.65C6.98528 16.6163 7.09234 16.5994 7.20002 16.6C7.35663 16.6001 7.51105 16.6367 7.65102 16.707C8.68492 17.2278 9.82636 17.4994 10.984 17.5H11C13.8419 17.499 16.439 15.8918 17.708 13.349C18.231 12.3102 18.5023 11.163 18.5 10V9.553C18.3984 7.71582 17.6251 5.98008 16.327 4.676C15.0422 3.37905 13.3226 2.60387 11.5 2.5H10.981H10.982Z" fill="white"/>
</mask>
<g mask="url(#mask0_0_12176)">
<rect x="-1.5" y="-1.5" width="24" height="24" fill="#333333"/>
</g>
</svg>
