<svg width="17" height="25" viewBox="0 0 17 25" fill="none" xmlns="http://www.w3.org/2000/svg">
<path fill-rule="evenodd" clip-rule="evenodd" d="M8.5 16.5C6.292 16.4972 4.50275 14.708 4.5 12.5V4.5C4.5 2.29086 6.29086 0.5 8.5 0.5C10.7091 0.5 12.5 2.29086 12.5 4.5V12.5C12.5 14.7091 10.7091 16.5 8.5 16.5ZM4.5 24.5C3.94772 24.5 3.5 24.0523 3.5 23.5C3.5 22.9477 3.94772 22.5 4.5 22.5H7.5V20.438C3.50149 19.9307 0.503174 16.5306 0.5 12.5V10.5C0.5 9.94771 0.947715 9.5 1.5 9.5C2.05228 9.5 2.5 9.94771 2.5 10.5V12.5C2.5 15.8137 5.18629 18.5 8.5 18.5C11.8137 18.5 14.5 15.8137 14.5 12.5V10.5C14.5 9.94771 14.9477 9.5 15.5 9.5C16.0523 9.5 16.5 9.94771 16.5 10.5V12.5C16.4973 16.5307 13.4987 19.9311 9.5 20.438V22.5H12.5C13.0523 22.5 13.5 22.9477 13.5 23.5C13.5 24.0523 13.0523 24.5 12.5 24.5H4.5ZM6.5 4.5C6.5 3.39543 7.39543 2.5 8.5 2.5C9.60457 2.5 10.5 3.39543 10.5 4.5V12.5C10.5 13.6046 9.60457 14.5 8.5 14.5C7.39543 14.5 6.5 13.6046 6.5 12.5V4.5Z" fill="#333333"/>
<mask id="mask0_0_14556" style="mask-type:alpha" maskUnits="userSpaceOnUse" x="0" y="0" width="17" height="25">
<path fill-rule="evenodd" clip-rule="evenodd" d="M12.5 24.5H4.5C3.94772 24.5 3.5 24.0523 3.5 23.5C3.5 22.9477 3.94772 22.5 4.5 22.5H7.5V20.438C3.50149 19.9307 0.503174 16.5306 0.5 12.5V10.5C0.5 9.94772 0.947715 9.5 1.5 9.5C2.05228 9.5 2.5 9.94772 2.5 10.5V12.5C2.5 15.8137 5.18629 18.5 8.5 18.5C11.8137 18.5 14.5 15.8137 14.5 12.5V10.5C14.5 9.94772 14.9477 9.5 15.5 9.5C16.0523 9.5 16.5 9.94772 16.5 10.5V12.5C16.4973 16.5307 13.4987 19.9311 9.5 20.438V22.5H12.5C13.0523 22.5 13.5 22.9477 13.5 23.5C13.5 24.0523 13.0523 24.5 12.5 24.5ZM8.5 16.5C6.292 16.4972 4.50275 14.708 4.5 12.5V4.5C4.5 2.29086 6.29086 0.5 8.5 0.5C10.7091 0.5 12.5 2.29086 12.5 4.5V12.5C12.5 14.7091 10.7091 16.5 8.5 16.5ZM8.5 2.5C7.39543 2.5 6.5 3.39543 6.5 4.5V12.5C6.5 13.6046 7.39543 14.5 8.5 14.5C9.60457 14.5 10.5 13.6046 10.5 12.5V4.5C10.5 3.39543 9.60457 2.5 8.5 2.5Z" fill="white"/>
</mask>
<g mask="url(#mask0_0_14556)">
<rect x="-3.5" y="0.5" width="24" height="24" fill="#333333"/>
</g>
</svg>
