<svg width="23" height="25" viewBox="0 0 23 25" fill="none" xmlns="http://www.w3.org/2000/svg">
<path fill-rule="evenodd" clip-rule="evenodd" d="M16.023 18.852L20.935 24.211L20.931 24.215C21.0949 24.4026 21.3319 24.5103 21.581 24.5103C21.8301 24.5103 22.0671 24.4026 22.231 24.215C22.5892 23.8113 22.5892 23.2037 22.231 22.8L16.88 16.958C16.8384 16.8783 16.7863 16.8047 16.725 16.739C16.6694 16.6793 16.6062 16.6272 16.537 16.584L2.06801 0.799982C1.90395 0.612636 1.66703 0.505188 1.41801 0.505188C1.16898 0.505188 0.932064 0.612636 0.768005 0.799982C0.412781 1.20286 0.412781 1.8071 0.768005 2.20998L7.833 9.91698V12.5C7.80074 14.0703 8.68625 15.5156 10.1 16.2C11.1584 16.6773 12.3873 16.5816 13.359 15.946L14.712 17.422C13.8698 18.0915 12.8411 18.4841 11.767 18.546C11.5921 18.4874 11.4029 18.4874 11.228 18.546C10.5963 18.5117 9.97648 18.3605 9.40001 18.1C7.26695 17.0663 5.93681 14.8794 6.00001 12.51V10.5C6.02204 9.97132 5.61257 9.5243 5.08401 9.49998C4.55504 9.52377 4.14498 9.97094 4.16701 10.5V12.5C4.08299 15.6583 5.85648 18.573 8.70001 19.95C9.29846 20.2199 9.93261 20.4025 10.583 20.492V22.5H7.833C7.28072 22.5 6.833 22.9477 6.833 23.5C6.833 24.0523 7.28072 24.5 7.833 24.5H15.166C15.7183 24.5 16.166 24.0523 16.166 23.5C16.166 22.9477 15.7183 22.5 15.166 22.5H12.417V20.492C13.7516 20.3029 15.0034 19.7336 16.023 18.852ZM10.8 14.348C10.0939 14.006 9.65144 13.2844 9.66701 12.5V11.917L11.974 14.433C11.5851 14.5464 11.1685 14.5163 10.8 14.348ZM17.655 14.715C17.1384 14.5869 16.8127 14.0765 16.914 13.554C16.9715 13.2056 17.0003 12.8531 17 12.5V10.5C16.9697 10.1534 17.1374 9.81941 17.4335 9.63678C17.7296 9.45415 18.1034 9.45415 18.3995 9.63678C18.6956 9.81941 18.8633 10.1534 18.833 10.5V12.5C18.833 12.971 18.7946 13.4412 18.718 13.906C18.66 14.3637 18.2791 14.7121 17.818 14.729C17.7631 14.7303 17.7082 14.7263 17.654 14.717L17.655 14.715ZM13.333 4.49998V9.83998C13.3027 10.1865 13.4704 10.5206 13.7665 10.7032C14.0626 10.8858 14.4364 10.8858 14.7325 10.7032C15.0286 10.5206 15.1963 10.1865 15.166 9.83998V4.49998C15.2358 2.52922 13.8184 0.818641 11.869 0.520982C9.9181 0.374699 8.18694 1.76373 7.90701 3.69998C7.79154 4.22051 8.10478 4.74008 8.61901 4.88098C8.86671 4.92677 9.12237 4.86922 9.32655 4.7217C9.53074 4.57418 9.66568 4.34953 9.70001 4.09998C9.83885 3.12961 10.7066 2.43331 11.684 2.50798C12.6599 2.65669 13.3692 3.5135 13.333 4.49998Z" fill="#333333"/>
<mask id="mask0_0_12022" style="mask-type:alpha" maskUnits="userSpaceOnUse" x="0" y="0" width="23" height="25">
<path fill-rule="evenodd" clip-rule="evenodd" d="M20.935 24.211L16.023 18.852C15.0034 19.7336 13.7516 20.3029 12.417 20.492V22.5H15.166C15.7183 22.5 16.166 22.9477 16.166 23.5C16.166 24.0523 15.7183 24.5 15.166 24.5H7.833C7.28072 24.5 6.833 24.0523 6.833 23.5C6.833 22.9477 7.28072 22.5 7.833 22.5H10.583V20.492C9.93261 20.4025 9.29846 20.2199 8.70001 19.95C5.85648 18.573 4.08299 15.6583 4.16701 12.5V10.5C4.14498 9.97094 4.55504 9.52377 5.08401 9.49998C5.61257 9.5243 6.02204 9.97132 6.00001 10.5V12.51C5.93681 14.8794 7.26695 17.0663 9.40001 18.1C9.97648 18.3605 10.5963 18.5117 11.228 18.546C11.4029 18.4874 11.5921 18.4874 11.767 18.546C12.8411 18.4841 13.8698 18.0915 14.712 17.422L13.359 15.946C12.3873 16.5816 11.1584 16.6773 10.1 16.2C8.68625 15.5156 7.80074 14.0703 7.833 12.5V9.91698L0.768005 2.20998C0.412781 1.8071 0.412781 1.20286 0.768005 0.799982C0.932064 0.612636 1.16898 0.505188 1.41801 0.505188C1.66703 0.505188 1.90395 0.612636 2.06801 0.799982L16.537 16.584C16.6062 16.6272 16.6694 16.6793 16.725 16.739C16.7863 16.8047 16.8384 16.8783 16.88 16.958L22.231 22.8C22.5892 23.2037 22.5892 23.8113 22.231 24.215C22.0671 24.4026 21.8301 24.5103 21.581 24.5103C21.3319 24.5103 21.0949 24.4026 20.931 24.215L20.935 24.211ZM9.66701 12.5C9.65144 13.2844 10.0939 14.006 10.8 14.348C11.1685 14.5163 11.5851 14.5464 11.974 14.433L9.66701 11.917V12.5ZM17.655 14.715C17.1384 14.5869 16.8127 14.0765 16.914 13.554C16.9715 13.2056 17.0003 12.8531 17 12.5V10.5C16.9697 10.1534 17.1374 9.81941 17.4335 9.63678C17.7296 9.45415 18.1034 9.45415 18.3995 9.63678C18.6956 9.81941 18.8633 10.1534 18.833 10.5V12.5C18.833 12.971 18.7946 13.4412 18.718 13.906C18.66 14.3637 18.2791 14.7121 17.818 14.729C17.7631 14.7303 17.7082 14.7263 17.654 14.717L17.655 14.715ZM13.333 9.84298V4.49998C13.3692 3.5135 12.6599 2.65669 11.684 2.50798C10.7066 2.43331 9.83885 3.12961 9.70001 4.09998C9.66568 4.34953 9.53074 4.57418 9.32655 4.7217C9.12237 4.86922 8.86671 4.92677 8.61901 4.88098C8.10478 4.74008 7.79154 4.22051 7.90701 3.69998C8.18694 1.76373 9.9181 0.374699 11.869 0.520982C13.8184 0.818641 15.2358 2.52922 15.166 4.49998V9.83998C15.1963 10.1865 15.0286 10.5206 14.7325 10.7032C14.4364 10.8858 14.0626 10.8858 13.7665 10.7032C13.4704 10.5206 13.3027 10.1865 13.333 9.83998V9.84298Z" fill="white"/>
</mask>
<g mask="url(#mask0_0_12022)">
<rect x="0.5" y="0.5" width="24" height="24" fill="#333333"/>
</g>
</svg>
