<svg width="20" height="27" viewBox="0 0 20 27" fill="none" xmlns="http://www.w3.org/2000/svg">
<path fill-rule="evenodd" clip-rule="evenodd" d="M12.4614 15.7849C11.6945 16.584 10.6524 17.0327 9.566 17.0316C8.47812 17.0333 7.43435 16.5852 6.6651 15.7863C5.89586 14.9875 5.4644 13.9035 5.466 12.7737V4.25791C5.466 1.90633 7.30163 0 9.566 0C11.8304 0 13.666 1.90633 13.666 4.25791L13.652 12.7737C13.6568 13.902 13.2283 14.9857 12.4614 15.7849ZM14.6355 17.9552C15.9948 16.5969 16.777 14.7322 16.809 12.7735L19.133 12.7725C19.0125 17.6059 15.5439 21.6399 10.933 22.3092V26.9648H8.2V22.3102C3.59137 21.6365 0.124974 17.6051 0 12.7735H2.323C2.35501 14.7322 3.13718 16.5969 4.49647 17.9552C5.85575 19.3134 7.68013 20.0532 9.566 20.0109C11.4519 20.0532 13.2762 19.3134 14.6355 17.9552Z" fill="#FC5566"/>
</svg>
