<svg width="21" height="21" viewBox="0 0 21 21" fill="none" xmlns="http://www.w3.org/2000/svg">
<path fill-rule="evenodd" clip-rule="evenodd" d="M16.5 7.5C14.8431 7.5 13.5 6.15685 13.5 4.5V1.5C13.5 0.947715 13.9477 0.5 14.5 0.5C15.0523 0.5 15.5 0.947715 15.5 1.5V4.5C15.5 5.05228 15.9477 5.5 16.5 5.5H19.5C20.0523 5.5 20.5 5.94772 20.5 6.5C20.5 7.05228 20.0523 7.5 19.5 7.5H16.5ZM5.5 16.5V19.5C5.5 20.0523 5.94772 20.5 6.5 20.5C7.05228 20.5 7.5 20.0523 7.5 19.5V16.5C7.5 14.8431 6.15685 13.5 4.5 13.5H1.5C0.947715 13.5 0.5 13.9477 0.5 14.5C0.5 15.0523 0.947715 15.5 1.5 15.5H4.5C5.05228 15.5 5.5 15.9477 5.5 16.5ZM13.5 16.5V19.5C13.5 20.0523 13.9477 20.5 14.5 20.5C15.0523 20.5 15.5 20.0523 15.5 19.5V16.5C15.5 15.9477 15.9477 15.5 16.5 15.5H19.5C20.0523 15.5 20.5 15.0523 20.5 14.5C20.5 13.9477 20.0523 13.5 19.5 13.5H16.5C14.8431 13.5 13.5 14.8431 13.5 16.5ZM0.5 6.5C0.5 7.05228 0.947715 7.5 1.5 7.5H4.5C6.15685 7.5 7.5 6.15685 7.5 4.5V1.5C7.5 0.947715 7.05228 0.5 6.5 0.5C5.94772 0.5 5.5 0.947715 5.5 1.5V4.5C5.5 5.05228 5.05228 5.5 4.5 5.5H1.5C0.947715 5.5 0.5 5.94772 0.5 6.5Z" fill="#333333"/>
<mask id="mask0_0_14480" style="mask-type:alpha" maskUnits="userSpaceOnUse" x="0" y="0" width="21" height="21">
<path fill-rule="evenodd" clip-rule="evenodd" d="M13.5 19.5V16.5C13.5 14.8431 14.8431 13.5 16.5 13.5H19.5C20.0523 13.5 20.5 13.9477 20.5 14.5C20.5 15.0523 20.0523 15.5 19.5 15.5H16.5C15.9477 15.5 15.5 15.9477 15.5 16.5V19.5C15.5 20.0523 15.0523 20.5 14.5 20.5C13.9477 20.5 13.5 20.0523 13.5 19.5ZM5.5 19.5V16.5C5.5 15.9477 5.05228 15.5 4.5 15.5H1.5C0.947715 15.5 0.5 15.0523 0.5 14.5C0.5 13.9477 0.947715 13.5 1.5 13.5H4.5C6.15685 13.5 7.5 14.8431 7.5 16.5V19.5C7.5 20.0523 7.05228 20.5 6.5 20.5C5.94772 20.5 5.5 20.0523 5.5 19.5ZM16.5 7.5C14.8431 7.5 13.5 6.15685 13.5 4.5V1.5C13.5 0.947715 13.9477 0.5 14.5 0.5C15.0523 0.5 15.5 0.947715 15.5 1.5V4.5C15.5 5.05228 15.9477 5.5 16.5 5.5H19.5C20.0523 5.5 20.5 5.94772 20.5 6.5C20.5 7.05228 20.0523 7.5 19.5 7.5H16.5ZM1.5 7.5C0.947715 7.5 0.5 7.05228 0.5 6.5C0.5 5.94772 0.947715 5.5 1.5 5.5H4.5C5.05228 5.5 5.5 5.05228 5.5 4.5V1.5C5.5 0.947715 5.94772 0.5 6.5 0.5C7.05228 0.5 7.5 0.947715 7.5 1.5V4.5C7.5 6.15685 6.15685 7.5 4.5 7.5H1.5Z" fill="white"/>
</mask>
<g mask="url(#mask0_0_14480)">
<rect x="-1.5" y="-1.5" width="24" height="24" fill="#333333"/>
</g>
</svg>
