<svg width="21" height="21" viewBox="0 0 21 21" fill="none" xmlns="http://www.w3.org/2000/svg">
<path fill-rule="evenodd" clip-rule="evenodd" d="M11.5 8.49996C11.5 9.05224 11.9478 9.49996 12.5 9.49996H18.5C19.0523 9.49996 19.5 9.05224 19.5 8.49996C19.5 7.94767 19.0523 7.49996 18.5 7.49996H14.914L20.207 2.20796C20.4598 1.95519 20.5585 1.58678 20.466 1.24149C20.3735 0.89621 20.1038 0.626512 19.7585 0.533994C19.4132 0.441475 19.0448 0.540191 18.792 0.792957L13.5 6.08596V2.49996C13.5 1.94767 13.0523 1.49996 12.5 1.49996C11.9478 1.49996 11.5 1.94767 11.5 2.49996V8.49996ZM0.499756 19.4995C0.499756 19.7649 0.605265 20.0194 0.793043 20.207H0.792043C0.979611 20.3947 1.23413 20.5002 1.49954 20.5002C1.76495 20.5002 2.01947 20.3947 2.20704 20.207L7.50004 14.914V18.5C7.50004 19.0522 7.94776 19.5 8.50004 19.5C9.05233 19.5 9.50004 19.0522 9.50004 18.5V12.5C9.50004 11.9477 9.05233 11.5 8.50004 11.5H2.50004C1.94776 11.5 1.50004 11.9477 1.50004 12.5C1.50004 13.0522 1.94776 13.5 2.50004 13.5H6.08604L0.793043 18.792C0.605265 18.9795 0.499756 19.234 0.499756 19.4995Z" fill="#333333"/>
<mask id="mask0_0_12397" style="mask-type:alpha" maskUnits="userSpaceOnUse" x="0" y="0" width="21" height="21">
<path fill-rule="evenodd" clip-rule="evenodd" d="M0.793043 20.207C0.605265 20.0194 0.499756 19.7649 0.499756 19.4995C0.499756 19.234 0.605265 18.9795 0.793043 18.792L6.08604 13.5H2.50004C1.94776 13.5 1.50004 13.0522 1.50004 12.5C1.50004 11.9477 1.94776 11.5 2.50004 11.5H8.50004C9.05233 11.5 9.50004 11.9477 9.50004 12.5V18.5C9.50004 19.0522 9.05233 19.5 8.50004 19.5C7.94776 19.5 7.50004 19.0522 7.50004 18.5V14.914L2.20704 20.207C2.01947 20.3947 1.76495 20.5002 1.49954 20.5002C1.23413 20.5002 0.979611 20.3947 0.792043 20.207H0.793043ZM12.5 9.49996C11.9478 9.49996 11.5 9.05224 11.5 8.49996V2.49996C11.5 1.94767 11.9478 1.49996 12.5 1.49996C13.0523 1.49996 13.5 1.94767 13.5 2.49996V6.08596L18.792 0.792957C19.0448 0.540191 19.4132 0.441475 19.7585 0.533994C20.1038 0.626512 20.3735 0.89621 20.466 1.24149C20.5585 1.58678 20.4598 1.95519 20.207 2.20796L14.914 7.49996H18.5C19.0523 7.49996 19.5 7.94767 19.5 8.49996C19.5 9.05224 19.0523 9.49996 18.5 9.49996H12.5Z" fill="white"/>
</mask>
<g mask="url(#mask0_0_12397)">
<rect x="-1.5" y="-1.50006" width="24" height="24" fill="#333333"/>
</g>
</svg>
