<svg width="17" height="3" viewBox="0 0 17 3" fill="none" xmlns="http://www.w3.org/2000/svg">
<path d="M1.5 2.5H15.5C16.0523 2.5 16.5 2.05228 16.5 1.5C16.5 0.947715 16.0523 0.5 15.5 0.5H1.5C0.947715 0.5 0.5 0.947715 0.5 1.5C0.5 2.05228 0.947715 2.5 1.5 2.5Z" fill="#333333"/>
<mask id="mask0_0_14081" style="mask-type:alpha" maskUnits="userSpaceOnUse" x="0" y="0" width="17" height="3">
<path fill-rule="evenodd" clip-rule="evenodd" d="M1.5 2.5H15.5C16.0523 2.5 16.5 2.05228 16.5 1.5C16.5 0.947715 16.0523 0.5 15.5 0.5H1.5C0.947715 0.5 0.5 0.947715 0.5 1.5C0.5 2.05228 0.947715 2.5 1.5 2.5Z" fill="white"/>
</mask>
<g mask="url(#mask0_0_14081)">
<rect x="-3.5" y="-10.5" width="24" height="24" fill="#333333"/>
</g>
</svg>
