<svg width="23" height="23" viewBox="0 0 23 23" fill="none" xmlns="http://www.w3.org/2000/svg">
<path fill-rule="evenodd" clip-rule="evenodd" d="M3.72213 19.278C0.912198 16.5055 -0.196668 12.4399 0.816497 8.62462C1.82966 4.80937 4.80949 1.82954 8.62474 0.816375C12.44 -0.19679 16.5056 0.912076 19.2781 3.72201C22.0881 6.49453 23.1969 10.5601 22.1838 14.3754C21.1706 18.1906 18.1908 21.1705 14.3755 22.1836C10.5603 23.1968 6.49465 22.0879 3.72213 19.278ZM2.50013 11.5C2.50013 16.4706 6.52957 20.5 11.5001 20.5C16.4707 20.5 20.5001 16.4706 20.5001 11.5C20.5001 6.52944 16.4707 2.50001 11.5001 2.50001C6.53185 2.50552 2.50564 6.53173 2.50013 11.5ZM6.50013 11.5C6.50013 12.0523 6.94784 12.5 7.50013 12.5H15.5001C16.0524 12.5 16.5001 12.0523 16.5001 11.5C16.5001 10.9477 16.0524 10.5 15.5001 10.5H7.50013C6.94784 10.5 6.50013 10.9477 6.50013 11.5Z" fill="#333333"/>
<mask id="mask0_0_12224" style="mask-type:alpha" maskUnits="userSpaceOnUse" x="0" y="0" width="23" height="23">
<path fill-rule="evenodd" clip-rule="evenodd" d="M3.72213 19.278C0.912198 16.5055 -0.196668 12.4399 0.816497 8.62462C1.82966 4.80937 4.80949 1.82954 8.62474 0.816375C12.44 -0.19679 16.5056 0.912076 19.2781 3.72201C22.0881 6.49453 23.1969 10.5601 22.1838 14.3754C21.1706 18.1906 18.1908 21.1705 14.3755 22.1836C10.5603 23.1968 6.49465 22.0879 3.72213 19.278V19.278ZM2.50013 11.5C2.50013 16.4706 6.52957 20.5 11.5001 20.5C16.4707 20.5 20.5001 16.4706 20.5001 11.5C20.5001 6.52944 16.4707 2.50001 11.5001 2.50001C6.53185 2.50552 2.50564 6.53173 2.50013 11.5ZM7.50013 12.5C6.94784 12.5 6.50013 12.0523 6.50013 11.5C6.50013 10.9477 6.94784 10.5 7.50013 10.5H15.5001C16.0524 10.5 16.5001 10.9477 16.5001 11.5C16.5001 12.0523 16.0524 12.5 15.5001 12.5H7.50013Z" fill="white"/>
</mask>
<g mask="url(#mask0_0_12224)">
<rect x="-0.499756" y="-0.5" width="24" height="24" fill="#333333"/>
</g>
</svg>
