<svg width="23" height="21" viewBox="0 0 23 21" fill="none" xmlns="http://www.w3.org/2000/svg">
<path fill-rule="evenodd" clip-rule="evenodd" d="M7.5 20.5H11.5H15.5C16.0523 20.5 16.5 20.0523 16.5 19.5C16.5 18.9477 16.0523 18.5 15.5 18.5H12.5V16.5H19.5C21.1569 16.5 22.5 15.1569 22.5 13.5V3.5C22.5 1.84315 21.1569 0.5 19.5 0.5H3.5C1.84315 0.5 0.5 1.84315 0.5 3.5V13.5C0.5 15.1569 1.84315 16.5 3.5 16.5H10.5V18.5H7.5C6.94772 18.5 6.5 18.9477 6.5 19.5C6.5 20.0523 6.94772 20.5 7.5 20.5ZM2.5 13.5V3.5C2.5 2.94772 2.94772 2.5 3.5 2.5H19.5C20.0523 2.5 20.5 2.94772 20.5 3.5V13.5C20.5 14.0523 20.0523 14.5 19.5 14.5H3.5C2.94772 14.5 2.5 14.0523 2.5 13.5Z" fill="#333333"/>
<mask id="mask0_0_14145" style="mask-type:alpha" maskUnits="userSpaceOnUse" x="0" y="0" width="23" height="21">
<path fill-rule="evenodd" clip-rule="evenodd" d="M11.5 20.5H7.5C6.94772 20.5 6.5 20.0523 6.5 19.5C6.5 18.9477 6.94772 18.5 7.5 18.5H10.5V16.5H3.5C1.84315 16.5 0.5 15.1569 0.5 13.5V3.5C0.5 1.84315 1.84315 0.5 3.5 0.5H19.5C21.1569 0.5 22.5 1.84315 22.5 3.5V13.5C22.5 15.1569 21.1569 16.5 19.5 16.5H12.5V18.5H15.5C16.0523 18.5 16.5 18.9477 16.5 19.5C16.5 20.0523 16.0523 20.5 15.5 20.5H11.5ZM2.5 3.5V13.5C2.5 14.0523 2.94772 14.5 3.5 14.5H19.5C20.0523 14.5 20.5 14.0523 20.5 13.5V3.5C20.5 2.94772 20.0523 2.5 19.5 2.5H3.5C2.94772 2.5 2.5 2.94772 2.5 3.5Z" fill="white"/>
</mask>
<g mask="url(#mask0_0_14145)">
<rect x="-0.5" y="-1.5" width="24" height="24" fill="#333333"/>
</g>
</svg>
