<svg width="21" height="21" viewBox="0 0 21 21" fill="none" xmlns="http://www.w3.org/2000/svg">
<mask id="mask0_0_14772" style="mask-type:alpha" maskUnits="userSpaceOnUse" x="0" y="0" width="21" height="21">
<path fill-rule="evenodd" clip-rule="evenodd" d="M10.5 20.462C10.4 20.462 10.292 20.462 10.189 20.462C4.87569 20.3393 0.586595 16.0818 0.42453 10.7696C0.262464 5.45737 4.28405 0.946382 9.57998 0.5C9.61298 0.5 9.64598 0.5 9.67998 0.5C10.0562 0.500601 10.3997 0.71399 10.567 1.051C10.741 1.38708 10.7063 1.79322 10.478 2.095C8.71222 4.48329 8.95957 7.80405 11.0597 9.90439C13.1597 12.0047 16.4805 12.2525 18.869 10.487C19.0389 10.3585 19.2459 10.2883 19.459 10.287C19.744 10.2882 20.0154 10.409 20.207 10.62C20.3954 10.8263 20.4871 11.103 20.459 11.381C19.9841 16.5264 15.6673 20.4627 10.5 20.462ZM7.77698 2.938C4.16556 4.24327 1.99101 7.93045 2.59623 11.7225C3.20144 15.5146 6.41568 18.3417 10.254 18.458C10.336 18.458 10.42 18.458 10.503 18.458C13.8695 18.4523 16.8738 16.3439 18.024 13.18C15.1059 14.2366 11.84 13.5101 9.64495 11.3161C7.44992 9.12215 6.72184 5.85662 7.77698 2.938V2.938Z" fill="white"/>
</mask>
<g mask="url(#mask0_0_14772)">
<rect x="-1.5" y="-1.5" width="24" height="24" fill="#333333"/>
</g>
</svg>
