<svg width="7" height="23" viewBox="0 0 7 23" fill="none" xmlns="http://www.w3.org/2000/svg">
<path fill-rule="evenodd" clip-rule="evenodd" d="M3.5 6.5C1.84315 6.5 0.5 5.15685 0.5 3.5C0.5 1.84315 1.84315 0.5 3.5 0.5C5.15685 0.5 6.5 1.84315 6.5 3.5C6.5 4.29565 6.18393 5.05871 5.62132 5.62132C5.05871 6.18393 4.29565 6.5 3.5 6.5ZM3.5 14.5C1.84315 14.5 0.5 13.1569 0.5 11.5C0.5 9.84315 1.84315 8.5 3.5 8.5C5.15685 8.5 6.5 9.84315 6.5 11.5C6.5 12.2956 6.18393 13.0587 5.62132 13.6213C5.05871 14.1839 4.29565 14.5 3.5 14.5ZM0.5 19.5C0.5 21.1569 1.84315 22.5 3.5 22.5C5.15685 22.5 6.5 21.1569 6.5 19.5C6.5 17.8431 5.15685 16.5 3.5 16.5C1.84315 16.5 0.5 17.8431 0.5 19.5ZM2.5 19.5C2.5 18.9477 2.94772 18.5 3.5 18.5C4.05228 18.5 4.5 18.9477 4.5 19.5C4.5 20.0523 4.05228 20.5 3.5 20.5C2.94772 20.5 2.5 20.0523 2.5 19.5ZM2.5 11.5C2.5 10.9477 2.94772 10.5 3.5 10.5C4.05228 10.5 4.5 10.9477 4.5 11.5C4.5 12.0523 4.05228 12.5 3.5 12.5C2.94772 12.5 2.5 12.0523 2.5 11.5ZM2.5 3.5C2.5 2.94772 2.94772 2.5 3.5 2.5C3.76522 2.5 4.01957 2.60536 4.20711 2.79289C4.39464 2.98043 4.5 3.23478 4.5 3.5C4.5 4.05228 4.05228 4.5 3.5 4.5C2.94772 4.5 2.5 4.05228 2.5 3.5Z" fill="#333333"/>
<mask id="mask0_0_13092" style="mask-type:alpha" maskUnits="userSpaceOnUse" x="0" y="0" width="7" height="23">
<path fill-rule="evenodd" clip-rule="evenodd" d="M3.5 22.5C1.84315 22.5 0.5 21.1569 0.5 19.5C0.5 17.8431 1.84315 16.5 3.5 16.5C5.15685 16.5 6.5 17.8431 6.5 19.5C6.5 21.1569 5.15685 22.5 3.5 22.5ZM3.5 18.5C2.94772 18.5 2.5 18.9477 2.5 19.5C2.5 20.0523 2.94772 20.5 3.5 20.5C4.05228 20.5 4.5 20.0523 4.5 19.5C4.5 18.9477 4.05228 18.5 3.5 18.5ZM3.5 14.5C1.84315 14.5 0.5 13.1569 0.5 11.5C0.5 9.84315 1.84315 8.5 3.5 8.5C5.15685 8.5 6.5 9.84315 6.5 11.5C6.5 12.2956 6.18393 13.0587 5.62132 13.6213C5.05871 14.1839 4.29565 14.5 3.5 14.5V14.5ZM3.5 10.5C2.94772 10.5 2.5 10.9477 2.5 11.5C2.5 12.0523 2.94772 12.5 3.5 12.5C4.05228 12.5 4.5 12.0523 4.5 11.5C4.5 10.9477 4.05228 10.5 3.5 10.5ZM3.5 6.5C1.84315 6.5 0.5 5.15685 0.5 3.5C0.5 1.84315 1.84315 0.5 3.5 0.5C5.15685 0.5 6.5 1.84315 6.5 3.5C6.5 4.29565 6.18393 5.05871 5.62132 5.62132C5.05871 6.18393 4.29565 6.5 3.5 6.5ZM3.5 2.5C2.94772 2.5 2.5 2.94772 2.5 3.5C2.5 4.05228 2.94772 4.5 3.5 4.5C4.05228 4.5 4.5 4.05228 4.5 3.5C4.5 3.23478 4.39464 2.98043 4.20711 2.79289C4.01957 2.60536 3.76522 2.5 3.5 2.5Z" fill="white"/>
</mask>
<g mask="url(#mask0_0_13092)">
<rect x="-8.5" y="-0.5" width="24" height="24" fill="#333333"/>
</g>
</svg>
