<svg width="23" height="7" viewBox="0 0 23 7" fill="none" xmlns="http://www.w3.org/2000/svg">
<path fill-rule="evenodd" clip-rule="evenodd" d="M3.5 6.5C1.84315 6.5 0.5 5.15685 0.5 3.5C0.5 1.84315 1.84315 0.5 3.5 0.5C5.15685 0.5 6.5 1.84315 6.5 3.5C6.5 4.29565 6.18393 5.05871 5.62132 5.62132C5.05871 6.18393 4.29565 6.5 3.5 6.5ZM8.5 3.5C8.5 1.84315 9.84315 0.5 11.5 0.5C13.1569 0.5 14.5 1.84315 14.5 3.5C14.5 5.15685 13.1569 6.5 11.5 6.5C9.84315 6.5 8.5 5.15685 8.5 3.5ZM19.5 6.5C20.2956 6.5 21.0587 6.18393 21.6213 5.62132C22.1839 5.05871 22.5 4.29565 22.5 3.5C22.5 1.84315 21.1569 0.5 19.5 0.5C17.8431 0.5 16.5 1.84315 16.5 3.5C16.5 5.15685 17.8431 6.5 19.5 6.5ZM18.5 3.5C18.5 2.94772 18.9477 2.5 19.5 2.5C19.7652 2.5 20.0196 2.60536 20.2071 2.79289C20.3946 2.98043 20.5 3.23478 20.5 3.5C20.5 4.05228 20.0523 4.5 19.5 4.5C18.9477 4.5 18.5 4.05228 18.5 3.5ZM11.5 4.5C10.9477 4.5 10.5 4.05228 10.5 3.5C10.5 2.94772 10.9477 2.5 11.5 2.5C11.7652 2.5 12.0196 2.60536 12.2071 2.79289C12.3946 2.98043 12.5 3.23478 12.5 3.5C12.5 4.05228 12.0523 4.5 11.5 4.5ZM2.5 3.5C2.5 2.94772 2.94772 2.5 3.5 2.5C3.76522 2.5 4.01957 2.60536 4.20711 2.79289C4.39464 2.98043 4.5 3.23478 4.5 3.5C4.5 4.05228 4.05228 4.5 3.5 4.5C2.94772 4.5 2.5 4.05228 2.5 3.5Z" fill="#333333"/>
<mask id="mask0_0_11939" style="mask-type:alpha" maskUnits="userSpaceOnUse" x="0" y="0" width="23" height="7">
<path fill-rule="evenodd" clip-rule="evenodd" d="M19.5 6.5C17.8431 6.5 16.5 5.15685 16.5 3.5C16.5 1.84315 17.8431 0.5 19.5 0.5C21.1569 0.5 22.5 1.84315 22.5 3.5C22.5 4.29565 22.1839 5.05871 21.6213 5.62132C21.0587 6.18393 20.2956 6.5 19.5 6.5ZM19.5 2.5C18.9477 2.5 18.5 2.94772 18.5 3.5C18.5 4.05228 18.9477 4.5 19.5 4.5C20.0523 4.5 20.5 4.05228 20.5 3.5C20.5 3.23478 20.3946 2.98043 20.2071 2.79289C20.0196 2.60536 19.7652 2.5 19.5 2.5ZM11.5 6.5C9.84315 6.5 8.5 5.15685 8.5 3.5C8.5 1.84315 9.84315 0.5 11.5 0.5C13.1569 0.5 14.5 1.84315 14.5 3.5C14.5 5.15685 13.1569 6.5 11.5 6.5ZM11.5 2.5C10.9477 2.5 10.5 2.94772 10.5 3.5C10.5 4.05228 10.9477 4.5 11.5 4.5C12.0523 4.5 12.5 4.05228 12.5 3.5C12.5 3.23478 12.3946 2.98043 12.2071 2.79289C12.0196 2.60536 11.7652 2.5 11.5 2.5ZM3.5 6.5C1.84315 6.5 0.5 5.15685 0.5 3.5C0.5 1.84315 1.84315 0.5 3.5 0.5C5.15685 0.5 6.5 1.84315 6.5 3.5C6.5 4.29565 6.18393 5.05871 5.62132 5.62132C5.05871 6.18393 4.29565 6.5 3.5 6.5ZM3.5 2.5C2.94772 2.5 2.5 2.94772 2.5 3.5C2.5 4.05228 2.94772 4.5 3.5 4.5C4.05228 4.5 4.5 4.05228 4.5 3.5C4.5 3.23478 4.39464 2.98043 4.20711 2.79289C4.01957 2.60536 3.76522 2.5 3.5 2.5Z" fill="white"/>
</mask>
<g mask="url(#mask0_0_11939)">
<rect x="-0.5" y="-8.5" width="24" height="24" fill="#333333"/>
</g>
</svg>
