<svg width="23" height="23" viewBox="0 0 23 23" fill="none" xmlns="http://www.w3.org/2000/svg">
<path d="M10.828 22.241L10.788 22.202L7.788 19.207C7.53523 18.9542 7.43652 18.5858 7.52903 18.2405C7.62155 17.8952 7.89125 17.6256 8.23653 17.533C8.58182 17.4405 8.95023 17.5392 9.203 17.792L10.5 19.086V12.5H3.914L5.207 13.793C5.58597 14.1854 5.58055 14.8091 5.19482 15.1948C4.80908 15.5805 4.18538 15.586 3.793 15.207L0.792997 12.207C0.724895 12.139 0.666965 12.0615 0.620997 11.977V11.977L0.610997 11.958V11.952L0.599997 11.938V11.926V11.918L0.582997 11.9V11.9C0.471683 11.6449 0.471683 11.355 0.582997 11.1V11.1L0.591997 11.08V11.075L0.599997 11.061V11.052L0.605997 11.041L0.612997 11.029V11.022L0.621997 11.007V11.002L0.631997 10.986V10.986L0.642997 10.969V10.969L0.654997 10.952V10.952L0.666997 10.935V10.935L0.699997 10.9V10.9L0.710997 10.886L0.716997 10.879L0.725997 10.868L0.734997 10.857L0.740997 10.85L0.755997 10.833V10.833L0.799997 10.788L3.8 7.788C4.19538 7.42013 4.81141 7.43265 5.19152 7.81627C5.57163 8.19989 5.57848 8.81602 5.207 9.208L3.914 10.5H10.5V3.914L9.208 5.207C8.81753 5.59774 8.18424 5.59796 7.7935 5.2075C7.40276 4.81703 7.40253 4.18374 7.793 3.793L10.793 0.792997L10.83 0.756997V0.756997L10.847 0.741997L10.854 0.735997L10.865 0.726997L10.876 0.717997L10.883 0.711997L10.9 0.699997V0.699997L10.916 0.687997V0.687997L10.94 0.671997V0.671997L10.957 0.659997V0.659997L10.98 0.645997V0.645997L11 0.633997H11.005L11.02 0.621997H11.027L11.04 0.611997L11.051 0.605997H11.06L11.075 0.598997H11.08L11.1 0.582997V0.582997C11.355 0.471683 11.6449 0.471683 11.9 0.582997V0.582997L11.918 0.590997H11.926L11.938 0.599997L11.952 0.606997H11.958L11.977 0.616997V0.616997C12.0615 0.662965 12.139 0.720895 12.207 0.788997L15.207 3.789C15.467 4.04007 15.5712 4.41187 15.4797 4.7615C15.3882 5.11113 15.1151 5.38418 14.7655 5.47569C14.4159 5.56721 14.0441 5.46295 13.793 5.203L12.5 3.914V10.5H19.086L17.793 9.208C17.4023 8.81725 17.4023 8.18374 17.793 7.793C18.1837 7.40225 18.8173 7.40225 19.208 7.793L22.203 10.793L22.242 10.833C22.6003 11.2282 22.5853 11.835 22.208 12.212L19.208 15.212C18.9554 15.4648 18.5872 15.5636 18.242 15.4712C17.8968 15.3788 17.6271 15.1093 17.5345 14.7642C17.4419 14.4191 17.5404 14.0508 17.793 13.798L19.086 12.5H12.5V19.086L13.793 17.793C14.1837 17.4025 14.817 17.4028 15.2075 17.7935C15.598 18.1842 15.5977 18.8175 15.207 19.208L12.207 22.208C11.83 22.5853 11.2232 22.6003 10.828 22.242V22.241Z" fill="#333333"/>
<mask id="mask0_0_12724" style="mask-type:alpha" maskUnits="userSpaceOnUse" x="0" y="0" width="23" height="23">
<path fill-rule="evenodd" clip-rule="evenodd" d="M10.828 22.241L10.788 22.202L7.788 19.207C7.53523 18.9542 7.43652 18.5858 7.52903 18.2405C7.62155 17.8952 7.89125 17.6256 8.23653 17.533C8.58182 17.4405 8.95023 17.5392 9.203 17.792L10.5 19.086V12.5H3.914L5.207 13.793C5.58597 14.1854 5.58055 14.8091 5.19482 15.1948C4.80908 15.5805 4.18538 15.586 3.793 15.207L0.792997 12.207C0.724895 12.139 0.666965 12.0615 0.620997 11.977V11.977L0.610997 11.958V11.952L0.599997 11.938V11.926V11.918L0.582997 11.9V11.9C0.471683 11.6449 0.471683 11.355 0.582997 11.1V11.1L0.591997 11.08V11.075L0.599997 11.061V11.052L0.605997 11.041L0.612997 11.029V11.022L0.621997 11.007V11.002L0.631997 10.986V10.986L0.642997 10.969V10.969L0.654997 10.952V10.952L0.666997 10.935V10.935L0.699997 10.9V10.9L0.710997 10.886L0.716997 10.879L0.725997 10.868L0.734997 10.857L0.740997 10.85L0.755997 10.833V10.833L0.799997 10.788L3.8 7.788C4.19538 7.42013 4.81141 7.43265 5.19152 7.81627C5.57163 8.19989 5.57848 8.81602 5.207 9.208L3.914 10.5H10.5V3.914L9.208 5.207C8.81753 5.59774 8.18424 5.59796 7.7935 5.2075C7.40276 4.81703 7.40253 4.18374 7.793 3.793L10.793 0.792997L10.83 0.756997V0.756997L10.847 0.741997L10.854 0.735997L10.865 0.726997L10.876 0.717997L10.883 0.711997L10.9 0.699997V0.699997L10.916 0.687997V0.687997L10.94 0.671997V0.671997L10.957 0.659997V0.659997L10.98 0.645997V0.645997L11 0.633997H11.005L11.02 0.621997H11.027L11.04 0.611997L11.051 0.605997H11.06L11.075 0.598997H11.08L11.1 0.582997V0.582997C11.355 0.471683 11.6449 0.471683 11.9 0.582997V0.582997L11.918 0.590997H11.926L11.938 0.599997L11.952 0.606997H11.958L11.977 0.616997V0.616997C12.0615 0.662965 12.139 0.720895 12.207 0.788997L15.207 3.789C15.467 4.04007 15.5712 4.41187 15.4797 4.7615C15.3882 5.11113 15.1151 5.38418 14.7655 5.47569C14.4159 5.56721 14.0441 5.46295 13.793 5.203L12.5 3.914V10.5H19.086L17.793 9.208C17.4023 8.81725 17.4023 8.18374 17.793 7.793C18.1837 7.40225 18.8173 7.40225 19.208 7.793L22.203 10.793L22.242 10.833C22.6003 11.2282 22.5853 11.835 22.208 12.212L19.208 15.212C18.9554 15.4648 18.5872 15.5636 18.242 15.4712C17.8968 15.3788 17.6271 15.1093 17.5345 14.7642C17.4419 14.4191 17.5404 14.0508 17.793 13.798L19.086 12.5H12.5V19.086L13.793 17.793C14.1837 17.4025 14.817 17.4028 15.2075 17.7935C15.598 18.1842 15.5977 18.8175 15.207 19.208L12.207 22.208C11.83 22.5853 11.2232 22.6003 10.828 22.242V22.241Z" fill="white"/>
</mask>
<g mask="url(#mask0_0_12724)">
<rect x="-0.5" y="-0.5" width="24" height="24" fill="#333333"/>
</g>
</svg>
