<svg width="21" height="21" viewBox="0 0 21 21" fill="none" xmlns="http://www.w3.org/2000/svg">
<path fill-rule="evenodd" clip-rule="evenodd" d="M12.5 15.5C12.5 17.1569 13.8431 18.5 15.5 18.5H17.5C19.1569 18.5 20.5 17.1569 20.5 15.5V1.50002C20.4999 1.20601 20.3705 0.926939 20.146 0.737001C19.9216 0.547063 19.625 0.465508 19.335 0.514019L7.335 2.51402C6.8532 2.59462 6.50014 3.01152 6.5 3.50002V15.5C6.5 16.0523 6.94772 16.5 7.5 16.5C8.05228 16.5 8.5 16.0523 8.5 15.5V4.34802L18.5 2.68102V12.5H15.5C13.8431 12.5 12.5 13.8432 12.5 15.5ZM15.5 16.5C14.9477 16.5 14.5 16.0523 14.5 15.5C14.5 14.9477 14.9477 14.5 15.5 14.5H18.5V15.5C18.5 16.0523 18.0523 16.5 17.5 16.5H15.5Z" fill="#333333"/>
<mask id="mask0_0_14712" style="mask-type:alpha" maskUnits="userSpaceOnUse" x="0" y="0" width="21" height="21">
<path fill-rule="evenodd" clip-rule="evenodd" d="M5.5 20.5H3.5C1.84315 20.5 0.5 19.1569 0.5 17.5C0.5 15.8431 1.84315 14.5 3.5 14.5H6.5V15.5C6.48233 16.0523 6.91572 16.5143 7.468 16.532C8.02028 16.5497 8.48233 16.1163 8.5 15.564V17.5C8.5 19.1569 7.15685 20.5 5.5 20.5ZM3.5 16.5C2.94772 16.5 2.5 16.9477 2.5 17.5C2.5 18.0523 2.94772 18.5 3.5 18.5H5.5C6.05228 18.5 6.5 18.0523 6.5 17.5V16.5H3.5ZM17.5 18.5H15.5C13.8431 18.5 12.5 17.1569 12.5 15.5C12.5 13.8431 13.8431 12.5 15.5 12.5H18.5V2.681L8.5 4.348V15.437C8.4667 14.9095 8.02859 14.499 7.5 14.5H6.5V3.5C6.50014 3.0115 6.8532 2.5946 7.335 2.514L19.335 0.514C19.3895 0.504869 19.4447 0.500187 19.5 0.5C20.0523 0.5 20.5 0.947715 20.5 1.5V15.5C20.5 17.1569 19.1569 18.5 17.5 18.5ZM15.5 14.5C14.9477 14.5 14.5 14.9477 14.5 15.5C14.5 16.0523 14.9477 16.5 15.5 16.5H17.5C18.0523 16.5 18.5 16.0523 18.5 15.5V14.5H15.5Z" fill="white"/>
</mask>
<g mask="url(#mask0_0_14712)">
<rect x="-1.5" y="-1.5" width="24" height="24" fill="#333333"/>
</g>
</svg>
