<svg width="22" height="22" viewBox="0 0 22 22" fill="none" xmlns="http://www.w3.org/2000/svg">
<mask id="mask0_0_14806" style="mask-type:alpha" maskUnits="userSpaceOnUse" x="0" y="0" width="22" height="22">
<path fill-rule="evenodd" clip-rule="evenodd" d="M11.4999 21.5001C11.0382 21.5055 10.6341 21.191 10.5259 20.7421L8.67595 13.3291L1.25795 11.4741C0.848051 11.3718 0.54664 11.023 0.504914 10.6026C0.463189 10.1822 0.690151 9.78093 1.07195 9.60008L20.0719 0.600082C20.5308 0.376009 21.0849 0.538579 21.3499 0.975082C21.5341 1.26266 21.5546 1.6256 21.4039 1.93208L12.4039 20.9321C12.2419 21.2839 11.8872 21.5067 11.4999 21.5001V21.5001ZM18.3999 3.60608L4.45395 10.2111L9.74295 11.5341C10.1008 11.6237 10.3803 11.9032 10.4699 12.2611L11.7919 17.5501L18.3999 3.60608Z" fill="white"/>
</mask>
<g mask="url(#mask0_0_14806)">
<rect x="-0.5" y="-0.499878" width="24" height="24" fill="#333333"/>
</g>
</svg>
