<svg width="17" height="22" viewBox="0 0 17 22" fill="none" xmlns="http://www.w3.org/2000/svg">
<mask id="mask0_0_13585" style="mask-type:alpha" maskUnits="userSpaceOnUse" x="0" y="0" width="17" height="22">
<path fill-rule="evenodd" clip-rule="evenodd" d="M15.4969 21.4999C15.3213 21.5 15.1487 21.4534 14.9969 21.3649L8.49694 17.6519L1.99694 21.3679C1.84484 21.4553 1.67233 21.5008 1.49694 21.4999C1.16689 21.4975 0.858851 21.334 0.671937 21.0619C0.485916 20.7956 0.443967 20.4544 0.559937 20.1509L7.55994 1.15092C7.70504 0.758279 8.07934 0.497559 8.49794 0.497559C8.91653 0.497559 9.29084 0.758279 9.43594 1.15092L16.4359 20.1509C16.5514 20.4546 16.5091 20.7957 16.3229 21.0619C16.1357 21.3341 15.8273 21.4976 15.4969 21.4999ZM8.49694 4.39192L3.38794 18.2699L8.00394 15.6319C8.31155 15.456 8.68932 15.456 8.99694 15.6319L13.6129 18.2699L8.49694 4.39192Z" fill="white"/>
</mask>
<g mask="url(#mask0_0_13585)">
<rect x="-3.50012" y="-1.50012" width="24" height="24" fill="#333333"/>
</g>
</svg>
