<svg width="23" height="23" viewBox="0 0 23 23" fill="none" xmlns="http://www.w3.org/2000/svg">
<mask id="mask0_0_12938" style="mask-type:alpha" maskUnits="userSpaceOnUse" x="0" y="0" width="23" height="23">
<path fill-rule="evenodd" clip-rule="evenodd" d="M15.64 22.5H7.36C7.09494 22.4993 6.84086 22.394 6.653 22.207L0.793 16.347C0.606097 16.1591 0.500819 15.905 0.5 15.64V7.36C0.500445 7.09508 0.605372 6.84103 0.792 6.653L6.653 0.793C6.84086 0.606006 7.09494 0.500711 7.36 0.5H15.64C15.9049 0.500553 16.1589 0.605464 16.347 0.792L22.207 6.653C22.394 6.84086 22.4993 7.09494 22.5 7.36V15.64C22.4992 15.905 22.3939 16.1591 22.207 16.347L16.347 22.207C16.1591 22.3939 15.905 22.4992 15.64 22.5ZM7.774 2.5V2.5L2.5 7.774V15.226L7.774 20.5H15.226L20.5 15.226V7.774L15.226 2.5H7.774Z" fill="white"/>
</mask>
<g mask="url(#mask0_0_12938)">
<rect x="-0.5" y="-0.5" width="24" height="24" fill="#333333"/>
</g>
</svg>
