<svg width="23" height="25" viewBox="0 0 23 25" fill="none" xmlns="http://www.w3.org/2000/svg">
<path fill-rule="evenodd" clip-rule="evenodd" d="M10.153 23.7139L2.15304 19.7139C1.13811 19.199 0.499015 18.157 0.500037 17.0189V7.49992C0.496002 6.36074 1.14135 5.3188 2.16304 4.81492L5.96304 2.91492C6.01779 2.88074 6.07573 2.85194 6.13604 2.82892L10.165 0.81292C11.006 0.395042 11.9941 0.395042 12.835 0.81292L20.835 4.81292C21.8577 5.3171 22.5037 6.35977 22.5 7.49992V17.0299C22.5042 18.1689 21.8587 19.2106 20.837 19.7139L12.837 23.7139C11.992 24.1368 10.9971 24.1368 10.152 23.7139H10.153ZM2.50004 17.0259C2.49822 17.405 2.70969 17.753 3.04704 17.9259L10.5 21.6509V11.8769L2.50004 7.87692V17.0259ZM19.946 17.9229L12.5 21.6459V11.8769L16.927 9.66292L16.967 9.64292L20.5 7.87692V17.0279C20.5019 17.4077 20.2868 17.7552 19.946 17.9229ZM11.5 10.1409L14.264 8.75892L6.50504 4.87992L3.74104 6.26192L11.5 10.1409ZM19.259 6.26192L16.5 7.64092L8.74104 3.76092L11.057 2.59992C11.3365 2.46162 11.6645 2.46162 11.944 2.59992L19.259 6.26192Z" fill="#333333"/>
<mask id="mask0_0_14423" style="mask-type:alpha" maskUnits="userSpaceOnUse" x="0" y="0" width="23" height="25">
<path fill-rule="evenodd" clip-rule="evenodd" d="M10.153 23.7139L2.15304 19.7139C1.13811 19.199 0.499015 18.157 0.500037 17.0189V7.49992C0.496002 6.36074 1.14135 5.3188 2.16304 4.81492L5.96304 2.91492C6.01779 2.88074 6.07573 2.85194 6.13604 2.82892L10.165 0.81292C11.006 0.395042 11.9941 0.395042 12.835 0.81292L20.835 4.81292C21.8577 5.3171 22.5037 6.35977 22.5 7.49992V17.0299C22.5042 18.1689 21.8587 19.2106 20.837 19.7139L12.837 23.7139C11.992 24.1368 10.9971 24.1368 10.152 23.7139H10.153ZM2.50004 17.0259C2.49823 17.405 2.70969 17.753 3.04704 17.9259L10.5 21.6509V11.8769L2.50004 7.87692V17.0259ZM12.5 21.6459L19.946 17.9229C20.2868 17.7552 20.5019 17.4077 20.5 17.0279V7.87692L16.967 9.64292L16.927 9.66292L12.5 11.8769V21.6459ZM11.5 10.1409L14.264 8.75892L6.50504 4.87992L3.74104 6.26192L11.5 10.1409ZM16.5 7.64092L19.259 6.26192L11.944 2.59992C11.6645 2.46162 11.3365 2.46162 11.057 2.59992L8.74104 3.76092L16.5 7.64092Z" fill="white"/>
</mask>
<g mask="url(#mask0_0_14423)">
<rect x="-0.5" y="0.499878" width="24" height="24" fill="#333333"/>
</g>
</svg>
