<svg width="15" height="19" viewBox="0 0 15 19" fill="none" xmlns="http://www.w3.org/2000/svg">
<path fill-rule="evenodd" clip-rule="evenodd" d="M9.5 18.5H13.5C14.0523 18.5 14.5 18.0523 14.5 17.5V1.5C14.5 0.947715 14.0523 0.5 13.5 0.5H9.5C8.94772 0.5 8.5 0.947715 8.5 1.5V17.5C8.5 18.0523 8.94772 18.5 9.5 18.5ZM10.5 16.5V2.5H12.5V16.5H10.5Z" fill="#333333"/>
<mask id="mask0_0_12885" style="mask-type:alpha" maskUnits="userSpaceOnUse" x="0" y="0" width="15" height="19">
<path fill-rule="evenodd" clip-rule="evenodd" d="M13.5 18.5H9.5C8.94772 18.5 8.5 18.0523 8.5 17.5V1.5C8.5 0.947715 8.94772 0.5 9.5 0.5H13.5C14.0523 0.5 14.5 0.947715 14.5 1.5V17.5C14.5 18.0523 14.0523 18.5 13.5 18.5ZM10.5 2.5V16.5H12.5V2.5H10.5ZM5.5 18.5H1.5C0.947715 18.5 0.5 18.0523 0.5 17.5V1.5C0.5 0.947715 0.947715 0.5 1.5 0.5H5.5C6.05228 0.5 6.5 0.947715 6.5 1.5V17.5C6.5 18.0523 6.05228 18.5 5.5 18.5ZM2.5 2.5V16.5H4.5V2.5H2.5Z" fill="white"/>
</mask>
<g mask="url(#mask0_0_12885)">
<rect x="-4.5" y="-2.5" width="24" height="24" fill="#333333"/>
</g>
</svg>
