<svg width="19" height="19" viewBox="0 0 19 19" fill="none" xmlns="http://www.w3.org/2000/svg">
<path fill-rule="evenodd" clip-rule="evenodd" d="M4 7.5C2.067 7.5 0.5 5.933 0.5 4C0.5 2.067 2.067 0.5 4 0.5C5.933 0.5 7.5 2.067 7.5 4C7.5 4.92826 7.13125 5.8185 6.47487 6.47487C5.8185 7.13125 4.92826 7.5 4 7.5ZM1.57713 16.8822C1.73162 17.2557 2.09579 17.4995 2.5 17.5C2.76567 17.5009 3.02064 17.3954 3.208 17.207L17.208 3.207C17.587 2.81462 17.5816 2.19092 17.1958 1.80518C16.8101 1.41945 16.1864 1.41403 15.794 1.793L1.794 15.793C1.50822 16.0789 1.42264 16.5087 1.57713 16.8822ZM15 18.5C13.067 18.5 11.5 16.933 11.5 15C11.5 13.067 13.067 11.5 15 11.5C16.933 11.5 18.5 13.067 18.5 15C18.5 16.933 16.933 18.5 15 18.5ZM15 13.5C14.1716 13.5 13.5 14.1716 13.5 15C13.5 15.8284 14.1716 16.5 15 16.5C15.8284 16.5 16.5 15.8284 16.5 15C16.5 14.1716 15.8284 13.5 15 13.5ZM2.5 4C2.5 3.17157 3.17157 2.5 4 2.5C4.82843 2.5 5.5 3.17157 5.5 4C5.5 4.82843 4.82843 5.5 4 5.5C3.17157 5.5 2.5 4.82843 2.5 4Z" fill="#333333"/>
<mask id="mask0_0_12038" style="mask-type:alpha" maskUnits="userSpaceOnUse" x="0" y="0" width="19" height="19">
<path fill-rule="evenodd" clip-rule="evenodd" d="M15 18.5C13.067 18.5 11.5 16.933 11.5 15C11.5 13.067 13.067 11.5 15 11.5C16.933 11.5 18.5 13.067 18.5 15C18.5 16.933 16.933 18.5 15 18.5V18.5ZM15 13.5C14.1716 13.5 13.5 14.1716 13.5 15C13.5 15.8284 14.1716 16.5 15 16.5C15.8284 16.5 16.5 15.8284 16.5 15C16.5 14.1716 15.8284 13.5 15 13.5ZM2.5 17.5C2.09579 17.4995 1.73162 17.2557 1.57713 16.8822C1.42264 16.5087 1.50822 16.0789 1.794 15.793L15.794 1.793C16.1864 1.41403 16.8101 1.41945 17.1958 1.80518C17.5816 2.19092 17.587 2.81462 17.208 3.207L3.208 17.207C3.02064 17.3954 2.76567 17.5009 2.5 17.5ZM4 7.5C2.067 7.5 0.5 5.933 0.5 4C0.5 2.067 2.067 0.5 4 0.5C5.933 0.5 7.5 2.067 7.5 4C7.5 4.92826 7.13125 5.8185 6.47487 6.47487C5.8185 7.13125 4.92826 7.5 4 7.5ZM4 2.5C3.17157 2.5 2.5 3.17157 2.5 4C2.5 4.82843 3.17157 5.5 4 5.5C4.82843 5.5 5.5 4.82843 5.5 4C5.5 3.17157 4.82843 2.5 4 2.5V2.5Z" fill="white"/>
</mask>
<g mask="url(#mask0_0_12038)">
<rect x="-2.5" y="-2.5" width="24" height="24" fill="#333333"/>
</g>
</svg>
