<svg width="24" height="24" viewBox="0 0 24 24" fill="none" xmlns="http://www.w3.org/2000/svg">
<path fill-rule="evenodd" clip-rule="evenodd" d="M17.4662 9.88257C17.621 10.2562 17.9855 10.4998 18.3899 10.4999H18.3879C18.6507 10.5009 18.9031 10.3977 19.0899 10.2129L23.0899 6.21292C23.1051 6.19844 23.1195 6.18308 23.1329 6.16692L23.1469 6.15092L23.1549 6.14092L23.1599 6.13492C23.4814 5.74418 23.4604 5.17486 23.1109 4.80892L23.0949 4.79292L19.0949 0.792919C18.7025 0.413947 18.0788 0.419367 17.6931 0.8051C17.3074 1.19083 17.3019 1.81454 17.6809 2.20692L19.9729 4.49992H14.3879C13.8356 4.49992 13.3879 4.94763 13.3879 5.49992C13.3879 6.0522 13.8356 6.49992 14.3879 6.49992H19.9739L17.6829 8.79292C17.397 9.07891 17.3115 9.50896 17.4662 9.88257ZM19.3819 23.4269C19.2819 23.4269 19.1889 23.4269 19.0999 23.4139C15.8707 23.0605 12.7687 21.9579 10.0409 20.1939C7.50668 18.5784 5.35644 16.4282 3.74092 13.8939C1.96606 11.1469 0.86044 8.02188 0.512918 4.76992C0.437097 3.93088 0.717559 3.09863 1.28574 2.47661C1.85392 1.8546 2.65746 1.50015 3.49992 1.49992H6.51992C8.01693 1.50127 9.28383 2.60602 9.48892 4.08892C9.60582 4.97344 9.82219 5.84194 10.1339 6.67792C10.5436 7.77638 10.2787 9.01275 9.45492 9.84692L8.73792 10.5629C9.9166 12.4055 11.4813 13.9702 13.3239 15.1489L14.0449 14.4279C14.8771 13.6049 16.112 13.3409 17.2079 13.7519C18.0475 14.0644 18.9197 14.2811 19.8079 14.3979C21.3108 14.6101 22.4185 15.9114 22.3879 17.4289V20.4139C22.3906 21.2123 22.0749 21.9789 21.5107 22.5438C20.9465 23.1088 20.1803 23.4255 19.3819 23.4239V23.4269ZM3.49992 3.49992C3.2194 3.50041 2.95199 3.61869 2.76292 3.82592C2.57455 4.02753 2.47918 4.29879 2.49992 4.57392C2.81592 7.51104 3.816 10.3332 5.41992 12.8139C6.87484 15.1122 8.82163 17.059 11.1199 18.5139C13.583 20.1072 16.384 21.1036 19.2999 21.4239H19.3899C19.6565 21.4239 19.9121 21.3175 20.0999 21.1282C20.2876 20.9389 20.3921 20.6825 20.3899 20.4159V17.4159C20.411 16.9038 20.0451 16.4572 19.5389 16.3769C18.5034 16.2399 17.4867 15.9866 16.5079 15.6219C16.1446 15.485 15.7348 15.5708 15.4569 15.8419L14.1869 17.1119C13.869 17.4298 13.3781 17.4965 12.9869 17.2749C10.3258 15.7628 8.12227 13.5603 6.60892 10.8999C6.38708 10.509 6.45335 10.018 6.77092 9.69992L8.03792 8.43692C8.31129 8.15786 8.39859 7.74588 8.26192 7.37992C7.89774 6.4049 7.64513 5.39178 7.50892 4.35992C7.43867 3.8629 7.01085 3.49498 6.50892 3.49992H3.49992Z" fill="#333333"/>
<mask id="mask0_0_12425" style="mask-type:alpha" maskUnits="userSpaceOnUse" x="0" y="0" width="24" height="24">
<path fill-rule="evenodd" clip-rule="evenodd" d="M19.3819 23.4269C19.2819 23.4269 19.1889 23.4269 19.0999 23.4139C15.8707 23.0605 12.7687 21.9579 10.0409 20.1939C7.50668 18.5784 5.35644 16.4282 3.74092 13.8939C1.96606 11.1469 0.86044 8.02188 0.512918 4.76992C0.437097 3.93088 0.717559 3.09863 1.28574 2.47661C1.85392 1.8546 2.65746 1.50015 3.49992 1.49992H6.51992C8.01693 1.50127 9.28383 2.60602 9.48892 4.08892C9.60582 4.97344 9.82219 5.84194 10.1339 6.67792C10.5436 7.77638 10.2787 9.01275 9.45492 9.84692L8.73792 10.5629C9.9166 12.4055 11.4813 13.9702 13.3239 15.1489L14.0449 14.4279C14.8771 13.6049 16.112 13.3409 17.2079 13.7519C18.0475 14.0644 18.9197 14.2811 19.8079 14.3979C21.3108 14.6101 22.4185 15.9114 22.3879 17.4289V20.4139C22.3906 21.2123 22.0749 21.9789 21.5107 22.5438C20.9465 23.1088 20.1803 23.4255 19.3819 23.4239V23.4269ZM3.49992 3.49992C3.2194 3.50041 2.95199 3.61869 2.76292 3.82592C2.57455 4.02753 2.47918 4.29879 2.49992 4.57392C2.81592 7.51104 3.816 10.3332 5.41992 12.8139C6.87484 15.1122 8.82163 17.059 11.1199 18.5139C13.583 20.1072 16.384 21.1036 19.2999 21.4239C19.3269 21.4239 19.3559 21.4239 19.3899 21.4239C19.6565 21.4239 19.9121 21.3175 20.0999 21.1282C20.2876 20.9389 20.3921 20.6825 20.3899 20.4159V17.4159C20.411 16.9038 20.0451 16.4572 19.5389 16.3769C18.5034 16.2399 17.4867 15.9866 16.5079 15.6219C16.1446 15.485 15.7348 15.5708 15.4569 15.8419L14.1869 17.1119C13.869 17.4298 13.3781 17.4965 12.9869 17.2749C10.3258 15.7628 8.12227 13.5603 6.60892 10.8999C6.38708 10.509 6.45335 10.018 6.77092 9.69992L8.03792 8.43692C8.31129 8.15786 8.39859 7.74588 8.26192 7.37992C7.89774 6.4049 7.64513 5.39178 7.50892 4.35992C7.43867 3.8629 7.01085 3.49498 6.50892 3.49992H3.49992ZM18.3899 10.4999C17.9855 10.4998 17.621 10.2562 17.4662 9.88257C17.3115 9.50896 17.397 9.07891 17.6829 8.79292L19.9739 6.49992H14.3879C13.8356 6.49992 13.3879 6.0522 13.3879 5.49992C13.3879 4.94763 13.8356 4.49992 14.3879 4.49992H19.9729L17.6809 2.20692C17.3019 1.81454 17.3074 1.19083 17.6931 0.8051C18.0788 0.419367 18.7025 0.413947 19.0949 0.792919L23.0949 4.79292L23.1109 4.80892C23.4604 5.17486 23.4814 5.74418 23.1599 6.13492L23.1549 6.14092L23.1469 6.15092L23.1329 6.16692C23.1195 6.18308 23.1051 6.19844 23.0899 6.21292L19.0899 10.2129C18.9031 10.3977 18.6507 10.5009 18.3879 10.4999H18.3899Z" fill="white"/>
</mask>
<g mask="url(#mask0_0_12425)">
<rect x="-0.500122" y="-0.500122" width="24" height="24" fill="#333333"/>
</g>
</svg>
