<svg width="24" height="24" viewBox="0 0 24 24" fill="none" xmlns="http://www.w3.org/2000/svg">
<path fill-rule="evenodd" clip-rule="evenodd" d="M15.4642 7.88256C15.619 8.25618 15.9835 8.49982 16.3879 8.49991C16.655 8.50197 16.9116 8.39635 17.0999 8.20691L19.3879 5.91391L21.6849 8.20691C22.0754 8.59765 22.7087 8.59787 23.0994 8.20741C23.4902 7.81694 23.4904 7.18365 23.0999 6.79291L20.7999 4.49991L23.0999 2.20691C23.4904 1.81506 23.4893 1.18087 23.0974 0.790409C22.7056 0.399944 22.0714 0.401063 21.6809 0.792909L19.3929 3.08591L17.0999 0.792909C16.7095 0.401063 16.0753 0.399944 15.6834 0.790409C15.2916 1.18087 15.2905 1.81506 15.6809 2.20691L17.9729 4.49991L15.6809 6.79291C15.395 7.0789 15.3095 7.50895 15.4642 7.88256ZM19.3819 23.4269C19.2819 23.4269 19.1889 23.4269 19.0999 23.4139C15.8707 23.0605 12.7687 21.9579 10.0409 20.1939C7.50668 18.5784 5.35644 16.4281 3.74092 13.8939C1.96606 11.1469 0.86044 8.02187 0.512918 4.76991C0.437097 3.93087 0.717559 3.09862 1.28574 2.4766C1.85392 1.85459 2.65746 1.50014 3.49992 1.49991H6.51992C8.01693 1.50126 9.28383 2.60602 9.48892 4.08891C9.60582 4.97343 9.82219 5.84193 10.1339 6.67791C10.5436 7.77637 10.2787 9.01274 9.45492 9.84691L8.73792 10.5629C9.9166 12.4055 11.4813 13.9702 13.3239 15.1489L14.0449 14.4279C14.8771 13.6048 16.112 13.3409 17.2079 13.7519C18.0475 14.0644 18.9197 14.2811 19.8079 14.3979C21.3108 14.6101 22.4185 15.9114 22.3879 17.4289V20.4139C22.3906 21.2123 22.0749 21.9789 21.5107 22.5438C20.9465 23.1088 20.1803 23.4255 19.3819 23.4239V23.4269ZM3.49992 3.49991C3.2194 3.5004 2.95199 3.61868 2.76292 3.82591C2.57455 4.02752 2.47918 4.29878 2.49992 4.57391C2.81592 7.51103 3.816 10.3332 5.41992 12.8139C6.87484 15.1122 8.82163 17.059 11.1199 18.5139C13.583 20.1072 16.384 21.1036 19.2999 21.4239H19.3899C19.6565 21.4239 19.9121 21.3175 20.0999 21.1282C20.2876 20.9389 20.3921 20.6825 20.3899 20.4159V17.4159C20.411 16.9042 20.0457 16.4576 19.5399 16.3769C18.5044 16.2399 17.4877 15.9866 16.5089 15.6219C16.1456 15.485 15.7358 15.5708 15.4579 15.8419L14.1879 17.1119C13.87 17.4298 13.3791 17.4965 12.9879 17.2749C10.3264 15.763 8.12254 13.5604 6.60892 10.8999C6.38708 10.509 6.45335 10.018 6.77092 9.69991L8.03692 8.43691C8.31063 8.15807 8.39834 7.74606 8.26192 7.37991C7.89774 6.40489 7.64513 5.39177 7.50892 4.35991C7.43867 3.86289 7.01085 3.49497 6.50892 3.49991H3.49992Z" fill="#333333"/>
<mask id="mask0_0_13610" style="mask-type:alpha" maskUnits="userSpaceOnUse" x="0" y="0" width="24" height="24">
<path fill-rule="evenodd" clip-rule="evenodd" d="M19.3819 23.4269C19.2819 23.4269 19.1889 23.4269 19.0999 23.4139C15.8707 23.0605 12.7687 21.9579 10.0409 20.1939C7.50668 18.5784 5.35644 16.4281 3.74092 13.8939C1.96606 11.1469 0.86044 8.02187 0.512918 4.76991C0.437097 3.93087 0.717559 3.09862 1.28574 2.4766C1.85392 1.85459 2.65746 1.50014 3.49992 1.49991H6.51992C8.01693 1.50126 9.28383 2.60602 9.48892 4.08891C9.60582 4.97343 9.82219 5.84193 10.1339 6.67791C10.5436 7.77637 10.2787 9.01274 9.45492 9.84691L8.73792 10.5629C9.9166 12.4055 11.4813 13.9702 13.3239 15.1489L14.0449 14.4279C14.8771 13.6048 16.112 13.3409 17.2079 13.7519C18.0475 14.0644 18.9197 14.2811 19.8079 14.3979C21.3108 14.6101 22.4185 15.9114 22.3879 17.4289V20.4139C22.3906 21.2123 22.0749 21.9789 21.5107 22.5438C20.9465 23.1088 20.1803 23.4255 19.3819 23.4239V23.4269ZM3.49992 3.49991C3.2194 3.5004 2.95199 3.61868 2.76292 3.82591C2.57455 4.02752 2.47918 4.29878 2.49992 4.57391C2.81592 7.51103 3.816 10.3332 5.41992 12.8139C6.87484 15.1122 8.82163 17.059 11.1199 18.5139C13.583 20.1072 16.384 21.1036 19.2999 21.4239C19.3269 21.4239 19.3559 21.4239 19.3899 21.4239C19.6565 21.4239 19.9121 21.3175 20.0999 21.1282C20.2876 20.9389 20.3921 20.6825 20.3899 20.4159V17.4159C20.411 16.9041 20.0457 16.4576 19.5399 16.3769C18.5044 16.2399 17.4877 15.9866 16.5089 15.6219C16.1456 15.485 15.7358 15.5708 15.4579 15.8419L14.1879 17.1119C13.87 17.4298 13.3791 17.4965 12.9879 17.2749C10.3264 15.763 8.12254 13.5604 6.60892 10.8999C6.38708 10.509 6.45335 10.018 6.77092 9.69991L8.03692 8.43691C8.31063 8.15807 8.39834 7.74606 8.26192 7.37991C7.89774 6.40489 7.64513 5.39177 7.50892 4.35991C7.43867 3.86289 7.01085 3.49497 6.50892 3.49991H3.49992ZM16.3879 8.49991C15.9835 8.49982 15.619 8.25618 15.4642 7.88256C15.3095 7.50895 15.395 7.0789 15.6809 6.79291L17.9729 4.49991L15.6809 2.20691C15.2905 1.81506 15.2916 1.18087 15.6834 0.790409C16.0753 0.399944 16.7095 0.401063 17.0999 0.792909L19.3929 3.08591L21.6809 0.792909C22.0714 0.401063 22.7056 0.399944 23.0974 0.790409C23.4893 1.18087 23.4904 1.81506 23.0999 2.20691L20.7999 4.49991L23.0999 6.79291C23.4904 7.18365 23.4902 7.81694 23.0994 8.20741C22.7087 8.59787 22.0754 8.59765 21.6849 8.20691L19.3879 5.91391L17.0999 8.20691C16.9116 8.39635 16.655 8.50197 16.3879 8.49991Z" fill="white"/>
</mask>
<g mask="url(#mask0_0_13610)">
<rect x="-0.500122" y="-0.500122" width="24" height="24" fill="#333333"/>
</g>
</svg>
