<svg width="24" height="24" viewBox="0 0 24 24" fill="none" xmlns="http://www.w3.org/2000/svg">
<path d="M17.681 10.158L13.731 6.20798C13.4201 5.89676 13.3491 5.41895 13.5561 5.0308C13.763 4.64265 14.1993 4.43531 14.631 4.51998C15.6341 4.71405 16.5708 5.16158 17.352 5.81998L13.732 2.20498C13.4329 1.90474 13.3555 1.44853 13.5389 1.06644C13.7223 0.684353 14.1266 0.459378 14.548 0.504979C19.1924 1.02066 22.8605 4.68417 23.382 9.32798C23.4291 9.7499 23.2047 10.1556 22.8222 10.3398C22.4397 10.5241 21.9826 10.4468 21.682 10.147L18.06 6.53098C18.7225 7.31338 19.1732 8.25265 19.369 9.25898C19.4295 9.55513 19.3527 9.86274 19.1603 10.0958C18.9678 10.3289 18.6802 10.4624 18.378 10.459C18.1145 10.4571 17.863 10.3485 17.681 10.158V10.158Z" fill="#333333"/>
<mask id="mask0_0_12455" style="mask-type:alpha" maskUnits="userSpaceOnUse" x="0" y="0" width="24" height="24">
<path fill-rule="evenodd" clip-rule="evenodd" d="M19.38 23.428C19.287 23.428 19.193 23.428 19.1 23.415C15.8713 23.0611 12.7697 21.9585 10.042 20.195C7.50801 18.5792 5.35783 16.429 3.74201 13.895C1.96707 11.148 0.861126 8.02299 0.513009 4.77102C0.436889 3.93182 0.717217 3.09929 1.28543 2.47705C1.85365 1.85481 2.65736 1.50022 3.50001 1.50002H6.51901C8.01673 1.50094 9.28432 2.60635 9.48901 4.09002C9.60601 4.97419 9.82237 5.84235 10.134 6.67802C10.5437 7.77665 10.2784 9.01319 9.45401 9.84702L8.73701 10.564C9.91547 12.4068 11.4802 13.9716 13.323 15.15L14.044 14.429C14.8762 13.606 16.1111 13.342 17.207 13.753C18.0466 14.0659 18.9187 14.2829 19.807 14.4C21.3099 14.6122 22.4176 15.9135 22.387 17.431V20.415C22.3899 21.214 22.0741 21.9811 21.5094 22.5463C20.9447 23.1115 20.178 23.4282 19.379 23.426L19.38 23.428ZM3.50001 3.50002C3.21949 3.5005 2.95208 3.61879 2.76301 3.82602C2.57406 4.02768 2.47861 4.2995 2.50001 4.57502C2.81601 7.51214 3.81609 10.3343 5.42001 12.815C6.88171 15.1079 8.82716 17.0533 11.12 18.515C13.5831 20.1083 16.3841 21.1047 19.3 21.425C19.33 21.425 19.36 21.425 19.389 21.425C19.6556 21.425 19.9112 21.3186 20.099 21.1293C20.2867 20.94 20.3911 20.6836 20.389 20.417V17.417C20.41 16.9049 20.0442 16.4583 19.538 16.378C18.5024 16.2411 17.4856 15.9875 16.507 15.622C16.3945 15.5797 16.2752 15.558 16.155 15.558C15.8931 15.5563 15.6412 15.6588 15.455 15.843L14.185 17.113C13.8669 17.4306 13.376 17.4969 12.985 17.275C10.3244 15.7629 8.12153 13.5604 6.60901 10.9C6.38717 10.5091 6.45344 10.0181 6.77101 9.70002L8.03801 8.43702C8.31297 8.15882 8.40049 7.74584 8.26201 7.38002C7.89783 6.405 7.64522 5.39188 7.50901 4.36002C7.43876 3.863 7.01094 3.49508 6.50901 3.50002H3.50001ZM18.38 10.454C18.1156 10.4535 17.8628 10.3452 17.68 10.154L13.73 6.20402C13.4477 5.91931 13.3627 5.4935 13.5142 5.12224C13.6656 4.75099 14.0241 4.50607 14.425 4.50002C14.4938 4.50011 14.5625 4.50681 14.63 4.52002C15.6328 4.71498 16.5693 5.1624 17.351 5.82002L13.731 2.20502C13.4423 1.92249 13.3559 1.49212 13.513 1.12002C13.661 0.744481 14.0244 0.498289 14.428 0.500018C14.4681 0.500136 14.5082 0.502473 14.548 0.507018C19.1921 1.02314 22.8596 4.68654 23.381 9.33002C23.4164 9.61025 23.3289 9.8921 23.141 10.103C22.9461 10.3187 22.6697 10.4427 22.379 10.445C22.1146 10.4445 21.8618 10.3362 21.679 10.145L18.06 6.53102C18.7217 7.31393 19.1723 8.25299 19.369 9.25902C19.4307 9.54886 19.3571 9.85103 19.169 10.08C18.9737 10.3157 18.6841 10.453 18.378 10.455L18.38 10.454ZM17.351 5.82302L18.059 6.53102C17.8431 6.27579 17.6062 6.03897 17.351 5.82302V5.82302Z" fill="white"/>
</mask>
<g mask="url(#mask0_0_12455)">
<rect x="-0.5" y="-0.5" width="24" height="24" fill="#333333"/>
</g>
</svg>
