<svg width="25" height="25" viewBox="0 0 25 25" fill="none" xmlns="http://www.w3.org/2000/svg">
<path fill-rule="evenodd" clip-rule="evenodd" d="M0.793031 24.2069C0.402649 23.8164 0.402649 23.1834 0.793031 22.7929L10.393 13.1929C10.4419 13.1309 10.498 13.0748 10.56 13.0259L22.793 0.792947C23.1838 0.402481 23.8171 0.402705 24.2075 0.793447C24.598 1.18419 24.5978 1.81748 24.207 2.20795L12.623 13.7919C13.1922 14.29 13.7983 14.7443 14.436 15.1509L15.157 14.4299C15.9892 13.6069 17.2241 13.343 18.32 13.7539C19.1595 14.067 20.0317 14.2837 20.92 14.3999C22.4073 14.6102 23.5098 15.8879 23.5 17.3899V20.3899C23.504 21.2383 23.1486 22.0487 22.5218 22.6204C21.895 23.1921 21.0554 23.4717 20.211 23.3899C16.9815 23.0396 13.8791 21.9367 11.153 20.1699C10.1668 19.5434 9.23603 18.8335 8.37103 18.0479L2.20703 24.2069C2.01946 24.3947 1.76494 24.5002 1.49953 24.5002C1.23412 24.5002 0.979599 24.3947 0.792031 24.2069H0.793031ZM12.235 18.4809C14.6954 20.0772 17.4956 21.0749 20.411 21.3939C20.6915 21.4193 20.9696 21.3252 21.1771 21.1349C21.3846 20.9445 21.5022 20.6755 21.501 20.3939V17.3799C21.5066 16.881 21.1435 16.4543 20.65 16.3799C19.6145 16.2431 18.5977 15.9899 17.619 15.6249C17.2557 15.488 16.8459 15.5738 16.568 15.8449L15.298 17.1149C14.9801 17.4328 14.4892 17.4995 14.098 17.2779C13.0654 16.6904 12.0971 15.9963 11.209 15.2069L9.78803 16.6259C10.5505 17.3111 11.3686 17.9316 12.234 18.4809H12.235ZM1.62403 4.76995C1.97392 8.00877 3.07924 11.1202 4.85103 13.8539H4.84703C5.15043 14.3098 5.76408 14.4369 6.22356 14.139C6.68305 13.841 6.81744 13.229 6.52503 12.7659C4.92596 10.3001 3.92756 7.49365 3.61003 4.57195C3.59 4.29449 3.68645 4.02123 3.8762 3.81782C4.06595 3.61441 4.33185 3.49922 4.61003 3.49995H7.61003C8.11575 3.48992 8.54932 3.8591 8.62003 4.35995C8.75668 5.39172 9.00928 6.4048 9.37303 7.37995C9.51152 7.74577 9.424 8.15875 9.14903 8.43695L7.88303 9.69995C7.49174 10.0912 7.49174 10.7257 7.88303 11.1169C8.27432 11.5082 8.90874 11.5082 9.30003 11.1169L10.565 9.84695C11.3916 9.01427 11.6568 7.77617 11.244 6.67795C10.9325 5.84196 10.7165 4.97345 10.6 4.08895C10.3934 2.59432 9.10881 1.48573 7.60003 1.49995H4.61003C3.76775 1.50046 2.96448 1.85503 2.39652 2.47701C1.82856 3.09899 1.54823 3.93108 1.62403 4.76995Z" fill="#333333"/>
<mask id="mask0_0_12185" style="mask-type:alpha" maskUnits="userSpaceOnUse" x="0" y="0" width="25" height="25">
<path fill-rule="evenodd" clip-rule="evenodd" d="M0.793031 24.2069C0.402649 23.8164 0.402649 23.1834 0.793031 22.7929L10.393 13.1929C10.4419 13.1309 10.498 13.0748 10.56 13.0259L22.793 0.792947C23.1838 0.402481 23.8171 0.402705 24.2075 0.793447C24.598 1.18419 24.5978 1.81748 24.207 2.20795L12.623 13.7919C13.1922 14.29 13.7983 14.7443 14.436 15.1509L15.157 14.4299C15.9892 13.6069 17.2241 13.343 18.32 13.7539C19.1595 14.067 20.0317 14.2837 20.92 14.3999C22.4073 14.6102 23.5098 15.8879 23.5 17.3899V20.3899C23.504 21.2383 23.1486 22.0487 22.5218 22.6204C21.895 23.1921 21.0554 23.4717 20.211 23.3899C16.9815 23.0396 13.8791 21.9367 11.153 20.1699C10.1668 19.5434 9.23603 18.8335 8.37103 18.0479L2.20703 24.2069C2.01946 24.3947 1.76494 24.5002 1.49953 24.5002C1.23412 24.5002 0.979599 24.3947 0.792031 24.2069H0.793031ZM12.235 18.4809C14.6954 20.0772 17.4956 21.0749 20.411 21.3939C20.6915 21.4193 20.9696 21.3252 21.1771 21.1349C21.3846 20.9445 21.5022 20.6755 21.501 20.3939V17.3799C21.5066 16.881 21.1435 16.4543 20.65 16.3799C19.6145 16.2431 18.5977 15.9899 17.619 15.6249C17.2557 15.488 16.8459 15.5738 16.568 15.8449L15.298 17.1149C14.9801 17.4328 14.4892 17.4995 14.098 17.2779C13.0654 16.6904 12.0971 15.9963 11.209 15.2069L9.78803 16.6259C10.5505 17.3111 11.3686 17.9316 12.234 18.4809H12.235ZM4.85103 13.8539C3.07924 11.1202 1.97392 8.00877 1.62403 4.76995C1.54823 3.93108 1.82856 3.09899 2.39652 2.47701C2.96448 1.85503 3.76775 1.50046 4.61003 1.49995H7.60003C9.10881 1.48573 10.3934 2.59432 10.6 4.08895C10.7165 4.97345 10.9325 5.84196 11.244 6.67795C11.6568 7.77617 11.3916 9.01427 10.565 9.84695L9.30003 11.1169C8.90874 11.5082 8.27432 11.5082 7.88303 11.1169C7.49174 10.7257 7.49174 10.0912 7.88303 9.69995L9.14903 8.43695C9.424 8.15875 9.51152 7.74577 9.37303 7.37995C9.00928 6.4048 8.75668 5.39172 8.62003 4.35995C8.54932 3.8591 8.11575 3.48992 7.61003 3.49995H4.61003C4.33185 3.49922 4.06595 3.61441 3.8762 3.81782C3.68645 4.02123 3.59 4.29449 3.61003 4.57195C3.92756 7.49365 4.92596 10.3001 6.52503 12.7659C6.81744 13.229 6.68305 13.841 6.22356 14.139C5.76408 14.4369 5.15043 14.3098 4.84703 13.8539H4.85103Z" fill="white"/>
</mask>
<g mask="url(#mask0_0_12185)">
<rect x="0.5" y="0.5" width="24" height="24" fill="#333333"/>
</g>
</svg>
