<svg width="24" height="24" viewBox="0 0 24 24" fill="none" xmlns="http://www.w3.org/2000/svg">
<path fill-rule="evenodd" clip-rule="evenodd" d="M15.3879 9.50003H21.3859C21.9382 9.50003 22.3859 9.05232 22.3859 8.50003C22.3859 7.94775 21.9382 7.50003 21.3859 7.50003H17.7999L23.0999 2.20703C23.4904 1.81519 23.4893 1.181 23.0974 0.790531C22.7056 0.400066 22.0714 0.401185 21.6809 0.793031L16.3879 6.08603V2.50003C16.3879 1.94775 15.9402 1.50003 15.3879 1.50003C14.8356 1.50003 14.3879 1.94775 14.3879 2.50003V8.50003C14.3879 9.05232 14.8356 9.50003 15.3879 9.50003ZM19.3819 23.427C19.2819 23.427 19.1889 23.427 19.0999 23.414C15.8707 23.0606 12.7687 21.958 10.0409 20.194C7.50668 18.5785 5.35644 16.4283 3.74092 13.894C1.96606 11.1471 0.86044 8.02199 0.512918 4.77003C0.437097 3.93099 0.717559 3.09874 1.28574 2.47673C1.85392 1.85471 2.65746 1.50026 3.49992 1.50003H6.51992C8.01693 1.50139 9.28383 2.60614 9.48892 4.08903C9.60582 4.97355 9.82219 5.84205 10.1339 6.67803C10.5436 7.77649 10.2787 9.01286 9.45492 9.84703L8.73792 10.563C9.9166 12.4056 11.4813 13.9703 13.3239 15.149L14.0449 14.428C14.8771 13.605 16.112 13.341 17.2079 13.752C18.0475 14.0645 18.9197 14.2813 19.8079 14.398C21.3108 14.6102 22.4185 15.9115 22.3879 17.429V20.414C22.3906 21.2125 22.0749 21.979 21.5107 22.5439C20.9465 23.1089 20.1803 23.4256 19.3819 23.424V23.427ZM3.49992 3.50003C3.2194 3.50052 2.95199 3.6188 2.76292 3.82603C2.57455 4.02764 2.47918 4.2989 2.49992 4.57403C2.81592 7.51115 3.816 10.3333 5.41992 12.814C6.87484 15.1123 8.82163 17.0591 11.1199 18.514C13.583 20.1073 16.384 21.1037 19.2999 21.424H19.3899C19.6565 21.424 19.9121 21.3176 20.0999 21.1283C20.2876 20.939 20.3921 20.6826 20.3899 20.416V17.416C20.411 16.9043 20.0457 16.4577 19.5399 16.377C18.5044 16.24 17.4877 15.9867 16.5089 15.622C16.1456 15.4851 15.7358 15.5709 15.4579 15.842L14.1879 17.112C13.87 17.4299 13.3791 17.4966 12.9879 17.275C10.3264 15.7631 8.12254 13.5606 6.60892 10.9C6.38708 10.5091 6.45335 10.0182 6.77092 9.70003L8.03692 8.43703C8.31063 8.15819 8.39834 7.74618 8.26192 7.38003C7.89774 6.40501 7.64513 5.39189 7.50892 4.36003C7.43867 3.86302 7.01085 3.49509 6.50892 3.50003H3.49992Z" fill="#333333"/>
<mask id="mask0_0_13510" style="mask-type:alpha" maskUnits="userSpaceOnUse" x="0" y="0" width="24" height="24">
<path fill-rule="evenodd" clip-rule="evenodd" d="M19.3819 23.427C19.2819 23.427 19.1889 23.427 19.0999 23.414C15.8707 23.0606 12.7687 21.958 10.0409 20.194C7.50668 18.5785 5.35644 16.4283 3.74092 13.894C1.96606 11.1471 0.86044 8.02199 0.512918 4.77003C0.437097 3.93099 0.717559 3.09874 1.28574 2.47673C1.85392 1.85471 2.65746 1.50026 3.49992 1.50003H6.51992C8.01693 1.50139 9.28383 2.60614 9.48892 4.08903C9.60582 4.97355 9.82219 5.84205 10.1339 6.67803C10.5436 7.77649 10.2787 9.01286 9.45492 9.84703L8.73792 10.563C9.9166 12.4056 11.4813 13.9703 13.3239 15.149L14.0449 14.428C14.8771 13.605 16.112 13.341 17.2079 13.752C18.0475 14.0645 18.9197 14.2813 19.8079 14.398C21.3108 14.6102 22.4185 15.9115 22.3879 17.429V20.414C22.3906 21.2125 22.0749 21.979 21.5107 22.5439C20.9465 23.1089 20.1803 23.4256 19.3819 23.424V23.427ZM3.49992 3.50003C3.2194 3.50052 2.95199 3.6188 2.76292 3.82603C2.57455 4.02764 2.47918 4.2989 2.49992 4.57403C2.81592 7.51115 3.816 10.3333 5.41992 12.814C6.87484 15.1123 8.82163 17.0591 11.1199 18.514C13.583 20.1073 16.384 21.1037 19.2999 21.424C19.3269 21.424 19.3559 21.424 19.3899 21.424C19.6565 21.424 19.9121 21.3176 20.0999 21.1283C20.2876 20.939 20.3921 20.6826 20.3899 20.416V17.416C20.411 16.9043 20.0457 16.4577 19.5399 16.377C18.5044 16.24 17.4877 15.9867 16.5089 15.622C16.1456 15.4851 15.7358 15.5709 15.4579 15.842L14.1879 17.112C13.87 17.4299 13.3791 17.4966 12.9879 17.275C10.3264 15.7631 8.12254 13.5606 6.60892 10.9C6.38708 10.5091 6.45335 10.0182 6.77092 9.70003L8.03692 8.43703C8.31063 8.15819 8.39834 7.74618 8.26192 7.38003C7.89774 6.40501 7.64513 5.39189 7.50892 4.36003C7.43867 3.86302 7.01085 3.49509 6.50892 3.50003H3.49992ZM21.3879 9.50003H15.3879C14.8356 9.50003 14.3879 9.05232 14.3879 8.50003V2.50003C14.3879 1.94775 14.8356 1.50003 15.3879 1.50003C15.9402 1.50003 16.3879 1.94775 16.3879 2.50003V6.08603L21.6809 0.793031C22.0714 0.401185 22.7056 0.400066 23.0974 0.790531C23.4893 1.181 23.4904 1.81519 23.0999 2.20703L17.7999 7.50003H21.3859C21.9382 7.50003 22.3859 7.94775 22.3859 8.50003C22.3859 9.05232 21.9382 9.50003 21.3859 9.50003H21.3879Z" fill="white"/>
</mask>
<g mask="url(#mask0_0_13510)">
<rect x="-0.5" y="-0.499939" width="24" height="24" fill="#333333"/>
</g>
</svg>
