<svg width="23" height="23" viewBox="0 0 23 23" fill="none" xmlns="http://www.w3.org/2000/svg">
<path d="M12.7709 14.7L13.9709 14.538C13.7509 14.4133 13.5349 14.283 13.3229 14.147L12.7709 14.7Z" fill="#333333"/>
<mask id="mask0_0_14071" style="mask-type:alpha" maskUnits="userSpaceOnUse" x="0" y="0" width="23" height="23">
<path fill-rule="evenodd" clip-rule="evenodd" d="M19.3819 22.427C19.2889 22.427 19.1939 22.427 19.0999 22.414C15.8707 22.0606 12.7687 20.958 10.0409 19.194C7.50668 17.5785 5.35644 15.4282 3.74092 12.894C1.96606 10.147 0.86044 7.02196 0.512918 3.77C0.437097 2.93096 0.717559 2.09871 1.28574 1.47669C1.85392 0.854679 2.65746 0.500232 3.49992 0.5H6.51992C8.01693 0.501354 9.28383 1.60611 9.48892 3.089C9.60582 3.97352 9.82219 4.84202 10.1339 5.678C10.5436 6.77646 10.2787 8.01283 9.45492 8.847L8.73792 9.563C9.9166 11.4056 11.4813 12.9703 13.3239 14.149L12.7699 14.702L13.9699 14.54C13.7429 14.411 13.5249 14.279 13.3219 14.149L14.0429 13.428C14.8751 12.6049 16.11 12.341 17.2059 12.752C18.0455 13.0645 18.9177 13.2812 19.8059 13.398C21.3088 13.6102 22.4165 14.9115 22.3859 16.429V19.414C22.3888 20.2126 22.0732 20.9794 21.509 21.5446C20.9448 22.1097 20.1785 22.4266 19.3799 22.425L19.3819 22.427ZM3.49992 2.5C3.2194 2.50049 2.95199 2.61877 2.76292 2.826C2.57455 3.02761 2.47918 3.29887 2.49992 3.574C2.81592 6.51112 3.816 9.33328 5.41992 11.814C6.87484 14.1123 8.82163 16.0591 11.1199 17.514C13.583 19.1073 16.384 20.1037 19.2999 20.424C19.3299 20.424 19.3599 20.424 19.3899 20.424C19.6565 20.424 19.9121 20.3176 20.0999 20.1283C20.2876 19.939 20.3921 19.6826 20.3899 19.416V16.416C20.411 15.9042 20.0457 15.4577 19.5399 15.377C18.5044 15.24 17.4877 14.9867 16.5089 14.622C16.1456 14.4851 15.7358 14.5708 15.4579 14.842L14.1879 16.112C13.87 16.4299 13.3791 16.4966 12.9879 16.275C10.3264 14.763 8.12254 12.5605 6.60892 9.9C6.38708 9.50905 6.45335 9.01813 6.77092 8.7L8.03692 7.437C8.31063 7.15816 8.39834 6.74615 8.26192 6.38C7.8974 5.40502 7.64445 4.3919 7.50792 3.36C7.43767 2.86298 7.00985 2.49506 6.50792 2.5H3.49992Z" fill="white"/>
</mask>
<g mask="url(#mask0_0_14071)">
<rect x="-0.500122" y="-0.5" width="24" height="24" fill="#333333"/>
</g>
</svg>
