<svg width="24" height="24" viewBox="0 0 24 24" fill="none" xmlns="http://www.w3.org/2000/svg">
<path fill-rule="evenodd" clip-rule="evenodd" d="M14.4642 8.88266C14.619 9.25627 14.9835 9.49992 15.3879 9.5C15.6548 9.50221 15.9114 9.39698 16.0999 9.208L21.3829 3.915V7.5C21.3829 8.05229 21.8306 8.5 22.3829 8.5C22.9352 8.5 23.3829 8.05229 23.3829 7.5V1.515C23.3936 1.1377 23.191 0.786519 22.8589 0.607001L22.8459 0.600001H22.8399H22.8329H22.8259L22.8159 0.592001H22.8079L22.7879 0.583001C22.6617 0.528104 22.5255 0.499848 22.3879 0.5H16.3879C15.8356 0.5 15.3879 0.947716 15.3879 1.5C15.3879 2.05229 15.8356 2.5 16.3879 2.5H19.9729L14.6809 7.793C14.395 8.079 14.3095 8.50904 14.4642 8.88266ZM19.3819 23.427C19.2819 23.427 19.1889 23.427 19.0999 23.414C15.8711 23.0605 12.7694 21.9578 10.0419 20.194C7.50768 18.5785 5.35744 16.4282 3.74192 13.894C1.96671 11.1471 0.860743 8.02204 0.512918 4.77C0.437097 3.93096 0.717559 3.09871 1.28574 2.4767C1.85392 1.85468 2.65746 1.50023 3.49992 1.5H6.51992C8.01693 1.50136 9.28383 2.60611 9.48892 4.089C9.60582 4.97352 9.82219 5.84202 10.1339 6.678C10.5436 7.77646 10.2787 9.01283 9.45492 9.847L8.73792 10.563C9.9166 12.4056 11.4813 13.9703 13.3239 15.149L14.0449 14.428C14.8771 13.6049 16.112 13.341 17.2079 13.752C18.0475 14.0645 18.9197 14.2812 19.8079 14.398C21.3108 14.6102 22.4185 15.9115 22.3879 17.429V20.414C22.3906 21.2124 22.0749 21.979 21.5107 22.5439C20.9465 23.1089 20.1803 23.4256 19.3819 23.424V23.427ZM3.49992 3.5C3.2194 3.50049 2.95199 3.61877 2.76292 3.826C2.57455 4.02761 2.47918 4.29887 2.49992 4.574C2.81592 7.51112 3.816 10.3333 5.41992 12.814C6.87484 15.1123 8.82163 17.0591 11.1199 18.514C13.583 20.1073 16.384 21.1037 19.2999 21.424H19.3899C19.6565 21.424 19.9121 21.3176 20.0999 21.1283C20.2876 20.939 20.3921 20.6826 20.3899 20.416V17.416C20.411 16.9039 20.0451 16.4573 19.5389 16.377C18.5034 16.24 17.4867 15.9867 16.5079 15.622C16.1446 15.4851 15.7348 15.5708 15.4569 15.842L14.1869 17.112C13.869 17.4299 13.3781 17.4966 12.9869 17.275C10.3258 15.7629 8.12227 13.5604 6.60892 10.9C6.38708 10.5091 6.45335 10.0181 6.77092 9.7L8.03792 8.437C8.31129 8.15794 8.39859 7.74596 8.26192 7.38C7.8974 6.40502 7.64445 5.3919 7.50792 4.36C7.43767 3.86299 7.00985 3.49506 6.50792 3.5H3.49992Z" fill="#333333"/>
<mask id="mask0_0_13026" style="mask-type:alpha" maskUnits="userSpaceOnUse" x="0" y="0" width="24" height="24">
<path fill-rule="evenodd" clip-rule="evenodd" d="M19.3819 23.427C19.2819 23.427 19.1889 23.427 19.0999 23.414C15.8711 23.0605 12.7694 21.9578 10.0419 20.194C7.50768 18.5785 5.35744 16.4282 3.74192 13.894C1.96671 11.1471 0.860743 8.02204 0.512918 4.77C0.437097 3.93096 0.717559 3.09871 1.28574 2.4767C1.85392 1.85468 2.65746 1.50023 3.49992 1.5H6.51992C8.01693 1.50136 9.28383 2.60611 9.48892 4.089C9.60582 4.97352 9.82219 5.84202 10.1339 6.678C10.5436 7.77646 10.2787 9.01283 9.45492 9.847L8.73792 10.563C9.9166 12.4056 11.4813 13.9703 13.3239 15.149L14.0449 14.428C14.8771 13.6049 16.112 13.341 17.2079 13.752C18.0475 14.0645 18.9197 14.2812 19.8079 14.398C21.3108 14.6102 22.4185 15.9115 22.3879 17.429V20.414C22.3906 21.2124 22.0749 21.979 21.5107 22.5439C20.9465 23.1089 20.1803 23.4256 19.3819 23.424V23.427ZM3.49992 3.5C3.2194 3.50049 2.95199 3.61877 2.76292 3.826C2.57455 4.02761 2.47918 4.29887 2.49992 4.574C2.81592 7.51112 3.816 10.3333 5.41992 12.814C6.87484 15.1123 8.82163 17.0591 11.1199 18.514C13.583 20.1073 16.384 21.1037 19.2999 21.424C19.3269 21.424 19.3559 21.424 19.3899 21.424C19.6565 21.424 19.9121 21.3176 20.0999 21.1283C20.2876 20.939 20.3921 20.6826 20.3899 20.416V17.416C20.411 16.9039 20.0451 16.4573 19.5389 16.377C18.5034 16.24 17.4867 15.9867 16.5079 15.622C16.1446 15.4851 15.7348 15.5708 15.4569 15.842L14.1869 17.112C13.869 17.4299 13.3781 17.4966 12.9869 17.275C10.3258 15.7629 8.12227 13.5604 6.60892 10.9C6.38708 10.5091 6.45335 10.0181 6.77092 9.7L8.03792 8.437C8.31129 8.15794 8.39859 7.74596 8.26192 7.38C7.8974 6.40502 7.64445 5.3919 7.50792 4.36C7.43767 3.86299 7.00985 3.49506 6.50792 3.5H3.49992ZM15.3879 9.5C14.9835 9.49992 14.619 9.25627 14.4642 8.88266C14.3095 8.50904 14.395 8.079 14.6809 7.793L19.9729 2.5H16.3879C15.8356 2.5 15.3879 2.05229 15.3879 1.5C15.3879 0.947716 15.8356 0.500001 16.3879 0.500001H22.3879C22.5255 0.499848 22.6617 0.528104 22.7879 0.583001L22.8079 0.592001H22.8159L22.8259 0.600001H22.8329H22.8399H22.8459L22.8589 0.607001V0.607001C23.191 0.786519 23.3936 1.1377 23.3829 1.515V7.5C23.3829 8.05229 22.9352 8.5 22.3829 8.5C21.8306 8.5 21.3829 8.05229 21.3829 7.5V3.915L16.0999 9.208C15.9114 9.39698 15.6548 9.50221 15.3879 9.5Z" fill="white"/>
</mask>
<g mask="url(#mask0_0_13026)">
<rect x="-0.5" y="-0.5" width="24" height="24" fill="#333333"/>
</g>
</svg>
