<svg width="23" height="23" viewBox="0 0 23 23" fill="none" xmlns="http://www.w3.org/2000/svg">
<path fill-rule="evenodd" clip-rule="evenodd" d="M21.5 12.5H11.5C10.9477 12.5 10.5 12.0523 10.5 11.5V1.5C10.5 0.947715 10.9477 0.5 11.5 0.5C17.5751 0.5 22.5 5.42487 22.5 11.5C22.5 12.0523 22.0523 12.5 21.5 12.5ZM11.505 22.5C11.0283 22.4973 10.5524 22.4639 10.08 22.4C6.46373 21.9273 3.31688 19.6929 1.67843 16.4346C0.0399722 13.1763 0.122966 9.31781 1.9 6.133C3.06622 4.03016 4.89419 2.37128 7.1 1.414C7.42783 1.26886 7.80827 1.31033 8.09714 1.52268C8.386 1.73503 8.53908 2.08578 8.49836 2.44198C8.45764 2.79818 8.22934 3.10532 7.9 3.247C5.16272 4.44064 3.19573 6.91427 2.64936 9.85008C2.10299 12.7859 3.04839 15.8015 5.173 17.9C6.56983 19.2864 8.38563 20.1723 10.338 20.42C14.349 20.9445 18.2167 18.7267 19.79 15C19.9239 14.6634 20.2294 14.4256 20.5886 14.3783C20.9477 14.331 21.3044 14.4816 21.5209 14.7721C21.7374 15.0625 21.7799 15.4473 21.632 15.778C19.9182 19.8537 15.9264 22.5033 11.505 22.5ZM12.5 10.5V2.556C16.6785 3.02329 19.9767 6.32147 20.444 10.5H12.5Z" fill="#333333"/>
<mask id="mask0_0_11891" style="mask-type:alpha" maskUnits="userSpaceOnUse" x="0" y="0" width="23" height="23">
<path fill-rule="evenodd" clip-rule="evenodd" d="M11.505 22.5C11.0283 22.4973 10.5524 22.4639 10.08 22.4C6.46373 21.9273 3.31688 19.6929 1.67843 16.4346C0.0399722 13.1763 0.122966 9.31781 1.9 6.133C3.06622 4.03016 4.89419 2.37128 7.1 1.414C7.42783 1.26886 7.80827 1.31033 8.09714 1.52268C8.386 1.73503 8.53908 2.08578 8.49836 2.44198C8.45764 2.79818 8.22934 3.10532 7.9 3.247C5.16272 4.44064 3.19573 6.91427 2.64936 9.85008C2.10299 12.7859 3.04839 15.8015 5.173 17.9C6.56983 19.2864 8.38563 20.1723 10.338 20.42C14.349 20.9445 18.2167 18.7267 19.79 15C19.9239 14.6634 20.2294 14.4256 20.5886 14.3783C20.9477 14.331 21.3044 14.4816 21.5209 14.7721C21.7374 15.0625 21.7799 15.4473 21.632 15.778C19.9182 19.8537 15.9264 22.5033 11.505 22.5ZM21.5 12.5H11.5C10.9477 12.5 10.5 12.0523 10.5 11.5V1.5C10.5 0.947715 10.9477 0.5 11.5 0.5C17.5751 0.5 22.5 5.42487 22.5 11.5C22.5 12.0523 22.0523 12.5 21.5 12.5ZM12.5 2.556V10.5H20.444C19.9767 6.32147 16.6785 3.02329 12.5 2.556Z" fill="white"/>
</mask>
<g mask="url(#mask0_0_11891)">
<rect x="-0.5" y="-0.5" width="24" height="24" fill="#333333"/>
</g>
</svg>
