<svg width="23" height="23" viewBox="0 0 23 23" fill="none" xmlns="http://www.w3.org/2000/svg">
<path fill-rule="evenodd" clip-rule="evenodd" d="M3.72201 19.278C0.912076 16.5055 -0.19679 12.4399 0.816375 8.62462C1.82954 4.80937 4.80937 1.82954 8.62462 0.816375C12.4399 -0.19679 16.5055 0.912076 19.278 3.72201C22.0879 6.49453 23.1968 10.5601 22.1836 14.3754C21.1705 18.1906 18.1906 21.1705 14.3754 22.1836C10.5601 23.1968 6.49453 22.0879 3.72201 19.278ZM2.50001 11.5C2.50001 16.4706 6.52944 20.5 11.5 20.5C16.4706 20.5 20.5 16.4706 20.5 11.5C20.5 6.52944 16.4706 2.50001 11.5 2.50001C6.53173 2.50552 2.50552 6.53173 2.50001 11.5ZM9.028 6.61892C8.70309 6.79288 8.5002 7.13145 8.50001 7.50001V15.5C8.50001 16.0523 8.94772 16.5 9.50001 16.5C9.6973 16.5005 9.89023 16.442 10.054 16.332L16.054 12.332C16.3322 12.1465 16.4992 11.8343 16.4992 11.5C16.4992 11.1657 16.3322 10.8535 16.054 10.668L10.054 6.66801C9.74718 6.46383 9.35292 6.44497 9.028 6.61892Z" fill="#333333"/>
<mask id="mask0_0_13557" style="mask-type:alpha" maskUnits="userSpaceOnUse" x="0" y="0" width="23" height="23">
<path fill-rule="evenodd" clip-rule="evenodd" d="M3.72201 19.278C0.912076 16.5055 -0.19679 12.4399 0.816375 8.62462C1.82954 4.80937 4.80937 1.82954 8.62462 0.816375C12.4399 -0.19679 16.5055 0.912076 19.278 3.72201C22.0879 6.49453 23.1968 10.5601 22.1836 14.3754C21.1705 18.1906 18.1906 21.1705 14.3754 22.1836C10.5601 23.1968 6.49453 22.0879 3.72201 19.278V19.278ZM2.50001 11.5C2.50001 16.4706 6.52944 20.5 11.5 20.5C16.4706 20.5 20.5 16.4706 20.5 11.5C20.5 6.52944 16.4706 2.50001 11.5 2.50001C6.53173 2.50552 2.50552 6.53173 2.50001 11.5ZM8.50001 15.5V7.50001C8.5002 7.13145 8.70309 6.79288 9.028 6.61892C9.35292 6.44497 9.74718 6.46383 10.054 6.66801L16.054 10.668C16.3322 10.8535 16.4992 11.1657 16.4992 11.5C16.4992 11.8343 16.3322 12.1465 16.054 12.332L10.054 16.332C9.89023 16.442 9.6973 16.5005 9.50001 16.5C8.94772 16.5 8.50001 16.0523 8.50001 15.5Z" fill="white"/>
</mask>
<g mask="url(#mask0_0_13557)">
<rect x="-0.5" y="-0.5" width="24" height="24" fill="#333333"/>
</g>
</svg>
