<svg width="17" height="21" viewBox="0 0 17 21" fill="none" xmlns="http://www.w3.org/2000/svg">
<mask id="mask0_0_12899" style="mask-type:alpha" maskUnits="userSpaceOnUse" x="0" y="0" width="17" height="21">
<path fill-rule="evenodd" clip-rule="evenodd" d="M1.49998 20.5C1.2393 20.4993 0.988783 20.3987 0.799983 20.219C0.605623 20.0306 0.497162 19.7706 0.499983 19.5V1.49996C0.500357 1.13428 0.700297 0.797968 1.02137 0.622951C1.34244 0.447934 1.73344 0.462124 2.04098 0.659955L16.041 9.65996C16.3275 9.8439 16.5007 10.161 16.5007 10.5015C16.5007 10.8419 16.3275 11.159 16.041 11.343L2.04098 20.343C1.87942 20.446 1.69164 20.5005 1.49998 20.5ZM2.49998 3.33296V17.67L13.651 10.5L2.49998 3.33296Z" fill="white"/>
</mask>
<g mask="url(#mask0_0_12899)">
<rect x="-3.5" y="-1.5" width="24" height="24" fill="#333333"/>
</g>
</svg>
