<svg width="23" height="23" viewBox="0 0 23 23" fill="none" xmlns="http://www.w3.org/2000/svg">
<path fill-rule="evenodd" clip-rule="evenodd" d="M3.72201 19.278C0.912076 16.5055 -0.19679 12.4399 0.816375 8.62462C1.82954 4.80937 4.80937 1.82954 8.62462 0.816375C12.4399 -0.19679 16.5055 0.912076 19.278 3.72201C22.0879 6.49453 23.1968 10.5601 22.1836 14.3754C21.1705 18.1906 18.1906 21.1705 14.3754 22.1836C10.5601 23.1968 6.49453 22.0879 3.72201 19.278ZM2.50001 11.5C2.50001 16.4706 6.52944 20.5 11.5 20.5C16.4706 20.5 20.5 16.4706 20.5 11.5C20.5 6.52944 16.4706 2.50001 11.5 2.50001C6.53173 2.50552 2.50552 6.53173 2.50001 11.5ZM10.5 12.5V15.5C10.5 16.0523 10.9477 16.5 11.5 16.5C12.0523 16.5 12.5 16.0523 12.5 15.5V12.5H15.5C16.0523 12.5 16.5 12.0523 16.5 11.5C16.5 10.9477 16.0523 10.5 15.5 10.5H12.5V7.50001C12.5 6.94772 12.0523 6.50001 11.5 6.50001C10.9477 6.50001 10.5 6.94772 10.5 7.50001V10.5H7.50001C6.94772 10.5 6.50001 10.9477 6.50001 11.5C6.50001 12.0523 6.94772 12.5 7.50001 12.5H10.5Z" fill="#333333"/>
<mask id="mask0_0_12070" style="mask-type:alpha" maskUnits="userSpaceOnUse" x="0" y="0" width="23" height="23">
<path fill-rule="evenodd" clip-rule="evenodd" d="M3.72201 19.278C0.912076 16.5055 -0.19679 12.4399 0.816375 8.62462C1.82954 4.80937 4.80937 1.82954 8.62462 0.816375C12.4399 -0.19679 16.5055 0.912076 19.278 3.72201C22.0879 6.49453 23.1968 10.5601 22.1836 14.3754C21.1705 18.1906 18.1906 21.1705 14.3754 22.1836C10.5601 23.1968 6.49453 22.0879 3.72201 19.278V19.278ZM2.50001 11.5C2.50001 16.4706 6.52944 20.5 11.5 20.5C16.4706 20.5 20.5 16.4706 20.5 11.5C20.5 6.52944 16.4706 2.50001 11.5 2.50001C6.53173 2.50552 2.50552 6.53173 2.50001 11.5ZM10.5 15.5V12.5H7.50001C6.94772 12.5 6.50001 12.0523 6.50001 11.5C6.50001 10.9477 6.94772 10.5 7.50001 10.5H10.5V7.50001C10.5 6.94772 10.9477 6.50001 11.5 6.50001C12.0523 6.50001 12.5 6.94772 12.5 7.50001V10.5H15.5C16.0523 10.5 16.5 10.9477 16.5 11.5C16.5 12.0523 16.0523 12.5 15.5 12.5H12.5V15.5C12.5 16.0523 12.0523 16.5 11.5 16.5C10.9477 16.5 10.5 16.0523 10.5 15.5Z" fill="white"/>
</mask>
<g mask="url(#mask0_0_12070)">
<rect x="-0.5" y="-0.5" width="24" height="24" fill="#333333"/>
</g>
</svg>
