<svg width="21" height="21" viewBox="0 0 21 21" fill="none" xmlns="http://www.w3.org/2000/svg">
<path fill-rule="evenodd" clip-rule="evenodd" d="M3.5 20.5C1.84315 20.5 0.5 19.1569 0.5 17.5V3.5C0.5 1.84315 1.84315 0.5 3.5 0.5H17.5C19.1569 0.5 20.5 1.84315 20.5 3.5V17.5C20.5 19.1569 19.1569 20.5 17.5 20.5H3.5ZM2.5 3.5V17.5C2.5 18.0523 2.94772 18.5 3.5 18.5H17.5C18.0523 18.5 18.5 18.0523 18.5 17.5V3.5C18.5 2.94772 18.0523 2.5 17.5 2.5H3.5C2.94772 2.5 2.5 2.94772 2.5 3.5ZM9.5 11.5V14.5C9.5 15.0523 9.94771 15.5 10.5 15.5C11.0523 15.5 11.5 15.0523 11.5 14.5V11.5H14.5C15.0523 11.5 15.5 11.0523 15.5 10.5C15.5 9.94771 15.0523 9.5 14.5 9.5H11.5V6.5C11.5 5.94772 11.0523 5.5 10.5 5.5C9.94771 5.5 9.5 5.94772 9.5 6.5V9.5H6.5C5.94772 9.5 5.5 9.94771 5.5 10.5C5.5 11.0523 5.94772 11.5 6.5 11.5H9.5Z" fill="#333333"/>
<mask id="mask0_0_12979" style="mask-type:alpha" maskUnits="userSpaceOnUse" x="0" y="0" width="21" height="21">
<path fill-rule="evenodd" clip-rule="evenodd" d="M3.5 20.5C1.84315 20.5 0.5 19.1569 0.5 17.5V3.5C0.5 1.84315 1.84315 0.5 3.5 0.5H17.5C19.1569 0.5 20.5 1.84315 20.5 3.5V17.5C20.5 19.1569 19.1569 20.5 17.5 20.5H3.5ZM2.5 3.5V17.5C2.5 18.0523 2.94772 18.5 3.5 18.5H17.5C18.0523 18.5 18.5 18.0523 18.5 17.5V3.5C18.5 2.94772 18.0523 2.5 17.5 2.5H3.5C2.94772 2.5 2.5 2.94772 2.5 3.5ZM9.5 14.5V11.5H6.5C5.94772 11.5 5.5 11.0523 5.5 10.5C5.5 9.94772 5.94772 9.5 6.5 9.5H9.5V6.5C9.5 5.94772 9.94772 5.5 10.5 5.5C11.0523 5.5 11.5 5.94772 11.5 6.5V9.5H14.5C15.0523 9.5 15.5 9.94772 15.5 10.5C15.5 11.0523 15.0523 11.5 14.5 11.5H11.5V14.5C11.5 15.0523 11.0523 15.5 10.5 15.5C9.94772 15.5 9.5 15.0523 9.5 14.5Z" fill="white"/>
</mask>
<g mask="url(#mask0_0_12979)">
<rect x="-1.5" y="-1.5" width="24" height="24" fill="#333333"/>
</g>
</svg>
