<svg width="17" height="17" viewBox="0 0 17 17" fill="none" xmlns="http://www.w3.org/2000/svg">
<path d="M7.5 15.5V9.5H1.5C0.947715 9.5 0.5 9.05228 0.5 8.5C0.5 7.94772 0.947715 7.5 1.5 7.5H7.5V1.5C7.5 0.947715 7.94772 0.5 8.5 0.5C9.05228 0.5 9.5 0.947715 9.5 1.5V7.5H15.5C16.0523 7.5 16.5 7.94772 16.5 8.5C16.5 9.05228 16.0523 9.5 15.5 9.5H9.5V15.5C9.5 16.0523 9.05228 16.5 8.5 16.5C7.94772 16.5 7.5 16.0523 7.5 15.5Z" fill="#333333"/>
<mask id="mask0_0_14586" style="mask-type:alpha" maskUnits="userSpaceOnUse" x="0" y="0" width="17" height="17">
<path fill-rule="evenodd" clip-rule="evenodd" d="M7.5 15.5V9.5H1.5C0.947715 9.5 0.5 9.05228 0.5 8.5C0.5 7.94772 0.947715 7.5 1.5 7.5H7.5V1.5C7.5 0.947715 7.94772 0.5 8.5 0.5C9.05228 0.5 9.5 0.947715 9.5 1.5V7.5H15.5C16.0523 7.5 16.5 7.94772 16.5 8.5C16.5 9.05228 16.0523 9.5 15.5 9.5H9.5V15.5C9.5 16.0523 9.05228 16.5 8.5 16.5C7.94772 16.5 7.5 16.0523 7.5 15.5Z" fill="white"/>
</mask>
<g mask="url(#mask0_0_14586)">
<rect x="-3.5" y="-3.5" width="24" height="24" fill="#333333"/>
</g>
</svg>
