<svg width="23" height="21" viewBox="0 0 23 21" fill="none" xmlns="http://www.w3.org/2000/svg">
<path fill-rule="evenodd" clip-rule="evenodd" d="M7.291 19.663C3.18027 17.9605 0.499955 13.9493 0.5 9.5V3.5C0.5 1.84315 1.84315 0.5 3.5 0.5H19.5C21.1569 0.5 22.5 1.84315 22.5 3.5V9.5C22.5 13.1737 20.6661 16.605 17.6116 18.6461C14.557 20.6872 10.6852 21.0687 7.291 19.663ZM2.5 3.5V9.5C2.5 14.4706 6.52944 18.5 11.5 18.5C16.4706 18.5 20.5 14.4706 20.5 9.5V3.5C20.5 2.94772 20.0523 2.5 19.5 2.5H3.5C2.94772 2.5 2.5 2.94772 2.5 3.5ZM6.794 9.207L10.794 13.207L10.793 13.208C11.1835 13.5984 11.8165 13.5984 12.207 13.208L16.207 9.208C16.5977 8.81753 16.598 8.18424 16.2075 7.7935C15.817 7.40276 15.1837 7.40253 14.793 7.793L11.5 11.086L8.207 7.793C7.81316 7.42368 7.19726 7.43368 6.81561 7.81559C6.43396 8.19751 6.4244 8.81342 6.794 9.207Z" fill="#333333"/>
<mask id="mask0_0_12084" style="mask-type:alpha" maskUnits="userSpaceOnUse" x="0" y="0" width="23" height="21">
<path fill-rule="evenodd" clip-rule="evenodd" d="M7.291 19.663C3.18027 17.9605 0.499955 13.9493 0.5 9.5V3.5C0.5 1.84315 1.84315 0.5 3.5 0.5H19.5C21.1569 0.5 22.5 1.84315 22.5 3.5V9.5C22.5 13.1737 20.6661 16.605 17.6116 18.6461C14.557 20.6872 10.6852 21.0687 7.291 19.663V19.663ZM2.5 3.5V9.5C2.5 14.4706 6.52944 18.5 11.5 18.5C16.4706 18.5 20.5 14.4706 20.5 9.5V3.5C20.5 2.94772 20.0523 2.5 19.5 2.5H3.5C2.94772 2.5 2.5 2.94772 2.5 3.5ZM10.794 13.207L6.794 9.207C6.4244 8.81342 6.43396 8.19751 6.81561 7.81559C7.19726 7.43368 7.81316 7.42368 8.207 7.793L11.5 11.086L14.793 7.793C15.1837 7.40253 15.817 7.40276 16.2075 7.7935C16.598 8.18424 16.5977 8.81753 16.207 9.208L12.207 13.208C11.8165 13.5984 11.1835 13.5984 10.793 13.208L10.794 13.207Z" fill="white"/>
</mask>
<g mask="url(#mask0_0_12084)">
<rect x="-0.5" y="-1.5" width="24" height="24" fill="#333333"/>
</g>
</svg>
