<svg width="21" height="23" viewBox="0 0 21 23" fill="none" xmlns="http://www.w3.org/2000/svg">
<path fill-rule="evenodd" clip-rule="evenodd" d="M9.50508 1.5V11.5C9.50508 12.0523 9.9528 12.5 10.5051 12.5C11.0574 12.5 11.5051 12.0523 11.5051 11.5V1.5C11.5051 0.947715 11.0574 0.5 10.5051 0.5C9.9528 0.5 9.50508 0.947715 9.50508 1.5ZM3.43009 5.433C-0.475067 9.33823 -0.475067 15.6698 3.43009 19.575C7.33529 23.4805 13.6671 23.4807 17.5726 19.5755C21.4781 15.6703 21.4783 9.33848 17.5731 5.433C17.322 5.17304 16.9502 5.06879 16.6006 5.1603C16.2509 5.25182 15.9779 5.52486 15.8864 5.87449C15.7949 6.22412 15.8991 6.59593 16.1591 6.847C19.2823 9.97153 19.2817 15.0363 16.1576 18.1599C13.0335 21.2836 7.96872 21.2836 4.84461 18.1599C1.72051 15.0363 1.71982 9.97153 4.84309 6.847C5.21269 6.45342 5.20312 5.83751 4.82148 5.45559C4.43983 5.07368 3.82393 5.06368 3.43009 5.433Z" fill="#333333"/>
<mask id="mask0_0_12873" style="mask-type:alpha" maskUnits="userSpaceOnUse" x="0" y="0" width="21" height="23">
<path fill-rule="evenodd" clip-rule="evenodd" d="M3.43009 19.575C-0.475067 15.6698 -0.475067 9.33823 3.43009 5.433C3.82393 5.06368 4.43983 5.07368 4.82148 5.45559C5.20312 5.83751 5.21269 6.45342 4.84309 6.847C1.71982 9.97153 1.72051 15.0363 4.84461 18.1599C7.96872 21.2836 13.0335 21.2836 16.1576 18.1599C19.2817 15.0363 19.2823 9.97153 16.1591 6.847C15.8991 6.59593 15.7949 6.22412 15.8864 5.87449C15.9779 5.52486 16.2509 5.25182 16.6006 5.1603C16.9502 5.06879 17.322 5.17304 17.5731 5.433C21.4783 9.33848 21.4781 15.6703 17.5726 19.5755C13.6671 23.4807 7.33529 23.4805 3.43009 19.575V19.575ZM9.50508 11.5V1.5C9.50508 0.947715 9.9528 0.5 10.5051 0.5C11.0574 0.5 11.5051 0.947715 11.5051 1.5V11.5C11.5051 12.0523 11.0574 12.5 10.5051 12.5C9.9528 12.5 9.50508 12.0523 9.50508 11.5Z" fill="white"/>
</mask>
<g mask="url(#mask0_0_12873)">
<rect x="-1.49988" y="-0.5" width="24" height="24" fill="#333333"/>
</g>
</svg>
