<svg width="23" height="23" viewBox="0 0 23 23" fill="none" xmlns="http://www.w3.org/2000/svg">
<path fill-rule="evenodd" clip-rule="evenodd" d="M5.5 22.5H17.5C18.0523 22.5 18.5 22.0523 18.5 21.5V18.5H19.5C21.1569 18.5 22.5 17.1569 22.5 15.5V10.5C22.5 8.84315 21.1569 7.5 19.5 7.5H18.5V1.5C18.5 0.947715 18.0523 0.5 17.5 0.5H5.5C4.94772 0.5 4.5 0.947715 4.5 1.5V7.5H3.5C1.84315 7.5 0.5 8.84315 0.5 10.5V15.5C0.5 17.1569 1.84315 18.5 3.5 18.5H4.5V21.5C4.5 22.0523 4.94772 22.5 5.5 22.5ZM6.5 20.5V14.5H16.5V20.5H6.5ZM5.5 12.5H17.5C18.0523 12.5 18.5 12.9477 18.5 13.5V16.5H19.5C20.0523 16.5 20.5 16.0523 20.5 15.5V10.5C20.5 9.94771 20.0523 9.5 19.5 9.5H3.5C2.94772 9.5 2.5 9.94771 2.5 10.5V15.5C2.5 16.0523 2.94772 16.5 3.5 16.5H4.5V13.5C4.5 12.9477 4.94772 12.5 5.5 12.5ZM6.5 7.5V2.5H16.5V7.5H6.5Z" fill="#333333"/>
<mask id="mask0_0_14781" style="mask-type:alpha" maskUnits="userSpaceOnUse" x="0" y="0" width="23" height="23">
<path fill-rule="evenodd" clip-rule="evenodd" d="M17.5 22.5H5.5C4.94772 22.5 4.5 22.0523 4.5 21.5V18.5H3.5C1.84315 18.5 0.5 17.1569 0.5 15.5V10.5C0.5 8.84315 1.84315 7.5 3.5 7.5H4.5V1.5C4.5 0.947715 4.94772 0.5 5.5 0.5H17.5C18.0523 0.5 18.5 0.947715 18.5 1.5V7.5H19.5C21.1569 7.5 22.5 8.84315 22.5 10.5V15.5C22.5 17.1569 21.1569 18.5 19.5 18.5H18.5V21.5C18.5 22.0523 18.0523 22.5 17.5 22.5ZM6.5 14.5V20.5H16.5V14.5H6.5ZM5.5 12.5H17.5C18.0523 12.5 18.5 12.9477 18.5 13.5V16.5H19.5C20.0523 16.5 20.5 16.0523 20.5 15.5V10.5C20.5 9.94772 20.0523 9.5 19.5 9.5H3.5C2.94772 9.5 2.5 9.94772 2.5 10.5V15.5C2.5 16.0523 2.94772 16.5 3.5 16.5H4.5V13.5C4.5 12.9477 4.94772 12.5 5.5 12.5ZM6.5 2.5V7.5H16.5V2.5H6.5Z" fill="white"/>
</mask>
<g mask="url(#mask0_0_14781)">
<rect x="-0.5" y="-0.5" width="24" height="24" fill="#333333"/>
</g>
</svg>
