<svg width="23" height="17" viewBox="0 0 23 17" fill="none" xmlns="http://www.w3.org/2000/svg">
<path fill-rule="evenodd" clip-rule="evenodd" d="M3.71992 16.348C3.90695 16.5361 4.16165 16.6413 4.42692 16.64L4.42792 16.639C4.83188 16.6385 5.19587 16.395 5.35052 16.0218C5.50517 15.6486 5.42011 15.2191 5.13492 14.933C1.62699 11.4162 1.62699 5.72375 5.13492 2.20697C5.39469 1.95571 5.49868 1.58384 5.40692 1.23428C5.31515 0.884715 5.04192 0.611866 4.69223 0.520597C4.34254 0.429328 3.97081 0.533843 3.71992 0.793971C-0.574283 5.08947 -0.574283 12.0525 3.71992 16.348ZM17.6453 16.0228C17.8 16.396 18.164 16.6395 18.5679 16.64C18.8333 16.6407 19.0879 16.5352 19.2749 16.347C23.5691 12.0515 23.5691 5.08847 19.2749 0.792971C19.0222 0.540384 18.6538 0.441833 18.3087 0.534441C17.9636 0.627049 17.6941 0.896746 17.6017 1.24194C17.5093 1.58714 17.6082 1.95538 17.8609 2.20797C21.3677 5.7252 21.3677 11.4167 17.8609 14.934C17.5757 15.2201 17.4907 15.6496 17.6453 16.0228ZM15.7369 13.82C15.3325 13.8199 14.968 13.5762 14.8132 13.2026C14.6585 12.829 14.744 12.399 15.0299 12.113C15.9688 11.1751 16.4964 9.90252 16.4964 8.57547C16.4964 7.24842 15.9688 5.97581 15.0299 5.03797C14.6389 4.64778 14.6382 4.01449 15.0284 3.62347C15.4186 3.23245 16.0519 3.23178 16.4429 3.62197C17.7574 4.93495 18.4959 6.71661 18.4959 8.57447C18.4959 10.4323 17.7574 12.214 16.4429 13.527C16.2564 13.7147 16.0026 13.8202 15.7379 13.82H15.7369ZM6.54992 13.518C6.73714 13.7058 6.99171 13.811 7.25692 13.81H7.25792C7.66231 13.8099 8.02685 13.5662 8.1816 13.1926C8.33634 12.819 8.25083 12.389 7.96492 12.103C7.02603 11.1651 6.49849 9.89252 6.49849 8.56547C6.49849 7.23842 7.02603 5.96581 7.96492 5.02797C8.35566 4.63723 8.35566 4.00371 7.96492 3.61297C7.57418 3.22223 6.94066 3.22223 6.54992 3.61297C5.23548 4.92595 4.49691 6.70761 4.49691 8.56547C4.49691 10.4233 5.23548 12.205 6.54992 13.518ZM11.4999 11.57C9.84306 11.57 8.49992 10.2268 8.49992 8.56997C8.49992 6.91312 9.84306 5.56997 11.4999 5.56997C13.1568 5.56997 14.4999 6.91312 14.4999 8.56997C14.4999 10.2268 13.1568 11.57 11.4999 11.57ZM10.4999 8.56997C10.4999 8.01769 10.9476 7.56997 11.4999 7.56997C12.0522 7.56997 12.4999 8.01769 12.4999 8.56997C12.4999 9.12226 12.0522 9.56997 11.4999 9.56997C10.9476 9.56997 10.4999 9.12226 10.4999 8.56997Z" fill="#333333"/>
<mask id="mask0_0_13826" style="mask-type:alpha" maskUnits="userSpaceOnUse" x="0" y="0" width="23" height="17">
<path fill-rule="evenodd" clip-rule="evenodd" d="M18.5679 16.64C18.164 16.6395 17.8 16.396 17.6453 16.0228C17.4907 15.6496 17.5757 15.2201 17.8609 14.934C21.3677 11.4167 21.3677 5.7252 17.8609 2.20797C17.6082 1.95538 17.5093 1.58714 17.6017 1.24194C17.6941 0.896746 17.9636 0.627049 18.3087 0.534441C18.6538 0.441833 19.0222 0.540384 19.2749 0.792971C23.5691 5.08847 23.5691 12.0515 19.2749 16.347C19.0879 16.5352 18.8333 16.6407 18.5679 16.64ZM4.42692 16.64C4.16165 16.6413 3.90695 16.5361 3.71992 16.348C-0.574283 12.0525 -0.574283 5.08947 3.71992 0.793971C3.97081 0.533843 4.34254 0.429328 4.69223 0.520597C5.04192 0.611866 5.31515 0.884715 5.40692 1.23428C5.49868 1.58384 5.39469 1.95571 5.13492 2.20697C1.62699 5.72375 1.62699 11.4162 5.13492 14.933C5.42011 15.2191 5.50517 15.6486 5.35052 16.0218C5.19587 16.395 4.83188 16.6385 4.42792 16.639L4.42692 16.64ZM15.7369 13.82C15.3325 13.8199 14.968 13.5762 14.8132 13.2026C14.6585 12.829 14.744 12.399 15.0299 12.113C15.9688 11.1751 16.4964 9.90252 16.4964 8.57547C16.4964 7.24842 15.9688 5.97581 15.0299 5.03797C14.6389 4.64778 14.6382 4.01449 15.0284 3.62347C15.4186 3.23245 16.0519 3.23178 16.4429 3.62197C17.7574 4.93495 18.4959 6.71661 18.4959 8.57447C18.4959 10.4323 17.7574 12.214 16.4429 13.527C16.2564 13.7147 16.0026 13.8202 15.7379 13.82H15.7369ZM7.25692 13.81C6.99171 13.811 6.73714 13.7058 6.54992 13.518C5.23548 12.205 4.49691 10.4233 4.49691 8.56547C4.49691 6.70761 5.23548 4.92595 6.54992 3.61297C6.94066 3.22223 7.57418 3.22223 7.96492 3.61297C8.35566 4.00371 8.35566 4.63723 7.96492 5.02797C7.02603 5.96581 6.49849 7.23842 6.49849 8.56547C6.49849 9.89252 7.02603 11.1651 7.96492 12.103C8.25083 12.389 8.33634 12.819 8.1816 13.1926C8.02685 13.5662 7.66231 13.8099 7.25792 13.81H7.25692ZM11.4999 11.57C9.84306 11.57 8.49992 10.2268 8.49992 8.56997C8.49992 6.91312 9.84306 5.56997 11.4999 5.56997C13.1568 5.56997 14.4999 6.91312 14.4999 8.56997C14.4999 10.2268 13.1568 11.57 11.4999 11.57V11.57ZM11.4999 7.56997C10.9476 7.56997 10.4999 8.01769 10.4999 8.56997C10.4999 9.12226 10.9476 9.56997 11.4999 9.56997C12.0522 9.56997 12.4999 9.12226 12.4999 8.56997C12.4999 8.01769 12.0522 7.56997 11.4999 7.56997Z" fill="white"/>
</mask>
<g mask="url(#mask0_0_13826)">
<rect x="-0.5" y="-3.5" width="24" height="24" fill="#333333"/>
</g>
</svg>
