<svg width="24" height="23" viewBox="0 0 24 23" fill="none" xmlns="http://www.w3.org/2000/svg">
<path fill-rule="evenodd" clip-rule="evenodd" d="M0.573 8.87398C0.725488 9.25212 1.09228 9.49981 1.5 9.49998H7.5C8.05228 9.49998 8.5 9.05227 8.5 8.49998C8.5 7.9477 8.05228 7.49998 7.5 7.49998H4.024L6.825 4.86698C8.76304 2.91218 11.57 2.09105 14.256 2.69314C16.942 3.29522 19.1298 5.23595 20.048 7.83098C20.1615 8.17521 20.4523 8.4311 20.8082 8.49982C21.164 8.56853 21.5292 8.43931 21.7627 8.16206C21.9961 7.88482 22.0613 7.50296 21.933 7.16398C20.7875 3.92716 18.0615 1.50436 14.7126 0.746694C11.3637 -0.0109695 7.86024 1.00246 5.433 3.43098L2.5 6.18598V2.49998C2.5 1.9477 2.05228 1.49998 1.5 1.49998C0.947715 1.49998 0.5 1.9477 0.5 2.49998V8.49998C0.500709 8.62311 0.523749 8.74508 0.568 8.85998L0.573 8.87398ZM2.067 15.833C3.21241 19.0702 5.93871 21.4934 9.288 22.251V22.252C12.6372 23.0096 16.1408 21.9959 18.568 19.567L21.5 16.812V20.5C21.5 21.0523 21.9477 21.5 22.5 21.5C23.0523 21.5 23.5 21.0523 23.5 20.5V14.5C23.4987 14.3759 23.4743 14.2531 23.428 14.138V14.125C23.2751 13.7469 22.9078 13.4996 22.5 13.5H16.5C15.9477 13.5 15.5 13.9477 15.5 14.5C15.5 15.0523 15.9477 15.5 16.5 15.5H19.975L17.175 18.131C15.2368 20.0857 12.4298 20.9067 9.74372 20.3044C7.05767 19.7021 4.86994 17.7612 3.952 15.166C3.7595 14.6574 3.19584 14.3958 2.68316 14.5772C2.17049 14.7586 1.89677 15.3165 2.067 15.833Z" fill="#333333"/>
<mask id="mask0_0_14059" style="mask-type:alpha" maskUnits="userSpaceOnUse" x="0" y="0" width="24" height="23">
<path fill-rule="evenodd" clip-rule="evenodd" d="M9.288 22.251C5.93871 21.4934 3.21241 19.0702 2.067 15.833C1.89677 15.3165 2.17049 14.7586 2.68316 14.5772C3.19584 14.3958 3.7595 14.6574 3.952 15.166C4.86994 17.7612 7.05767 19.7021 9.74372 20.3044C12.4298 20.9067 15.2368 20.0857 17.175 18.131L19.975 15.5H16.5C15.9477 15.5 15.5 15.0523 15.5 14.5C15.5 13.9477 15.9477 13.5 16.5 13.5H22.5C22.9078 13.4996 23.2751 13.7469 23.428 14.125V14.138C23.4743 14.2531 23.4987 14.3759 23.5 14.5V20.5C23.5 21.0523 23.0523 21.5 22.5 21.5C21.9477 21.5 21.5 21.0523 21.5 20.5V16.812L18.568 19.567C16.1408 21.9959 12.6372 23.0096 9.288 22.252V22.251ZM1.5 9.49998C1.09228 9.49981 0.725488 9.25212 0.573 8.87398L0.568 8.85998C0.523749 8.74508 0.500709 8.62311 0.5 8.49998V2.49998C0.5 1.9477 0.947715 1.49998 1.5 1.49998C2.05228 1.49998 2.5 1.9477 2.5 2.49998V6.18598L5.433 3.43098C7.86024 1.00246 11.3637 -0.0109695 14.7126 0.746694C18.0615 1.50436 20.7875 3.92716 21.933 7.16398C22.0613 7.50296 21.9961 7.88482 21.7627 8.16206C21.5292 8.43931 21.164 8.56853 20.8082 8.49982C20.4523 8.4311 20.1615 8.17521 20.048 7.83098C19.1298 5.23595 16.942 3.29522 14.256 2.69314C11.5699 2.09105 8.76304 2.91218 6.825 4.86698L4.024 7.49998H7.5C8.05228 7.49998 8.5 7.9477 8.5 8.49998C8.5 9.05227 8.05228 9.49998 7.5 9.49998H1.5Z" fill="white"/>
</mask>
<g mask="url(#mask0_0_14059)">
<rect x="0.5" y="-0.5" width="24" height="24" fill="#333333"/>
</g>
</svg>
