<svg width="24" height="23" viewBox="0 0 24 23" fill="none" xmlns="http://www.w3.org/2000/svg">
<path fill-rule="evenodd" clip-rule="evenodd" d="M23.427 8.87407C23.2745 9.2522 22.9077 9.49989 22.5 9.50007H16.5C15.9477 9.50007 15.5 9.05235 15.5 8.50007C15.5 7.94778 15.9477 7.50007 16.5 7.50007H19.976L17.175 4.86707C15.2312 2.91166 12.4185 2.09309 9.729 2.70007C7.05005 3.30564 4.86904 5.24315 3.952 7.83207C3.76771 8.3525 3.19652 8.62511 2.676 8.44107C2.15557 8.25678 1.88295 7.68559 2.067 7.16507C3.21222 3.92808 5.93809 1.505 9.287 0.747068C12.636 -0.0108216 16.1396 1.00251 18.567 3.43107L21.5 6.18607V2.50007C21.5 1.94778 21.9477 1.50007 22.5 1.50007C23.0523 1.50007 23.5 1.94778 23.5 2.50007V8.50007C23.4994 8.62353 23.4764 8.74585 23.432 8.86107L23.427 8.87407ZM21.933 15.8331C20.7876 19.0703 18.0613 21.4934 14.712 22.2511C13.9882 22.4157 13.2483 22.4993 12.506 22.5001C9.85223 22.4998 7.30742 21.4446 5.432 19.5671L2.5 16.8121V20.5001C2.5 21.0524 2.05228 21.5001 1.5 21.5001C0.947715 21.5001 0.5 21.0524 0.5 20.5001V14.5001C0.501331 14.376 0.525747 14.2532 0.572 14.1381V14.1251C0.72494 13.747 1.09216 13.4997 1.5 13.5001H7.5C8.05228 13.5001 8.5 13.9478 8.5 14.5001C8.5 15.0524 8.05228 15.5001 7.5 15.5001H4.025L6.824 18.1311C8.76791 20.087 11.5808 20.9063 14.271 20.3001C16.9504 19.6941 19.1315 17.7558 20.048 15.1661C20.2323 14.6456 20.8035 14.373 21.324 14.5571C21.8444 14.7414 22.117 15.3125 21.933 15.8331Z" fill="#333333"/>
<mask id="mask0_0_13371" style="mask-type:alpha" maskUnits="userSpaceOnUse" x="0" y="0" width="24" height="23">
<path fill-rule="evenodd" clip-rule="evenodd" d="M14.712 22.2511C18.0613 21.4934 20.7876 19.0703 21.933 15.8331C22.117 15.3125 21.8444 14.7414 21.324 14.5571C20.8035 14.373 20.2323 14.6456 20.048 15.1661C19.1315 17.7558 16.9504 19.6941 14.271 20.3001C11.5808 20.9063 8.76791 20.087 6.824 18.1311L4.025 15.5001H7.5C8.05228 15.5001 8.5 15.0524 8.5 14.5001C8.5 13.9478 8.05228 13.5001 7.5 13.5001H1.5C1.09216 13.4997 0.72494 13.747 0.572 14.1251V14.1381C0.525747 14.2532 0.501331 14.376 0.5 14.5001V20.5001C0.5 21.0524 0.947715 21.5001 1.5 21.5001C2.05228 21.5001 2.5 21.0524 2.5 20.5001V16.8121L5.432 19.5671C7.30742 21.4446 9.85223 22.4998 12.506 22.5001C13.2483 22.4993 13.9882 22.4157 14.712 22.2511V22.2511ZM22.5 9.50007C22.9077 9.49989 23.2745 9.2522 23.427 8.87407L23.432 8.86107C23.4764 8.74585 23.4994 8.62353 23.5 8.50007V2.50007C23.5 1.94778 23.0523 1.50007 22.5 1.50007C21.9477 1.50007 21.5 1.94778 21.5 2.50007V6.18607L18.567 3.43107C16.1396 1.00251 12.636 -0.0108216 9.287 0.747068C5.93809 1.505 3.21222 3.92808 2.067 7.16507C1.88295 7.68559 2.15557 8.25678 2.676 8.44107C3.19652 8.62511 3.76771 8.3525 3.952 7.83207C4.86904 5.24315 7.05005 3.30565 9.729 2.70007C12.4185 2.09309 15.2312 2.91166 17.175 4.86707L19.976 7.50007H16.5C15.9477 7.50007 15.5 7.94778 15.5 8.50007C15.5 9.05235 15.9477 9.50007 16.5 9.50007H22.5Z" fill="white"/>
</mask>
<g mask="url(#mask0_0_13371)">
<rect x="0.5" y="-0.499878" width="24" height="24" fill="#333333"/>
</g>
</svg>
