<svg width="21" height="25" viewBox="0 0 21 25" fill="none" xmlns="http://www.w3.org/2000/svg">
<path fill-rule="evenodd" clip-rule="evenodd" d="M0.499997 9.49998V11.5C0.499997 12.0523 0.947712 12.5 1.5 12.5C2.05228 12.5 2.5 12.0523 2.5 11.5V9.49998C2.5 7.84313 3.84314 6.49998 5.5 6.49998H17.086L14.791 8.79198C14.5382 9.04457 14.4394 9.41282 14.5318 9.75801C14.6241 10.1032 14.8937 10.3729 15.2388 10.4655C15.5839 10.5581 15.9522 10.4596 16.205 10.207L20.205 6.20698L20.245 6.16498L20.257 6.15098L20.267 6.13998L20.272 6.13398C20.5929 5.74341 20.5719 5.17478 20.223 4.80898L20.207 4.79298L16.207 0.792984C15.9559 0.533027 15.5841 0.428771 15.2345 0.520287C14.8849 0.611802 14.6118 0.884847 14.5203 1.23448C14.4288 1.58411 14.533 1.95591 14.793 2.20698L17.085 4.49998H5.5C2.73857 4.49998 0.499997 6.73856 0.499997 9.49998ZM0.792997 20.207L4.793 24.207C5.04407 24.4669 5.41587 24.5712 5.7655 24.4797C6.11513 24.3882 6.38818 24.1151 6.47969 23.7655C6.57121 23.4159 6.46695 23.0441 6.207 22.793L3.914 20.5H15.5C18.2614 20.5 20.5 18.2614 20.5 15.5V13.5C20.5 12.9477 20.0523 12.5 19.5 12.5C18.9477 12.5 18.5 12.9477 18.5 13.5V15.5C18.5 17.1568 17.1569 18.5 15.5 18.5H3.914L6.203 16.207C6.46295 15.9559 6.56721 15.5841 6.47569 15.2345C6.38418 14.8848 6.11113 14.6118 5.7615 14.5203C5.41187 14.4288 5.04007 14.533 4.789 14.793L0.788997 18.793C0.720895 18.861 0.662965 18.9384 0.616997 19.023L0.606997 19.042V19.048L0.599997 19.062L0.590997 19.074V19.082L0.582997 19.1C0.471683 19.355 0.471683 19.6449 0.582997 19.9L0.599997 19.918V19.926V19.938L0.610997 19.952V19.958L0.620997 19.977C0.666965 20.0615 0.724895 20.139 0.792997 20.207Z" fill="#333333"/>
<mask id="mask0_0_12741" style="mask-type:alpha" maskUnits="userSpaceOnUse" x="0" y="0" width="21" height="25">
<path fill-rule="evenodd" clip-rule="evenodd" d="M4.793 24.207L0.792997 20.207C0.724895 20.139 0.666965 20.0615 0.620997 19.977V19.977L0.610997 19.958V19.952L0.599997 19.938V19.926V19.918L0.582997 19.9V19.9C0.471683 19.6449 0.471683 19.355 0.582997 19.1V19.1L0.590997 19.082V19.074L0.599997 19.062L0.606997 19.048V19.042L0.616997 19.023V19.023C0.662965 18.9384 0.720895 18.861 0.788997 18.793L4.789 14.793C5.04007 14.533 5.41187 14.4288 5.7615 14.5203C6.11113 14.6118 6.38418 14.8848 6.47569 15.2345C6.56721 15.5841 6.46295 15.9559 6.203 16.207L3.914 18.5H15.5C17.1569 18.5 18.5 17.1568 18.5 15.5V13.5C18.5 12.9477 18.9477 12.5 19.5 12.5C20.0523 12.5 20.5 12.9477 20.5 13.5V15.5C20.5 18.2614 18.2614 20.5 15.5 20.5H3.914L6.207 22.793C6.46695 23.0441 6.57121 23.4159 6.47969 23.7655C6.38818 24.1151 6.11513 24.3882 5.7655 24.4797C5.41587 24.5712 5.04407 24.4669 4.793 24.207ZM0.499997 11.5V9.49998C0.499997 6.73856 2.73857 4.49998 5.5 4.49998H17.085L14.793 2.20698C14.533 1.95591 14.4288 1.58411 14.5203 1.23448C14.6118 0.884847 14.8849 0.611802 15.2345 0.520287C15.5841 0.428771 15.9559 0.533027 16.207 0.792984L20.207 4.79298L20.223 4.80898V4.80898C20.5719 5.17478 20.5929 5.74341 20.272 6.13398L20.267 6.13998L20.257 6.15098L20.245 6.16498V6.16498L20.205 6.20698L16.205 10.207C15.9522 10.4596 15.5839 10.5581 15.2388 10.4655C14.8937 10.3729 14.6241 10.1032 14.5318 9.75801C14.4394 9.41282 14.5382 9.04457 14.791 8.79198L17.086 6.49998H5.5C3.84314 6.49998 2.5 7.84313 2.5 9.49998V11.5C2.5 12.0523 2.05228 12.5 1.5 12.5C0.947712 12.5 0.499997 12.0523 0.499997 11.5Z" fill="white"/>
</mask>
<g mask="url(#mask0_0_12741)">
<rect x="-1.5" y="0.5" width="24" height="24" fill="#333333"/>
</g>
</svg>
