<svg width="23" height="17" viewBox="0 0 23 17" fill="none" xmlns="http://www.w3.org/2000/svg">
<mask id="mask0_0_12687" style="mask-type:alpha" maskUnits="userSpaceOnUse" x="0" y="0" width="23" height="17">
<path fill-rule="evenodd" clip-rule="evenodd" d="M21.5001 16.4981C21.2791 16.4977 21.0646 16.423 20.8911 16.2861L11.8911 9.28607C11.6453 9.09851 11.5008 8.80725 11.5001 8.49807V15.4981C11.5001 16.0504 11.0524 16.4981 10.5001 16.4981C10.2791 16.4977 10.0646 16.423 9.89113 16.2861L0.891132 9.28607C0.647433 9.09662 0.504883 8.80524 0.504883 8.49657C0.504883 8.18789 0.647433 7.89652 0.891132 7.70707L9.89113 0.70707C10.065 0.571149 10.2795 0.497549 10.5001 0.49807C11.0524 0.49807 11.5001 0.945785 11.5001 1.49807V8.49807C11.4993 8.1894 11.6419 7.89787 11.8861 7.70907L20.8861 0.70907C21.0611 0.571368 21.2775 0.496993 21.5001 0.49807C22.0524 0.49807 22.5001 0.945785 22.5001 1.49807V15.4981C22.5001 16.0504 22.0524 16.4981 21.5001 16.4981ZM20.5001 3.54507L14.1291 8.49807L20.5001 13.4551V3.54507ZM9.50013 3.54507L3.12913 8.49807L9.50013 13.4551V3.54507Z" fill="white"/>
</mask>
<g mask="url(#mask0_0_12687)">
<rect x="-0.499756" y="-3.49988" width="24" height="24" fill="#333333"/>
</g>
</svg>
