<svg width="23" height="21" viewBox="0 0 23 21" fill="none" xmlns="http://www.w3.org/2000/svg">
<path d="M3.06696 13.8239C2.94232 13.4856 3.0095 13.1063 3.24278 12.8313C3.47606 12.5564 3.83931 12.4283 4.19346 12.4961C4.54761 12.564 4.83781 12.8172 4.95296 13.1589C6.1383 16.5219 9.40625 18.6944 12.9659 18.4859C16.5256 18.2773 19.5175 15.7381 20.302 12.2597C21.0865 8.7813 19.4742 5.20362 16.3487 3.48729C13.2232 1.77095 9.3391 2.33036 6.82496 4.85894L4.02496 7.49094H7.49996C8.05225 7.49094 8.49996 7.93866 8.49996 8.49094C8.49996 9.04323 8.05225 9.49094 7.49996 9.49094H1.51396C1.46717 9.49154 1.42039 9.48886 1.37396 9.48294H1.36496H1.34896H1.33296H1.32596H1.30396V9.48294C1.27196 9.47628 1.23863 9.46828 1.20396 9.45894V9.45894L1.18596 9.44094H1.17996H1.16896C0.761061 9.29796 0.49119 8.90909 0.499964 8.47694V2.49094C0.499964 1.93866 0.947679 1.49094 1.49996 1.49094C2.05225 1.49094 2.49996 1.93866 2.49996 2.49094V6.17894L5.43396 3.42294C8.58592 0.275783 13.4394 -0.407317 17.3376 1.74758C21.2358 3.90247 23.2388 8.37581 22.2502 12.7189C21.2616 17.0619 17.5198 20.2276 13.073 20.4829C12.8796 20.4943 12.6886 20.4999 12.5 20.4999C8.25791 20.5006 4.47702 17.8248 3.06696 13.8239Z" fill="#333333"/>
<mask id="mask0_0_13186" style="mask-type:alpha" maskUnits="userSpaceOnUse" x="0" y="0" width="23" height="21">
<path fill-rule="evenodd" clip-rule="evenodd" d="M3.06696 13.8239C2.94232 13.4856 3.0095 13.1063 3.24278 12.8313C3.47606 12.5564 3.83931 12.4283 4.19346 12.4961C4.54761 12.564 4.83781 12.8172 4.95296 13.1589C6.1383 16.5219 9.40625 18.6944 12.9659 18.4859C16.5256 18.2773 19.5175 15.7381 20.302 12.2597C21.0865 8.7813 19.4742 5.20362 16.3487 3.48729C13.2232 1.77095 9.3391 2.33036 6.82496 4.85894L4.02496 7.49094H7.49996C8.05225 7.49094 8.49996 7.93866 8.49996 8.49094C8.49996 9.04323 8.05225 9.49094 7.49996 9.49094H1.51396C1.46717 9.49154 1.42039 9.48886 1.37396 9.48294H1.36496H1.34896H1.33296H1.32596H1.30396V9.48294C1.27196 9.47628 1.23863 9.46828 1.20396 9.45894V9.45894L1.18596 9.44094H1.17996H1.16896C0.761061 9.29796 0.49119 8.90909 0.499964 8.47694V2.49094C0.499964 1.93866 0.947679 1.49094 1.49996 1.49094C2.05225 1.49094 2.49996 1.93866 2.49996 2.49094V6.17894L5.43396 3.42294C8.58592 0.275783 13.4394 -0.407317 17.3376 1.74758C21.2358 3.90247 23.2388 8.37581 22.2502 12.7189C21.2616 17.0619 17.5198 20.2276 13.073 20.4829C12.8796 20.4943 12.6886 20.4999 12.5 20.4999C8.25791 20.5006 4.47702 17.8248 3.06696 13.8239Z" fill="white"/>
</mask>
<g mask="url(#mask0_0_13186)">
<rect x="-0.5" y="-1.50006" width="24" height="24" fill="#333333"/>
</g>
</svg>
