<svg width="23" height="21" viewBox="0 0 23 21" fill="none" xmlns="http://www.w3.org/2000/svg">
<path d="M9.91703 20.485C5.47436 20.2251 1.73802 17.0606 0.750386 12.7213C-0.237243 8.38203 1.76153 3.91222 5.65411 1.75522C9.5467 -0.401789 14.3963 0.273113 17.552 3.41101L20.5 6.18501V2.50001C20.5 1.94772 20.9477 1.50001 21.5 1.50001C22.0523 1.50001 22.5 1.94772 22.5 2.50001V8.50001C22.5002 8.63506 22.473 8.76875 22.42 8.89301V8.89301L22.412 8.91101L22.405 8.92501V8.93101C22.2339 9.28988 21.8664 9.51328 21.469 9.50001H15.5C14.9477 9.50001 14.5 9.05229 14.5 8.50001C14.5 7.94772 14.9477 7.50001 15.5 7.50001H18.98L16.159 4.84601C13.64 2.32575 9.75778 1.77537 6.6375 3.49614C3.51722 5.21691 1.91119 8.79395 2.69855 12.2692C3.4859 15.7444 6.47682 18.28 10.0341 18.4879C13.5913 18.6958 16.8572 16.5259 18.044 13.166C18.1555 12.8195 18.4465 12.5609 18.8038 12.4909C19.161 12.4209 19.5281 12.5506 19.762 12.8295C19.996 13.1084 20.06 13.4923 19.929 13.832C18.5168 17.8283 14.7385 20.5002 10.5 20.5C10.31 20.5 10.113 20.5 9.91703 20.485Z" fill="#333333"/>
<mask id="mask0_0_14257" style="mask-type:alpha" maskUnits="userSpaceOnUse" x="0" y="0" width="23" height="21">
<path fill-rule="evenodd" clip-rule="evenodd" d="M9.91703 20.485C5.47436 20.2251 1.73802 17.0606 0.750386 12.7213C-0.237243 8.38203 1.76153 3.91222 5.65411 1.75522C9.5467 -0.401789 14.3963 0.273113 17.552 3.41101L20.5 6.18501V2.50001C20.5 1.94772 20.9477 1.50001 21.5 1.50001C22.0523 1.50001 22.5 1.94772 22.5 2.50001V8.50001C22.5002 8.63506 22.473 8.76875 22.42 8.89301V8.89301L22.412 8.91101L22.405 8.92501V8.93101C22.2339 9.28988 21.8664 9.51328 21.469 9.50001H15.5C14.9477 9.50001 14.5 9.05229 14.5 8.50001C14.5 7.94772 14.9477 7.50001 15.5 7.50001H18.98L16.159 4.84601C13.64 2.32575 9.75778 1.77537 6.6375 3.49614C3.51722 5.21691 1.91119 8.79395 2.69855 12.2692C3.4859 15.7444 6.47682 18.28 10.0341 18.4879C13.5913 18.6958 16.8572 16.5259 18.044 13.166C18.1555 12.8195 18.4465 12.5609 18.8038 12.4909C19.161 12.4209 19.5281 12.5506 19.762 12.8295C19.996 13.1084 20.06 13.4923 19.929 13.832C18.5168 17.8283 14.7385 20.5002 10.5 20.5C10.31 20.5 10.113 20.5 9.91703 20.485Z" fill="white"/>
</mask>
<g mask="url(#mask0_0_14257)">
<rect x="-0.5" y="-1.5" width="24" height="24" fill="#333333"/>
</g>
</svg>
