<svg width="21" height="21" viewBox="0 0 21 21" fill="none" xmlns="http://www.w3.org/2000/svg">
<path fill-rule="evenodd" clip-rule="evenodd" d="M15.5 20.5H3.5C1.84315 20.5 0.5 19.1569 0.5 17.5V3.5C0.5 1.84315 1.84315 0.5 3.5 0.5H14.5C14.7651 0.500711 15.0191 0.606006 15.207 0.793L20.207 5.793C20.394 5.98086 20.4993 6.23494 20.5 6.5V17.5C20.5 19.1569 19.1569 20.5 17.5 20.5H15.5ZM17.5 18.5C18.0523 18.5 18.5 18.0523 18.5 17.5V6.914L14.086 2.5H6.5V5.5H13.5C14.0523 5.5 14.5 5.94772 14.5 6.5C14.5 7.05228 14.0523 7.5 13.5 7.5H5.5C4.94772 7.5 4.5 7.05228 4.5 6.5V2.5H3.5C2.94772 2.5 2.5 2.94772 2.5 3.5V17.5C2.5 18.0523 2.94772 18.5 3.5 18.5H4.5V11.5C4.5 10.9477 4.94772 10.5 5.5 10.5H15.5C16.0523 10.5 16.5 10.9477 16.5 11.5V18.5H17.5ZM14.5 12.5V18.5H6.5V12.5H14.5Z" fill="#333333"/>
<mask id="mask0_0_13858" style="mask-type:alpha" maskUnits="userSpaceOnUse" x="0" y="0" width="21" height="21">
<path fill-rule="evenodd" clip-rule="evenodd" d="M15.5 20.5H3.5C1.84315 20.5 0.5 19.1569 0.5 17.5V3.5C0.5 1.84315 1.84315 0.5 3.5 0.5H14.5C14.7651 0.500711 15.0191 0.606006 15.207 0.793L20.207 5.793C20.394 5.98086 20.4993 6.23494 20.5 6.5V17.5C20.5 19.1569 19.1569 20.5 17.5 20.5H15.5ZM17.5 18.5C18.0523 18.5 18.5 18.0523 18.5 17.5V6.914L14.086 2.5H6.5V5.5H13.5C14.0523 5.5 14.5 5.94772 14.5 6.5C14.5 7.05228 14.0523 7.5 13.5 7.5H5.5C4.94772 7.5 4.5 7.05228 4.5 6.5V2.5H3.5C2.94772 2.5 2.5 2.94772 2.5 3.5V17.5C2.5 18.0523 2.94772 18.5 3.5 18.5H4.5V11.5C4.5 10.9477 4.94772 10.5 5.5 10.5H15.5C16.0523 10.5 16.5 10.9477 16.5 11.5V18.5H17.5ZM14.5 18.5V12.5H6.5V18.5H14.5Z" fill="white"/>
</mask>
<g mask="url(#mask0_0_13858)">
<rect x="-1.5" y="-1.5" width="24" height="24" fill="#333333"/>
</g>
</svg>
