<svg width="20" height="21" viewBox="0 0 20 21" fill="none" xmlns="http://www.w3.org/2000/svg">
<path fill-rule="evenodd" clip-rule="evenodd" d="M2.51607 13.0277C1.26977 13.7396 0.500435 15.0647 0.50007 16.5C0.499342 18.1864 1.5564 19.6922 3.14278 20.2644C4.72916 20.8367 6.50403 20.3525 7.58006 19.0539C8.65608 17.7554 8.80208 15.9215 7.94507 14.469L11.2071 11.208L19.2071 3.20801C19.4597 2.95524 19.5582 2.58693 19.4656 2.2418C19.373 1.89667 19.1033 1.62716 18.7581 1.5348C18.4129 1.44243 18.0447 1.54124 17.7921 1.79401L10.5001 9.08601L7.94507 6.53001C8.96776 4.79481 8.54074 2.56984 6.94832 1.33654C5.3559 0.103243 3.09486 0.246345 1.67063 1.67057C0.246406 3.0948 0.103304 5.35584 1.3366 6.94826C2.56991 8.54068 4.79487 8.9677 6.53007 7.94501L9.08607 10.5L6.53107 13.055C5.29456 12.3262 3.76237 12.3158 2.51607 13.0277ZM3.97022 18.4306C3.10116 18.1918 2.49916 17.4013 2.50007 16.5C2.50085 15.6981 2.98051 14.9742 3.71866 14.6609C4.45681 14.3476 5.31073 14.5055 5.88807 15.062L5.91207 15.087L5.93807 15.112C6.56445 15.76 6.68004 16.7469 6.22036 17.5221C5.76067 18.2973 4.83927 18.6693 3.97022 18.4306ZM2.50007 4.50001C2.50074 5.30019 2.97827 6.02295 3.71407 6.33742C4.44986 6.65189 5.30228 6.49753 5.88107 5.94501L5.91207 5.91201L5.94507 5.88101C6.56729 5.23078 6.67856 4.24504 6.21696 3.47246C5.75536 2.69988 4.83459 2.33077 3.96715 2.57058C3.09971 2.81038 2.49929 3.60003 2.50007 4.50001ZM12.2641 13.687L17.7941 19.207C18.0453 19.4668 18.4172 19.5708 18.7668 19.479C19.1163 19.3872 19.3892 19.114 19.4804 18.7643C19.5717 18.4146 19.4672 18.0429 19.2071 17.792L13.6771 12.271C13.4241 12.0186 13.0557 11.9203 12.7107 12.0132C12.3656 12.106 12.0963 12.3759 12.0042 12.7212C11.9121 13.0664 12.0111 13.4346 12.2641 13.687Z" fill="#333333"/>
<mask id="mask0_0_12947" style="mask-type:alpha" maskUnits="userSpaceOnUse" x="0" y="0" width="20" height="21">
<path fill-rule="evenodd" clip-rule="evenodd" d="M0.50007 16.5C0.500435 15.0647 1.26977 13.7396 2.51607 13.0277C3.76237 12.3158 5.29456 12.3262 6.53107 13.055L9.08607 10.5L6.53007 7.94501C4.79487 8.9677 2.56991 8.54068 1.3366 6.94826C0.103304 5.35584 0.246406 3.0948 1.67063 1.67057C3.09486 0.246345 5.3559 0.103243 6.94832 1.33654C8.54074 2.56984 8.96776 4.79481 7.94507 6.53001L10.5001 9.08601L17.7921 1.79401C18.0447 1.54124 18.4129 1.44243 18.7581 1.5348C19.1033 1.62716 19.373 1.89667 19.4656 2.2418C19.5582 2.58692 19.4597 2.95524 19.2071 3.20801L11.2071 11.208L7.94507 14.469C8.80208 15.9215 8.65608 17.7554 7.58006 19.0539C6.50403 20.3525 4.72916 20.8367 3.14278 20.2644C1.5564 19.6922 0.499342 18.1864 0.50007 16.5ZM2.50007 16.5C2.49916 17.4013 3.10116 18.1918 3.97022 18.4306C4.83927 18.6693 5.76067 18.2973 6.22036 17.5221C6.68004 16.7469 6.56445 15.76 5.93807 15.112L5.91207 15.087L5.88807 15.062C5.31073 14.5055 4.45681 14.3476 3.71866 14.6609C2.98051 14.9742 2.50085 15.6981 2.50007 16.5ZM2.50007 4.50001C2.50074 5.30019 2.97827 6.02295 3.71407 6.33742C4.44986 6.65189 5.30228 6.49753 5.88107 5.94501L5.91207 5.91201L5.94507 5.88101C6.56729 5.23078 6.67856 4.24504 6.21696 3.47246C5.75536 2.69988 4.83459 2.33077 3.96715 2.57058C3.09971 2.81038 2.49929 3.60003 2.50007 4.50001V4.50001ZM17.7941 19.207L12.2641 13.687C12.0111 13.4346 11.9121 13.0664 12.0042 12.7212C12.0963 12.3759 12.3656 12.106 12.7107 12.0132C13.0557 11.9203 13.4241 12.0186 13.6771 12.271L19.2071 17.792C19.4672 18.0429 19.5717 18.4146 19.4804 18.7643C19.3892 19.114 19.1163 19.3872 18.7668 19.479C18.4172 19.5708 18.0453 19.4668 17.7941 19.207Z" fill="white"/>
</mask>
<g mask="url(#mask0_0_12947)">
<rect x="-1.49988" y="-1.5" width="24" height="24" fill="#333333"/>
</g>
</svg>
