<svg width="21" height="21" viewBox="0 0 21 21" fill="none" xmlns="http://www.w3.org/2000/svg">
<path fill-rule="evenodd" clip-rule="evenodd" d="M14.259 15.673L18.792 20.207C19.1828 20.5977 19.8163 20.5977 20.207 20.207C20.5978 19.8162 20.5978 19.1827 20.207 18.792L15.673 14.259C18.4621 10.7213 18.0106 5.62287 14.6432 2.63044C11.2758 -0.361995 6.15961 -0.211309 2.97418 2.97412C-0.211248 6.15955 -0.361934 11.2757 2.6305 14.6431C5.62293 18.0105 10.7214 18.462 14.259 15.673ZM6.4903 14.9918C4.07465 13.9807 2.50169 11.6187 2.50004 8.99998C2.49817 6.0633 4.46559 3.49012 7.30006 2.72207C10.1345 1.95402 13.1319 3.1819 14.6129 5.71779C16.0939 8.25367 15.6907 11.4676 13.629 13.559L13.593 13.593L13.559 13.629C11.6925 15.4657 8.90595 16.003 6.4903 14.9918Z" fill="#333333"/>
<mask id="mask0_0_11919" style="mask-type:alpha" maskUnits="userSpaceOnUse" x="0" y="0" width="21" height="21">
<path fill-rule="evenodd" clip-rule="evenodd" d="M18.792 20.207L14.259 15.673C10.7214 18.462 5.62293 18.0105 2.6305 14.6431C-0.361934 11.2757 -0.211248 6.15955 2.97418 2.97412C6.15961 -0.211309 11.2758 -0.361995 14.6432 2.63044C18.0106 5.62287 18.4621 10.7213 15.673 14.259L20.207 18.792C20.5978 19.1827 20.5978 19.8162 20.207 20.207C19.8163 20.5977 19.1828 20.5977 18.792 20.207ZM2.50004 8.99998C2.50169 11.6187 4.07465 13.9807 6.4903 14.9918C8.90595 16.003 11.6925 15.4657 13.559 13.629L13.593 13.593L13.629 13.559C15.6907 11.4676 16.0939 8.25367 14.6129 5.71779C13.1319 3.1819 10.1345 1.95402 7.30006 2.72207C4.46559 3.49012 2.49817 6.0633 2.50004 8.99998V8.99998Z" fill="white"/>
</mask>
<g mask="url(#mask0_0_11919)">
<rect x="-1.5" y="-1.5" width="24" height="24" fill="#333333"/>
</g>
</svg>
