<svg width="23" height="23" viewBox="0 0 23 23" fill="none" xmlns="http://www.w3.org/2000/svg">
<path fill-rule="evenodd" clip-rule="evenodd" d="M3.5 22.5H19.5C21.1569 22.5 22.5 21.1569 22.5 19.5V15.5C22.5 13.8431 21.1569 12.5 19.5 12.5H3.5C1.84315 12.5 0.5 13.8431 0.5 15.5V19.5C0.5 21.1569 1.84315 22.5 3.5 22.5ZM2.5 15.5C2.5 14.9477 2.94772 14.5 3.5 14.5H19.5C20.0523 14.5 20.5 14.9477 20.5 15.5V19.5C20.5 20.0523 20.0523 20.5 19.5 20.5H3.5C2.94772 20.5 2.5 20.0523 2.5 19.5V15.5Z" fill="#333333"/>
<mask id="mask0_0_14656" style="mask-type:alpha" maskUnits="userSpaceOnUse" x="0" y="0" width="23" height="23">
<path fill-rule="evenodd" clip-rule="evenodd" d="M19.5 22.5H3.5C1.84315 22.5 0.5 21.1569 0.5 19.5V15.5C0.5 13.8431 1.84315 12.5 3.5 12.5H19.5C21.1569 12.5 22.5 13.8431 22.5 15.5V19.5C22.5 21.1569 21.1569 22.5 19.5 22.5ZM3.5 14.5C2.94772 14.5 2.5 14.9477 2.5 15.5V19.5C2.5 20.0523 2.94772 20.5 3.5 20.5H19.5C20.0523 20.5 20.5 20.0523 20.5 19.5V15.5C20.5 14.9477 20.0523 14.5 19.5 14.5H3.5ZM19.5 10.5H3.5C1.84315 10.5 0.5 9.15685 0.5 7.5V3.5C0.5 1.84315 1.84315 0.5 3.5 0.5H19.5C21.1569 0.5 22.5 1.84315 22.5 3.5V7.5C22.5 9.15685 21.1569 10.5 19.5 10.5ZM3.5 2.5C2.94772 2.5 2.5 2.94772 2.5 3.5V7.5C2.5 8.05228 2.94772 8.5 3.5 8.5H19.5C20.0523 8.5 20.5 8.05228 20.5 7.5V3.5C20.5 2.94772 20.0523 2.5 19.5 2.5H3.5Z" fill="white"/>
</mask>
<g mask="url(#mask0_0_14656)">
<rect x="-0.5" y="-0.5" width="24" height="24" fill="#333333"/>
</g>
</svg>
