<svg width="25" height="25" viewBox="0 0 25 25" fill="none" xmlns="http://www.w3.org/2000/svg">
<path fill-rule="evenodd" clip-rule="evenodd" d="M9.58 21.5C9.58 23.1569 10.9231 24.5 12.58 24.5C13.376 24.5005 14.1396 24.1847 14.7026 23.622C15.2657 23.0594 15.582 22.296 15.582 21.5V21.327C15.5835 21.0695 15.738 20.8376 15.975 20.737C16.0612 20.6984 16.1545 20.6783 16.249 20.678C16.4185 20.6776 16.5813 20.744 16.702 20.863L16.754 20.915C17.3156 21.4796 18.0797 21.7961 18.876 21.794C20.5329 21.794 21.876 20.4509 21.876 18.794C21.878 17.9972 21.5611 17.2327 20.996 16.671L20.937 16.612C20.76 16.4198 20.7124 16.1416 20.8154 15.9015C20.9184 15.6615 21.1528 15.5042 21.414 15.5H21.5C23.1569 15.5 24.5 14.1569 24.5 12.5C24.5 10.8431 23.1569 9.5 21.5 9.5H21.33C21.1165 9.49859 20.9174 9.39196 20.798 9.215C20.7838 9.14625 20.7624 9.0792 20.734 9.015C20.626 8.77231 20.6776 8.48824 20.864 8.299L20.916 8.247C21.479 7.68434 21.7954 6.92098 21.7954 6.125C21.7954 5.32902 21.479 4.56566 20.916 4.003C20.3524 3.44202 19.5902 3.12613 18.795 3.124C17.9982 3.12202 17.2337 3.4389 16.672 4.004L16.613 4.063C16.4934 4.17782 16.3338 4.24165 16.168 4.241C15.8047 4.23948 15.5087 3.94916 15.5 3.586V3.5C15.5 1.84315 14.1569 0.5 12.5 0.5C10.8431 0.5 9.5 1.84315 9.5 3.5V3.67C9.49827 3.88314 9.39167 4.08175 9.215 4.201C9.14638 4.21565 9.07938 4.23709 9.015 4.265C8.77224 4.37242 8.48851 4.32091 8.299 4.135L8.247 4.083C7.07505 2.91022 5.17428 2.90955 4.0015 4.0815C2.82872 5.25345 2.82805 7.15422 4 8.327L4.064 8.391C4.24417 8.58098 4.29231 8.86072 4.186 9.1C4.08912 9.39459 3.80997 9.59032 3.5 9.581C1.84315 9.581 0.5 10.9241 0.5 12.581C0.5 14.2379 1.84315 15.581 3.5 15.581H3.666C3.9236 15.5829 4.15563 15.7372 4.257 15.974C4.36818 16.2192 4.31822 16.5075 4.131 16.701L4.079 16.753C3.51442 17.3146 3.19791 18.0787 3.2 18.875C3.20389 19.6708 3.52155 20.433 4.084 20.996C4.64666 21.559 5.41002 21.8754 6.206 21.8754C7.00198 21.8754 7.76534 21.559 8.328 20.996L8.387 20.937C8.50674 20.8224 8.66623 20.7586 8.832 20.759C8.92295 20.759 9.01288 20.7781 9.096 20.815C9.39141 20.9107 9.58846 21.1896 9.58 21.5ZM9.843 18.962C9.528 18.823 9.1873 18.7518 8.843 18.753C8.14793 18.7571 7.48155 19.0306 6.984 19.516L6.916 19.583C6.66323 19.8359 6.29473 19.9348 5.94929 19.8424C5.60385 19.75 5.33396 19.4803 5.24129 19.1349C5.14861 18.7895 5.24723 18.4209 5.5 18.168L5.558 18.107C6.30615 17.3437 6.52546 16.2071 6.11498 15.2202C5.70451 14.2334 4.74378 13.5875 3.675 13.58H3.5C2.94772 13.58 2.5 13.1323 2.5 12.58C2.5 12.0277 2.94772 11.58 3.5 11.58H3.59C4.68551 11.564 5.65831 10.8757 6.038 9.848C6.45144 8.86919 6.23302 7.73762 5.485 6.983L5.417 6.915C5.22922 6.72743 5.12371 6.47291 5.12371 6.2075C5.12371 5.94209 5.22922 5.68757 5.417 5.5C5.60313 5.30898 5.85829 5.20086 6.125 5.2C6.3912 5.20191 6.64566 5.30988 6.832 5.5L6.892 5.558C7.61236 6.26824 8.67404 6.5068 9.629 6.173C9.72035 6.16134 9.80957 6.13676 9.894 6.1C10.8653 5.68455 11.4965 4.73138 11.5 3.675V3.5C11.5 2.94772 11.9477 2.5 12.5 2.5C13.0523 2.5 13.5 2.94772 13.5 3.5V3.59C13.503 4.6472 14.1337 5.60162 15.105 6.019C15.4381 6.16665 15.7986 6.24263 16.163 6.242C16.8571 6.24326 17.5238 5.97133 18.019 5.485L18.086 5.417C18.3718 5.12881 18.8035 5.04198 19.1786 5.19726C19.5536 5.35253 19.7975 5.7191 19.796 6.125C19.7951 6.39002 19.6898 6.64401 19.503 6.832L19.443 6.892C18.7304 7.61105 18.4915 8.6742 18.828 9.629C18.8397 9.72022 18.8639 9.8094 18.9 9.894C19.316 10.8652 20.2694 11.4964 21.326 11.5H21.5C22.0523 11.5 22.5 11.9477 22.5 12.5C22.5 13.0523 22.0523 13.5 21.5 13.5H21.41C20.3429 13.5072 19.383 14.1505 18.9708 15.1348C18.5586 16.1192 18.7735 17.2545 19.517 18.02L19.584 18.087C19.7721 18.2746 19.8778 18.5293 19.8778 18.795C19.8778 19.0607 19.7721 19.3154 19.584 19.503C19.3964 19.6911 19.1417 19.7968 18.876 19.7968C18.6103 19.7968 18.3556 19.6911 18.168 19.503L18.107 19.443C17.3444 18.6929 16.2067 18.4723 15.219 18.8831C14.2313 19.294 13.5857 20.2563 13.58 21.326V21.5C13.58 22.0523 13.1323 22.5 12.58 22.5C12.0277 22.5 11.58 22.0523 11.58 21.5V21.41C11.5635 20.3131 10.8729 19.3398 9.843 18.962Z" fill="#333333"/>
<mask id="mask0_0_12801" style="mask-type:alpha" maskUnits="userSpaceOnUse" x="0" y="0" width="25" height="25">
<path fill-rule="evenodd" clip-rule="evenodd" d="M12.58 24.5C10.9231 24.5 9.58 23.1569 9.58 21.5C9.58846 21.1896 9.39141 20.9107 9.096 20.815C9.01256 20.778 8.92228 20.7589 8.831 20.759C8.66521 20.7585 8.50568 20.8223 8.386 20.937L8.327 20.996C7.76434 21.559 7.00098 21.8754 6.205 21.8754C5.40902 21.8754 4.64566 21.559 4.083 20.996C3.52092 20.4328 3.20363 19.6707 3.2 18.875C3.19791 18.0787 3.51442 17.3146 4.079 16.753L4.131 16.701C4.31848 16.5076 4.36847 16.2192 4.257 15.974C4.15563 15.7372 3.9236 15.5829 3.666 15.581H3.5C1.84315 15.581 0.5 14.2379 0.5 12.581C0.5 10.9241 1.84315 9.581 3.5 9.581C3.80997 9.59032 4.08912 9.39459 4.186 9.1C4.29231 8.86072 4.24417 8.58098 4.064 8.391L4 8.327C2.82805 7.15422 2.82872 5.25345 4.0015 4.0815C5.17428 2.90955 7.07505 2.91022 8.247 4.083L8.299 4.135C8.42021 4.25383 8.58326 4.32027 8.753 4.32C8.84331 4.32006 8.93261 4.30097 9.015 4.264C9.07937 4.23606 9.14637 4.21462 9.215 4.2C9.39151 4.08107 9.49811 3.88283 9.5 3.67V3.5C9.5 1.84315 10.8431 0.5 12.5 0.5C14.1569 0.5 15.5 1.84315 15.5 3.5V3.586C15.5087 3.94916 15.8047 4.23948 16.168 4.241C16.3338 4.24186 16.4935 4.178 16.613 4.063L16.672 4.004C17.2337 3.4389 17.9982 3.12202 18.795 3.124C19.5902 3.12613 20.3524 3.44202 20.916 4.003C21.479 4.56566 21.7954 5.32902 21.7954 6.125C21.7954 6.92098 21.479 7.68434 20.916 8.247L20.864 8.299C20.6776 8.48824 20.626 8.77231 20.734 9.015C20.7623 9.07924 20.7837 9.14627 20.798 9.215C20.9173 9.39209 21.1165 9.49877 21.33 9.5H21.5C23.1569 9.5 24.5 10.8431 24.5 12.5C24.5 14.1569 23.1569 15.5 21.5 15.5H21.414C21.1528 15.5042 20.9184 15.6615 20.8154 15.9015C20.7124 16.1416 20.76 16.4198 20.937 16.612L20.996 16.671C21.5611 17.2327 21.878 17.9972 21.876 18.794C21.876 20.4509 20.5329 21.794 18.876 21.794C18.0797 21.7961 17.3156 21.4796 16.754 20.915L16.702 20.863C16.5811 20.7445 16.4183 20.6784 16.249 20.679C16.1546 20.6794 16.0612 20.6995 15.975 20.738C15.738 20.8386 15.5835 21.0705 15.582 21.328V21.5C15.582 22.296 15.2657 23.0594 14.7026 23.622C14.1396 24.1847 13.376 24.5005 12.58 24.5ZM8.843 18.753C9.1873 18.7518 9.52801 18.823 9.843 18.962C10.8729 19.3398 11.5635 20.3131 11.58 21.41V21.5C11.58 22.0523 12.0277 22.5 12.58 22.5C13.1323 22.5 13.58 22.0523 13.58 21.5V21.326C13.5866 20.2568 14.2323 19.2952 15.2196 18.8846C16.2069 18.4739 17.344 18.6938 18.107 19.443L18.168 19.503C18.3556 19.6911 18.6103 19.7968 18.876 19.7968C19.1417 19.7968 19.3964 19.6911 19.584 19.503C19.7721 19.3154 19.8778 19.0607 19.8778 18.795C19.8778 18.5293 19.7721 18.2746 19.584 18.087L19.517 18.02C18.7735 17.2545 18.5586 16.1192 18.9708 15.1348C19.383 14.1505 20.3429 13.5072 21.41 13.5H21.5C22.0523 13.5 22.5 13.0523 22.5 12.5C22.5 11.9477 22.0523 11.5 21.5 11.5H21.326C20.2694 11.4964 19.316 10.8652 18.9 9.894C18.8639 9.8094 18.8397 9.72022 18.828 9.629C18.4915 8.6742 18.7304 7.61105 19.443 6.892L19.503 6.832C19.6898 6.64401 19.7951 6.39002 19.796 6.125C19.7975 5.7191 19.5536 5.35253 19.1786 5.19726C18.8035 5.04198 18.3718 5.12881 18.086 5.417L18.019 5.485C17.5238 5.97133 16.8571 6.24326 16.163 6.242C15.799 6.24231 15.4389 6.16635 15.106 6.019C14.1343 5.60193 13.5032 4.64744 13.5 3.59V3.5C13.5 2.94772 13.0523 2.5 12.5 2.5C11.9477 2.5 11.5 2.94772 11.5 3.5V3.675C11.4965 4.73138 10.8653 5.68455 9.894 6.1C9.80965 6.13698 9.72039 6.16157 9.629 6.173C8.67403 6.50655 7.61248 6.26802 6.892 5.558L6.832 5.5C6.64566 5.30988 6.3912 5.20191 6.125 5.2C5.85829 5.20086 5.60313 5.30898 5.417 5.5C5.22922 5.68757 5.12371 5.94209 5.12371 6.2075C5.12371 6.47291 5.22922 6.72743 5.417 6.915L5.485 6.983C6.23302 7.73762 6.45144 8.86919 6.038 9.848C5.65854 10.8759 4.6856 11.5643 3.59 11.58H3.5C2.94772 11.58 2.5 12.0277 2.5 12.58C2.5 13.1323 2.94772 13.58 3.5 13.58H3.675C4.74379 13.5875 5.70451 14.2334 6.11498 15.2202C6.52546 16.2071 6.30615 17.3437 5.558 18.107L5.5 18.168C5.24723 18.4209 5.14861 18.7895 5.24129 19.1349C5.33396 19.4803 5.60385 19.75 5.94929 19.8424C6.29473 19.9348 6.66323 19.8359 6.916 19.583L6.984 19.516C7.4816 19.0307 8.14795 18.7572 8.843 18.753ZM12.5 16.5C10.2909 16.5 8.5 14.7091 8.5 12.5C8.5 10.2909 10.2909 8.5 12.5 8.5C14.7091 8.5 16.5 10.2909 16.5 12.5C16.5 13.5609 16.0786 14.5783 15.3284 15.3284C14.5783 16.0786 13.5609 16.5 12.5 16.5ZM12.5 10.5C11.3954 10.5 10.5 11.3954 10.5 12.5C10.5 13.6046 11.3954 14.5 12.5 14.5C13.6046 14.5 14.5 13.6046 14.5 12.5C14.5 11.3954 13.6046 10.5 12.5 10.5Z" fill="white"/>
</mask>
<g mask="url(#mask0_0_12801)">
<rect x="0.5" y="0.5" width="24" height="24" fill="#333333"/>
</g>
</svg>
