<svg width="21" height="23" viewBox="0 0 21 23" fill="none" xmlns="http://www.w3.org/2000/svg">
<path fill-rule="evenodd" clip-rule="evenodd" d="M12.6521 17.4079C12.5511 17.7631 12.5 18.1306 12.5001 18.4999C12.4968 20.4099 13.8443 22.0557 15.7173 22.4294C17.5903 22.8032 19.4663 21.8006 20.1963 20.0357C20.9264 18.2708 20.3068 16.236 18.7171 15.1774C17.1273 14.1188 15.011 14.3318 13.6641 15.6859L8.35108 12.5859C8.55126 11.8751 8.55126 11.1228 8.35108 10.4119L13.6611 7.31191C15.0837 8.74576 17.3506 8.89776 18.9519 7.66665C20.5532 6.43555 20.9888 4.20565 19.9687 2.46237C18.9486 0.719085 16.7911 0.00661582 14.9335 0.799559C13.0758 1.5925 12.0979 3.64333 12.6511 5.58591L7.34108 8.68591C6.20043 7.53319 4.47667 7.18323 2.9768 7.79988C1.47693 8.41652 0.497803 9.87773 0.497803 11.4994C0.497803 13.1211 1.47693 14.5823 2.9768 15.1989C4.47667 15.8156 6.20043 15.4656 7.34108 14.3129L12.6521 17.4079ZM16.2068 20.4798C15.2257 20.3344 14.4993 19.4918 14.5001 18.4999C14.5001 18.1852 14.5748 17.8751 14.7181 17.5949C14.7643 17.533 14.8033 17.4658 14.8341 17.3949C15.3829 16.5687 16.4543 16.2695 17.3518 16.6919C18.2493 17.1143 18.7015 18.1307 18.4145 19.0801C18.1275 20.0296 17.188 20.6253 16.2068 20.4798ZM2.50008 11.4999C2.50073 12.395 3.09607 13.1807 3.95764 13.4235C4.81921 13.6663 5.73717 13.307 6.20508 12.5439L6.22608 12.5069L6.25108 12.4669C6.58497 11.8641 6.58497 11.1318 6.25108 10.5289L6.23008 10.4939L6.20808 10.4599C5.74173 9.69442 4.82302 9.3327 3.95997 9.57477C3.09692 9.81683 2.50032 10.6036 2.50008 11.4999ZM18.43 5.02719C18.1923 5.89705 17.4018 6.50022 16.5001 6.49991C15.8039 6.49939 15.1581 6.13691 14.7951 5.54291L14.7741 5.50491L14.7501 5.46691C14.3141 4.67757 14.4602 3.69408 15.1069 3.06562C15.7536 2.43717 16.7409 2.3192 17.5174 2.77759C18.294 3.23598 18.6677 4.15734 18.43 5.02719Z" fill="#333333"/>
<mask id="mask0_0_12439" style="mask-type:alpha" maskUnits="userSpaceOnUse" x="0" y="0" width="21" height="23">
<path fill-rule="evenodd" clip-rule="evenodd" d="M12.5001 18.4999C12.5 18.1306 12.5511 17.7631 12.6521 17.4079L7.34108 14.3129C6.20043 15.4656 4.47667 15.8156 2.9768 15.1989C1.47693 14.5823 0.497803 13.1211 0.497803 11.4994C0.497803 9.87773 1.47693 8.41652 2.9768 7.79988C4.47667 7.18323 6.20043 7.53319 7.34108 8.68591L12.6511 5.58591C12.0979 3.64333 13.0758 1.5925 14.9335 0.799559C16.7911 0.00661582 18.9486 0.719085 19.9687 2.46237C20.9888 4.20565 20.5532 6.43555 18.9519 7.66665C17.3506 8.89776 15.0837 8.74576 13.6611 7.31191L8.35108 10.4119C8.55126 11.1228 8.55126 11.8751 8.35108 12.5859L13.6641 15.6859C15.011 14.3318 17.1274 14.1188 18.7171 15.1774C20.3068 16.236 20.9264 18.2708 20.1963 20.0357C19.4663 21.8006 17.5903 22.8032 15.7173 22.4294C13.8443 22.0557 12.4968 20.4099 12.5001 18.4999V18.4999ZM14.5001 18.4999C14.4993 19.4918 15.2257 20.3344 16.2068 20.4798C17.188 20.6253 18.1275 20.0296 18.4145 19.0801C18.7015 18.1307 18.2493 17.1143 17.3518 16.6919C16.4543 16.2695 15.3829 16.5687 14.8341 17.3949C14.8033 17.4658 14.7643 17.533 14.7181 17.5949C14.5748 17.8751 14.5001 18.1852 14.5001 18.4999ZM2.50008 11.4999C2.50073 12.395 3.09607 13.1807 3.95764 13.4235C4.81921 13.6663 5.73717 13.307 6.20508 12.5439L6.22608 12.5069L6.25108 12.4669C6.58497 11.8641 6.58497 11.1318 6.25108 10.5289L6.23008 10.4939L6.20808 10.4599C5.74173 9.69442 4.82302 9.3327 3.95997 9.57477C3.09692 9.81683 2.50032 10.6036 2.50008 11.4999ZM16.5001 6.49991C17.4018 6.50022 18.1923 5.89705 18.43 5.02719C18.6677 4.15734 18.294 3.23598 17.5174 2.77759C16.7409 2.3192 15.7536 2.43717 15.1069 3.06562C14.4602 3.69408 14.3141 4.67757 14.7501 5.46691L14.7741 5.50491L14.7951 5.54291C15.1581 6.13691 15.8039 6.49939 16.5001 6.49991Z" fill="white"/>
</mask>
<g mask="url(#mask0_0_12439)">
<rect x="-1.49988" y="-0.500122" width="24" height="24" fill="#333333"/>
</g>
</svg>
