<svg width="19" height="23" viewBox="0 0 19 23" fill="none" xmlns="http://www.w3.org/2000/svg">
<path fill-rule="evenodd" clip-rule="evenodd" d="M8.5 3.914V14.5C8.5 15.0523 8.94771 15.5 9.5 15.5C10.0523 15.5 10.5 15.0523 10.5 14.5V3.914L12.793 6.203C13.1854 6.58197 13.8091 6.57655 14.1948 6.19081C14.5806 5.80508 14.586 5.18138 14.207 4.789L10.207 0.788997C10.139 0.720895 10.0615 0.662965 9.977 0.616997L9.958 0.606997H9.952L9.938 0.599997L9.926 0.590997H9.918L9.9 0.582997C9.64495 0.471683 9.35505 0.471683 9.1 0.582997L9.082 0.599997H9.074H9.062L9.048 0.610997H9.042L9.023 0.620997C8.93846 0.666965 8.86099 0.724895 8.793 0.792997L4.793 4.793C4.41403 5.18538 4.41945 5.80908 4.80518 6.19482C5.19092 6.58055 5.81462 6.58597 6.207 6.207L8.5 3.914ZM0.5 19.5C0.5 21.1569 1.84315 22.5 3.5 22.5H15.5C17.1569 22.5 18.5 21.1569 18.5 19.5V11.5C18.5 10.9477 18.0523 10.5 17.5 10.5C16.9477 10.5 16.5 10.9477 16.5 11.5V19.5C16.5 20.0523 16.0523 20.5 15.5 20.5H3.5C2.94772 20.5 2.5 20.0523 2.5 19.5V11.5C2.5 10.9477 2.05228 10.5 1.5 10.5C0.947715 10.5 0.5 10.9477 0.5 11.5V19.5Z" fill="#333333"/>
<mask id="mask0_0_14686" style="mask-type:alpha" maskUnits="userSpaceOnUse" x="0" y="0" width="19" height="23">
<path fill-rule="evenodd" clip-rule="evenodd" d="M3.5 22.5C1.84315 22.5 0.5 21.1569 0.5 19.5V11.5C0.5 10.9477 0.947715 10.5 1.5 10.5C2.05228 10.5 2.5 10.9477 2.5 11.5V19.5C2.5 20.0523 2.94772 20.5 3.5 20.5H15.5C16.0523 20.5 16.5 20.0523 16.5 19.5V11.5C16.5 10.9477 16.9477 10.5 17.5 10.5C18.0523 10.5 18.5 10.9477 18.5 11.5V19.5C18.5 21.1569 17.1569 22.5 15.5 22.5H3.5ZM8.5 14.5V3.914L6.207 6.207C5.81462 6.58597 5.19092 6.58055 4.80518 6.19482C4.41945 5.80908 4.41403 5.18538 4.793 4.793L8.793 0.792997C8.86099 0.724895 8.93846 0.666965 9.023 0.620997V0.620997L9.042 0.610997H9.048L9.062 0.599997H9.074H9.082L9.1 0.582997V0.582997C9.35505 0.471683 9.64495 0.471683 9.9 0.582997V0.582997L9.918 0.590997H9.926L9.938 0.599997L9.952 0.606997H9.958L9.977 0.616997V0.616997C10.0615 0.662965 10.139 0.720895 10.207 0.788997L14.207 4.789C14.586 5.18138 14.5806 5.80508 14.1948 6.19081C13.8091 6.57655 13.1854 6.58197 12.793 6.203L10.5 3.914V14.5C10.5 15.0523 10.0523 15.5 9.5 15.5C8.94772 15.5 8.5 15.0523 8.5 14.5Z" fill="white"/>
</mask>
<g mask="url(#mask0_0_14686)">
<rect x="-2.5" y="-0.5" width="24" height="24" fill="#333333"/>
</g>
</svg>
