<svg width="19" height="23" viewBox="0 0 19 23" fill="none" xmlns="http://www.w3.org/2000/svg">
<mask id="mask0_0_13501" style="mask-type:alpha" maskUnits="userSpaceOnUse" x="0" y="0" width="19" height="23">
<path fill-rule="evenodd" clip-rule="evenodd" d="M9.5 22.5C9.34479 22.4999 9.19176 22.4636 9.053 22.394C8.891 22.313 8.437 22.076 7.72 21.629C6.7055 20.9971 5.74311 20.2852 4.842 19.5C1.961 16.981 0.5 14.289 0.5 11.5V3.50003C0.500127 3.04106 0.812672 2.6411 1.258 2.53003L9.258 0.530029C9.4169 0.490397 9.5831 0.490397 9.742 0.530029L17.742 2.53003C18.1873 2.6411 18.4999 3.04106 18.5 3.50003V11.5C18.5 14.289 17.039 16.982 14.158 19.5C13.2568 20.2845 12.2944 20.9958 11.28 21.627C10.563 22.074 10.109 22.311 9.947 22.392C9.80841 22.4623 9.65537 22.4992 9.5 22.5ZM9.5 2.53003L2.5 4.28103V11.5C2.5 13.687 3.731 15.873 6.158 18C6.97944 18.7131 7.8562 19.3598 8.78 19.934C9.023 20.086 9.266 20.234 9.5 20.363C9.731 20.232 9.973 20.087 10.22 19.934C11.1438 19.3598 12.0206 18.7131 12.842 18C15.269 15.873 16.5 13.686 16.5 11.5V4.28103L9.5 2.53003Z" fill="white"/>
</mask>
<g mask="url(#mask0_0_13501)">
<rect x="-2.5" y="-0.5" width="24" height="24" fill="#333333"/>
</g>
</svg>
