<svg width="20" height="21" viewBox="0 0 20 21" fill="none" xmlns="http://www.w3.org/2000/svg">
<path fill-rule="evenodd" clip-rule="evenodd" d="M0.793106 19.207C0.605329 19.0194 0.499819 18.7649 0.499819 18.4995C0.499819 18.2341 0.605329 17.9796 0.793106 17.792L16.0851 2.50001H13.5001C12.9478 2.50001 12.5001 2.0523 12.5001 1.50001C12.5001 0.947727 12.9478 0.500011 13.5001 0.500011H18.5001C18.6377 0.499543 18.7738 0.527458 18.9001 0.582011L18.9181 0.590011H18.9261L18.9381 0.600011L18.9521 0.607011H18.9581L18.9771 0.617011C19.3097 0.79729 19.5121 1.14986 19.5001 1.52801V6.50001C19.5001 7.0523 19.0524 7.50001 18.5001 7.50001C17.9478 7.50001 17.5001 7.0523 17.5001 6.50001V3.91501L2.20711 19.207C2.01954 19.3948 1.76502 19.5003 1.49961 19.5003C1.2342 19.5003 0.979674 19.3948 0.792106 19.207H0.793106ZM18.4721 20.5H13.5001C12.9478 20.5 12.5001 20.0523 12.5001 19.5C12.5001 18.9477 12.9478 18.5 13.5001 18.5H16.0861L11.7941 14.207C11.5342 13.9559 11.4299 13.5841 11.5214 13.2345C11.6129 12.8849 11.886 12.6118 12.2356 12.5203C12.5852 12.4288 12.957 12.5331 13.2081 12.793L17.5001 17.085V14.5C17.5001 13.9477 17.9478 13.5 18.5001 13.5C19.0524 13.5 19.5001 13.9477 19.5001 14.5V19.471C19.5079 19.7412 19.4061 20.0031 19.2177 20.1969C19.0293 20.3908 18.7704 20.5001 18.5001 20.5H18.4721ZM0.793106 3.20701L5.79311 8.20701C6.04418 8.46697 6.41598 8.57122 6.76561 8.47971C7.11524 8.38819 7.38829 8.11515 7.4798 7.76552C7.57132 7.41589 7.46706 7.04409 7.20711 6.79301L2.20711 1.79301C1.95603 1.53305 1.58423 1.4288 1.2346 1.52031C0.884969 1.61183 0.611924 1.88487 0.520409 2.2345C0.428893 2.58413 0.533149 2.95594 0.793106 3.20701Z" fill="#333333"/>
<mask id="mask0_0_14243" style="mask-type:alpha" maskUnits="userSpaceOnUse" x="0" y="0" width="20" height="21">
<path fill-rule="evenodd" clip-rule="evenodd" d="M18.4721 20.5H13.5001C12.9478 20.5 12.5001 20.0523 12.5001 19.5C12.5001 18.9477 12.9478 18.5 13.5001 18.5H16.0861L11.7941 14.207C11.5341 13.9559 11.4299 13.5841 11.5214 13.2345C11.6129 12.8849 11.886 12.6118 12.2356 12.5203C12.5852 12.4288 12.957 12.5331 13.2081 12.793L17.5001 17.085V14.5C17.5001 13.9477 17.9478 13.5 18.5001 13.5C19.0524 13.5 19.5001 13.9477 19.5001 14.5V19.471C19.5079 19.7412 19.4061 20.0031 19.2177 20.1969C19.0293 20.3908 18.7704 20.5001 18.5001 20.5H18.4721ZM0.793106 19.207C0.605329 19.0194 0.499819 18.7649 0.499819 18.4995C0.499819 18.2341 0.605329 17.9796 0.793106 17.792L16.0851 2.50001H13.5001C12.9478 2.50001 12.5001 2.0523 12.5001 1.50001C12.5001 0.947727 12.9478 0.500011 13.5001 0.500011H18.5001C18.6377 0.499543 18.7738 0.527458 18.9001 0.582011V0.582011L18.9181 0.590011H18.9261L18.9381 0.600011L18.9521 0.607011H18.9581L18.9771 0.617011V0.617011C19.3097 0.79729 19.5121 1.14986 19.5001 1.52801V6.50001C19.5001 7.0523 19.0524 7.50001 18.5001 7.50001C17.9478 7.50001 17.5001 7.0523 17.5001 6.50001V3.91501L2.20711 19.207C2.01954 19.3948 1.76502 19.5003 1.49961 19.5003C1.2342 19.5003 0.979674 19.3948 0.792106 19.207H0.793106ZM5.79311 8.20701L0.793106 3.20701C0.533149 2.95594 0.428893 2.58413 0.520409 2.2345C0.611924 1.88487 0.884969 1.61183 1.2346 1.52031C1.58423 1.4288 1.95603 1.53305 2.20711 1.79301L7.20711 6.79301C7.46706 7.04409 7.57132 7.41589 7.4798 7.76552C7.38829 8.11515 7.11524 8.38819 6.76561 8.47971C6.41598 8.57122 6.04418 8.46697 5.79311 8.20701Z" fill="white"/>
</mask>
<g mask="url(#mask0_0_14243)">
<rect x="-2.5" y="-1.5" width="24" height="24" fill="#333333"/>
</g>
</svg>
