<svg width="21" height="21" viewBox="0 0 21 21" fill="none" xmlns="http://www.w3.org/2000/svg">
<path fill-rule="evenodd" clip-rule="evenodd" d="M7.5 20.5H3.5C1.84315 20.5 0.5 19.1569 0.5 17.5V3.5C0.5 1.84315 1.84315 0.5 3.5 0.5H17.5C19.1569 0.5 20.5 1.84315 20.5 3.5V17.5C20.5 19.1569 19.1569 20.5 17.5 20.5H7.5ZM17.5 18.5C18.0523 18.5 18.5 18.0523 18.5 17.5V3.5C18.5 2.94772 18.0523 2.5 17.5 2.5H8.5V18.5H17.5ZM2.5 17.5V3.5C2.5 2.94772 2.94772 2.5 3.5 2.5H6.5V18.5H3.5C2.94772 18.5 2.5 18.0523 2.5 17.5Z" fill="#333333"/>
<mask id="mask0_0_14542" style="mask-type:alpha" maskUnits="userSpaceOnUse" x="0" y="0" width="21" height="21">
<path fill-rule="evenodd" clip-rule="evenodd" d="M7.5 20.5H3.5C1.84315 20.5 0.5 19.1569 0.5 17.5V3.5C0.5 1.84315 1.84315 0.5 3.5 0.5H17.5C19.1569 0.5 20.5 1.84315 20.5 3.5V17.5C20.5 19.1569 19.1569 20.5 17.5 20.5H7.5ZM17.5 18.5C18.0523 18.5 18.5 18.0523 18.5 17.5V3.5C18.5 2.94772 18.0523 2.5 17.5 2.5H8.5V18.5H17.5ZM2.5 3.5V17.5C2.5 18.0523 2.94772 18.5 3.5 18.5H6.5V2.5H3.5C2.94772 2.5 2.5 2.94772 2.5 3.5Z" fill="white"/>
</mask>
<g mask="url(#mask0_0_14542)">
<rect x="-1.5" y="-1.5" width="24" height="24" fill="#333333"/>
</g>
</svg>
