<svg width="17" height="19" viewBox="0 0 17 19" fill="none" xmlns="http://www.w3.org/2000/svg">
<path d="M2.5 16.5V2.5C2.5 1.94772 2.05228 1.5 1.5 1.5C0.947715 1.5 0.5 1.94772 0.5 2.5V16.5C0.5 17.0523 0.947715 17.5 1.5 17.5C2.05228 17.5 2.5 17.0523 2.5 16.5Z" fill="#333333"/>
<mask id="mask0_0_12605" style="mask-type:alpha" maskUnits="userSpaceOnUse" x="0" y="0" width="17" height="19">
<path fill-rule="evenodd" clip-rule="evenodd" d="M15.495 18.5C15.2695 18.4993 15.051 18.4213 14.876 18.279L4.876 10.279C4.63869 10.0892 4.50053 9.80185 4.50053 9.498C4.50053 9.19414 4.63869 8.90676 4.876 8.717L14.876 0.716996C15.0528 0.574912 15.2732 0.498256 15.5 0.499996C16.0523 0.499996 16.5 0.947711 16.5 1.5V17.5C16.4967 18.0529 16.0479 18.4995 15.495 18.5V18.5ZM14.5 3.583L7.1 9.5L14.5 15.421V3.583ZM1.5 17.5C0.947715 17.5 0.5 17.0523 0.5 16.5V2.5C0.5 1.94771 0.947715 1.5 1.5 1.5C2.05228 1.5 2.5 1.94771 2.5 2.5V16.5C2.5 17.0523 2.05228 17.5 1.5 17.5Z" fill="white"/>
</mask>
<g mask="url(#mask0_0_12605)">
<rect x="-3.5" y="-2.5" width="24" height="24" fill="#333333"/>
</g>
</svg>
