<svg width="17" height="19" viewBox="0 0 17 19" fill="none" xmlns="http://www.w3.org/2000/svg">
<path d="M14.5 2.5V16.5C14.5 17.0523 14.9477 17.5 15.5 17.5C16.0523 17.5 16.5 17.0523 16.5 16.5V2.5C16.5 1.94772 16.0523 1.5 15.5 1.5C14.9477 1.5 14.5 1.94772 14.5 2.5Z" fill="#333333"/>
<mask id="mask0_0_12199" style="mask-type:alpha" maskUnits="userSpaceOnUse" x="0" y="0" width="17" height="19">
<path fill-rule="evenodd" clip-rule="evenodd" d="M1.505 18.5C0.952126 18.4995 0.503297 18.0529 0.5 17.5V1.5C0.5 0.947715 0.947715 0.5 1.5 0.5C1.72591 0.500312 1.94483 0.578347 2.12 0.721L12.12 8.721C12.3573 8.91077 12.4955 9.19814 12.4955 9.502C12.4955 9.80586 12.3573 10.0932 12.12 10.283L2.12 18.283C1.94567 18.4232 1.72872 18.4998 1.505 18.5V18.5ZM2.5 3.583V15.421L9.9 9.5L2.5 3.583ZM15.5 17.5C14.9477 17.5 14.5 17.0523 14.5 16.5V2.5C14.5 1.94772 14.9477 1.5 15.5 1.5C16.0523 1.5 16.5 1.94772 16.5 2.5V16.5C16.5 17.0523 16.0523 17.5 15.5 17.5Z" fill="white"/>
</mask>
<g mask="url(#mask0_0_12199)">
<rect x="-3.5" y="-2.5" width="24" height="24" fill="#333333"/>
</g>
</svg>
