<svg width="25" height="25" viewBox="0 0 25 25" fill="none" xmlns="http://www.w3.org/2000/svg">
<path fill-rule="evenodd" clip-rule="evenodd" d="M1.44997 15.783C2.04043 18.2297 3.21921 20.4952 4.88397 22.383C6.33417 23.8078 8.3097 24.5684 10.341 24.484C12.1887 24.4313 14.019 24.1113 15.775 23.534C19.914 22.288 22.396 20.684 23.591 18.478C24.786 16.272 24.764 13.328 23.525 9.20998C22.9387 6.76159 21.7649 4.49287 20.105 2.59998C18.6604 1.17545 16.689 0.414873 14.662 0.499977C12.8047 0.553852 10.9649 0.876191 9.19997 1.45698C5.05997 2.69998 2.57697 4.30698 1.38297 6.51298C0.188966 8.71898 0.209966 11.665 1.44997 15.783ZM3.14397 7.46198C4.09397 5.70798 6.07497 4.48498 9.77497 3.37198C11.3489 2.84213 12.9913 2.5427 14.651 2.48298C16.2536 2.40059 17.8102 3.03397 18.9 4.21198C20.2068 5.84465 21.1324 7.7487 21.609 9.78498C22.715 13.458 22.78 15.775 21.83 17.529C20.88 19.283 18.898 20.506 15.198 21.619C13.6362 22.1442 12.0067 22.4409 10.36 22.5H10.354C8.74712 22.5817 7.18643 21.9484 6.09097 20.77C4.77792 19.1426 3.84611 17.2417 3.36397 15.207C2.25797 11.533 2.19397 9.21598 3.14397 7.46198ZM10.975 18.83L10.32 16.937L8.41997 17.59C7.90673 17.7407 7.36579 17.4608 7.19231 16.9548C7.01883 16.4488 7.27424 15.8959 7.77197 15.7L9.67197 15.047L8.69997 12.218L6.79997 12.87C6.46121 12.99 6.0841 12.919 5.81218 12.684C5.54026 12.449 5.41535 12.0862 5.48499 11.7336C5.55463 11.381 5.80812 11.0929 6.14897 10.979L8.04197 10.327L7.38897 8.42698C7.26895 8.08822 7.33996 7.71111 7.57495 7.43919C7.80994 7.16727 8.17277 7.04236 8.52535 7.112C8.87792 7.18165 9.16601 7.43513 9.27997 7.77598L9.93297 9.67598L12.763 8.69998L12.112 6.80998C11.9661 6.29907 12.2453 5.76332 12.7476 5.59013C13.2499 5.41694 13.7999 5.66677 14 6.15898L14.652 8.05098L16.552 7.39798C16.8932 7.2685 17.278 7.33526 17.5557 7.57215C17.8334 7.80903 17.9599 8.1784 17.8859 8.53582C17.8118 8.89324 17.5489 9.18192 17.2 9.28898L15.3 9.94198L16.273 12.77L18.166 12.119C18.5038 12.0025 18.878 12.0751 19.1478 12.3094C19.4176 12.5437 19.5418 12.9041 19.4738 13.2549C19.4058 13.6057 19.1558 13.8935 18.818 14.01L16.925 14.662L17.578 16.562C17.752 17.0825 17.474 17.6459 16.9551 17.8246C16.4362 18.0032 15.8702 17.7303 15.687 17.213L15.034 15.313L12.207 16.286L12.859 18.179C12.9753 18.517 12.9024 18.8913 12.6679 19.161C12.4333 19.4307 12.0727 19.5548 11.7219 19.4865C11.371 19.4182 11.0833 19.1679 10.967 18.83H10.975ZM14.391 13.422L11.564 14.395L10.591 11.567L13.418 10.594L14.391 13.422Z" fill="#333333"/>
<mask id="mask0_0_13541" style="mask-type:alpha" maskUnits="userSpaceOnUse" x="0" y="0" width="25" height="25">
<path fill-rule="evenodd" clip-rule="evenodd" d="M4.88397 22.383C3.21921 20.4952 2.04043 18.2297 1.44997 15.783C0.209966 11.665 0.188966 8.71898 1.38297 6.51298C2.57697 4.30698 5.05997 2.69998 9.19997 1.45698C10.9649 0.876191 12.8047 0.553852 14.662 0.499977C16.689 0.414873 18.6604 1.17545 20.105 2.59998C21.7649 4.49287 22.9387 6.76159 23.525 9.20998C24.764 13.328 24.786 16.272 23.591 18.478C22.396 20.684 19.914 22.288 15.775 23.534C14.019 24.1113 12.1887 24.4313 10.341 24.484C8.3097 24.5684 6.33417 23.8078 4.88397 22.383ZM9.77497 3.37198C6.07497 4.48498 4.09397 5.70798 3.14397 7.46198C2.19397 9.21598 2.25797 11.533 3.36397 15.207C3.84611 17.2417 4.77792 19.1426 6.09097 20.77C7.18643 21.9484 8.74712 22.5817 10.354 22.5H10.36C12.0067 22.4409 13.6362 22.1442 15.198 21.619C18.898 20.506 20.88 19.283 21.83 17.529C22.78 15.775 22.715 13.458 21.609 9.78498C21.1324 7.7487 20.2068 5.84465 18.9 4.21198C17.8102 3.03397 16.2536 2.40059 14.651 2.48298C12.9913 2.5427 11.3489 2.84213 9.77497 3.37198ZM10.975 18.83L10.32 16.937L8.41997 17.59C7.90673 17.7407 7.36579 17.4608 7.19231 16.9548C7.01883 16.4488 7.27424 15.8959 7.77197 15.7L9.67197 15.047L8.69997 12.218L6.79997 12.87C6.46121 12.99 6.0841 12.919 5.81218 12.684C5.54026 12.449 5.41535 12.0862 5.48499 11.7336C5.55463 11.381 5.80812 11.0929 6.14897 10.979L8.04197 10.327L7.38897 8.42698C7.26895 8.08822 7.33996 7.71111 7.57495 7.43919C7.80994 7.16727 8.17277 7.04236 8.52535 7.112C8.87792 7.18165 9.16601 7.43513 9.27997 7.77598L9.93297 9.67598L12.763 8.69998L12.112 6.80998C11.9661 6.29907 12.2453 5.76332 12.7476 5.59013C13.2499 5.41694 13.7999 5.66677 14 6.15898L14.652 8.05098L16.552 7.39798C16.8932 7.2685 17.2779 7.33526 17.5557 7.57215C17.8334 7.80903 17.9599 8.1784 17.8859 8.53582C17.8118 8.89324 17.5489 9.18192 17.2 9.28898L15.3 9.94198L16.273 12.77L18.166 12.119C18.5038 12.0025 18.878 12.0751 19.1478 12.3094C19.4176 12.5437 19.5418 12.9041 19.4738 13.2549C19.4058 13.6057 19.1558 13.8935 18.818 14.01L16.925 14.662L17.578 16.562C17.752 17.0825 17.474 17.6459 16.9551 17.8246C16.4362 18.0032 15.8702 17.7303 15.687 17.213L15.034 15.313L12.207 16.286L12.859 18.179C12.9753 18.517 12.9024 18.8913 12.6679 19.161C12.4333 19.4307 12.0727 19.5548 11.7219 19.4865C11.371 19.4182 11.0833 19.168 10.967 18.83H10.975ZM11.564 14.395L14.391 13.422L13.418 10.594L10.591 11.567L11.564 14.395Z" fill="white"/>
</mask>
<g mask="url(#mask0_0_13541)">
<rect x="0.5" y="0.5" width="24" height="24" fill="#333333"/>
</g>
</svg>
