<svg width="23" height="23" viewBox="0 0 23 23" fill="none" xmlns="http://www.w3.org/2000/svg">
<path fill-rule="evenodd" clip-rule="evenodd" d="M3.72201 19.278C0.912076 16.5055 -0.19679 12.4399 0.816375 8.62462C1.82954 4.80937 4.80937 1.82954 8.62462 0.816375C12.4399 -0.19679 16.5055 0.912076 19.278 3.72201C22.0879 6.49453 23.1968 10.5601 22.1836 14.3754C21.1705 18.1906 18.1906 21.1705 14.3754 22.1836C10.5601 23.1968 6.49453 22.0879 3.72201 19.278ZM2.50001 11.5C2.50178 14.9571 4.48366 18.1077 7.5992 19.6061C10.7147 21.1045 14.4132 20.6859 17.115 18.529L4.47101 5.88501C3.19335 7.47739 2.49796 9.45842 2.50001 11.5ZM17.8414 5.15864C21.0738 8.39109 21.3696 13.5333 18.529 17.115L5.88501 4.47101C9.46672 1.63046 14.6089 1.9262 17.8414 5.15864Z" fill="#333333"/>
<mask id="mask0_0_12845" style="mask-type:alpha" maskUnits="userSpaceOnUse" x="0" y="0" width="23" height="23">
<path fill-rule="evenodd" clip-rule="evenodd" d="M3.72201 19.278C0.912076 16.5055 -0.19679 12.4399 0.816375 8.62462C1.82954 4.80937 4.80937 1.82954 8.62462 0.816375C12.4399 -0.19679 16.5055 0.912076 19.278 3.72201C22.0879 6.49453 23.1968 10.5601 22.1836 14.3754C21.1705 18.1906 18.1906 21.1705 14.3754 22.1836C10.5601 23.1968 6.49453 22.0879 3.72201 19.278V19.278ZM2.50001 11.5C2.50178 14.9571 4.48366 18.1077 7.5992 19.6061C10.7147 21.1045 14.4132 20.6859 17.115 18.529L4.47101 5.88501C3.19335 7.47739 2.49796 9.45842 2.50001 11.5V11.5ZM18.529 17.115C21.3696 13.5333 21.0738 8.39109 17.8414 5.15864C14.6089 1.9262 9.46672 1.63046 5.88501 4.47101L18.529 17.115Z" fill="white"/>
</mask>
<g mask="url(#mask0_0_12845)">
<rect x="-0.5" y="-0.5" width="24" height="24" fill="#333333"/>
</g>
</svg>
