<svg width="17" height="23" viewBox="0 0 17 23" fill="none" xmlns="http://www.w3.org/2000/svg">
<mask id="mask0_0_14797" style="mask-type:alpha" maskUnits="userSpaceOnUse" x="0" y="0" width="17" height="23">
<path fill-rule="evenodd" clip-rule="evenodd" d="M13.5 22.5H3.5C1.84315 22.5 0.5 21.1569 0.5 19.5V3.5C0.5 1.84315 1.84315 0.5 3.5 0.5H13.5C15.1569 0.5 16.5 1.84315 16.5 3.5V19.5C16.5 21.1569 15.1569 22.5 13.5 22.5ZM3.5 2.5C2.94772 2.5 2.5 2.94772 2.5 3.5V19.5C2.5 20.0523 2.94772 20.5 3.5 20.5H13.5C14.0523 20.5 14.5 20.0523 14.5 19.5V3.5C14.5 2.94772 14.0523 2.5 13.5 2.5H3.5Z" fill="white"/>
</mask>
<g mask="url(#mask0_0_14797)">
<rect x="-3.5" y="-0.5" width="24" height="24" fill="#333333"/>
</g>
</svg>
