<svg width="23" height="22" viewBox="0 0 23 22" fill="none" xmlns="http://www.w3.org/2000/svg">
<path d="M7.74695 6.84602L10.5999 1.05702C10.7685 0.715944 11.116 0.500061 11.4964 0.500061C11.8769 0.500061 12.2244 0.715944 12.3929 1.05702L15.2509 6.84602L21.6409 7.78002C22.0186 7.83316 22.3331 8.09647 22.4519 8.45888C22.5706 8.82129 22.4729 9.21969 22.1999 9.48602L17.5769 13.986L18.6679 20.348C18.7322 20.7232 18.578 21.1023 18.27 21.326C17.9621 21.5497 17.5538 21.5791 17.2169 21.402L11.4999 18.4L5.78695 21.405C5.45006 21.5821 5.04182 21.5527 4.73388 21.329C4.42593 21.1053 4.27167 20.7262 4.33595 20.351L5.42695 13.989L0.799947 9.48602C0.527721 9.22003 0.430084 8.82257 0.548082 8.46073C0.66608 8.09888 0.979252 7.83539 1.35595 7.78102L7.74695 6.84602Z" fill="#333333"/>
<mask id="mask0_0_13923" style="mask-type:alpha" maskUnits="userSpaceOnUse" x="0" y="0" width="23" height="22">
<path fill-rule="evenodd" clip-rule="evenodd" d="M7.74695 6.84602L10.5999 1.05702C10.7685 0.715944 11.116 0.500061 11.4964 0.500061C11.8769 0.500061 12.2244 0.715944 12.3929 1.05702L15.2509 6.84602L21.6409 7.78002C22.0186 7.83316 22.3331 8.09647 22.4519 8.45888C22.5706 8.82129 22.4729 9.21969 22.1999 9.48602L17.5769 13.986L18.6679 20.348C18.7322 20.7232 18.578 21.1023 18.27 21.326C17.9621 21.5497 17.5538 21.5791 17.2169 21.402L11.4999 18.4L5.78695 21.405C5.45006 21.5821 5.04182 21.5527 4.73388 21.329C4.42593 21.1053 4.27167 20.7262 4.33595 20.351L5.42695 13.989L0.799947 9.48602C0.527721 9.22003 0.430084 8.82257 0.548082 8.46073C0.66608 8.09888 0.979252 7.83539 1.35595 7.78102L7.74695 6.84602Z" fill="white"/>
</mask>
<g mask="url(#mask0_0_13923)">
<rect x="-0.5" y="-0.5" width="24" height="24" fill="#333333"/>
</g>
</svg>
