<svg width="25" height="25" viewBox="0 0 25 25" fill="none" xmlns="http://www.w3.org/2000/svg">
<path fill-rule="evenodd" clip-rule="evenodd" d="M11.5 1.5V3.5C11.5 4.05228 11.9477 4.5 12.5 4.5C13.0523 4.5 13.5 4.05228 13.5 3.5V1.5C13.5 0.947715 13.0523 0.5 12.5 0.5C11.9477 0.5 11.5 0.947715 11.5 1.5ZM5.433 6.847L4.013 5.428C3.76023 5.17523 3.66152 4.80682 3.75404 4.46154C3.84656 4.11625 4.11625 3.84656 4.46154 3.75404C4.80682 3.66152 5.17523 3.76023 5.428 4.013L6.847 5.433C7.10696 5.68407 7.21121 6.05588 7.1197 6.40551C7.02818 6.75514 6.75514 7.02818 6.40551 7.1197C6.05588 7.21121 5.68407 7.10696 5.433 6.847ZM18.153 5.433C17.7626 5.8235 17.7626 6.4565 18.153 6.847H18.152C18.3396 7.03478 18.5941 7.14029 18.8595 7.14029C19.1249 7.14029 19.3794 7.03478 19.567 6.847L20.987 5.428C21.3777 5.03753 21.378 4.40424 20.9875 4.0135C20.597 3.62276 19.9637 3.62253 19.573 4.013L18.153 5.433ZM12.5 6.5C9.18629 6.5 6.5 9.18629 6.5 12.5C6.50331 15.8123 9.18766 18.4967 12.5 18.5C15.8137 18.5 18.5 15.8137 18.5 12.5C18.5 9.18629 15.8137 6.5 12.5 6.5ZM18.153 19.567L19.573 20.986C19.8241 21.246 20.1959 21.3502 20.5455 21.2587C20.8951 21.1672 21.1682 20.8941 21.2597 20.5445C21.3512 20.1949 21.247 19.8231 20.987 19.572L19.568 18.152C19.1773 17.7613 18.5437 17.7613 18.153 18.152C17.7623 18.5427 17.7623 19.1763 18.153 19.567ZM11.5 21.5V23.5C11.5 24.0523 11.9477 24.5 12.5 24.5C13.0523 24.5 13.5 24.0523 13.5 23.5V21.5C13.5 20.9477 13.0523 20.5 12.5 20.5C11.9477 20.5 11.5 20.9477 11.5 21.5ZM4.013 20.986C3.62262 20.5955 3.62262 19.9625 4.013 19.572L5.433 18.152C5.68577 17.8994 6.05408 17.8009 6.39921 17.8935C6.74434 17.9861 7.01385 18.2558 7.10621 18.601C7.19858 18.9462 7.09977 19.3144 6.847 19.567L5.428 20.987C5.24043 21.1748 4.98591 21.2803 4.7205 21.2803C4.45509 21.2803 4.20057 21.1748 4.013 20.987V20.986ZM8.5 12.5C8.5 14.7091 10.2909 16.5 12.5 16.5C14.7091 16.5 16.5 14.7091 16.5 12.5C16.5 10.2909 14.7091 8.5 12.5 8.5C10.2909 8.5 8.5 10.2909 8.5 12.5ZM20.5 12.5C20.5 13.0523 20.9477 13.5 21.5 13.5H23.5C24.0523 13.5 24.5 13.0523 24.5 12.5C24.5 11.9477 24.0523 11.5 23.5 11.5H21.5C20.9477 11.5 20.5 11.9477 20.5 12.5ZM1.5 13.5C0.947715 13.5 0.5 13.0523 0.5 12.5C0.5 11.9477 0.947715 11.5 1.5 11.5H3.5C4.05228 11.5 4.5 11.9477 4.5 12.5C4.5 13.0523 4.05228 13.5 3.5 13.5H1.5Z" fill="#333333"/>
<mask id="mask0_0_14103" style="mask-type:alpha" maskUnits="userSpaceOnUse" x="0" y="0" width="25" height="25">
<path fill-rule="evenodd" clip-rule="evenodd" d="M11.5 23.5V21.5C11.5 20.9477 11.9477 20.5 12.5 20.5C13.0523 20.5 13.5 20.9477 13.5 21.5V23.5C13.5 24.0523 13.0523 24.5 12.5 24.5C11.9477 24.5 11.5 24.0523 11.5 23.5ZM19.573 20.986L18.153 19.567C17.7623 19.1763 17.7623 18.5427 18.153 18.152C18.5437 17.7613 19.1773 17.7613 19.568 18.152L20.987 19.572C21.247 19.8231 21.3512 20.1949 21.2597 20.5445C21.1682 20.8941 20.8951 21.1672 20.5455 21.2587C20.1959 21.3502 19.8241 21.246 19.573 20.986V20.986ZM4.013 20.986C3.62262 20.5955 3.62262 19.9625 4.013 19.572L5.433 18.152C5.68577 17.8994 6.05408 17.8009 6.39921 17.8935C6.74434 17.9861 7.01385 18.2558 7.10621 18.601C7.19858 18.9462 7.09977 19.3144 6.847 19.567L5.428 20.987C5.24043 21.1748 4.98591 21.2803 4.7205 21.2803C4.45509 21.2803 4.20057 21.1748 4.013 20.987V20.986ZM6.5 12.5C6.5 9.18629 9.18629 6.5 12.5 6.5C15.8137 6.5 18.5 9.18629 18.5 12.5C18.5 15.8137 15.8137 18.5 12.5 18.5C9.18766 18.4967 6.50331 15.8123 6.5 12.5ZM8.5 12.5C8.5 14.7091 10.2909 16.5 12.5 16.5C14.7091 16.5 16.5 14.7091 16.5 12.5C16.5 10.2909 14.7091 8.5 12.5 8.5C10.2909 8.5 8.5 10.2909 8.5 12.5ZM21.5 13.5C20.9477 13.5 20.5 13.0523 20.5 12.5C20.5 11.9477 20.9477 11.5 21.5 11.5H23.5C24.0523 11.5 24.5 11.9477 24.5 12.5C24.5 13.0523 24.0523 13.5 23.5 13.5H21.5ZM1.5 13.5C0.947715 13.5 0.5 13.0523 0.5 12.5C0.5 11.9477 0.947715 11.5 1.5 11.5H3.5C4.05228 11.5 4.5 11.9477 4.5 12.5C4.5 13.0523 4.05228 13.5 3.5 13.5H1.5ZM18.153 6.847C17.7626 6.4565 17.7626 5.8235 18.153 5.433L19.573 4.013C19.9637 3.62253 20.597 3.62276 20.9875 4.0135C21.378 4.40424 21.3777 5.03753 20.987 5.428L19.567 6.847C19.3794 7.03478 19.1249 7.14029 18.8595 7.14029C18.5941 7.14029 18.3396 7.03478 18.152 6.847H18.153ZM5.433 6.847L4.013 5.428C3.76023 5.17523 3.66152 4.80682 3.75404 4.46154C3.84656 4.11625 4.11625 3.84656 4.46154 3.75404C4.80682 3.66152 5.17523 3.76023 5.428 4.013L6.847 5.433C7.10696 5.68407 7.21121 6.05588 7.1197 6.40551C7.02818 6.75514 6.75514 7.02818 6.40551 7.1197C6.05588 7.21121 5.68407 7.10696 5.433 6.847V6.847ZM11.5 3.5V1.5C11.5 0.947715 11.9477 0.5 12.5 0.5C13.0523 0.5 13.5 0.947715 13.5 1.5V3.5C13.5 4.05228 13.0523 4.5 12.5 4.5C11.9477 4.5 11.5 4.05228 11.5 3.5Z" fill="white"/>
</mask>
<g mask="url(#mask0_0_14103)">
<rect x="0.5" y="0.5" width="24" height="24" fill="#333333"/>
</g>
</svg>
