<svg width="25" height="23" viewBox="0 0 25 23" fill="none" xmlns="http://www.w3.org/2000/svg">
<path fill-rule="evenodd" clip-rule="evenodd" d="M7.788 5.2L11.788 9.2C12.0747 9.48513 12.5048 9.56958 12.878 9.414L12.894 9.407H12.903H12.914L12.929 9.4H12.935C13.0358 9.35135 13.1278 9.28611 13.207 9.207L17.207 5.207C17.586 4.81462 17.5806 4.19092 17.1948 3.80518C16.8091 3.41945 16.1854 3.41403 15.793 3.793L13.5 6.086V1.5C13.5 0.947715 13.0523 0.5 12.5 0.5C11.9477 0.5 11.5 0.947715 11.5 1.5V6.086L9.208 3.793C8.81602 3.42151 8.1999 3.42836 7.81627 3.80847C7.43265 4.18859 7.42013 4.80462 7.788 5.2ZM5.433 11.847L4.013 10.427C3.62253 10.0363 3.62276 9.40297 4.0135 9.0125C4.40424 8.62203 5.03753 8.62226 5.428 9.013L6.847 10.433C7.10696 10.6841 7.21121 11.0559 7.1197 11.4055C7.02818 11.7551 6.75514 12.0282 6.40551 12.1197C6.05588 12.2112 5.68407 12.107 5.433 11.847ZM18.153 10.433C17.7626 10.8235 17.7626 11.4565 18.153 11.847C18.3406 12.0348 18.5951 12.1403 18.8605 12.1403C19.1259 12.1403 19.3804 12.0348 19.568 11.847L20.987 10.427C21.366 10.0346 21.3606 9.41092 20.9748 9.02518C20.5891 8.63945 19.9654 8.63403 19.573 9.013L18.153 10.433ZM12.5 13.5C14.7091 13.5 16.5 15.2909 16.5 17.5C16.5 18.0523 16.9477 18.5 17.5 18.5C18.0523 18.5 18.5 18.0523 18.5 17.5C18.5 14.1863 15.8137 11.5 12.5 11.5C9.18629 11.5 6.5 14.1863 6.5 17.5C6.5 18.0523 6.94772 18.5 7.5 18.5C8.05228 18.5 8.5 18.0523 8.5 17.5C8.5 15.2909 10.2909 13.5 12.5 13.5ZM21.5 18.5C20.9477 18.5 20.5 18.0523 20.5 17.5C20.5 16.9477 20.9477 16.5 21.5 16.5H23.5C24.0523 16.5 24.5 16.9477 24.5 17.5C24.5 18.0523 24.0523 18.5 23.5 18.5H21.5ZM1.5 22.5C0.947715 22.5 0.5 22.0523 0.5 21.5C0.5 20.9477 0.947715 20.5 1.5 20.5H23.5C24.0523 20.5 24.5 20.9477 24.5 21.5C24.5 22.0523 24.0523 22.5 23.5 22.5H1.5ZM1.5 18.5C0.947715 18.5 0.5 18.0523 0.5 17.5C0.5 16.9477 0.947715 16.5 1.5 16.5H3.5C4.05228 16.5 4.5 16.9477 4.5 17.5C4.5 18.0523 4.05228 18.5 3.5 18.5H1.5Z" fill="#333333"/>
<mask id="mask0_0_12543" style="mask-type:alpha" maskUnits="userSpaceOnUse" x="0" y="0" width="25" height="23">
<path fill-rule="evenodd" clip-rule="evenodd" d="M1.5 22.5C0.947715 22.5 0.5 22.0523 0.5 21.5C0.5 20.9477 0.947715 20.5 1.5 20.5H23.5C24.0523 20.5 24.5 20.9477 24.5 21.5C24.5 22.0523 24.0523 22.5 23.5 22.5H1.5ZM21.5 18.5C20.9477 18.5 20.5 18.0523 20.5 17.5C20.5 16.9477 20.9477 16.5 21.5 16.5H23.5C24.0523 16.5 24.5 16.9477 24.5 17.5C24.5 18.0523 24.0523 18.5 23.5 18.5H21.5ZM16.5 17.5C16.5 15.2909 14.7091 13.5 12.5 13.5C10.2909 13.5 8.5 15.2909 8.5 17.5C8.5 18.0523 8.05228 18.5 7.5 18.5C6.94772 18.5 6.5 18.0523 6.5 17.5C6.5 14.1863 9.18629 11.5 12.5 11.5C15.8137 11.5 18.5 14.1863 18.5 17.5C18.5 18.0523 18.0523 18.5 17.5 18.5C16.9477 18.5 16.5 18.0523 16.5 17.5V17.5ZM1.5 18.5C0.947715 18.5 0.5 18.0523 0.5 17.5C0.5 16.9477 0.947715 16.5 1.5 16.5H3.5C4.05228 16.5 4.5 16.9477 4.5 17.5C4.5 18.0523 4.05228 18.5 3.5 18.5H1.5ZM18.153 11.847C17.7626 11.4565 17.7626 10.8235 18.153 10.433L19.573 9.013C19.9654 8.63403 20.5891 8.63945 20.9748 9.02518C21.3606 9.41092 21.366 10.0346 20.987 10.427L19.568 11.847C19.3804 12.0348 19.1259 12.1403 18.8605 12.1403C18.5951 12.1403 18.3406 12.0348 18.153 11.847V11.847ZM5.433 11.847L4.013 10.427C3.62253 10.0363 3.62276 9.40297 4.0135 9.0125C4.40424 8.62203 5.03753 8.62226 5.428 9.013L6.847 10.433C7.10696 10.6841 7.21121 11.0559 7.1197 11.4055C7.02818 11.7551 6.75514 12.0282 6.40551 12.1197C6.05588 12.2112 5.68407 12.107 5.433 11.847V11.847ZM11.788 9.2L7.788 5.2C7.42013 4.80462 7.43265 4.18859 7.81627 3.80847C8.1999 3.42836 8.81602 3.42151 9.208 3.793L11.5 6.086V1.5C11.5 0.947715 11.9477 0.5 12.5 0.5C13.0523 0.5 13.5 0.947715 13.5 1.5V6.086L15.793 3.793C16.1854 3.41403 16.8091 3.41945 17.1948 3.80518C17.5806 4.19092 17.586 4.81462 17.207 5.207L13.207 9.207C13.1278 9.28611 13.0358 9.35135 12.935 9.4H12.929L12.914 9.407H12.903H12.894L12.878 9.414V9.414C12.5048 9.56958 12.0747 9.48513 11.788 9.2Z" fill="white"/>
</mask>
<g mask="url(#mask0_0_12543)">
<rect x="0.5" y="-0.5" width="24" height="24" fill="#333333"/>
</g>
</svg>
