<svg width="19" height="23" viewBox="0 0 19 23" fill="none" xmlns="http://www.w3.org/2000/svg">
<mask id="mask0_0_12238" style="mask-type:alpha" maskUnits="userSpaceOnUse" x="0" y="0" width="19" height="23">
<path fill-rule="evenodd" clip-rule="evenodd" d="M15.5 22.5H3.5C1.84315 22.5 0.5 21.1569 0.5 19.5V3.5C0.5 1.84315 1.84315 0.5 3.5 0.5H15.5C17.1569 0.5 18.5 1.84315 18.5 3.5V19.5C18.5 21.1569 17.1569 22.5 15.5 22.5ZM3.5 2.5C2.94772 2.5 2.5 2.94772 2.5 3.5V19.5C2.5 20.0523 2.94772 20.5 3.5 20.5H15.5C16.0523 20.5 16.5 20.0523 16.5 19.5V3.5C16.5 2.94772 16.0523 2.5 15.5 2.5H3.5Z" fill="white"/>
</mask>
<g mask="url(#mask0_0_12238)">
<rect x="-2.5" y="-0.5" width="24" height="24" fill="#333333"/>
</g>
</svg>
