<svg width="22" height="22" viewBox="0 0 22 22" fill="none" xmlns="http://www.w3.org/2000/svg">
<mask id="mask0_0_13362" style="mask-type:alpha" maskUnits="userSpaceOnUse" x="0" y="0" width="22" height="22">
<path fill-rule="evenodd" clip-rule="evenodd" d="M11.505 21.666C10.7088 21.6685 9.9447 21.3523 9.383 20.788L0.793 12.207C0.605451 12.0195 0.500057 11.7652 0.5 11.5V1.5C0.5 0.947715 0.947715 0.5 1.5 0.5H11.5C11.7649 0.500553 12.0189 0.605464 12.207 0.792L20.8 9.385C21.9588 10.5569 21.9588 12.4431 20.8 13.615L13.628 20.787C13.0639 21.3484 12.3009 21.6643 11.505 21.666V21.666ZM2.5 2.5V11.086L10.8 19.373C10.9875 19.5605 11.2418 19.6659 11.507 19.666C11.7723 19.6666 12.0269 19.5611 12.214 19.373L19.382 12.2C19.7684 11.8102 19.7684 11.1818 19.382 10.792L11.086 2.5H2.5Z" fill="white"/>
</mask>
<g mask="url(#mask0_0_13362)">
<rect x="-0.5" y="-0.5" width="24" height="24" fill="#333333"/>
</g>
</svg>
