<svg width="23" height="23" viewBox="0 0 23 23" fill="none" xmlns="http://www.w3.org/2000/svg">
<path fill-rule="evenodd" clip-rule="evenodd" d="M1.33763 15.7095C3.04016 19.8198 7.051 22.4999 11.5 22.5C14.419 22.5082 17.2199 21.348 19.278 19.278C22.0879 16.5055 23.1968 12.4399 22.1836 8.62462C21.1704 4.80937 18.1906 1.82954 14.3754 0.816375C10.5601 -0.19679 6.4945 0.912076 3.72197 3.72201C0.576142 6.86798 -0.364903 11.5992 1.33763 15.7095ZM2.49997 11.5C2.49997 6.52944 6.52941 2.50001 11.5 2.50001C16.4683 2.50552 20.4945 6.53173 20.5 11.5C20.5 16.4706 16.4705 20.5 11.5 20.5C6.52941 20.5 2.49997 16.4706 2.49997 11.5ZM11.5 18.5C7.63398 18.5 4.49997 15.366 4.49997 11.5C4.49997 7.63401 7.63398 4.50001 11.5 4.50001C15.366 4.50001 18.5 7.63401 18.5 11.5C18.4956 15.3642 15.3641 18.4956 11.5 18.5ZM6.49997 11.5C6.49997 8.73858 8.73855 6.50001 11.5 6.50001C14.2603 6.50276 16.4972 8.73973 16.5 11.5C16.5 14.2614 14.2614 16.5 11.5 16.5C8.73855 16.5 6.49997 14.2614 6.49997 11.5ZM11.5 14.5C10.2866 14.5 9.19268 13.7691 8.72833 12.6481C8.26399 11.527 8.52066 10.2367 9.37865 9.37868C10.2366 8.52069 11.527 8.26402 12.648 8.72837C13.769 9.19271 14.5 10.2866 14.5 11.5C14.5 12.2957 14.1839 13.0587 13.6213 13.6213C13.0587 14.1839 12.2956 14.5 11.5 14.5ZM10.5 11.5C10.5 10.9477 10.9477 10.5 11.5 10.5C12.0523 10.5 12.5 10.9477 12.5 11.5C12.5 12.0523 12.0523 12.5 11.5 12.5C10.9477 12.5 10.5 12.0523 10.5 11.5Z" fill="#333333"/>
<mask id="mask0_0_12495" style="mask-type:alpha" maskUnits="userSpaceOnUse" x="0" y="0" width="23" height="23">
<path fill-rule="evenodd" clip-rule="evenodd" d="M11.5 22.5C7.051 22.4999 3.04016 19.8198 1.33763 15.7095C-0.364903 11.5992 0.576142 6.86798 3.72197 3.72201C6.4945 0.912076 10.5601 -0.19679 14.3754 0.816375C18.1906 1.82954 21.1704 4.80937 22.1836 8.62462C23.1968 12.4399 22.0879 16.5055 19.278 19.278C17.2199 21.348 14.419 22.5082 11.5 22.5ZM11.5 2.50001C6.52941 2.50001 2.49997 6.52944 2.49997 11.5C2.49997 16.4706 6.52941 20.5 11.5 20.5C16.4705 20.5 20.5 16.4706 20.5 11.5C20.4945 6.53173 16.4683 2.50552 11.5 2.50001ZM11.5 18.5C7.63398 18.5 4.49997 15.366 4.49997 11.5C4.49997 7.63401 7.63398 4.50001 11.5 4.50001C15.366 4.50001 18.5 7.63401 18.5 11.5C18.4956 15.3642 15.3641 18.4956 11.5 18.5V18.5ZM11.5 6.50001C8.73855 6.50001 6.49997 8.73858 6.49997 11.5C6.49997 14.2614 8.73855 16.5 11.5 16.5C14.2614 16.5 16.5 14.2614 16.5 11.5C16.4972 8.73972 14.2603 6.50276 11.5 6.50001ZM11.5 14.5C10.2866 14.5 9.19268 13.7691 8.72833 12.6481C8.26399 11.527 8.52066 10.2367 9.37865 9.37869C10.2366 8.52069 11.527 8.26402 12.648 8.72837C13.769 9.19271 14.5 10.2866 14.5 11.5C14.5 12.2957 14.1839 13.0587 13.6213 13.6213C13.0587 14.1839 12.2956 14.5 11.5 14.5V14.5ZM11.5 10.5C10.9477 10.5 10.5 10.9477 10.5 11.5C10.5 12.0523 10.9477 12.5 11.5 12.5C12.0523 12.5 12.5 12.0523 12.5 11.5C12.5 10.9477 12.0523 10.5 11.5 10.5Z" fill="white"/>
</mask>
<g mask="url(#mask0_0_12495)">
<rect x="-0.5" y="-0.5" width="24" height="24" fill="#333333"/>
</g>
</svg>
