<svg width="12" height="25" viewBox="0 0 12 25" fill="none" xmlns="http://www.w3.org/2000/svg">
<mask id="mask0_0_12993" style="mask-type:alpha" maskUnits="userSpaceOnUse" x="0" y="0" width="12" height="25">
<path fill-rule="evenodd" clip-rule="evenodd" d="M6.00099 24.5C3.68121 24.4992 1.61136 23.0429 0.826949 20.8598C0.0425364 18.6766 0.712226 16.2361 2.50099 14.759V4C2.50099 2.74957 3.16808 1.59413 4.25099 0.968911C5.33389 0.343696 6.66808 0.343696 7.75099 0.968911C8.83389 1.59413 9.50099 2.74957 9.50099 4V14.759C11.2897 16.2361 11.9594 18.6766 11.175 20.8598C10.3906 23.0429 8.32077 24.4992 6.00099 24.5ZM6.00099 2.5C5.17256 2.5 4.50099 3.17157 4.50099 4V15.26C4.50104 15.5943 4.33406 15.9065 4.05599 16.092C2.77415 16.9485 2.20368 18.5429 2.6512 20.0181C3.09872 21.4934 4.45883 22.5021 6.00049 22.5021C7.54214 22.5021 8.90226 21.4934 9.34978 20.0181C9.7973 18.5429 9.22683 16.9485 7.94499 16.092C7.6673 15.9062 7.50071 15.5941 7.50099 15.26V4C7.50099 3.60218 7.34295 3.22064 7.06165 2.93934C6.78034 2.65804 6.39881 2.5 6.00099 2.5Z" fill="white"/>
</mask>
<g mask="url(#mask0_0_12993)">
<rect x="-5.49902" y="0.5" width="24" height="24" fill="#333333"/>
</g>
</svg>
