<svg width="22" height="23" viewBox="0 0 22 23" fill="none" xmlns="http://www.w3.org/2000/svg">
<mask id="mask0_0_12774" style="mask-type:alpha" maskUnits="userSpaceOnUse" x="0" y="0" width="22" height="23">
<path fill-rule="evenodd" clip-rule="evenodd" d="M3.45305 15.393C2.59636 15.4025 1.77875 15.0352 1.21678 14.3885C0.65481 13.7418 0.405195 12.881 0.534051 12.034L1.87705 3.274C2.09359 1.83783 3.3337 0.779749 4.78605 0.791998L15.7621 0.791998C16.2994 0.791998 16.7351 1.22763 16.7351 1.765L16.7351 12.474C16.7357 12.6118 16.7071 12.7481 16.6511 12.874L12.7581 21.633C12.602 21.9844 12.2536 22.2109 11.8691 22.211C9.71901 22.211 7.97605 20.468 7.97605 18.318V15.398L3.45305 15.393ZM14.7891 2.742L4.77005 2.742C4.28439 2.73709 3.86933 3.09072 3.79705 3.571L2.45405 12.328C2.41085 12.6122 2.4955 12.9009 2.68532 13.1168C2.87513 13.3326 3.15068 13.4535 3.43805 13.447H8.95005C9.48742 13.447 9.92305 13.8826 9.92305 14.42L9.92305 18.313C9.92297 19.1603 10.4709 19.9104 11.2781 20.168L14.7891 12.268L14.7891 2.742ZM16.7351 11.501H18.6821C19.2194 11.501 19.6551 11.0654 19.6551 10.528L19.6551 3.716C19.6551 3.17863 19.2194 2.743 18.6821 2.743H16.7361L16.7351 11.501ZM15.7621 0.800999H18.6821C20.2947 0.800999 21.6021 2.10833 21.6021 3.721L21.6021 10.527C21.6021 11.3014 21.2944 12.0441 20.7468 12.5918C20.1992 13.1394 19.4565 13.447 18.6821 13.447H15.7621C15.2247 13.447 14.7891 13.0114 14.7891 12.474L14.7891 1.774C14.7877 1.51508 14.8896 1.26631 15.0723 1.08275C15.2549 0.899194 15.5031 0.795995 15.7621 0.795999V0.800999Z" fill="white"/>
</mask>
<g mask="url(#mask0_0_12774)">
<rect x="22.6011" y="23.505" width="24" height="24" transform="rotate(180 22.6011 23.505)" fill="#333333"/>
</g>
</svg>
