<svg width="22" height="23" viewBox="0 0 22 23" fill="none" xmlns="http://www.w3.org/2000/svg">
<mask id="mask0_0_12352" style="mask-type:alpha" maskUnits="userSpaceOnUse" x="0" y="0" width="22" height="23">
<path fill-rule="evenodd" clip-rule="evenodd" d="M18.648 7.60694C19.5047 7.59749 20.3223 7.96474 20.8843 8.61142C21.4463 9.2581 21.6959 10.1189 21.567 10.9659L20.224 19.7259C20.0075 21.1621 18.7674 22.2202 17.315 22.2079H6.33902C5.80165 22.2079 5.36602 21.7723 5.36602 21.2349V10.5259C5.36539 10.3882 5.39402 10.2518 5.45002 10.1259L9.34302 1.36694C9.49912 1.01554 9.84751 0.789026 10.232 0.78894C12.3821 0.78894 14.125 2.5319 14.125 4.68194V7.60194L18.648 7.60694ZM7.31202 20.2579H17.331C17.8167 20.2629 18.2317 19.9092 18.304 19.4289L19.647 10.6719C19.6902 10.3878 19.6056 10.099 19.4158 9.88316C19.2259 9.66731 18.9504 9.54643 18.663 9.55294H13.151C12.6137 9.55294 12.178 9.11731 12.178 8.57994V4.68694C12.1781 3.83964 11.6302 3.08957 10.823 2.83194L7.31202 10.7319V20.2579ZM5.36602 11.4989H3.41902C2.88165 11.4989 2.44602 11.9346 2.44602 12.4719V19.2839C2.44602 19.8213 2.88165 20.2569 3.41902 20.2569H5.36502L5.36602 11.4989ZM6.33902 22.1989H3.41902C1.80635 22.1989 0.499023 20.8916 0.499023 19.2789V12.4729C0.499023 11.6985 0.806665 10.9558 1.35427 10.4082C1.90188 9.86058 2.64459 9.55294 3.41902 9.55294H6.33902C6.8764 9.55294 7.31202 9.98857 7.31202 10.5259V21.2259C7.31335 21.4849 7.21143 21.7336 7.02881 21.9172C6.84619 22.1007 6.59795 22.2039 6.33902 22.2039V22.1989Z" fill="white"/>
</mask>
<g mask="url(#mask0_0_12352)">
<rect x="-0.5" y="-0.505066" width="24" height="24" fill="#333333"/>
</g>
</svg>
