<svg width="25" height="17" viewBox="0 0 25 17" fill="none" xmlns="http://www.w3.org/2000/svg">
<mask id="mask0_0_13980" style="mask-type:alpha" maskUnits="userSpaceOnUse" x="0" y="0" width="25" height="17">
<path fill-rule="evenodd" clip-rule="evenodd" d="M16.5 16.5H8.5C4.08172 16.5 0.5 12.9183 0.5 8.5C0.5 4.08172 4.08172 0.5 8.5 0.5H16.5C20.9183 0.5 24.5 4.08172 24.5 8.5C24.5 12.9183 20.9183 16.5 16.5 16.5ZM8.5 2.5C6.35641 2.5 4.37564 3.64359 3.30385 5.5C2.23205 7.35641 2.23205 9.64359 3.30385 11.5C4.37564 13.3564 6.35641 14.5 8.5 14.5H16.5C19.8137 14.5 22.5 11.8137 22.5 8.5C22.5 5.18629 19.8137 2.5 16.5 2.5H8.5ZM8.5 12.5C6.29086 12.5 4.5 10.7091 4.5 8.5C4.5 6.29086 6.29086 4.5 8.5 4.5C10.7091 4.5 12.5 6.29086 12.5 8.5C12.5 9.56087 12.0786 10.5783 11.3284 11.3284C10.5783 12.0786 9.56087 12.5 8.5 12.5ZM8.5 6.5C7.39543 6.5 6.5 7.39543 6.5 8.5C6.5 9.60457 7.39543 10.5 8.5 10.5C9.60457 10.5 10.5 9.60457 10.5 8.5C10.5 7.39543 9.60457 6.5 8.5 6.5Z" fill="white"/>
</mask>
<g mask="url(#mask0_0_13980)">
<rect x="0.5" y="-3.5" width="24" height="24" fill="#333333"/>
</g>
</svg>
