<svg width="21" height="23" viewBox="0 0 21 23" fill="none" xmlns="http://www.w3.org/2000/svg">
<path fill-rule="evenodd" clip-rule="evenodd" d="M5.5 22.5C3.84315 22.5 2.5 21.1569 2.5 19.5V6.5H1.5C0.947715 6.5 0.5 6.05228 0.5 5.5C0.5 4.94772 0.947715 4.5 1.5 4.5H5.5V3.5C5.5 1.84315 6.84315 0.5 8.5 0.5H12.5C14.1569 0.5 15.5 1.84315 15.5 3.5V4.5H19.5C20.0523 4.5 20.5 4.94772 20.5 5.5C20.5 6.05228 20.0523 6.5 19.5 6.5H18.5V19.5C18.5 21.1569 17.1569 22.5 15.5 22.5H5.5ZM4.5 19.5C4.5 20.0523 4.94772 20.5 5.5 20.5H15.5C16.0523 20.5 16.5 20.0523 16.5 19.5V6.5H4.5V19.5ZM13.5 3.5V4.5H7.5V3.5C7.5 2.94772 7.94772 2.5 8.5 2.5H12.5C13.0523 2.5 13.5 2.94772 13.5 3.5ZM11.5 16.5V10.5C11.5 9.94771 11.9477 9.5 12.5 9.5C13.0523 9.5 13.5 9.94771 13.5 10.5V16.5C13.5 17.0523 13.0523 17.5 12.5 17.5C11.9477 17.5 11.5 17.0523 11.5 16.5ZM7.5 10.5V16.5C7.5 17.0523 7.94772 17.5 8.5 17.5C9.05229 17.5 9.5 17.0523 9.5 16.5V10.5C9.5 9.94771 9.05229 9.5 8.5 9.5C7.94772 9.5 7.5 9.94771 7.5 10.5Z" fill="#333333"/>
<mask id="mask0_0_12632" style="mask-type:alpha" maskUnits="userSpaceOnUse" x="0" y="0" width="21" height="23">
<path fill-rule="evenodd" clip-rule="evenodd" d="M5.5 22.5C3.84315 22.5 2.5 21.1569 2.5 19.5V6.5H1.5C0.947715 6.5 0.5 6.05228 0.5 5.5C0.5 4.94772 0.947715 4.5 1.5 4.5H5.5V3.5C5.5 1.84315 6.84315 0.5 8.5 0.5H12.5C14.1569 0.5 15.5 1.84315 15.5 3.5V4.5H19.5C20.0523 4.5 20.5 4.94772 20.5 5.5C20.5 6.05228 20.0523 6.5 19.5 6.5H18.5V19.5C18.5 21.1569 17.1569 22.5 15.5 22.5H5.5ZM4.5 19.5C4.5 20.0523 4.94772 20.5 5.5 20.5H15.5C16.0523 20.5 16.5 20.0523 16.5 19.5V6.5H4.5V19.5ZM13.5 4.5V3.5C13.5 2.94772 13.0523 2.5 12.5 2.5H8.5C7.94772 2.5 7.5 2.94772 7.5 3.5V4.5H13.5ZM11.5 16.5V10.5C11.5 9.94772 11.9477 9.5 12.5 9.5C13.0523 9.5 13.5 9.94772 13.5 10.5V16.5C13.5 17.0523 13.0523 17.5 12.5 17.5C11.9477 17.5 11.5 17.0523 11.5 16.5ZM7.5 16.5V10.5C7.5 9.94772 7.94772 9.5 8.5 9.5C9.05228 9.5 9.5 9.94772 9.5 10.5V16.5C9.5 17.0523 9.05228 17.5 8.5 17.5C7.94772 17.5 7.5 17.0523 7.5 16.5Z" fill="white"/>
</mask>
<g mask="url(#mask0_0_12632)">
<rect x="-1.5" y="-0.5" width="24" height="24" fill="#333333"/>
</g>
</svg>
