<svg width="25" height="15" viewBox="0 0 25 15" fill="none" xmlns="http://www.w3.org/2000/svg">
<path d="M0.793031 14.207C0.402649 13.8165 0.402649 13.1835 0.793031 12.793L8.29303 5.293C8.68353 4.90262 9.31653 4.90262 9.70703 5.293L14 9.585L21.086 2.5H17.5C16.9477 2.5 16.5 2.05228 16.5 1.5C16.5 0.947715 16.9477 0.5 17.5 0.5H23.5C24.0523 0.5 24.5 0.947715 24.5 1.5V7.5C24.5 8.05228 24.0523 8.5 23.5 8.5C22.9477 8.5 22.5 8.05228 22.5 7.5V3.915L14.708 11.707C14.5205 11.8948 14.2659 12.0003 14.0005 12.0003C13.7351 12.0003 13.4806 11.8948 13.293 11.707L9.00003 7.414L2.20703 14.207C2.01946 14.3948 1.76494 14.5003 1.49953 14.5003C1.23412 14.5003 0.979599 14.3948 0.792031 14.207H0.793031Z" fill="#333333"/>
<mask id="mask0_0_13304" style="mask-type:alpha" maskUnits="userSpaceOnUse" x="0" y="0" width="25" height="15">
<path fill-rule="evenodd" clip-rule="evenodd" d="M0.793031 14.207C0.402649 13.8165 0.402649 13.1835 0.793031 12.793L8.29303 5.293C8.68353 4.90262 9.31653 4.90262 9.70703 5.293L14 9.585L21.086 2.5H17.5C16.9477 2.5 16.5 2.05228 16.5 1.5C16.5 0.947715 16.9477 0.5 17.5 0.5H23.5C24.0523 0.5 24.5 0.947715 24.5 1.5V7.5C24.5 8.05228 24.0523 8.5 23.5 8.5C22.9477 8.5 22.5 8.05228 22.5 7.5V3.915L14.708 11.707C14.5205 11.8948 14.2659 12.0003 14.0005 12.0003C13.7351 12.0003 13.4806 11.8948 13.293 11.707L9.00003 7.414L2.20703 14.207C2.01946 14.3948 1.76494 14.5003 1.49953 14.5003C1.23412 14.5003 0.979599 14.3948 0.792031 14.207H0.793031Z" fill="white"/>
</mask>
<g mask="url(#mask0_0_13304)">
<rect x="0.5" y="-4.5" width="24" height="24" fill="#333333"/>
</g>
</svg>
