<svg width="25" height="15" viewBox="0 0 25 15" fill="none" xmlns="http://www.w3.org/2000/svg">
<path d="M17.4999 14.5C16.9476 14.5 16.4999 14.0523 16.4999 13.5C16.4999 12.9477 16.9476 12.5 17.4999 12.5H21.0859L13.9999 5.41398L9.70692 9.70698C9.31642 10.0974 8.68342 10.0974 8.29292 9.70698L0.792919 2.20698C0.413947 1.8146 0.419367 1.1909 0.8051 0.805162C1.19083 0.419428 1.81454 0.414008 2.20692 0.79298L8.99992 7.58598L13.2929 3.29298C13.4805 3.1052 13.735 2.99969 14.0004 2.99969C14.2658 2.99969 14.5204 3.1052 14.7079 3.29298L22.4999 11.086V7.49998C22.4999 6.9477 22.9476 6.49998 23.4999 6.49998C24.0522 6.49998 24.4999 6.9477 24.4999 7.49998V13.5C24.4999 14.0523 24.0522 14.5 23.4999 14.5H17.4999Z" fill="#333333"/>
<mask id="mask0_0_14378" style="mask-type:alpha" maskUnits="userSpaceOnUse" x="0" y="0" width="25" height="15">
<path fill-rule="evenodd" clip-rule="evenodd" d="M17.4999 14.5C16.9476 14.5 16.4999 14.0523 16.4999 13.5C16.4999 12.9477 16.9476 12.5 17.4999 12.5H21.0859L13.9999 5.41398L9.70692 9.70698C9.31642 10.0974 8.68342 10.0974 8.29292 9.70698L0.792919 2.20698C0.413947 1.8146 0.419367 1.1909 0.8051 0.805162C1.19083 0.419428 1.81454 0.414008 2.20692 0.79298L8.99992 7.58598L13.2929 3.29298C13.4805 3.1052 13.735 2.99969 14.0004 2.99969C14.2658 2.99969 14.5204 3.1052 14.7079 3.29298L22.4999 11.086V7.49998C22.4999 6.9477 22.9476 6.49998 23.4999 6.49998C24.0522 6.49998 24.4999 6.9477 24.4999 7.49998V13.5C24.4999 14.0523 24.0522 14.5 23.4999 14.5H17.4999Z" fill="white"/>
</mask>
<g mask="url(#mask0_0_14378)">
<rect x="0.499878" y="-4.5" width="24" height="24" fill="#333333"/>
</g>
</svg>
