<svg width="24" height="21" viewBox="0 0 24 21" fill="none" xmlns="http://www.w3.org/2000/svg">
<mask id="mask0_0_14441" style="mask-type:alpha" maskUnits="userSpaceOnUse" x="0" y="0" width="24" height="21">
<path fill-rule="evenodd" clip-rule="evenodd" d="M20.418 20.6H3.46699C2.39931 20.5873 1.41882 20.0081 0.892439 19.0791C0.366057 18.1501 0.373123 17.0114 0.910992 16.089L9.38099 1.94898C9.92429 1.05005 10.8981 0.500732 11.9485 0.500732C12.9988 0.500732 13.9727 1.05005 14.516 1.94898L22.994 16.1C23.528 17.0248 23.5301 18.1637 22.9996 19.0905C22.469 20.0172 21.4858 20.5921 20.418 20.6V20.6ZM11.948 2.49998C11.5988 2.49885 11.2746 2.68107 11.094 2.97998L2.63399 17.1C2.4572 17.406 2.45506 17.7826 2.62837 18.0906C2.80167 18.3986 3.12467 18.5922 3.47799 18.6H20.407C20.7614 18.5971 21.0878 18.4069 21.265 18.1C21.4397 17.7968 21.4416 17.4239 21.27 17.119L12.801 2.98098C12.619 2.68388 12.2964 2.50195 11.948 2.49998Z" fill="white"/>
</mask>
<g mask="url(#mask0_0_14441)">
<rect x="-0.5" y="-1.5" width="24" height="24" fill="#333333"/>
</g>
</svg>
