<svg width="25" height="21" viewBox="0 0 25 21" fill="none" xmlns="http://www.w3.org/2000/svg">
<mask id="mask0_0_14386" style="mask-type:alpha" maskUnits="userSpaceOnUse" x="0" y="0" width="25" height="21">
<path fill-rule="evenodd" clip-rule="evenodd" d="M8.77292 20.473C6.05284 20.4448 3.38446 19.7263 1.01792 18.385C0.619108 18.1643 0.41996 17.7019 0.53366 17.2605C0.64736 16.8192 1.04513 16.5105 1.50092 16.51H1.54592C1.68692 16.516 1.82992 16.519 1.97092 16.519C3.50709 16.5166 5.02475 16.1837 6.42092 15.543C4.38841 14.3652 2.85527 12.4864 2.10892 10.259C1.44422 8.07582 1.43935 5.74493 2.09492 3.559C2.2236 3.06121 2.38871 2.57356 2.58892 2.1C2.73538 1.77094 3.04748 1.54608 3.40597 1.5113C3.76446 1.47653 4.11396 1.63723 4.32092 1.932C5.97835 4.30392 8.61514 5.80409 11.5009 6.017C11.4862 3.8493 12.7506 1.87664 14.7265 0.984892C16.7023 0.0931381 19.0181 0.449911 20.6339 1.895C21.4468 1.59703 22.2171 1.19358 22.9249 0.694996C23.0926 0.573792 23.294 0.508058 23.5009 0.506996C23.8133 0.508203 24.108 0.652238 24.3009 0.897996C24.4901 1.13701 24.5564 1.4509 24.4799 1.746C24.1377 3.14987 23.4526 4.44694 22.4859 5.521C22.5009 5.687 22.5089 5.852 22.5089 6.011C22.5266 8.05987 22.1505 10.0931 21.4009 12C19.3596 17.1727 14.3334 20.5451 8.77292 20.473ZM3.90792 4.554C3.47405 6.2264 3.50865 7.98594 4.00792 9.64C4.35055 10.6963 4.93231 11.6593 5.70792 12.454C6.62811 13.3659 7.71431 14.0933 8.90792 14.597C9.2397 14.7444 9.46552 15.06 9.49792 15.4216C9.53032 15.7832 9.36421 16.134 9.06392 16.338C7.95234 17.0946 6.72685 17.6686 5.43392 18.038C6.52477 18.3275 7.64833 18.4754 8.77692 18.478C11.8676 18.5078 14.8398 17.29 17.0209 15.1C18.1261 13.9774 18.9913 12.6416 19.5639 11.174C20.1989 9.52813 20.5168 7.77702 20.5009 6.013C20.501 5.79651 20.4802 5.58052 20.4389 5.368C20.3762 5.04006 20.4812 4.70244 20.7189 4.468C20.9409 4.24927 21.1474 4.01537 21.3369 3.768C21.0989 3.856 20.8669 3.933 20.6489 3.997C20.2728 4.11033 19.8652 3.99297 19.6069 3.697C18.6472 2.59288 17.0995 2.20683 15.7337 2.73092C14.3679 3.255 13.4757 4.57731 13.5009 6.04V7.04C13.5011 7.58266 13.0684 8.02643 12.5259 8.04C12.4259 8.04 12.3259 8.04 12.2259 8.04C10.6718 8.04308 9.133 7.73361 7.70092 7.13C6.27779 6.53224 4.98828 5.65647 3.90792 4.554Z" fill="white"/>
</mask>
<g mask="url(#mask0_0_14386)">
<rect x="0.500977" y="-1.5" width="24" height="24" fill="#333333"/>
</g>
</svg>
