<svg width="19" height="19" viewBox="0 0 19 19" fill="none" xmlns="http://www.w3.org/2000/svg">
<path d="M9.5 18.5H6.5C5.94772 18.5 5.5 18.0523 5.5 17.5C5.5 16.9477 5.94772 16.5 6.5 16.5H8.5V2.5H2.5V4.5C2.5 5.05228 2.05228 5.5 1.5 5.5C0.947715 5.5 0.5 5.05228 0.5 4.5V1.5C0.5 0.947715 0.947715 0.5 1.5 0.5H17.5C18.0523 0.5 18.5 0.947715 18.5 1.5V4.5C18.5 5.05228 18.0523 5.5 17.5 5.5C16.9477 5.5 16.5 5.05228 16.5 4.5V2.5H10.5V16.5H12.5C13.0523 16.5 13.5 16.9477 13.5 17.5C13.5 18.0523 13.0523 18.5 12.5 18.5H9.5Z" fill="#333333"/>
<mask id="mask0_0_14307" style="mask-type:alpha" maskUnits="userSpaceOnUse" x="0" y="0" width="19" height="19">
<path fill-rule="evenodd" clip-rule="evenodd" d="M9.5 18.5H6.5C5.94772 18.5 5.5 18.0523 5.5 17.5C5.5 16.9477 5.94772 16.5 6.5 16.5H8.5V2.5H2.5V4.5C2.5 5.05228 2.05228 5.5 1.5 5.5C0.947715 5.5 0.5 5.05228 0.5 4.5V1.5C0.5 0.947715 0.947715 0.5 1.5 0.5H17.5C18.0523 0.5 18.5 0.947715 18.5 1.5V4.5C18.5 5.05228 18.0523 5.5 17.5 5.5C16.9477 5.5 16.5 5.05228 16.5 4.5V2.5H10.5V16.5H12.5C13.0523 16.5 13.5 16.9477 13.5 17.5C13.5 18.0523 13.0523 18.5 12.5 18.5H9.5Z" fill="white"/>
</mask>
<g mask="url(#mask0_0_14307)">
<rect x="-2.5" y="-2.5" width="24" height="24" fill="#333333"/>
</g>
</svg>
