<svg width="25" height="23" viewBox="0 0 25 23" fill="none" xmlns="http://www.w3.org/2000/svg">
<mask id="mask0_0_13160" style="mask-type:alpha" maskUnits="userSpaceOnUse" x="0" y="0" width="25" height="23">
<path fill-rule="evenodd" clip-rule="evenodd" d="M15.5 22.5C13.2909 22.5 11.5 20.7091 11.5 18.5V12.5H1.50004C1.2177 12.5012 0.947994 12.3831 0.757504 12.1747C0.567014 11.9663 0.473495 11.6871 0.500038 11.406C1.09014 5.22248 6.28395 0.500732 12.4955 0.500732C18.7071 0.500732 23.9009 5.22248 24.491 11.406C24.5174 11.6855 24.4251 11.9632 24.2366 12.1713C24.0481 12.3794 23.7808 12.4987 23.5 12.5H14.674L19.259 17.85C19.4143 18.031 19.4998 18.2615 19.5 18.5C19.5 20.7091 17.7092 22.5 15.5 22.5ZM13.5 14.2V18.5C13.4982 19.5403 14.2943 20.4084 15.331 20.4963C16.3676 20.5843 17.2986 19.8628 17.472 18.837L13.5 14.2ZM11.5 12.5H14.674L13.259 10.849C13.0861 10.643 12.8364 10.5169 12.568 10.5H22.339C21.3666 5.84079 17.2596 2.50243 12.5 2.50243C7.74047 2.50243 3.63344 5.84079 2.66104 10.5H12.45C11.9174 10.5266 11.4994 10.9666 11.5 11.5V12.5Z" fill="white"/>
</mask>
<g mask="url(#mask0_0_13160)">
<rect x="0.5" y="-0.5" width="24" height="24" fill="#333333"/>
</g>
</svg>
