<svg width="21" height="23" viewBox="0 0 21 23" fill="none" xmlns="http://www.w3.org/2000/svg">
<path fill-rule="evenodd" clip-rule="evenodd" d="M0.5 19.5C0.5 21.1568 1.84315 22.5 3.5 22.5H17.5C19.1565 22.5 20.4994 21.1575 20.5 19.501V12.501C20.5 10.8441 19.1569 9.50099 17.5 9.50099H6.5V6.501C6.49127 4.44228 8.05104 2.71527 10.1 2.515C10.229 2.502 10.366 2.495 10.5 2.495C12.3993 2.49963 14.0352 3.83509 14.42 5.69499C14.4719 5.95585 14.6255 6.18531 14.8469 6.33263C15.0684 6.47994 15.3394 6.53297 15.6 6.48C16.1408 6.36962 16.49 5.84191 16.38 5.301C15.8069 2.5078 13.3514 0.500801 10.5 0.494995C10.2996 0.495435 10.0994 0.50578 9.9 0.525995C6.83253 0.834287 4.49791 3.41707 4.5 6.5V9.5H3.5C1.84315 9.5 0.5 10.8431 0.5 12.5V19.5ZM2.5 12.5C2.5 11.9477 2.94772 11.5 3.5 11.5H17.5C18.0523 11.5 18.5 11.9477 18.5 12.5V19.5C18.5 20.0523 18.0523 20.5 17.5 20.5H3.5C2.94772 20.5 2.5 20.0523 2.5 19.5V12.5Z" fill="#333333"/>
<mask id="mask0_0_12098" style="mask-type:alpha" maskUnits="userSpaceOnUse" x="0" y="0" width="21" height="23">
<path fill-rule="evenodd" clip-rule="evenodd" d="M17.5 22.5H3.5C1.84315 22.5 0.5 21.1568 0.5 19.5V12.5C0.5 10.8431 1.84315 9.5 3.5 9.5H4.5V6.5C4.49791 3.41707 6.83253 0.834287 9.9 0.525995C10.0994 0.50578 10.2996 0.495435 10.5 0.494995C13.3514 0.500801 15.8069 2.5078 16.38 5.301C16.49 5.84191 16.1408 6.36962 15.6 6.48C15.3394 6.53297 15.0684 6.47994 14.8469 6.33263C14.6255 6.18531 14.4719 5.95586 14.42 5.69499C14.0352 3.83509 12.3993 2.49963 10.5 2.495C10.366 2.495 10.229 2.502 10.1 2.515C8.05104 2.71527 6.49127 4.44228 6.5 6.501V9.50099H17.5C19.1569 9.50099 20.5 10.8441 20.5 12.501V19.501C20.4994 21.1575 19.1565 22.5 17.5 22.5ZM3.5 11.5C2.94772 11.5 2.5 11.9477 2.5 12.5V19.5C2.5 20.0523 2.94772 20.5 3.5 20.5H17.5C18.0523 20.5 18.5 20.0523 18.5 19.5V12.5C18.5 11.9477 18.0523 11.5 17.5 11.5H3.5Z" fill="white"/>
</mask>
<g mask="url(#mask0_0_12098)">
<rect x="-1.5" y="-1.5" width="24" height="24" fill="#333333"/>
</g>
</svg>
