<svg width="25" height="21" viewBox="0 0 25 21" fill="none" xmlns="http://www.w3.org/2000/svg">
<path fill-rule="evenodd" clip-rule="evenodd" d="M19.9358 16.6075C19.8608 16.8621 19.89 17.136 20.017 17.3689V17.3679C20.2811 17.8527 20.8881 18.0317 21.373 17.7679C23.7805 16.4554 24.9919 13.6778 24.3158 11.0204C23.6396 8.36307 21.248 6.50219 18.506 6.49992H17.984C16.7738 3.07692 13.6254 0.716253 10.0005 0.51383C6.37549 0.311406 2.98386 2.30687 1.40011 5.57386C-0.183636 8.84084 0.350672 12.7395 2.75499 15.4599C2.9915 15.7279 3.35299 15.8493 3.7033 15.7784C4.05361 15.7076 4.3395 15.4552 4.4533 15.1164C4.5671 14.7776 4.4915 14.4039 4.25499 14.1359C2.3352 11.9647 1.95198 8.83491 3.29119 6.26463C4.6304 3.69434 7.41506 2.21515 10.2945 2.5445C13.174 2.87385 15.5527 4.94362 16.277 7.74992C16.391 8.19135 16.7891 8.49981 17.245 8.49992H18.505C20.3331 8.50113 21.9278 9.74162 22.3788 11.5133C22.8297 13.2849 22.0221 15.1369 20.417 16.0119C20.1839 16.1388 20.0108 16.353 19.9358 16.6075ZM11.505 12.9119V19.4999H11.508C11.508 20.0522 11.9557 20.4999 12.508 20.4999C13.0603 20.4999 13.508 20.0522 13.508 19.4999V12.9129L15.8 15.2049C16.0475 15.4786 16.4256 15.5938 16.7837 15.5045C17.1417 15.4153 17.4215 15.1361 17.5115 14.7782C17.6016 14.4204 17.4872 14.042 17.214 13.7939L13.214 9.79392L13.198 9.77792C12.8384 9.43524 12.2818 9.40841 11.891 9.71492L11.875 9.72792L11.868 9.73392L11.857 9.74292L11.842 9.75592L11.8 9.79592L7.79999 13.7899C7.42073 14.182 7.42571 14.8057 7.81117 15.1918C8.19664 15.5778 8.82035 15.5836 9.21299 15.2049L11.505 12.9119Z" fill="#333333"/>
<mask id="mask0_0_13721" style="mask-type:alpha" maskUnits="userSpaceOnUse" x="0" y="0" width="25" height="21">
<path fill-rule="evenodd" clip-rule="evenodd" d="M11.505 19.4999V12.9119L9.21299 15.2049C8.82035 15.5836 8.19664 15.5778 7.81117 15.1918C7.42571 14.8057 7.42073 14.182 7.79999 13.7899L11.8 9.79592L11.842 9.75592V9.75592L11.857 9.74292L11.868 9.73392L11.875 9.72792L11.891 9.71492V9.71492C12.2818 9.40841 12.8384 9.43524 13.198 9.77792V9.77792L13.214 9.79392L17.214 13.7939C17.4872 14.042 17.6016 14.4204 17.5115 14.7782C17.4215 15.1361 17.1417 15.4153 16.7837 15.5045C16.4256 15.5938 16.0475 15.4786 15.8 15.2049L13.508 12.9129V19.4999C13.508 20.0522 13.0603 20.4999 12.508 20.4999C11.9557 20.4999 11.508 20.0522 11.508 19.4999H11.505ZM20.017 17.3689C19.89 17.136 19.8608 16.8621 19.9358 16.6075C20.0108 16.353 20.1839 16.1388 20.417 16.0119C22.0221 15.1369 22.8297 13.2849 22.3788 11.5133C21.9278 9.74162 20.3331 8.50113 18.505 8.49992H17.245C16.7891 8.49981 16.391 8.19135 16.277 7.74992C15.5527 4.94362 13.174 2.87385 10.2945 2.5445C7.41506 2.21515 4.6304 3.69434 3.29119 6.26463C1.95198 8.83491 2.3352 11.9647 4.25499 14.1359C4.4915 14.4039 4.5671 14.7776 4.4533 15.1164C4.3395 15.4552 4.05361 15.7076 3.7033 15.7784C3.353 15.8493 2.9915 15.7279 2.75499 15.4599C0.350672 12.7395 -0.183636 8.84084 1.40011 5.57386C2.98386 2.30687 6.37549 0.311406 10.0005 0.51383C13.6254 0.716253 16.7738 3.07692 17.984 6.49992H18.506C21.248 6.50219 23.6396 8.36307 24.3158 11.0204C24.9919 13.6778 23.7805 16.4554 21.373 17.7679C20.8881 18.0317 20.2811 17.8527 20.017 17.3679V17.3689Z" fill="white"/>
</mask>
<g mask="url(#mask0_0_13721)">
<rect x="0.5" y="-1.50012" width="24" height="24" fill="#333333"/>
</g>
</svg>
