<svg width="21" height="23" viewBox="0 0 21 23" fill="none" xmlns="http://www.w3.org/2000/svg">
<path fill-rule="evenodd" clip-rule="evenodd" d="M9.5 3.914V15.5C9.5 16.0523 9.94771 16.5 10.5 16.5C11.0523 16.5 11.5 16.0523 11.5 15.5V3.914L13.793 6.203C14.1854 6.58197 14.8091 6.57655 15.1948 6.19081C15.5806 5.80508 15.586 5.18138 15.207 4.789L11.207 0.788997C11.139 0.720895 11.0615 0.662965 10.977 0.616997L10.958 0.606997H10.952L10.938 0.599997L10.926 0.590997H10.918L10.9 0.582997C10.6449 0.471683 10.3551 0.471683 10.1 0.582997L10.082 0.599997H10.074H10.062L10.048 0.610997H10.042L10.023 0.620997C9.93846 0.666965 9.86099 0.724895 9.793 0.792997L5.793 4.793C5.41403 5.18538 5.41945 5.80908 5.80518 6.19482C6.19092 6.58055 6.81462 6.58597 7.207 6.207L9.5 3.914ZM0.5 19.5C0.5 21.1569 1.84315 22.5 3.5 22.5H17.5C19.1569 22.5 20.5 21.1569 20.5 19.5V16.5C20.5 15.9477 20.0523 15.5 19.5 15.5C18.9477 15.5 18.5 15.9477 18.5 16.5V19.5C18.5 20.0523 18.0523 20.5 17.5 20.5H3.5C2.94772 20.5 2.5 20.0523 2.5 19.5V16.5C2.5 15.9477 2.05228 15.5 1.5 15.5C0.947715 15.5 0.5 15.9477 0.5 16.5V19.5Z" fill="#333333"/>
<mask id="mask0_0_13112" style="mask-type:alpha" maskUnits="userSpaceOnUse" x="0" y="0" width="21" height="23">
<path fill-rule="evenodd" clip-rule="evenodd" d="M3.5 22.5C1.84315 22.5 0.5 21.1569 0.5 19.5V16.5C0.5 15.9477 0.947715 15.5 1.5 15.5C2.05228 15.5 2.5 15.9477 2.5 16.5V19.5C2.5 20.0523 2.94772 20.5 3.5 20.5H17.5C18.0523 20.5 18.5 20.0523 18.5 19.5V16.5C18.5 15.9477 18.9477 15.5 19.5 15.5C20.0523 15.5 20.5 15.9477 20.5 16.5V19.5C20.5 21.1569 19.1569 22.5 17.5 22.5H3.5ZM9.5 15.5V3.914L7.207 6.207C6.81462 6.58597 6.19092 6.58055 5.80518 6.19482C5.41945 5.80908 5.41403 5.18538 5.793 4.793L9.793 0.792997C9.86099 0.724895 9.93846 0.666965 10.023 0.620997V0.620997L10.042 0.610997H10.048L10.062 0.599997H10.074H10.082L10.1 0.582997V0.582997C10.3551 0.471683 10.6449 0.471683 10.9 0.582997V0.582997L10.918 0.590997H10.926L10.938 0.599997L10.952 0.606997H10.958L10.977 0.616997V0.616997C11.0615 0.662965 11.139 0.720895 11.207 0.788997L15.207 4.789C15.586 5.18138 15.5806 5.80508 15.1948 6.19081C14.8091 6.57655 14.1854 6.58197 13.793 6.203L11.5 3.914V15.5C11.5 16.0523 11.0523 16.5 10.5 16.5C9.94772 16.5 9.5 16.0523 9.5 15.5Z" fill="white"/>
</mask>
<g mask="url(#mask0_0_13112)">
<rect x="-1.5" y="-0.5" width="24" height="24" fill="#333333"/>
</g>
</svg>
