<svg width="25" height="21" viewBox="0 0 25 21" fill="none" xmlns="http://www.w3.org/2000/svg">
<path fill-rule="evenodd" clip-rule="evenodd" d="M4 5.5C4 2.73858 6.23858 0.5 9 0.5C11.7614 0.5 14 2.73858 14 5.5C14 8.26142 11.7614 10.5 9 10.5C6.23972 10.4972 4.00276 8.26028 4 5.5ZM16.792 10.207L18.792 12.207C18.9796 12.3948 19.2341 12.5003 19.4995 12.5003C19.7649 12.5003 20.0194 12.3948 20.207 12.207L24.207 8.207C24.586 7.81462 24.5806 7.19092 24.1948 6.80518C23.8091 6.41945 23.1854 6.41403 22.793 6.793L19.5 10.086L18.207 8.792C17.8163 8.40126 17.1827 8.40126 16.792 8.792C16.4013 9.18274 16.4013 9.81626 16.792 10.207ZM15.5 17.5V19.5C15.5 20.0523 15.9477 20.5 16.5 20.5C17.0523 20.5 17.5 20.0523 17.5 19.5V17.5C17.4967 14.7399 15.2601 12.5033 12.5 12.5H5.5C2.73995 12.5033 0.503306 14.7399 0.5 17.5V19.5C0.5 20.0523 0.947715 20.5 1.5 20.5C2.05228 20.5 2.5 20.0523 2.5 19.5V17.5C2.5 15.8431 3.84315 14.5 5.5 14.5H12.5C14.1569 14.5 15.5 15.8431 15.5 17.5ZM9 8.5C7.34315 8.5 6 7.15685 6 5.5C6 3.84315 7.34315 2.5 9 2.5C10.6569 2.5 12 3.84315 12 5.5C12 7.15685 10.6569 8.5 9 8.5Z" fill="#333333"/>
<mask id="mask0_0_13895" style="mask-type:alpha" maskUnits="userSpaceOnUse" x="0" y="0" width="25" height="21">
<path fill-rule="evenodd" clip-rule="evenodd" d="M15.5 19.5V17.5C15.5 15.8431 14.1569 14.5 12.5 14.5H5.5C3.84315 14.5 2.5 15.8431 2.5 17.5V19.5C2.5 20.0523 2.05228 20.5 1.5 20.5C0.947715 20.5 0.5 20.0523 0.5 19.5V17.5C0.503306 14.7399 2.73995 12.5033 5.5 12.5H12.5C15.2601 12.5033 17.4967 14.7399 17.5 17.5V19.5C17.5 20.0523 17.0523 20.5 16.5 20.5C15.9477 20.5 15.5 20.0523 15.5 19.5ZM18.792 12.207L16.792 10.207C16.4013 9.81626 16.4013 9.18274 16.792 8.792C17.1827 8.40126 17.8163 8.40126 18.207 8.792L19.5 10.086L22.793 6.793C23.1854 6.41403 23.8091 6.41945 24.1948 6.80518C24.5806 7.19092 24.586 7.81462 24.207 8.207L20.207 12.207C20.0194 12.3948 19.7649 12.5003 19.4995 12.5003C19.2341 12.5003 18.9796 12.3948 18.792 12.207ZM4 5.5C4 2.73858 6.23858 0.5 9 0.5C11.7614 0.5 14 2.73858 14 5.5C14 8.26142 11.7614 10.5 9 10.5C6.23972 10.4972 4.00276 8.26028 4 5.5ZM6 5.5C6 7.15685 7.34315 8.5 9 8.5C10.6569 8.5 12 7.15685 12 5.5C12 3.84315 10.6569 2.5 9 2.5C7.34315 2.5 6 3.84315 6 5.5Z" fill="white"/>
</mask>
<g mask="url(#mask0_0_13895)">
<rect x="0.5" y="-1.5" width="24" height="24" fill="#333333"/>
</g>
</svg>
