<svg width="25" height="21" viewBox="0 0 25 21" fill="none" xmlns="http://www.w3.org/2000/svg">
<path fill-rule="evenodd" clip-rule="evenodd" d="M4.5 5.5C4.5 8.26142 6.73858 10.5 9.5 10.5C12.2601 10.4967 14.4967 8.26005 14.5 5.5C14.5 2.73858 12.2614 0.5 9.5 0.5C6.73858 0.5 4.5 2.73858 4.5 5.5ZM17.5 20.5C16.9477 20.5 16.5 20.0523 16.5 19.5V17.5C16.5 15.8431 15.1569 14.5 13.5 14.5H5.5C3.84315 14.5 2.5 15.8431 2.5 17.5V19.5C2.5 20.0523 2.05228 20.5 1.5 20.5C0.947715 20.5 0.5 20.0523 0.5 19.5V17.5C0.503306 14.7399 2.73995 12.5033 5.5 12.5H13.5C16.2601 12.5033 18.4967 14.7399 18.5 17.5V19.5C18.5 20.0523 18.0523 20.5 17.5 20.5ZM23.5 20.5C22.9477 20.5 22.5 20.0523 22.5 19.5V17.5C22.4978 16.1338 21.5728 14.9416 20.25 14.6C19.7151 14.4619 19.3934 13.9164 19.5315 13.3815C19.6696 12.8466 20.2151 12.5249 20.75 12.663C22.9561 13.2326 24.4981 15.2216 24.5 17.5V19.5C24.5 19.7652 24.3946 20.0196 24.2071 20.2071C24.0196 20.3946 23.7652 20.5 23.5 20.5ZM9.5 2.5C7.84315 2.5 6.5 3.84315 6.5 5.5C6.5 7.15685 7.84315 8.5 9.5 8.5C11.1569 8.5 12.5 7.15685 12.5 5.5C12.5 3.84315 11.1569 2.5 9.5 2.5ZM15.5069 9.50496C15.5699 10.0053 15.9957 10.3805 16.5 10.38C16.585 10.3806 16.6697 10.3702 16.752 10.349C18.9649 9.78289 20.5128 7.78914 20.5128 5.505C20.5128 3.22086 18.9649 1.22711 16.752 0.661C16.2168 0.522929 15.6711 0.844836 15.533 1.38C15.3949 1.91516 15.7168 2.46093 16.252 2.599C17.579 2.93923 18.5069 4.13512 18.5069 5.505C18.5069 6.87488 17.579 8.07077 16.252 8.411C15.7633 8.5356 15.4439 9.00459 15.5069 9.50496Z" fill="#333333"/>
<mask id="mask0_0_12587" style="mask-type:alpha" maskUnits="userSpaceOnUse" x="0" y="0" width="25" height="21">
<path fill-rule="evenodd" clip-rule="evenodd" d="M23.5 20.5C22.9477 20.5 22.5 20.0523 22.5 19.5V17.5C22.4978 16.1338 21.5728 14.9416 20.25 14.6C19.7151 14.4619 19.3934 13.9164 19.5315 13.3815C19.6696 12.8466 20.2151 12.5249 20.75 12.663C22.9561 13.2326 24.4981 15.2216 24.5 17.5V19.5C24.5 19.7652 24.3946 20.0196 24.2071 20.2071C24.0196 20.3946 23.7652 20.5 23.5 20.5ZM17.5 20.5C16.9477 20.5 16.5 20.0523 16.5 19.5V17.5C16.5 15.8431 15.1569 14.5 13.5 14.5H5.5C3.84315 14.5 2.5 15.8431 2.5 17.5V19.5C2.5 20.0523 2.05228 20.5 1.5 20.5C0.947715 20.5 0.5 20.0523 0.5 19.5V17.5C0.503306 14.7399 2.73995 12.5033 5.5 12.5H13.5C16.2601 12.5033 18.4967 14.7399 18.5 17.5V19.5C18.5 20.0523 18.0523 20.5 17.5 20.5ZM9.5 10.5C6.73858 10.5 4.5 8.26142 4.5 5.5C4.5 2.73858 6.73858 0.5 9.5 0.5C12.2614 0.5 14.5 2.73858 14.5 5.5C14.4967 8.26005 12.2601 10.4967 9.5 10.5ZM9.5 2.5C7.84315 2.5 6.5 3.84315 6.5 5.5C6.5 7.15685 7.84315 8.5 9.5 8.5C11.1569 8.5 12.5 7.15685 12.5 5.5C12.5 3.84315 11.1569 2.5 9.5 2.5ZM16.5 10.38C15.9957 10.3805 15.5699 10.0053 15.5069 9.50497C15.4439 9.00459 15.7633 8.5356 16.252 8.411C17.579 8.07077 18.5069 6.87488 18.5069 5.505C18.5069 4.13512 17.579 2.93923 16.252 2.599C15.7168 2.46093 15.3949 1.91516 15.533 1.38C15.6711 0.844836 16.2168 0.522929 16.752 0.661C18.9649 1.22711 20.5128 3.22086 20.5128 5.505C20.5128 7.78914 18.9649 9.78289 16.752 10.349C16.6697 10.3702 16.585 10.3806 16.5 10.38V10.38Z" fill="white"/>
</mask>
<g mask="url(#mask0_0_12587)">
<rect x="0.5" y="-1.5" width="24" height="24" fill="#333333"/>
</g>
</svg>
