<svg width="25" height="21" viewBox="0 0 25 21" fill="none" xmlns="http://www.w3.org/2000/svg">
<path fill-rule="evenodd" clip-rule="evenodd" d="M9 10.5C6.23858 10.5 4 8.26142 4 5.5C4 2.73858 6.23858 0.5 9 0.5C11.7614 0.5 14 2.73858 14 5.5C13.9972 8.26028 11.7603 10.4972 9 10.5ZM17.5 10.5H23.5C24.0523 10.5 24.5 10.0523 24.5 9.5C24.5 8.94771 24.0523 8.5 23.5 8.5H17.5C16.9477 8.5 16.5 8.94771 16.5 9.5C16.5 10.0523 16.9477 10.5 17.5 10.5ZM15.5 19.5C15.5 20.0523 15.9477 20.5 16.5 20.5C17.0523 20.5 17.5 20.0523 17.5 19.5V17.5C17.4967 14.7399 15.2601 12.5033 12.5 12.5H5.5C2.73995 12.5033 0.503306 14.7399 0.5 17.5V19.5C0.5 20.0523 0.947715 20.5 1.5 20.5C2.05228 20.5 2.5 20.0523 2.5 19.5V17.5C2.5 15.8431 3.84315 14.5 5.5 14.5H12.5C14.1569 14.5 15.5 15.8431 15.5 17.5V19.5ZM6 5.5C6 3.84315 7.34315 2.5 9 2.5C10.6569 2.5 12 3.84315 12 5.5C12 7.15685 10.6569 8.5 9 8.5C7.34315 8.5 6 7.15685 6 5.5Z" fill="#333333"/>
<mask id="mask0_0_13170" style="mask-type:alpha" maskUnits="userSpaceOnUse" x="0" y="0" width="25" height="21">
<path fill-rule="evenodd" clip-rule="evenodd" d="M16.5 20.5C15.9477 20.5 15.5 20.0523 15.5 19.5V17.5C15.5 15.8431 14.1569 14.5 12.5 14.5H5.5C3.84315 14.5 2.5 15.8431 2.5 17.5V19.5C2.5 20.0523 2.05228 20.5 1.5 20.5C0.947715 20.5 0.5 20.0523 0.5 19.5V17.5C0.503306 14.7399 2.73995 12.5033 5.5 12.5H12.5C15.2601 12.5033 17.4967 14.7399 17.5 17.5V19.5C17.5 20.0523 17.0523 20.5 16.5 20.5ZM23.5 10.5H17.5C16.9477 10.5 16.5 10.0523 16.5 9.5C16.5 8.94772 16.9477 8.5 17.5 8.5H23.5C24.0523 8.5 24.5 8.94772 24.5 9.5C24.5 10.0523 24.0523 10.5 23.5 10.5ZM9 10.5C6.23858 10.5 4 8.26142 4 5.5C4 2.73858 6.23858 0.5 9 0.5C11.7614 0.5 14 2.73858 14 5.5C13.9972 8.26028 11.7603 10.4972 9 10.5ZM9 2.5C7.34315 2.5 6 3.84315 6 5.5C6 7.15685 7.34315 8.5 9 8.5C10.6569 8.5 12 7.15685 12 5.5C12 3.84315 10.6569 2.5 9 2.5Z" fill="white"/>
</mask>
<g mask="url(#mask0_0_13170)">
<rect x="0.5" y="-1.5" width="24" height="24" fill="#333333"/>
</g>
</svg>
