<svg width="25" height="21" viewBox="0 0 25 21" fill="none" xmlns="http://www.w3.org/2000/svg">
<path fill-rule="evenodd" clip-rule="evenodd" d="M4 5.5C4 2.73858 6.23858 0.5 9 0.5C11.7614 0.5 14 2.73858 14 5.5C14 8.26142 11.7614 10.5 9 10.5C6.23972 10.4972 4.00276 8.26028 4 5.5ZM21 10.414L22.793 12.207C23.0441 12.467 23.4159 12.5712 23.7655 12.4797C24.1151 12.3882 24.3882 12.1151 24.4797 11.7655C24.5712 11.4159 24.467 11.0441 24.207 10.793L22.414 9L24.207 7.207C24.586 6.81462 24.5806 6.19092 24.1948 5.80518C23.8091 5.41945 23.1854 5.41403 22.793 5.793L21 7.586L19.208 5.793C18.8175 5.40226 18.1842 5.40203 17.7935 5.7925C17.4028 6.18297 17.4025 6.81626 17.793 7.207L19.586 9L17.792 10.793C17.4015 11.1837 17.4018 11.817 17.7925 12.2075C18.1832 12.598 18.8165 12.5977 19.207 12.207L21 10.414ZM15.5 17.5V19.5C15.5 20.0523 15.9477 20.5 16.5 20.5C17.0523 20.5 17.5 20.0523 17.5 19.5V17.5C17.4967 14.7399 15.2601 12.5033 12.5 12.5H5.5C2.73995 12.5033 0.503306 14.7399 0.5 17.5V19.5C0.5 20.0523 0.947715 20.5 1.5 20.5C2.05228 20.5 2.5 20.0523 2.5 19.5V17.5C2.5 15.8431 3.84315 14.5 5.5 14.5H12.5C14.1569 14.5 15.5 15.8431 15.5 17.5ZM9 8.5C7.34315 8.5 6 7.15685 6 5.5C6 3.84315 7.34315 2.5 9 2.5C10.6569 2.5 12 3.84315 12 5.5C12 7.15685 10.6569 8.5 9 8.5Z" fill="#333333"/>
<mask id="mask0_0_12697" style="mask-type:alpha" maskUnits="userSpaceOnUse" x="0" y="0" width="25" height="21">
<path fill-rule="evenodd" clip-rule="evenodd" d="M15.5 19.5V17.5C15.5 15.8431 14.1569 14.5 12.5 14.5H5.5C3.84315 14.5 2.5 15.8431 2.5 17.5V19.5C2.5 20.0523 2.05228 20.5 1.5 20.5C0.947715 20.5 0.5 20.0523 0.5 19.5V17.5C0.503306 14.7399 2.73995 12.5033 5.5 12.5H12.5C15.2601 12.5033 17.4967 14.7399 17.5 17.5V19.5C17.5 20.0523 17.0523 20.5 16.5 20.5C15.9477 20.5 15.5 20.0523 15.5 19.5ZM22.793 12.207L21 10.414L19.207 12.207C18.8165 12.5977 18.1832 12.598 17.7925 12.2075C17.4018 11.817 17.4015 11.1837 17.792 10.793L19.586 9L17.793 7.207C17.4025 6.81626 17.4028 6.18297 17.7935 5.7925C18.1842 5.40203 18.8175 5.40226 19.208 5.793L21 7.586L22.793 5.793C23.1854 5.41403 23.8091 5.41945 24.1948 5.80518C24.5806 6.19092 24.586 6.81462 24.207 7.207L22.414 9L24.207 10.793C24.467 11.0441 24.5712 11.4159 24.4797 11.7655C24.3882 12.1151 24.1151 12.3882 23.7655 12.4797C23.4159 12.5712 23.0441 12.467 22.793 12.207V12.207ZM4 5.5C4 2.73858 6.23858 0.5 9 0.5C11.7614 0.5 14 2.73858 14 5.5C14 8.26142 11.7614 10.5 9 10.5C6.23972 10.4972 4.00276 8.26028 4 5.5ZM6 5.5C6 7.15685 7.34315 8.5 9 8.5C10.6569 8.5 12 7.15685 12 5.5C12 3.84315 10.6569 2.5 9 2.5C7.34315 2.5 6 3.84315 6 5.5Z" fill="white"/>
</mask>
<g mask="url(#mask0_0_12697)">
<rect x="0.5" y="-1.5" width="24" height="24" fill="#333333"/>
</g>
</svg>
