<svg width="19" height="21" viewBox="0 0 19 21" fill="none" xmlns="http://www.w3.org/2000/svg">
<path fill-rule="evenodd" clip-rule="evenodd" d="M9.5 10.5C6.73858 10.5 4.5 8.26142 4.5 5.5C4.5 2.73858 6.73858 0.5 9.5 0.5C12.2614 0.5 14.5 2.73858 14.5 5.5C14.4967 8.26005 12.2601 10.4967 9.5 10.5ZM17.5 20.5C16.9477 20.5 16.5 20.0523 16.5 19.5V17.5C16.5 15.8431 15.1569 14.5 13.5 14.5H5.5C3.84315 14.5 2.5 15.8431 2.5 17.5V19.5C2.5 20.0523 2.05228 20.5 1.5 20.5C0.947715 20.5 0.5 20.0523 0.5 19.5V17.5C0.503306 14.7399 2.73995 12.5033 5.5 12.5H13.5C16.2601 12.5033 18.4967 14.7399 18.5 17.5V19.5C18.5 20.0523 18.0523 20.5 17.5 20.5ZM6.5 5.5C6.5 3.84315 7.84315 2.5 9.5 2.5C11.1569 2.5 12.5 3.84315 12.5 5.5C12.5 7.15685 11.1569 8.5 9.5 8.5C7.84315 8.5 6.5 7.15685 6.5 5.5Z" fill="#333333"/>
<mask id="mask0_0_12467" style="mask-type:alpha" maskUnits="userSpaceOnUse" x="0" y="0" width="19" height="21">
<path fill-rule="evenodd" clip-rule="evenodd" d="M17.5 20.5C16.9477 20.5 16.5 20.0523 16.5 19.5V17.5C16.5 15.8431 15.1569 14.5 13.5 14.5H5.5C3.84315 14.5 2.5 15.8431 2.5 17.5V19.5C2.5 20.0523 2.05228 20.5 1.5 20.5C0.947715 20.5 0.5 20.0523 0.5 19.5V17.5C0.503306 14.7399 2.73995 12.5033 5.5 12.5H13.5C16.2601 12.5033 18.4967 14.7399 18.5 17.5V19.5C18.5 20.0523 18.0523 20.5 17.5 20.5ZM9.5 10.5C6.73858 10.5 4.5 8.26142 4.5 5.5C4.5 2.73858 6.73858 0.5 9.5 0.5C12.2614 0.5 14.5 2.73858 14.5 5.5C14.4967 8.26005 12.2601 10.4967 9.5 10.5ZM9.5 2.5C7.84315 2.5 6.5 3.84315 6.5 5.5C6.5 7.15685 7.84315 8.5 9.5 8.5C11.1569 8.5 12.5 7.15685 12.5 5.5C12.5 3.84315 11.1569 2.5 9.5 2.5Z" fill="white"/>
</mask>
<g mask="url(#mask0_0_12467)">
<rect x="-2.5" y="-1.5" width="24" height="24" fill="#333333"/>
</g>
</svg>
