<svg width="25" height="25" viewBox="0 0 25 25" fill="none" xmlns="http://www.w3.org/2000/svg">
<path fill-rule="evenodd" clip-rule="evenodd" d="M22.793 24.207L17.261 18.675C16.7898 19.7819 15.703 20.5003 14.5 20.5H3.5C1.84315 20.5 0.5 19.1568 0.5 17.5V7.49998C0.49977 5.99371 1.61651 4.7208 3.11 4.52498L0.793 2.20698C0.414028 1.8146 0.419448 1.1909 0.805181 0.805162C1.19092 0.419428 1.81462 0.414008 2.207 0.79298L24.207 22.793C24.467 23.0441 24.5712 23.4159 24.4797 23.7655C24.3882 24.1151 24.1151 24.3882 23.7655 24.4797C23.4159 24.5712 23.0441 24.4669 22.793 24.207ZM2.5 7.49998V17.5C2.5 18.0523 2.94772 18.5 3.5 18.5H14.5C15.0523 18.5 15.5 18.0523 15.5 17.5V16.914L5.086 6.49998H3.5C2.94772 6.49998 2.5 6.9477 2.5 7.49998ZM22.5 9.45798V17.5C22.5 18.0523 22.9477 18.5 23.5 18.5C24.0523 18.5 24.5 18.0523 24.5 17.5V7.49998C24.5032 7.12173 24.2926 6.77406 23.956 6.6016C23.6193 6.42915 23.2141 6.46141 22.909 6.68498L17.6 10.526L17.5 10.426V7.49998C17.5 5.84313 16.1569 4.49998 14.5 4.49998H11.16C10.6077 4.49998 10.16 4.9477 10.16 5.49998C10.16 6.05226 10.6077 6.49998 11.16 6.49998H14.5C15.0523 6.49998 15.5 6.9477 15.5 7.49998V10.84C15.4993 11.1062 15.6047 11.3618 15.793 11.55L16.793 12.55C17.141 12.8961 17.6889 12.9385 18.086 12.65L22.5 9.45798Z" fill="#333333"/>
<mask id="mask0_0_13487" style="mask-type:alpha" maskUnits="userSpaceOnUse" x="0" y="0" width="25" height="25">
<path fill-rule="evenodd" clip-rule="evenodd" d="M22.793 24.207L17.261 18.675C16.7898 19.7819 15.703 20.5003 14.5 20.5H3.5C1.84315 20.5 0.5 19.1568 0.5 17.5V7.49998C0.49977 5.99371 1.61651 4.7208 3.11 4.52498L0.793 2.20698C0.414028 1.8146 0.419448 1.1909 0.805181 0.805162C1.19092 0.419428 1.81462 0.414008 2.207 0.79298L24.207 22.793C24.467 23.0441 24.5712 23.4159 24.4797 23.7655C24.3882 24.1151 24.1151 24.3882 23.7655 24.4797C23.4159 24.5712 23.0441 24.4669 22.793 24.207ZM2.5 7.49998V17.5C2.5 18.0523 2.94772 18.5 3.5 18.5H14.5C15.0523 18.5 15.5 18.0523 15.5 17.5V16.914L5.086 6.49998H3.5C2.94772 6.49998 2.5 6.9477 2.5 7.49998ZM22.5 17.5V9.45798L18.086 12.65C17.6889 12.9385 17.141 12.8961 16.793 12.55L15.793 11.55C15.6047 11.3618 15.4993 11.1062 15.5 10.84V7.49998C15.5 6.9477 15.0523 6.49998 14.5 6.49998H11.16C10.6077 6.49998 10.16 6.05226 10.16 5.49998C10.16 4.9477 10.6077 4.49998 11.16 4.49998H14.5C16.1569 4.49998 17.5 5.84313 17.5 7.49998V10.426L17.6 10.526L22.909 6.68498C23.2141 6.46141 23.6193 6.42915 23.956 6.6016C24.2926 6.77406 24.5032 7.12173 24.5 7.49998V17.5C24.5 18.0523 24.0523 18.5 23.5 18.5C22.9477 18.5 22.5 18.0523 22.5 17.5V17.5Z" fill="white"/>
</mask>
<g mask="url(#mask0_0_13487)">
<rect x="0.5" y="0.5" width="24" height="24" fill="#333333"/>
</g>
</svg>
