<svg width="25" height="17" viewBox="0 0 25 17" fill="none" xmlns="http://www.w3.org/2000/svg">
<path fill-rule="evenodd" clip-rule="evenodd" d="M14.5 16.5H3.5C1.84315 16.5 0.5 15.1569 0.5 13.5V3.5C0.5 1.84315 1.84315 0.5 3.5 0.5H14.5C16.1569 0.5 17.5 1.84315 17.5 3.5V6.557L22.919 2.686C23.0882 2.56433 23.2916 2.49923 23.5 2.5C24.0523 2.5 24.5 2.94772 24.5 3.5V13.5C24.4967 14.0509 24.0509 14.4967 23.5 14.5C23.2927 14.4993 23.0909 14.4336 22.923 14.312L17.5 10.443V13.5C17.5 15.1569 16.1569 16.5 14.5 16.5ZM3.5 2.5C2.94772 2.5 2.5 2.94772 2.5 3.5V13.5C2.5 14.0523 2.94772 14.5 3.5 14.5H14.5C15.0523 14.5 15.5 14.0523 15.5 13.5V3.5C15.5 2.94772 15.0523 2.5 14.5 2.5H3.5ZM18.22 8.5L22.5 5.443V11.557L18.22 8.5Z" fill="#333333"/>
<mask id="mask0_0_13785" style="mask-type:alpha" maskUnits="userSpaceOnUse" x="0" y="0" width="25" height="17">
<path fill-rule="evenodd" clip-rule="evenodd" d="M14.5 16.5H3.5C1.84315 16.5 0.5 15.1569 0.5 13.5V3.5C0.5 1.84315 1.84315 0.5 3.5 0.5H14.5C16.1569 0.5 17.5 1.84315 17.5 3.5V6.557L22.919 2.686C23.0882 2.56433 23.2916 2.49923 23.5 2.5C24.0523 2.5 24.5 2.94772 24.5 3.5V13.5C24.4967 14.0509 24.0509 14.4967 23.5 14.5C23.2927 14.4993 23.0909 14.4336 22.923 14.312L17.5 10.443V13.5C17.5 15.1569 16.1569 16.5 14.5 16.5ZM3.5 2.5C2.94772 2.5 2.5 2.94772 2.5 3.5V13.5C2.5 14.0523 2.94772 14.5 3.5 14.5H14.5C15.0523 14.5 15.5 14.0523 15.5 13.5V3.5C15.5 2.94772 15.0523 2.5 14.5 2.5H3.5ZM22.5 5.443L18.22 8.5L22.5 11.557V5.443Z" fill="white"/>
</mask>
<g mask="url(#mask0_0_13785)">
<rect x="0.5" y="-3.5" width="24" height="24" fill="#333333"/>
</g>
</svg>
