<svg width="25" height="12" viewBox="0 0 25 12" fill="none" xmlns="http://www.w3.org/2000/svg">
<path fill-rule="evenodd" clip-rule="evenodd" d="M18.9999 11.5H5.99994C3.4254 11.4999 1.19547 9.71377 0.633113 7.20139C0.0707529 4.68902 1.32646 2.12272 3.65526 1.02501C5.98405 -0.0727018 8.76271 0.591941 10.3427 2.62463C11.9227 4.65731 11.8813 7.51405 10.2429 9.50002H14.7569C13.1186 7.51405 13.0771 4.65731 14.6572 2.62463C16.2372 0.591941 19.0158 -0.0727018 21.3446 1.02501C23.6734 2.12272 24.9291 4.68902 24.3668 7.20139C23.8044 9.71377 21.5745 11.4999 18.9999 11.5ZM18.9999 2.50002C17.0669 2.50002 15.4999 4.06703 15.4999 6.00002C15.4999 7.93302 17.0669 9.50002 18.9999 9.50002C20.9329 9.50002 22.4999 7.93302 22.4999 6.00002C22.4999 4.06703 20.9329 2.50002 18.9999 2.50002ZM2.49994 6.00002C2.49994 4.06703 4.06694 2.50002 5.99994 2.50002C7.93294 2.50002 9.49994 4.06703 9.49994 6.00002C9.49994 7.93302 7.93294 9.50002 5.99994 9.50002C4.06694 9.50002 2.49994 7.93302 2.49994 6.00002Z" fill="#333333"/>
<mask id="mask0_0_14466" style="mask-type:alpha" maskUnits="userSpaceOnUse" x="0" y="0" width="25" height="12">
<path fill-rule="evenodd" clip-rule="evenodd" d="M18.9999 11.5H5.99994C3.4254 11.4999 1.19547 9.71377 0.633113 7.20139C0.0707529 4.68902 1.32646 2.12272 3.65526 1.02501C5.98405 -0.0727018 8.76271 0.591941 10.3427 2.62463C11.9227 4.65731 11.8813 7.51405 10.2429 9.50002H14.7569C13.1186 7.51405 13.0771 4.65731 14.6572 2.62463C16.2372 0.591941 19.0158 -0.0727018 21.3446 1.02501C23.6734 2.12272 24.9291 4.68902 24.3668 7.20139C23.8044 9.71377 21.5745 11.4999 18.9999 11.5ZM18.9999 2.50002C17.0669 2.50002 15.4999 4.06703 15.4999 6.00002C15.4999 7.93302 17.0669 9.50002 18.9999 9.50002C20.9329 9.50002 22.4999 7.93302 22.4999 6.00002C22.4999 4.06703 20.9329 2.50002 18.9999 2.50002ZM5.99994 2.50002C4.06694 2.50002 2.49994 4.06703 2.49994 6.00002C2.49994 7.93302 4.06694 9.50002 5.99994 9.50002C7.93294 9.50002 9.49994 7.93302 9.49994 6.00002C9.49994 4.06703 7.93294 2.50002 5.99994 2.50002Z" fill="white"/>
</mask>
<g mask="url(#mask0_0_14466)">
<rect x="0.5" y="-5.5" width="24" height="24" fill="#333333"/>
</g>
</svg>
