<svg width="23" height="17" viewBox="0 0 23 17" fill="none" xmlns="http://www.w3.org/2000/svg">
<path fill-rule="evenodd" clip-rule="evenodd" d="M17.863 14.933C17.4726 15.3235 17.4726 15.9565 17.863 16.347C18.0506 16.5347 18.3051 16.6402 18.5705 16.6402C18.8359 16.6402 19.0904 16.5347 19.278 16.347C23.5722 12.0515 23.5722 5.08846 19.278 0.792958C18.8875 0.402217 18.2542 0.401993 17.8635 0.792458C17.4728 1.18292 17.4725 1.81622 17.863 2.20696C21.3764 5.72146 21.3764 11.4185 17.863 14.933ZM5.149 12.57L9.875 16.347V16.351C10.052 16.4933 10.2729 16.5699 10.5 16.568C11.0509 16.5647 11.4967 16.1189 11.5 15.568V1.56796C11.4967 1.01704 11.0509 0.571235 10.5 0.567958C10.2724 0.567118 10.0515 0.64522 9.875 0.788958L5.15 4.56996H1.5C0.947715 4.56996 0.5 5.01767 0.5 5.56996V11.57C0.5 12.1222 0.947715 12.57 1.5 12.57H5.149ZM2.5 10.57H5.5C5.72716 10.5699 5.94759 10.6471 6.125 10.789L9.5 13.49V3.65096L6.125 6.35096C5.94759 6.49283 5.72716 6.57007 5.5 6.56996H2.5V10.57ZM14.0397 12.0995C14.0397 12.3649 14.1452 12.6194 14.333 12.807V12.805C14.7235 13.1953 15.3565 13.1953 15.747 12.805C18.0886 10.4621 18.0886 6.66484 15.747 4.32196C15.4959 4.062 15.1241 3.95775 14.7745 4.04926C14.4249 4.14078 14.1518 4.41382 14.0603 4.76345C13.9688 5.11308 14.073 5.48488 14.333 5.73596C15.8945 7.29796 15.8945 9.82996 14.333 11.392C14.1452 11.5795 14.0397 11.834 14.0397 12.0995Z" fill="#333333"/>
<mask id="mask0_0_13594" style="mask-type:alpha" maskUnits="userSpaceOnUse" x="0" y="0" width="23" height="17">
<path fill-rule="evenodd" clip-rule="evenodd" d="M17.863 16.347C17.4726 15.9565 17.4726 15.3235 17.863 14.933C21.3764 11.4185 21.3764 5.72146 17.863 2.20696C17.4725 1.81622 17.4728 1.18292 17.8635 0.792458C18.2542 0.401993 18.8875 0.402217 19.278 0.792958C23.5722 5.08846 23.5722 12.0515 19.278 16.347C19.0904 16.5347 18.8359 16.6402 18.5705 16.6402C18.3051 16.6402 18.0506 16.5347 17.863 16.347ZM9.875 16.347L5.149 12.57H1.5C0.947715 12.57 0.5 12.1222 0.5 11.57V5.56996C0.5 5.01767 0.947715 4.56996 1.5 4.56996H5.15L9.875 0.788958C10.0515 0.64522 10.2724 0.567118 10.5 0.567958C11.0509 0.571235 11.4967 1.01704 11.5 1.56796V15.568C11.4967 16.1189 11.0509 16.5647 10.5 16.568C10.2729 16.5699 10.052 16.4933 9.875 16.351V16.347ZM2.5 10.57H5.5C5.72716 10.5699 5.94759 10.6471 6.125 10.789L9.5 13.49V3.65096L6.125 6.35096C5.94759 6.49283 5.72716 6.57006 5.5 6.56996H2.5V10.57ZM14.333 12.807C14.1452 12.6194 14.0397 12.3649 14.0397 12.0995C14.0397 11.834 14.1452 11.5795 14.333 11.392C15.8945 9.82996 15.8945 7.29796 14.333 5.73596C14.073 5.48488 13.9688 5.11308 14.0603 4.76345C14.1518 4.41382 14.4249 4.14078 14.7745 4.04926C15.1241 3.95775 15.4959 4.062 15.747 4.32196C18.0886 6.66484 18.0886 10.4621 15.747 12.805C15.3565 13.1953 14.7235 13.1953 14.333 12.805V12.807Z" fill="white"/>
</mask>
<g mask="url(#mask0_0_13594)">
<rect x="-0.5" y="-3.5" width="24" height="24" fill="#333333"/>
</g>
</svg>
