<svg width="24" height="17" viewBox="0 0 24 17" fill="none" xmlns="http://www.w3.org/2000/svg">
<path fill-rule="evenodd" clip-rule="evenodd" d="M10.5 16.5C10.2741 16.4994 10.0553 16.4214 9.88 16.279L5.149 12.5H1.5C0.947715 12.5 0.5 12.0523 0.5 11.5V5.50001C0.5 4.94773 0.947715 4.50001 1.5 4.50001H5.149L9.875 0.721011C10.0515 0.577345 10.2724 0.499253 10.5 0.500011C11.0523 0.500011 11.5 0.947726 11.5 1.50001V15.5C11.5 16.0523 11.0523 16.5 10.5 16.5ZM2.5 6.50001V10.5H5.5C5.72728 10.5002 5.94772 10.5778 6.125 10.72L9.5 13.421V3.58201L6.125 6.28201C5.94745 6.42352 5.72704 6.5004 5.5 6.50001H2.5ZM15.5763 11.8827C15.7311 12.2563 16.0956 12.4999 16.5 12.5C16.7651 12.5015 17.0197 12.3967 17.207 12.209L19.5 9.91601L21.793 12.214C22.1854 12.593 22.8091 12.5876 23.1948 12.2018C23.5806 11.8161 23.586 11.1924 23.207 10.8L20.914 8.50001L23.207 6.20901C23.586 5.81663 23.5806 5.19293 23.1948 4.80719C22.8091 4.42146 22.1854 4.41604 21.793 4.79501L19.5 7.08801L17.207 4.79501C16.9559 4.53505 16.5841 4.4308 16.2345 4.52231C15.8849 4.61383 15.6118 4.88687 15.5203 5.2365C15.4288 5.58613 15.533 5.95794 15.793 6.20901L18.086 8.50001L15.793 10.793C15.5071 11.079 15.4216 11.509 15.5763 11.8827Z" fill="#333333"/>
<mask id="mask0_0_13636" style="mask-type:alpha" maskUnits="userSpaceOnUse" x="0" y="0" width="24" height="17">
<path fill-rule="evenodd" clip-rule="evenodd" d="M10.5 16.5C10.2741 16.4994 10.0553 16.4214 9.88 16.279L5.149 12.5H1.5C0.947715 12.5 0.5 12.0523 0.5 11.5V5.50001C0.5 4.94773 0.947715 4.50001 1.5 4.50001H5.149L9.875 0.721011C10.0515 0.577345 10.2724 0.499253 10.5 0.500011C11.0523 0.500011 11.5 0.947726 11.5 1.50001V15.5C11.5 16.0523 11.0523 16.5 10.5 16.5ZM2.5 6.50001V10.5H5.5C5.72728 10.5002 5.94772 10.5778 6.125 10.72L9.5 13.421V3.58201L6.125 6.28201C5.94745 6.42352 5.72704 6.5004 5.5 6.50001H2.5ZM16.5 12.5C16.0956 12.4999 15.7311 12.2563 15.5763 11.8827C15.4216 11.509 15.5071 11.079 15.793 10.793L18.086 8.50001L15.793 6.20901C15.533 5.95794 15.4288 5.58613 15.5203 5.2365C15.6118 4.88687 15.8849 4.61383 16.2345 4.52231C16.5841 4.4308 16.9559 4.53505 17.207 4.79501L19.5 7.08801L21.793 4.79501C22.1854 4.41604 22.8091 4.42146 23.1948 4.80719C23.5806 5.19293 23.586 5.81663 23.207 6.20901L20.914 8.50001L23.207 10.8C23.586 11.1924 23.5806 11.8161 23.1948 12.2018C22.8091 12.5876 22.1854 12.593 21.793 12.214L19.5 9.91601L17.207 12.209C17.0197 12.3967 16.7651 12.5015 16.5 12.5Z" fill="white"/>
</mask>
<g mask="url(#mask0_0_13636)">
<rect x="-0.5" y="-3.5" width="24" height="24" fill="#333333"/>
</g>
</svg>
