<svg width="12" height="17" viewBox="0 0 12 17" fill="none" xmlns="http://www.w3.org/2000/svg">
<path d="M9.875 16.28L5.149 12.498H1.5C0.947715 12.498 0.5 12.0503 0.5 11.498V5.49802C0.5 4.94573 0.947715 4.49802 1.5 4.49802H5.15L9.875 0.71902C10.1749 0.478905 10.5858 0.431829 10.9323 0.597904C11.2787 0.763978 11.4994 1.11384 11.5 1.49802V15.498C11.5 16.0503 11.0523 16.498 10.5 16.498C10.2728 16.4996 10.0519 16.4226 9.875 16.28Z" fill="#333333"/>
<mask id="mask0_0_12815" style="mask-type:alpha" maskUnits="userSpaceOnUse" x="0" y="0" width="12" height="17">
<path fill-rule="evenodd" clip-rule="evenodd" d="M9.875 16.28L5.149 12.498H1.5C0.947715 12.498 0.5 12.0503 0.5 11.498V5.49802C0.5 4.94573 0.947715 4.49802 1.5 4.49802H5.15L9.875 0.71902C10.1749 0.478905 10.5858 0.431829 10.9323 0.597904C11.2787 0.763978 11.4994 1.11384 11.5 1.49802V15.498C11.5 16.0503 11.0523 16.498 10.5 16.498C10.2728 16.4996 10.0519 16.4226 9.875 16.28Z" fill="white"/>
</mask>
<g mask="url(#mask0_0_12815)">
<rect x="-6.5" y="-3.5" width="24" height="24" fill="#333333"/>
</g>
</svg>
