<svg width="18" height="17" viewBox="0 0 18 17" fill="none" xmlns="http://www.w3.org/2000/svg">
<path fill-rule="evenodd" clip-rule="evenodd" d="M10.5 16.498C10.2741 16.4974 10.0553 16.4194 9.88 16.277L5.149 12.498H1.5C0.947715 12.498 0.5 12.0503 0.5 11.498V5.498C0.5 4.94571 0.947715 4.498 1.5 4.498H5.149L9.875 0.718997C10.0515 0.575331 10.2724 0.497239 10.5 0.497997C11.0523 0.497997 11.5 0.945712 11.5 1.498V15.498C11.5 16.0503 11.0523 16.498 10.5 16.498ZM2.5 6.498V10.498H5.5C5.72728 10.4982 5.94772 10.5758 6.125 10.718L9.5 13.419V3.58L6.125 6.28C5.94745 6.42151 5.72704 6.49839 5.5 6.498H2.5ZM14.1184 12.4108C14.2731 12.784 14.637 13.0275 15.041 13.028L15.04 13.03C15.3059 13.0308 15.5609 12.9249 15.748 12.736C18.0864 10.3914 18.0864 6.59659 15.748 4.252C15.4969 3.99204 15.1251 3.88778 14.7755 3.9793C14.4259 4.07081 14.1528 4.34386 14.0613 4.69349C13.9698 5.04312 14.074 5.41492 14.334 5.666C15.8922 7.22936 15.8922 9.75863 14.334 11.322C14.0488 11.6081 13.9637 12.0377 14.1184 12.4108Z" fill="#333333"/>
<mask id="mask0_0_13146" style="mask-type:alpha" maskUnits="userSpaceOnUse" x="0" y="0" width="18" height="17">
<path fill-rule="evenodd" clip-rule="evenodd" d="M10.5 16.498C10.2741 16.4974 10.0553 16.4194 9.88 16.277L5.149 12.498H1.5C0.947715 12.498 0.5 12.0503 0.5 11.498V5.498C0.5 4.94571 0.947715 4.498 1.5 4.498H5.149L9.875 0.718997C10.0515 0.575331 10.2724 0.497239 10.5 0.497997C11.0523 0.497997 11.5 0.945712 11.5 1.498V15.498C11.5 16.0503 11.0523 16.498 10.5 16.498ZM2.5 6.498V10.498H5.5C5.72728 10.4982 5.94772 10.5758 6.125 10.718L9.5 13.419V3.58L6.125 6.28C5.94745 6.42151 5.72704 6.49839 5.5 6.498H2.5ZM15.041 13.028C14.637 13.0275 14.2731 12.784 14.1184 12.4108C13.9637 12.0377 14.0488 11.6081 14.334 11.322C15.8922 9.75863 15.8922 7.22936 14.334 5.666C14.074 5.41492 13.9698 5.04312 14.0613 4.69349C14.1528 4.34386 14.4259 4.07081 14.7755 3.9793C15.1251 3.88778 15.4969 3.99204 15.748 4.252C18.0864 6.59659 18.0864 10.3914 15.748 12.736C15.5609 12.9249 15.3059 13.0308 15.04 13.03L15.041 13.028Z" fill="white"/>
</mask>
<g mask="url(#mask0_0_13146)">
<rect x="-2.5" y="-3.5" width="24" height="24" fill="#333333"/>
</g>
</svg>
