<svg width="17" height="25" viewBox="0 0 17 25" fill="none" xmlns="http://www.w3.org/2000/svg">
<path fill-rule="evenodd" clip-rule="evenodd" d="M10.6601 24.5H6.33405C4.77716 24.5064 3.47416 23.3206 3.33405 21.7701L3.01905 18.3211C1.41037 16.8095 0.4989 14.6996 0.500984 12.4922C0.503067 10.2847 1.41851 8.17659 3.03005 6.66805L3.34405 3.23005C3.48369 1.68482 4.77852 0.500995 6.33005 0.500051H10.6761C12.2326 0.493688 13.5355 1.67886 13.6761 3.22905L13.9921 6.68805C15.5964 8.2009 16.504 10.3097 16.4998 12.5148C16.4957 14.7199 15.5801 16.8253 13.9701 18.3321L13.6561 21.7701C13.5165 23.3145 12.2228 24.4981 10.6721 24.5H10.6601ZM10.6601 22.5C11.1794 22.5021 11.6138 22.1063 11.6601 21.5891L11.8261 19.7731C9.70861 20.7451 7.27249 20.7451 5.15505 19.7731L5.32105 21.594C5.36775 22.1109 5.80209 22.5062 6.32105 22.5041L10.6601 22.5ZM5.96165 17.9364C3.84987 16.9504 2.50014 14.8307 2.50005 12.5001C2.4999 9.7228 4.40574 7.3084 7.10712 6.66365C9.80849 6.01889 12.5993 7.31231 13.8534 9.79026C15.1076 12.2682 14.4972 15.283 12.3781 17.0781L12.3521 17.1C10.5651 18.5963 8.07343 18.9224 5.96165 17.9364ZM11.8511 5.23605L11.6841 3.41005C11.6373 2.89319 11.203 2.49795 10.6841 2.50005H6.33105C5.81174 2.49799 5.37727 2.89379 5.33105 3.41105L5.17005 5.22605C7.29177 4.25413 9.73225 4.25779 11.8511 5.23605ZM7.79305 13.2071L9.29305 14.7071V14.7081C9.54582 14.9606 9.91413 15.0592 10.2593 14.9666C10.6044 14.874 10.8739 14.6043 10.9663 14.2591C11.0586 13.9139 10.9598 13.5456 10.7071 13.2931L9.50005 12.0861V9.50005C9.50005 8.94777 9.05234 8.50005 8.50005 8.50005C7.94777 8.50005 7.50005 8.94777 7.50005 9.50005V12.5001C7.50011 12.7652 7.6055 13.0196 7.79305 13.2071Z" fill="#333333"/>
<mask id="mask0_0_14187" style="mask-type:alpha" maskUnits="userSpaceOnUse" x="0" y="0" width="17" height="25">
<path fill-rule="evenodd" clip-rule="evenodd" d="M10.6601 24.5001H6.33405C4.77716 24.5064 3.47416 23.3206 3.33405 21.7701L3.01905 18.3211C1.41037 16.8095 0.4989 14.6996 0.500984 12.4922C0.503067 10.2847 1.41851 8.17659 3.03005 6.66805L3.34405 3.23005C3.48369 1.68482 4.77852 0.500995 6.33005 0.500051H10.6761C12.2326 0.493688 13.5355 1.67886 13.6761 3.22905L13.9921 6.68805C15.5964 8.2009 16.504 10.3097 16.4998 12.5148C16.4957 14.7199 15.5801 16.8253 13.9701 18.3321L13.6561 21.7701C13.5165 23.3145 12.2228 24.4981 10.6721 24.5001H10.6601ZM10.6601 22.5001C11.1794 22.5021 11.6138 22.1063 11.6601 21.5891L11.8261 19.7731C9.70861 20.7451 7.27249 20.7451 5.15505 19.7731L5.32105 21.5941C5.36775 22.1109 5.80209 22.5062 6.32105 22.5041L10.6601 22.5001ZM2.50005 12.5001C2.50014 14.8307 3.84987 16.9504 5.96165 17.9364C8.07343 18.9224 10.5651 18.5963 12.3521 17.1001L12.3781 17.0781C14.4972 15.283 15.1076 12.2682 13.8534 9.79026C12.5993 7.31231 9.80849 6.01889 7.10712 6.66365C4.40574 7.3084 2.4999 9.7228 2.50005 12.5001ZM11.8511 5.23605L11.6841 3.41005C11.6373 2.89319 11.203 2.49795 10.6841 2.50005H6.33105C5.81173 2.49799 5.37727 2.89379 5.33105 3.41105L5.17005 5.22605C7.29177 4.25413 9.73225 4.25779 11.8511 5.23605V5.23605ZM9.29305 14.7071L7.79305 13.2071C7.6055 13.0196 7.50011 12.7652 7.50005 12.5001V9.50005C7.50005 8.94777 7.94777 8.50005 8.50005 8.50005C9.05234 8.50005 9.50005 8.94777 9.50005 9.50005V12.0861L10.7071 13.2931C10.9598 13.5456 11.0586 13.9139 10.9663 14.2591C10.8739 14.6043 10.6044 14.874 10.2593 14.9666C9.91413 15.0592 9.54582 14.9606 9.29305 14.7081V14.7071Z" fill="white"/>
</mask>
<g mask="url(#mask0_0_14187)">
<rect x="-3.5" y="0.5" width="24" height="24" fill="#333333"/>
</g>
</svg>
