<svg width="24" height="14" viewBox="0 0 24 14" fill="none" xmlns="http://www.w3.org/2000/svg">
<path fill-rule="evenodd" clip-rule="evenodd" d="M2.16106 6.25096C7.83115 1.24869 16.338 1.24869 22.0081 6.25096C22.276 6.48729 22.6497 6.56272 22.9883 6.44884C23.327 6.33495 23.5791 6.04905 23.6498 5.69884C23.7205 5.34862 23.599 4.98729 23.3311 4.75096C16.905 -0.918126 7.26411 -0.918126 0.838065 4.75096C0.423851 5.1163 0.384229 5.74825 0.749565 6.16246C1.1149 6.57667 1.74685 6.6163 2.16106 6.25096ZM18.5301 9.81996C14.8223 6.73163 9.43788 6.73163 5.73006 9.81996C5.30563 10.1734 4.67503 10.1159 4.32156 9.69146C3.9681 9.26703 4.02563 8.63642 4.45007 8.28296C8.89944 4.57696 15.3607 4.57696 19.8101 8.28296C20.2345 8.63642 20.292 9.26703 19.9386 9.69146C19.5851 10.1159 18.9545 10.1734 18.5301 9.81996ZM14.9811 13.427C13.247 12.1949 10.9232 12.1949 9.18906 13.427C8.89954 13.6578 8.50615 13.7098 8.1666 13.562C7.82706 13.4143 7.59696 13.091 7.56856 12.7218C7.54016 12.3526 7.71811 11.9979 8.03106 11.8C10.4586 10.0754 13.7115 10.0754 16.1391 11.8C16.4396 12.0032 16.6065 12.3532 16.5752 12.7146C16.5439 13.076 16.3193 13.3922 15.9883 13.5407C15.6573 13.6892 15.2719 13.6468 14.9811 13.43V13.427Z" fill="#333333"/>
<mask id="mask0_0_12056" style="mask-type:alpha" maskUnits="userSpaceOnUse" x="0" y="0" width="24" height="14">
<path fill-rule="evenodd" clip-rule="evenodd" d="M14.9811 13.427C13.247 12.1949 10.9232 12.1949 9.18906 13.427C8.89954 13.6578 8.50615 13.7098 8.1666 13.562C7.82706 13.4143 7.59696 13.091 7.56856 12.7218C7.54016 12.3526 7.71811 11.9979 8.03106 11.8C10.4586 10.0754 13.7115 10.0754 16.1391 11.8C16.4396 12.0032 16.6065 12.3532 16.5752 12.7146C16.5439 13.076 16.3193 13.3922 15.9883 13.5407C15.6573 13.6892 15.2719 13.6468 14.9811 13.43V13.427ZM18.5301 9.81996C14.8223 6.73163 9.43788 6.73163 5.73006 9.81996C5.30563 10.1734 4.67503 10.1159 4.32157 9.69146C3.9681 9.26703 4.02563 8.63642 4.45007 8.28296C8.89944 4.57696 15.3607 4.57696 19.8101 8.28296C20.2345 8.63642 20.292 9.26703 19.9386 9.69146C19.5851 10.1159 18.9545 10.1734 18.5301 9.81996ZM22.0081 6.25096C16.338 1.24869 7.83115 1.24869 2.16106 6.25096C1.74685 6.6163 1.1149 6.57667 0.749565 6.16246C0.384229 5.74825 0.423851 5.1163 0.838065 4.75096C7.26411 -0.918126 16.905 -0.918126 23.3311 4.75096C23.599 4.98729 23.7205 5.34862 23.6498 5.69884C23.5791 6.04905 23.327 6.33495 22.9883 6.44884C22.6497 6.56272 22.276 6.48729 22.0081 6.25096Z" fill="white"/>
</mask>
<g mask="url(#mask0_0_12056)">
<rect x="0.500122" y="-4.50006" width="24" height="24" fill="#333333"/>
</g>
</svg>
