<svg width="23" height="19" viewBox="0 0 23 19" fill="none" xmlns="http://www.w3.org/2000/svg">
<path fill-rule="evenodd" clip-rule="evenodd" d="M1.5 6.50007H10.5H10.512C11.8704 6.49809 13.0579 5.58362 13.4069 4.27084C13.7559 2.95805 13.1793 1.57458 12.0012 0.898301C10.8231 0.222018 9.33766 0.421699 8.38 1.38507C8.12723 1.63873 8.02899 2.00797 8.12229 2.3537C8.21558 2.69943 8.48623 2.96913 8.83229 3.0612C9.17834 3.15327 9.54723 3.05373 9.8 2.80007C10.1189 2.47477 10.6174 2.40616 11.0124 2.6332C11.4074 2.86024 11.599 3.32553 11.4784 3.76485C11.3578 4.20417 10.9555 4.50647 10.5 4.50007H1.5C0.947715 4.50007 0.5 4.94778 0.5 5.50007C0.5 6.05235 0.947715 6.50007 1.5 6.50007ZM1.5 10.5001C0.947715 10.5001 0.5 10.0524 0.5 9.50007C0.5 8.94779 0.947715 8.50007 1.5 8.50007H19C19.6783 8.49886 20.2714 8.04255 20.4465 7.38718C20.6216 6.73182 20.335 6.04054 19.7476 5.70122C19.1603 5.3619 18.4183 5.45902 17.938 5.93807C17.6851 6.19048 17.3167 6.28877 16.9716 6.19592C16.6265 6.10307 16.3572 5.83318 16.2651 5.48792C16.173 5.14266 16.2721 4.77448 16.525 4.52207C17.6459 3.40402 19.3777 3.1776 20.7484 3.96992C22.119 4.76223 22.7871 6.37596 22.3777 7.90526C21.9682 9.43457 20.5832 10.4986 19 10.5001H1.5ZM11.381 17.6151C11.1282 17.3616 11.0299 16.9925 11.123 16.6469C11.2162 16.3012 11.4866 16.0315 11.8325 15.9394C12.1784 15.8472 12.5472 15.9466 12.8 16.2001C13.1189 16.5254 13.6174 16.594 14.0124 16.3669C14.4074 16.1399 14.599 15.6746 14.4784 15.2353C14.3578 14.796 13.9555 14.4937 13.5 14.5001H1.5C0.947715 14.5001 0.5 14.0524 0.5 13.5001C0.5 12.9478 0.947715 12.5001 1.5 12.5001H13.5C14.8602 12.4948 16.0537 13.4053 16.408 14.7185C16.7624 16.0317 16.1888 17.419 15.0106 18.0987C13.8324 18.7783 12.3444 18.5803 11.385 17.6161L11.381 17.6151Z" fill="#333333"/>
<mask id="mask0_0_13707" style="mask-type:alpha" maskUnits="userSpaceOnUse" x="0" y="0" width="23" height="19">
<path fill-rule="evenodd" clip-rule="evenodd" d="M11.381 17.6151C11.1282 17.3616 11.0299 16.9925 11.123 16.6469C11.2162 16.3012 11.4866 16.0315 11.8325 15.9394C12.1784 15.8472 12.5472 15.9466 12.8 16.2001C13.1189 16.5254 13.6174 16.594 14.0124 16.3669C14.4074 16.1399 14.599 15.6746 14.4784 15.2353C14.3578 14.796 13.9555 14.4937 13.5 14.5001H1.5C0.947715 14.5001 0.5 14.0524 0.5 13.5001C0.5 12.9478 0.947715 12.5001 1.5 12.5001H13.5C14.8602 12.4948 16.0537 13.4053 16.408 14.7185C16.7624 16.0317 16.1888 17.419 15.0106 18.0987C13.8324 18.7783 12.3444 18.5803 11.385 17.6161L11.381 17.6151ZM1.5 10.5001C0.947715 10.5001 0.5 10.0524 0.5 9.50007C0.5 8.94779 0.947715 8.50007 1.5 8.50007H19C19.6783 8.49886 20.2714 8.04255 20.4465 7.38718C20.6216 6.73182 20.335 6.04054 19.7476 5.70122C19.1603 5.3619 18.4183 5.45902 17.938 5.93807C17.6851 6.19048 17.3167 6.28877 16.9716 6.19592C16.6265 6.10306 16.3572 5.83318 16.2651 5.48792C16.173 5.14266 16.2721 4.77448 16.525 4.52207C17.6459 3.40402 19.3777 3.1776 20.7484 3.96992C22.119 4.76223 22.7871 6.37596 22.3777 7.90527C21.9682 9.43457 20.5832 10.4986 19 10.5001H1.5ZM10.5 6.50007H1.5C0.947715 6.50007 0.5 6.05235 0.5 5.50007C0.5 4.94778 0.947715 4.50007 1.5 4.50007H10.5C10.9555 4.50647 11.3578 4.20418 11.4784 3.76485C11.599 3.32553 11.4074 2.86024 11.0124 2.6332C10.6174 2.40616 10.1189 2.47477 9.8 2.80007C9.54723 3.05373 9.17834 3.15327 8.83229 3.0612C8.48623 2.96913 8.21558 2.69943 8.12229 2.3537C8.02899 2.00797 8.12723 1.63873 8.38 1.38507C9.33766 0.421699 10.8231 0.222018 12.0012 0.898301C13.1793 1.57458 13.7559 2.95805 13.4069 4.27084C13.0579 5.58362 11.8704 6.49809 10.512 6.50007H10.5Z" fill="white"/>
</mask>
<g mask="url(#mask0_0_13707)">
<rect x="-0.5" y="-2.49988" width="24" height="24" fill="#333333"/>
</g>
</svg>
