<svg width="15" height="15" viewBox="0 0 15 15" fill="none" xmlns="http://www.w3.org/2000/svg">
<path d="M12.7929 14.207L7.49992 8.91401L2.20692 14.207C1.81454 14.586 1.19083 14.5806 0.8051 14.1948C0.419367 13.8091 0.413947 13.1854 0.792919 12.793L6.08592 7.50001L0.792919 2.20701C0.413947 1.81463 0.419367 1.19092 0.8051 0.805189C1.19083 0.419455 1.81454 0.414036 2.20692 0.793008L7.49992 6.08601L12.7929 0.793008C13.1837 0.402542 13.817 0.402766 14.2074 0.793508C14.5979 1.18425 14.5977 1.81754 14.2069 2.20801L8.91392 7.50001L14.2069 12.793C14.4669 13.0441 14.5711 13.4159 14.4796 13.7655C14.3881 14.1151 14.1151 14.3882 13.7654 14.4797C13.4158 14.5712 13.044 14.467 12.7929 14.207Z" fill="#333333"/>
<mask id="mask0_0_12837" style="mask-type:alpha" maskUnits="userSpaceOnUse" x="0" y="0" width="15" height="15">
<path fill-rule="evenodd" clip-rule="evenodd" d="M12.7929 14.207L7.49992 8.91401L2.20692 14.207C1.81454 14.586 1.19083 14.5806 0.8051 14.1948C0.419367 13.8091 0.413947 13.1854 0.792919 12.793L6.08592 7.50001L0.792919 2.20701C0.413947 1.81463 0.419367 1.19092 0.8051 0.805189C1.19083 0.419455 1.81454 0.414036 2.20692 0.793008L7.49992 6.08601L12.7929 0.793008C13.1837 0.402542 13.817 0.402766 14.2074 0.793508C14.5979 1.18425 14.5977 1.81754 14.2069 2.20801L8.91392 7.50001L14.2069 12.793C14.4669 13.0441 14.5711 13.4159 14.4796 13.7655C14.3881 14.1151 14.1151 14.3882 13.7654 14.4797C13.4158 14.5712 13.044 14.467 12.7929 14.207Z" fill="white"/>
</mask>
<g mask="url(#mask0_0_12837)">
<rect x="-4.50012" y="-4.5" width="24" height="24" fill="#333333"/>
</g>
</svg>
