<svg width="23" height="23" viewBox="0 0 23 23" fill="none" xmlns="http://www.w3.org/2000/svg">
<path fill-rule="evenodd" clip-rule="evenodd" d="M3.72201 19.278C0.912076 16.5055 -0.19679 12.4399 0.816375 8.62462C1.82954 4.80937 4.80937 1.82954 8.62462 0.816375C12.4399 -0.19679 16.5055 0.912076 19.278 3.72201C22.0879 6.49453 23.1968 10.5601 22.1836 14.3754C21.1705 18.1906 18.1906 21.1705 14.3754 22.1836C10.5601 23.1968 6.49453 22.0879 3.72201 19.278ZM2.50001 11.5C2.50001 16.4706 6.52944 20.5 11.5 20.5C16.4706 20.5 20.5 16.4706 20.5 11.5C20.5 6.52944 16.4706 2.50001 11.5 2.50001C6.53173 2.50552 2.50552 6.53173 2.50001 11.5ZM11.5 12.914L13.793 15.207C14.0441 15.467 14.4159 15.5712 14.7655 15.4797C15.1151 15.3882 15.3882 15.1151 15.4797 14.7655C15.5712 14.4159 15.467 14.0441 15.207 13.793L12.914 11.5L15.207 9.20801C15.4598 8.95542 15.5586 8.58717 15.4662 8.24198C15.3739 7.89678 15.1043 7.62708 14.7592 7.53448C14.4141 7.44187 14.0458 7.54042 13.793 7.79301L11.5 10.086L9.20801 7.79301C8.81726 7.40226 8.18375 7.40226 7.79301 7.79301C7.40226 8.18375 7.40226 8.81726 7.79301 9.20801L10.086 11.5L7.79301 13.793C7.54042 14.0458 7.44187 14.4141 7.53448 14.7592C7.62708 15.1043 7.89678 15.3739 8.24198 15.4662C8.58717 15.5586 8.95542 15.4598 9.20801 15.207L11.5 12.914Z" fill="#333333"/>
<mask id="mask0_0_14496" style="mask-type:alpha" maskUnits="userSpaceOnUse" x="0" y="0" width="23" height="23">
<path fill-rule="evenodd" clip-rule="evenodd" d="M3.72201 19.278C0.912076 16.5055 -0.19679 12.4399 0.816375 8.62462C1.82954 4.80937 4.80937 1.82954 8.62462 0.816375C12.4399 -0.19679 16.5055 0.912076 19.278 3.72201C22.0879 6.49453 23.1968 10.5601 22.1836 14.3754C21.1705 18.1906 18.1906 21.1705 14.3754 22.1836C10.5601 23.1968 6.49453 22.0879 3.72201 19.278V19.278ZM2.50001 11.5C2.50001 16.4706 6.52944 20.5 11.5 20.5C16.4706 20.5 20.5 16.4706 20.5 11.5C20.5 6.52944 16.4706 2.50001 11.5 2.50001C6.53173 2.50552 2.50552 6.53173 2.50001 11.5ZM13.793 15.207L11.5 12.914L9.20801 15.207C8.95542 15.4598 8.58717 15.5586 8.24198 15.4662C7.89678 15.3739 7.62708 15.1043 7.53448 14.7592C7.44187 14.4141 7.54042 14.0458 7.79301 13.793L10.086 11.5L7.79301 9.20801C7.40226 8.81726 7.40226 8.18375 7.79301 7.79301C8.18375 7.40226 8.81726 7.40226 9.20801 7.79301L11.5 10.086L13.793 7.79301C14.0458 7.54042 14.4141 7.44187 14.7592 7.53448C15.1043 7.62708 15.3739 7.89678 15.4662 8.24198C15.5586 8.58717 15.4598 8.95542 15.207 9.20801L12.914 11.5L15.207 13.793C15.467 14.0441 15.5712 14.4159 15.4797 14.7655C15.3882 15.1151 15.1151 15.3882 14.7655 15.4797C14.4159 15.5712 14.0441 15.467 13.793 15.207V15.207Z" fill="white"/>
</mask>
<g mask="url(#mask0_0_14496)">
<rect x="-0.5" y="-0.5" width="24" height="24" fill="#333333"/>
</g>
</svg>
