<svg width="21" height="21" viewBox="0 0 21 21" fill="none" xmlns="http://www.w3.org/2000/svg">
<path d="M10.5 9.08598L8.20704 6.79298C7.81466 6.41401 7.19096 6.41943 6.80522 6.80517C6.41949 7.1909 6.41407 7.81461 6.79304 8.20698L9.08604 10.5L6.79304 12.793C6.41407 13.1854 6.41949 13.8091 6.80522 14.1948C7.19096 14.5805 7.81466 14.586 8.20704 14.207L10.5 11.914L12.793 14.207C13.1854 14.586 13.8091 14.5805 14.1949 14.1948C14.5806 13.8091 14.586 13.1854 14.207 12.793L11.914 10.5L14.207 8.20698C14.467 7.95591 14.5713 7.58411 14.4797 7.23448C14.3882 6.88485 14.1152 6.6118 13.7655 6.52029C13.4159 6.42877 13.0441 6.53303 12.793 6.79298L10.5 9.08598Z" fill="#333333"/>
<mask id="mask0_0_13226" style="mask-type:alpha" maskUnits="userSpaceOnUse" x="0" y="0" width="21" height="21">
<path fill-rule="evenodd" clip-rule="evenodd" d="M17.5 20.5H3.5C1.84315 20.5 0.5 19.1569 0.5 17.5V3.5C0.5 1.84315 1.84315 0.5 3.5 0.5H17.5C19.1569 0.5 20.5 1.84315 20.5 3.5V17.5C20.5 19.1569 19.1569 20.5 17.5 20.5ZM3.5 2.5C2.94772 2.5 2.5 2.94772 2.5 3.5V17.5C2.5 18.0523 2.94772 18.5 3.5 18.5H17.5C18.0523 18.5 18.5 18.0523 18.5 17.5V3.5C18.5 2.94772 18.0523 2.5 17.5 2.5H3.5ZM13.5 14.5C13.2347 14.5006 12.9801 14.3951 12.793 14.207L10.5 11.915L8.207 14.207C7.81462 14.586 7.19092 14.5806 6.80518 14.1948C6.41945 13.8091 6.41403 13.1854 6.793 12.793L9.086 10.5L6.793 8.207C6.53304 7.95593 6.42879 7.58412 6.5203 7.23449C6.61182 6.88486 6.88486 6.61182 7.23449 6.5203C7.58412 6.42879 7.95593 6.53304 8.207 6.793L10.5 9.086L12.793 6.793C13.1854 6.41403 13.8091 6.41945 14.1948 6.80518C14.5806 7.19092 14.586 7.81462 14.207 8.207L11.914 10.5L14.207 12.793C14.4929 13.079 14.5784 13.509 14.4237 13.8827C14.2689 14.2563 13.9044 14.4999 13.5 14.5Z" fill="white"/>
</mask>
<g mask="url(#mask0_0_13226)">
<rect x="-1.5" y="-1.5" width="24" height="24" fill="#333333"/>
</g>
</svg>
