<svg width="21" height="23" viewBox="0 0 21 23" fill="none" xmlns="http://www.w3.org/2000/svg">
<mask id="mask0_0_12286" style="mask-type:alpha" maskUnits="userSpaceOnUse" x="0" y="0" width="21" height="23">
<path fill-rule="evenodd" clip-rule="evenodd" d="M9.5119 22.507C9.21742 22.5055 8.93732 22.3794 8.7409 22.16C8.55382 21.9461 8.46912 21.6614 8.5089 21.38L9.36891 14.5H1.4989C1.111 14.4999 0.758171 14.2754 0.593662 13.9241C0.429153 13.5728 0.482645 13.1581 0.730905 12.86L10.7309 0.860006C10.9162 0.63162 11.1948 0.499287 11.4889 0.500006C11.7834 0.50165 12.0634 0.627689 12.2599 0.847006C12.4472 1.06079 12.5323 1.3455 12.4929 1.62701L11.6339 8.50001H19.4989C19.8874 8.49944 20.241 8.72391 20.4059 9.07567C20.5707 9.42744 20.5169 9.84284 20.2679 10.141L10.2679 22.141C10.0841 22.3709 9.80623 22.5054 9.5119 22.507ZM10.0859 4.76301L3.6359 12.5H10.4989C10.7859 12.4998 11.0591 12.6229 11.2491 12.8379C11.439 13.053 11.5275 13.3393 11.4919 13.624L10.9149 18.239L17.3659 10.5H10.4989C10.2131 10.4992 9.94122 10.3762 9.75201 10.162C9.5628 9.94772 9.47432 9.66274 9.5089 9.37901L10.0859 4.76301Z" fill="white"/>
</mask>
<g mask="url(#mask0_0_12286)">
<rect x="-1.50098" y="-0.5" width="24" height="24" fill="#333333"/>
</g>
</svg>
