<svg width="21" height="21" viewBox="0 0 21 21" fill="none" xmlns="http://www.w3.org/2000/svg">
<path fill-rule="evenodd" clip-rule="evenodd" d="M18.7919 20.207L15.1139 16.529C11.379 19.5136 5.96302 19.0608 2.77545 15.4974C-0.412116 11.9341 -0.26103 6.50137 3.11965 3.12069C6.50033 -0.259993 11.9331 -0.411078 15.4964 2.77649C19.0598 5.96405 19.5125 11.38 16.5279 15.115L20.2059 18.793C20.4587 19.0457 20.5574 19.4142 20.4649 19.7594C20.3724 20.1047 20.1027 20.3744 19.7574 20.4669C19.4121 20.5595 19.0437 20.4608 18.7909 20.208L18.7919 20.207ZM2.49995 9.49998C2.50164 12.3101 4.18365 14.8468 6.77151 15.9421C9.35937 17.0374 12.3514 16.479 14.3699 14.524C14.4155 14.4672 14.4672 14.4156 14.5239 14.37C16.7214 12.1051 17.1317 8.64998 15.5258 5.93346C13.9199 3.21694 10.695 1.91076 7.65136 2.74412C4.60771 3.57748 2.49798 6.34431 2.49995 9.49998ZM8.49995 10.5V12.5C8.49995 13.0523 8.94766 13.5 9.49995 13.5C10.0522 13.5 10.4999 13.0523 10.4999 12.5V10.5H12.4999C13.0522 10.5 13.4999 10.0523 13.4999 9.49998C13.4999 8.9477 13.0522 8.49998 12.4999 8.49998H10.4999V6.49998C10.4999 5.9477 10.0522 5.49998 9.49995 5.49998C8.94766 5.49998 8.49995 5.9477 8.49995 6.49998V8.49998H6.49995C5.94766 8.49998 5.49995 8.9477 5.49995 9.49998C5.49995 10.0523 5.94766 10.5 6.49995 10.5H8.49995Z" fill="#333333"/>
<mask id="mask0_0_13348" style="mask-type:alpha" maskUnits="userSpaceOnUse" x="0" y="0" width="21" height="21">
<path fill-rule="evenodd" clip-rule="evenodd" d="M18.7919 20.207L15.1139 16.529C11.379 19.5136 5.96302 19.0608 2.77545 15.4974C-0.412116 11.9341 -0.26103 6.50137 3.11965 3.12069C6.50033 -0.259993 11.9331 -0.411078 15.4964 2.77649C19.0598 5.96405 19.5125 11.38 16.5279 15.115L20.2059 18.793C20.4587 19.0457 20.5574 19.4142 20.4649 19.7594C20.3724 20.1047 20.1027 20.3744 19.7574 20.4669C19.4121 20.5595 19.0437 20.4608 18.7909 20.208L18.7919 20.207ZM2.49995 9.49998C2.50164 12.3101 4.18365 14.8468 6.77151 15.9421C9.35937 17.0374 12.3514 16.479 14.3699 14.524C14.4155 14.4672 14.4672 14.4156 14.5239 14.37C16.7214 12.1051 17.1317 8.64998 15.5258 5.93346C13.9199 3.21694 10.695 1.91076 7.65136 2.74412C4.60771 3.57748 2.49798 6.34431 2.49995 9.49998ZM8.49995 12.5V10.5H6.49995C5.94766 10.5 5.49995 10.0523 5.49995 9.49998C5.49995 8.9477 5.94766 8.49998 6.49995 8.49998H8.49995V6.49998C8.49995 5.9477 8.94766 5.49998 9.49995 5.49998C10.0522 5.49998 10.4999 5.9477 10.4999 6.49998V8.49998H12.4999C13.0522 8.49998 13.4999 8.9477 13.4999 9.49998C13.4999 10.0523 13.0522 10.5 12.4999 10.5H10.4999V12.5C10.4999 13.0523 10.0522 13.5 9.49995 13.5C8.94766 13.5 8.49995 13.0523 8.49995 12.5Z" fill="white"/>
</mask>
<g mask="url(#mask0_0_13348)">
<rect x="-1.5" y="-1.5" width="24" height="24" fill="#333333"/>
</g>
</svg>
